<svg xmlns="http://www.w3.org/2000/svg" width="24" height="24" viewBox="0 0 24 24">
  <path d="M0.246985506,12.9185714 L0.966985506,12.9185714 L0.246985506,12.9185714 C0.246985506,12.3922531 0.674573997,11.8112991 1.66202603,11.3640902 C3.01267489,10.7523923 5.33799676,10.4013526 8.90362159,10.4013526 C12.4686704,10.4013526 14.7744643,10.7413046 16.0951217,11.3351569 C17.0518183,11.765349 17.4724062,12.336334 17.4635865,12.8702748 L17.4635865,20.5880516 C17.675717,21.1999741 17.4895318,21.9002797 16.758998,22.4434164 C15.6492008,23.2685275 13.2897601,23.7170173 9.26965947,23.7170173 C5.27160338,23.7170173 2.76538126,23.2470948 1.41766203,22.4161517 C0.51739548,21.8610878 0.179085419,21.1691497 0.246985506,20.5593439 L0.246985506,12.9185714 Z M1.68698551,20.609539 L1.66808474,20.7734288 C1.67356237,20.7479628 1.67465509,20.7428827 1.67646842,20.730565 C1.67328312,20.7781925 1.74985803,20.929266 2.17340266,21.1904046 C3.24586288,21.8516353 5.51453857,22.2770173 9.26965947,22.2770173 C13.0027359,22.2770173 15.1074129,21.8769538 15.8998283,21.2878094 C16.0842844,21.1506702 16.1119654,21.1073865 16.1063346,21.0723074 L16.0235865,20.9372939 L16.0235865,20.7342085 L16.0246722,12.9779215 C15.948042,12.8896962 15.7853476,12.7747475 15.5045635,12.6484889 C14.4054416,12.1542533 12.2831293,11.8413526 8.90362159,11.8413526 C5.52468984,11.8413526 3.38565392,12.1642699 2.256104,12.6758338 C1.94907024,12.8148869 1.77114521,12.9431946 1.68698551,13.0440349 L1.68698551,20.609539 Z M16.024694,12.8223745 C16.0242028,12.8320096 16.0242028,12.8320096 16.0238979,12.8413379 C16.0233122,12.8621853 16.0236839,12.8812527 16.0246833,12.898403 L16.024694,12.8223745 Z M16.1049302,21.0658485 C16.1043654,21.0637579 16.1037058,21.0616779 16.1029792,21.0595894 C16.1032826,21.0604614 16.1036238,21.0613875 16.1040059,21.0623708 L16.1049302,21.0658485 Z M13.8394346,6.65044147 C14.0819439,6.86193557 14.2353155,7.1737453 14.2353155,7.52060447 L14.2353155,12.0998161 C14.2353155,12.7361269 13.7260918,13.2519588 13.088066,13.2519588 C12.4544576,13.2519588 11.9408165,12.7345777 11.9408165,12.0998161 L11.9408165,7.52060447 C11.9408165,7.24893367 12.0336396,6.99922419 12.1896793,6.80224452 C12.0736677,6.66659119 11.9520294,6.50026378 11.8330626,6.30184585 C11.4488794,5.66108841 11.2208165,4.8744203 11.2208165,3.94624175 C11.2208165,3.00549486 11.4522263,2.25369829 11.8496613,1.68659259 C12.1084106,1.31737943 12.3853064,1.09042726 12.6075978,0.975727534 L12.8789874,0.835693728 L13.1682962,0.933480054 C13.4201731,1.01861441 13.724177,1.22268265 13.9993331,1.59078798 C14.4003083,2.12721505 14.6275299,2.8855484 14.6275299,3.88254124 C14.6275299,4.85358837 14.4186003,5.65688449 14.0631193,6.29587459 C13.9893772,6.42842887 13.9140718,6.54642896 13.8394346,6.65044147 Z M7.92846691,6.14667338 C7.81245531,6.01102006 7.69081699,5.84469264 7.57185024,5.64627472 C7.18766706,5.00551728 6.95960412,4.21884916 6.95960412,3.29067062 C6.95960412,2.34992373 7.19101395,1.59812715 7.58844893,1.03102145 C7.84719826,0.6618083 8.12409406,0.434856128 8.34638544,0.3201564 L8.61777501,0.180122594 L8.90708383,0.27790892 C9.15896077,0.363043277 9.46296467,0.567111516 9.73812069,0.935216844 C10.139096,1.47164391 10.3663175,2.22997726 10.3663175,3.2269701 C10.3663175,4.19801724 10.1573879,5.00131336 9.80190696,5.64030346 C9.72816479,5.77285774 9.65285943,5.89085783 9.57822225,5.99487034 C9.82073152,6.20636443 9.97410309,6.51817416 9.97410309,6.86503334 L9.97410309,11.444245 C9.97410309,12.0805558 9.4648794,12.5963876 8.82685361,12.5963876 C8.19324521,12.5963876 7.67960412,12.0790066 7.67960412,11.444245 L7.67960412,6.86503334 C7.67960412,6.59336253 7.7724272,6.34365306 7.92846691,6.14667338 Z M3.66725454,6.80224452 C3.55124294,6.66659119 3.42960462,6.50026378 3.31063787,6.30184585 C2.92645469,5.66108841 2.69839175,4.8744203 2.69839175,3.94624175 C2.69839175,3.00549486 2.92980158,2.25369829 3.32723656,1.68659259 C3.58598589,1.31737943 3.86288169,1.09042726 4.08517307,0.975727534 L4.35656263,0.835693728 L4.64587146,0.933480054 C4.8977484,1.01861441 5.2017523,1.22268265 5.47690831,1.59078798 C5.87788359,2.12721505 6.10510515,2.8855484 6.10510515,3.88254124 C6.10510515,4.85358837 5.89617551,5.65688449 5.54069459,6.29587459 C5.46695242,6.42842887 5.39164706,6.54642896 5.31700988,6.65044147 C5.55951915,6.86193557 5.71289072,7.1737453 5.71289072,7.52060447 L5.71289072,12.0998161 C5.71289072,12.7361269 5.20366703,13.2519588 4.56564124,13.2519588 C3.93203284,13.2519588 3.41839175,12.7345777 3.41839175,12.0998161 L3.41839175,7.52060447 C3.41839175,7.24893367 3.51121483,6.99922419 3.66725454,6.80224452 Z M1.67781076,20.7218083 C1.67741693,20.7239765 1.6769203,20.7274955 1.67646842,20.730565 L1.67781076,20.7218083 Z M4.13839175,3.94624175 C4.13839175,4.4853445 4.24098233,4.93866817 4.41606325,5.3164556 C4.57271724,4.93292066 4.66510515,4.45932054 4.66510515,3.88254124 C4.66510515,3.31551505 4.57552181,2.90895967 4.43239959,2.62910863 C4.25010833,2.9433011 4.13839175,3.37193673 4.13839175,3.94624175 Z M8.39960412,3.29067062 C8.39960412,3.82977337 8.5021947,4.28309704 8.67727562,4.66088447 C8.83392961,4.27734953 8.92631753,3.80374941 8.92631753,3.2269701 C8.92631753,2.65994391 8.83673418,2.25338854 8.69361197,1.97353749 C8.5113207,2.28772997 8.39960412,2.71636559 8.39960412,3.29067062 Z M12.6608165,3.94624175 C12.6608165,4.4853445 12.7634071,4.93866817 12.938488,5.3164556 C13.095142,4.93292066 13.1875299,4.45932054 13.1875299,3.88254124 C13.1875299,3.31551505 13.0979466,2.90895967 12.9548243,2.62910863 C12.7725331,2.9433011 12.6608165,3.37193673 12.6608165,3.94624175 Z M6.70431277,17.7211094 C6.75124884,17.6635057 6.80170225,17.5986864 6.86422439,17.5160921 C6.9012571,17.4671704 6.94975966,17.4023635 7.04071817,17.2808704 C7.72204207,16.3744252 8.16738986,15.9833103 8.93312784,15.9833103 C9.67690247,15.9833103 10.0477625,16.3521218 10.4850924,17.1343142 C10.5395906,17.2323545 10.5395906,17.2323545 10.5909323,17.3244286 C10.8630773,17.808879 10.9985963,17.9308175 11.2673196,17.9308175 C11.4375575,17.9308175 11.4960114,17.8540313 11.6880177,17.2799826 L11.6993772,17.2460018 C12.0689906,16.1402444 12.4327567,15.6459216 13.4145711,15.6459216 C14.2645834,15.6459216 14.7360915,15.9904585 15.2350634,16.6953836 C15.2756704,16.7529911 15.2756704,16.7529911 15.3130346,16.8061046 C15.5188251,17.0976693 15.568398,17.1368018 15.6786603,17.1368018 C15.8431905,17.1368018 15.9072037,17.0885648 15.9713713,16.9465459 C16.0271983,16.8229873 16.0497033,16.6824036 16.0506047,16.6189754 L17.4904593,16.6394375 C17.4869993,16.8829081 17.4358105,17.2026727 17.2836404,17.5394623 C17.0011465,18.1646906 16.4542529,18.5768018 15.6786603,18.5768018 C14.9692655,18.5768018 14.5876195,18.2755332 14.136563,17.6364747 C14.0968433,17.5800179 14.0968433,17.5800179 14.059713,17.5273399 C13.8031978,17.1649468 13.6950497,17.0859216 13.4145711,17.0859216 C13.296696,17.0859216 13.2499858,17.1493963 13.0650999,17.7025119 L13.0536522,17.7367566 C12.6802824,18.8530346 12.2861179,19.3708175 11.2673196,19.3708175 C10.3351028,19.3708175 9.83716175,18.9227755 9.3354669,18.0296993 C9.27946491,17.9292767 9.27946491,17.9292767 9.22820601,17.8370493 C9.02973637,17.4820737 8.97064661,17.4233103 8.93312784,17.4233103 C8.80803224,17.4233103 8.59338283,17.6118205 8.19180928,18.1460809 C8.10372156,18.2637502 8.05222706,18.3325548 8.01236673,18.3852119 C7.94034633,18.4803537 7.88003591,18.5578367 7.82065429,18.6307146 C7.3908039,19.158262 7.01107187,19.443641 6.47249536,19.443641 C5.77382287,19.443641 5.43636041,19.0606012 4.88526379,18.1148004 C4.83153357,18.0222441 4.83153357,18.0222441 4.77920938,17.9316461 C4.44543603,17.3543947 4.26181104,17.1387829 4.2651504,17.1388293 C4.12559503,17.1368914 3.91934325,17.2621567 3.49182396,17.6339583 C3.03837735,18.0283083 2.91120217,18.1303652 2.6537856,18.2708295 C2.40593798,18.4060723 2.15396088,18.4825314 1.8862183,18.4825314 C1.18822482,18.4825314 0.7404128,18.0264657 0.471386023,17.3700988 C0.340309565,17.0503007 0.273236075,16.7443028 0.245459916,16.520044 L1.67454008,16.3430415 C1.6879772,16.4515299 1.73030894,16.6446528 1.80380837,16.8239755 C1.87033128,16.9862769 1.91149029,17.0353059 1.892155,17.0417628 C1.89666042,17.0393591 1.92117892,17.0301562 1.96402936,17.006774 C2.08984243,16.9381217 2.18984237,16.8578726 2.54686038,16.547384 C3.24571269,15.9396115 3.65631458,15.6902359 4.28514496,15.6989681 C5.04877487,15.7095722 5.38825356,16.1081869 6.02582083,17.2108411 C6.07846337,17.301987 6.07846337,17.301987 6.12946055,17.3898352 C6.29755191,17.6783163 6.40524724,17.8425613 6.5015196,17.9521203 C6.54075573,17.9091501 6.61064613,17.8360648 6.70431277,17.7211094 Z" transform="translate(3)"/>
</svg>
