<svg xmlns="http://www.w3.org/2000/svg" width="24" height="24" viewBox="0 0 24 24">
  <path d="M11.0540953,19.8470448 L9.6516599,19.8470448 L9.6516599,18.5105435 L11.0540953,18.5105435 L11.0540953,17.1081081 L12.3905966,17.1081081 L12.3905966,18.5105435 L13.793032,18.5105435 L13.793032,19.8470448 L12.3905966,19.8470448 L12.3905966,21.2494802 L11.0540953,21.2494802 L11.0540953,19.8470448 Z M20.0148913,8.63558064 L15.2462545,14.3575884 L16.4651437,14.3575884 L16.4651437,24 L6.82273207,24 L6.82273207,14.3575884 L8.01667326,14.3575884 L3.17141042,8.54291654 C3.16517341,8.53578854 3.16428241,8.52598753 3.1580454,8.51796852 C3.04399729,8.37986338 2.98162723,8.2025542 3.00479325,8.01633502 C3.01548526,7.93614494 4.10963435,0 11.6537389,0 C19.1960614,0 20.3062486,7.91743392 20.3160496,7.997624 C20.3499076,8.25423225 20.2269495,8.4965845 20.0148913,8.63558064 Z M4.70125895,6.64508465 C5.1583424,6.45975646 5.70541695,6.32343332 6.32911757,6.32343332 C7.54800679,6.32343332 8.50850575,6.8972379 9.0573623,7.32759133 C9.58483483,6.90525691 10.5079118,6.36263736 11.778479,6.36263736 C13.0160793,6.36263736 13.8705491,6.88387288 14.3677276,7.31868132 C14.9067832,6.88921889 15.8227321,6.34838135 17.0220193,6.34838135 C17.6359189,6.34838135 18.1714104,6.47312147 18.6169109,6.64508465 C17.9459872,4.62785863 16.1604214,1.33561034 11.6537389,1.33561034 C7.14171039,1.33650134 5.36683661,4.62251262 4.70125895,6.64508465 Z M11.8301571,14.3575884 L13.5711728,8.3985744 C13.2860525,8.12236412 12.7024469,7.6991387 11.780261,7.6991387 C10.785904,7.6991387 10.0980513,8.18562519 9.78441903,8.46450846 L11.5058328,14.3575884 L11.8301571,14.3575884 Z M9.69888294,14.3575884 L10.1131984,14.3575884 L8.41049565,8.52866053 C8.09329934,8.24532225 7.31901956,7.65993466 6.32911757,7.65993466 C5.58958683,7.65993466 4.99974424,7.94416394 4.62017786,8.19364419 L9.59196284,14.1597862 C9.64185889,14.2203742 9.67304392,14.2880903 9.69888294,14.3575884 Z M15.1295334,15.6940897 L8.1592334,15.6940897 L8.1592334,22.6634987 L15.1286424,22.6634987 L15.1286424,15.6940897 L15.1295334,15.6940897 Z M13.5649358,14.3575884 C13.5907748,14.2880903 13.6219599,14.2203742 13.6718559,14.1597862 L18.6730439,8.15889516 C18.3068426,7.93168993 17.749076,7.68577369 17.0229103,7.68577369 C15.8708461,7.68577369 15.0698363,8.45827146 14.8907451,8.64805465 L13.2227915,14.3584794 L13.5649358,14.3584794 L13.5649358,14.3575884 Z"/>
</svg>
