<svg xmlns="http://www.w3.org/2000/svg" width="24" height="24" viewBox="0 0 24 24">
  <path fill-rule="evenodd" d="M19.6800093,9.59390476 C20.5544617,8.6880119 20.8826641,7.29761905 20.971557,6.16666667 L18.3988665,6.16666667 L18.3988665,10.3487024 C18.8512474,10.2186429 19.3253427,9.9612381 19.6800093,9.59390476 L19.6800093,9.59390476 Z M16.5893427,4.80952381 L7.99410458,4.80952381 L7.99410458,10.6769048 C7.99410458,13.9469405 10.2035331,15.1120476 12.2917236,15.1120476 C14.3799141,15.1120476 16.5893427,13.9469405 16.5893427,10.6769048 L16.5893427,4.80952381 Z M4.90253315,9.59775 C5.25855696,9.96508333 5.73219982,10.2218095 6.18458077,10.3507381 L6.18458077,6.16666667 L3.61550934,6.16666667 C3.6949022,7.07142857 3.97718791,8.64209524 4.90253315,9.59775 L4.90253315,9.59775 Z M20.8310927,10.69975 C20.1520689,11.4032024 19.3070212,11.8329643 18.3187951,11.9802143 C17.8234379,15.0030238 15.6843546,16.5560476 13.1964855,16.8634405 L13.1964855,20.1904762 L15.1378784,20.1904762 C15.637307,20.1904762 16.0424141,20.5955833 16.0424141,21.0952381 C16.0424141,21.5948929 15.637307,22 15.1378784,22 L9.45439029,22 C8.95473553,22 8.54962839,21.5948929 8.54962839,21.0952381 C8.54962839,20.5955833 8.95473553,20.1904762 9.45439029,20.1904762 L11.3869617,20.1904762 L11.3869617,16.8634405 C8.89886648,16.5560476 6.76475934,15.0005357 6.26917601,11.9784048 C5.27710458,11.8325119 4.43228315,11.4054643 3.75122363,10.69975 C1.90369982,8.78595238 1.99734267,5.49827381 2.00209267,5.35939286 C2.01702124,4.93347619 2.36693791,4.58333333 2.79330696,4.58333333 L6.18458077,4.58333333 L6.18458077,3.9047619 C6.18458077,3.40510714 6.57204505,3 7.07169982,3 L17.5205689,3 C18.0199974,3 18.3988665,3.40510714 18.3988665,3.9047619 L18.3988665,4.58333333 L21.7899141,4.58333333 C22.2165093,4.58333333 22.5661998,4.93325 22.5813546,5.35939286 C22.5861046,5.49827381 22.6786165,8.78595238 20.8310927,10.69975 L20.8310927,10.69975 Z M14.8542355,11.5522619 C15.0917355,11.5522619 15.3247117,11.455 15.4920927,11.287619 C15.6617355,11.1179762 15.7589974,10.885 15.7589974,10.6475 C15.7589974,10.41 15.6617355,10.1770238 15.4920927,10.007381 C15.3247117,9.8377381 15.0917355,9.7427381 14.8542355,9.7427381 C14.6146998,9.7427381 14.3814974,9.8377381 14.2143427,10.007381 C14.0446998,10.1747619 13.9494736,10.4077381 13.9494736,10.6475 C13.9494736,10.885 14.0446998,11.1179762 14.2143427,11.287619 C14.3814974,11.455 14.6146998,11.5522619 14.8542355,11.5522619 L14.8542355,11.5522619 Z M14.1012474,8.47222619 L14.1012474,6.458 C14.1012474,6.02077381 14.4556879,5.66633333 14.8929141,5.66633333 C15.3301403,5.66633333 15.6845808,6.02077381 15.6845808,6.458 L15.6845808,8.47222619 C15.6845808,8.90945238 15.3301403,9.26389286 14.8929141,9.26389286 C14.4556879,9.26389286 14.1012474,8.90945238 14.1012474,8.47222619 L14.1012474,8.47222619 Z"/>
</svg>
