<svg xmlns="http://www.w3.org/2000/svg" width="24" height="24" viewBox="0 0 24 24">
  <path fill="#56C8DF" fill-rule="evenodd" d="M12.8695652,14.3158696 C13.5319565,14.3002174 14.1547826,14.2680435 14.7341304,14.2215217 C15.1154348,16.3602174 16.2795652,17.7832609 17.0578261,18.5245652 C15.8747826,19.4436957 14.4373913,20.05 12.8695652,20.2147826 L12.8695652,14.3158696 Z M9.26565217,14.2215217 C9.84521739,14.2680435 10.4678261,14.3002174 11.1304348,14.3158696 L11.1304348,20.2147826 C9.5626087,20.05 8.12521739,19.4436957 6.94217391,18.5245652 C7.72043478,17.7832609 8.88456522,16.36 9.26565217,14.2215217 L9.26565217,14.2215217 Z M11.1304348,12.5763043 C10.5054348,12.5606522 9.92152174,12.528913 9.37847826,12.4845652 C9.23130435,9.27630435 7.14891304,6.82217391 6.34282609,5.98847826 C7.62347826,4.7823913 9.28695652,3.97891304 11.1304348,3.78521739 L11.1304348,12.5763043 Z M14.6213043,12.4867391 C14.0791304,12.5304348 13.495,12.5613043 12.8695652,12.5765217 L12.8695652,3.78521739 C14.7130435,3.97891304 16.3765217,4.7823913 17.6571739,5.98847826 C16.8508696,6.8223913 14.7676087,9.2773913 14.6213043,12.4867391 L14.6213043,12.4867391 Z M20.226087,11.2613043 C19.7347826,11.4876087 18.5004348,11.9704348 16.3791304,12.2871739 C16.5984783,9.94326087 18.1136957,8.05804348 18.7991304,7.31565217 C19.5878261,8.45695652 20.0965217,9.80521739 20.226087,11.2613043 L20.226087,11.2613043 Z M5.20195652,7.31413043 C5.88717391,8.05173913 7.40304348,9.92869565 7.62130435,12.2821739 C5.51847826,11.9643478 4.27282609,11.4836957 3.77413043,11.2582609 C3.90434783,9.8026087 4.41304348,8.455 5.20195652,7.31413043 L5.20195652,7.31413043 Z M3.82108696,13.1506522 C4.62108696,13.4386957 5.84152174,13.7858696 7.52913043,14.0282609 C7.19586957,15.7130435 6.25217391,16.8013043 5.6873913,17.3204348 C4.7073913,16.1593478 4.04152174,14.7256522 3.82108696,13.1506522 L3.82108696,13.1506522 Z M18.3128261,17.3202174 C17.7465217,16.8 16.803913,15.7117391 16.4706522,14.0282609 C18.1582609,13.7858696 19.378913,13.4386957 20.178913,13.1506522 C19.9584783,14.7256522 19.2928261,16.1591304 18.3128261,17.3202174 L18.3128261,17.3202174 Z M12,2 C6.48608696,2 2,6.48608696 2,12 C2,17.513913 6.48608696,22 12,22 C17.513913,22 22,17.513913 22,12 C22,6.48608696 17.513913,2 12,2 L12,2 Z"/>
</svg>
