<svg xmlns="http://www.w3.org/2000/svg" width="24" height="24" viewBox="0 0 24 24">
  <path d="M22.348412,9.789 C22.038412,8.631 21.249412,7.619 20.184412,7.011 C19.178412,6.436 18.028412,6.286 16.946412,6.586 C16.685412,6.659 16.408412,6.79 16.123412,6.961 C16.162412,6.756 16.188412,6.559 16.184412,6.378 C16.128412,4.005 14.083412,2 11.717412,2 C10.519412,2 9.337412,2.5 8.473412,3.371 C7.657412,4.195 7.214412,5.267 7.224412,6.389 C7.226412,6.554 7.251412,6.733 7.287412,6.918 C7.031412,6.771 6.781412,6.653 6.545412,6.587 C5.463412,6.287 4.314412,6.438 3.307412,7.012 C2.242412,7.62 1.453412,8.633 1.143412,9.791 C0.531411999,12.076 1.938412,14.571 4.216412,15.239 C4.321412,15.27 4.437412,15.289 4.555412,15.306 C4.271412,15.567 4.035412,15.832 3.878412,16.098 C3.307412,17.064 3.155412,18.213 3.449412,19.335 C3.761412,20.522 4.535412,21.546 5.573412,22.145 C6.246412,22.534 6.997412,22.718 7.747412,22.718 C9.251412,22.718 10.743412,21.973 11.581412,20.658 C12.420412,21.973 13.911412,22.718 15.415412,22.718 C16.165412,22.718 16.916412,22.534 17.589412,22.145 C18.627412,21.546 19.401412,20.522 19.713412,19.335 C20.007412,18.213 19.856412,17.064 19.285412,16.098 C19.134412,15.842 18.910412,15.586 18.640412,15.334 C18.869412,15.32 19.086412,15.294 19.275412,15.239 C21.553412,14.569 22.961412,12.074 22.348412,9.789 Z M9.540412,4.426 C10.123412,3.837 10.917412,3.499 11.718412,3.499 C13.262412,3.499 14.649412,4.86 14.685412,6.412 C14.701412,7.088 14.066412,8.317 13.262412,9.568 C13.189412,9.652 13.122412,9.732 13.052412,9.815 C12.676412,9.176 12.502412,8.368 12.462412,8.013 C12.421412,7.649 12.125412,7.367 11.759412,7.346 C11.388412,7.332 11.066412,7.57 10.985412,7.927 C10.909412,8.259 10.670412,9.023 10.296412,9.647 C10.225412,9.565 10.161412,9.486 10.087412,9.403 C9.327412,8.212 8.732412,7.051 8.726412,6.374 C8.718412,5.655 9.007412,4.963 9.540412,4.426 Z M13.226412,14.952 C12.718412,14.716 12.147412,14.53 11.611412,14.53 C11.080412,14.53 10.560412,14.705 10.109412,14.932 C10.112412,14.433 10.070412,13.894 9.933412,13.418 C9.811412,12.993 9.525412,12.573 9.167412,12.17 C9.699412,12.066 10.246412,11.855 10.705412,11.477 C11.079412,11.17 11.382412,10.768 11.626412,10.351 C11.897412,10.872 12.276412,11.377 12.804412,11.733 C13.225412,12.016 13.666412,12.175 14.087412,12.256 C13.807412,12.599 13.555412,12.972 13.404412,13.339 C13.205412,13.823 13.178412,14.405 13.226412,14.952 Z M2.593412,10.177 C2.800412,9.403 3.332412,8.724 4.051412,8.313 C4.489412,8.063 4.967412,7.935 5.441412,7.935 C5.677412,7.935 5.913412,7.967 6.143412,8.031 C6.833412,8.223 7.877412,9.188 8.884412,10.311 C8.958412,10.426 9.033412,10.532 9.107412,10.642 C8.521412,10.815 7.886412,10.762 7.676412,10.707 C7.051412,10.395 6.715412,10.627 6.542412,10.881 C6.154412,11.451 6.663412,11.889 6.968412,12.151 C7.181412,12.334 7.666412,12.75 8.035412,13.158 C7.865412,13.239 7.704412,13.309 7.528412,13.397 C6.313412,13.754 5.205412,13.965 4.637412,13.797 C3.149412,13.361 2.193412,11.669 2.593412,10.177 Z M10.350412,19.805 C9.542412,21.131 7.661412,21.616 6.324412,20.844 C5.630412,20.443 5.112412,19.754 4.901412,18.952 C4.709412,18.221 4.804412,17.477 5.170412,16.859 C5.532412,16.246 6.721412,15.493 8.055412,14.814 C8.241412,14.759 8.419412,14.696 8.601412,14.636 C8.627412,15.312 8.533412,16.033 8.476412,16.334 C8.415412,16.654 8.569412,16.977 8.856412,17.132 C9.142412,17.288 9.498412,17.241 9.733412,17.014 C9.888412,16.865 10.266412,16.558 10.690412,16.325 C10.764412,17.823 10.704412,19.222 10.350412,19.805 Z M18.262412,18.952 C18.051412,19.754 17.533412,20.443 16.839412,20.844 C15.502412,21.616 13.620412,21.131 12.813412,19.805 C12.453412,19.214 12.398412,17.783 12.478412,16.261 C12.995412,16.487 13.533412,16.835 13.858412,17.089 C13.993412,17.195 14.157412,17.249 14.321412,17.249 C14.473412,17.249 14.626412,17.203 14.757412,17.109 C15.028412,16.916 15.139412,16.567 15.029412,16.252 C14.877412,15.817 14.730412,15.164 14.709412,14.619 C16.199412,15.346 17.596412,16.185 17.993412,16.858 C18.359412,17.477 18.454412,18.221 18.262412,18.952 Z M15.272412,13.18 C15.659412,12.714 16.166412,12.243 16.507412,11.97 C16.795412,11.739 16.872412,11.333 16.689412,11.012 C16.506412,10.691 16.117412,10.551 15.772412,10.683 C15.762412,10.686 15.035412,10.94 14.276412,10.758 C14.343412,10.66 14.410412,10.565 14.476412,10.463 C15.523412,9.277 16.628412,8.232 17.349412,8.032 C18.041412,7.84 18.785412,7.939 19.441412,8.315 C20.161412,8.726 20.692412,9.405 20.899412,10.179 C21.299412,11.671 20.343412,13.363 18.854412,13.799 C18.179412,13.994 16.747412,13.663 15.272412,13.18 Z M10.842412,12.974 C10.842412,12.504 11.223412,12.122 11.694412,12.122 C12.164412,12.122 12.546412,12.503 12.546412,12.974 C12.546412,13.445 12.165412,13.826 11.694412,13.826 C11.223412,13.826 10.842412,13.444 10.842412,12.974 Z"/>
</svg>
