<svg xmlns="http://www.w3.org/2000/svg" width="24" height="24" viewBox="0 0 24 24">
  <path fill-rule="evenodd" d="M5.88888889,8.77777778 C4.84568436,8.77777778 4,7.93209342 4,6.88888889 C4,5.84568436 4.84568436,5 5.88888889,5 C6.93209342,5 7.77777778,5.84568436 7.77777778,6.88888889 C7.77777778,7.93209342 6.93209342,8.77777778 5.88888889,8.77777778 Z M18.3254576,8.77777778 C17.282253,8.77777778 16.4365687,7.93209342 16.4365687,6.88888889 C16.4365687,5.84568436 17.282253,5 18.3254576,5 C19.3686621,5 20.2143464,5.84568436 20.2143464,6.88888889 C20.2143464,7.93209342 19.3686621,8.77777778 18.3254576,8.77777778 Z M18.3560474,15.0138166 C18.7612485,14.6824002 19.3552156,14.7432726 19.6854022,15.1453993 C20.0161965,15.5493707 19.9571759,16.1439526 19.5538194,16.4747541 C17.9539207,17.7856626 15.1703921,18.5683956 12.1070964,18.5683956 C9.04410809,18.5683956 6.26027196,17.7856626 4.6606807,16.4747541 C4.25732421,16.1439526 4.19829644,15.5493707 4.52879048,15.1453993 C4.85897707,14.7426577 5.45417383,14.6830151 5.85783776,15.0138166 C7.1115632,16.0412688 9.50618484,16.6795067 12.1070963,16.6795067 C14.7080078,16.6795067 17.102322,16.0412688 18.3560474,15.0138166 Z"/>
</svg>
