<svg xmlns="http://www.w3.org/2000/svg" width="24" height="24" viewBox="0 0 24 24">
  <path d="M5.39484979,13.1974249 L3.92703863,11.806867 L5.93562232,11.9613734 L6.32188841,12.8111588 L5.39484979,13.1974249 Z M6.63090129,13.3519313 L3,14.6652361 L9.48927039,16.9828326 L11.4978541,14.9742489 L7.40343348,14.9742489 L6.63090129,13.3519313 Z M9.02575107,11.8841202 L8.56223176,11.4206009 L9.48927039,8.94849785 L4.08154506,6.39914163 L7.01716738,12.6566524 L9.02575107,11.8841202 Z M9.25751073,11.2660944 L9.79828326,11.806867 L12.0386266,14.0472103 L12.0386266,10.1845494 L10.0300429,9.18025751 L9.25751073,11.2660944 Z M7.24892704,13.1974249 L7.78969957,14.3562232 L11.5751073,14.3562232 L9.48927039,12.2703863 L7.24892704,13.1974249 Z M9.64377682,8.40772532 L10.1072961,7.01716738 L8.17596567,4.77682403 L8.25321888,7.71244635 L9.64377682,8.40772532 Z M13.1201717,14.9742489 L15.1287554,16.9828326 L21.6180258,14.6652361 L18.0643777,13.3519313 L17.2918455,14.9742489 L13.1201717,14.9742489 L13.1201717,14.9742489 Z M15.5922747,11.8841202 L17.6781116,12.6566524 L20.6137339,6.39914163 L15.2060086,8.94849785 L16.1330472,11.4206009 L15.5922747,11.8841202 Z M15.360515,11.2660944 L14.5879828,9.18025751 L12.6566524,10.1845494 L12.6566524,14.0472103 L14.8969957,11.806867 L14.9742489,11.8841202 L14.8969957,11.806867 L15.360515,11.2660944 Z M15.1287554,12.3476395 L13.0429185,14.4334764 L16.8283262,14.4334764 L17.4463519,13.1974249 L15.1287554,12.3476395 Z M19.223176,13.1974249 L20.6909871,11.806867 L18.6824034,11.9613734 L18.2961373,12.8111588 L19.223176,13.1974249 Z M16.3648069,7.71244635 L16.4420601,4.77682403 L14.4334764,7.01716738 L14.8969957,8.40772532 L16.3648069,7.71244635 Z M12.3476395,9.64377682 L14.4334764,8.63948498 L12.3476395,3 L10.2618026,8.63948498 L12.3476395,9.64377682 Z M11.8841202,14.8969957 L11.8841202,21 L12.7339056,21 L12.7339056,14.8969957 L11.8841202,14.8969957 Z"/>
</svg>
