<svg xmlns="http://www.w3.org/2000/svg" width="24" height="24" viewBox="0 0 24 24">
  <path d="M7.08392533,9.34109749 C6.38070873,8.97804725 6.38070873,8.97804725 6.37684661,8.78048977 C6.35764284,8.67596259 6.35701121,8.67252459 6.35469375,8.61892891 C6.3435836,8.55669355 6.32422383,8.46834086 6.29417273,8.3609736 C6.21717943,8.08589022 6.10093161,7.81093734 5.94014487,7.55858167 C5.48931455,6.85100101 4.78085074,6.43905638 3.66565627,6.44431114 C2.81362357,6.4483259 2.24386287,6.75327691 1.85364082,7.26991132 C1.6148395,7.58607229 1.4935579,7.90493983 1.46922943,8.01150172 C1.4666669,8.04016923 1.46229241,8.10123614 1.45775358,8.18976603 C1.42673902,8.79470537 1.44667943,9.47557766 1.55343815,10.104546 C1.63501982,10.585184 1.76168125,10.98519 1.92943568,11.2745175 C2.75345568,12.6957117 6.19316702,16.3661077 7.31164353,16.8995336 C7.67162202,17.0712153 7.82426678,17.502211 7.65258515,17.8621894 C7.48090352,18.2221679 7.04990783,18.3748127 6.68992935,18.2031311 C5.26924864,17.5255773 1.63735524,13.6501106 0.679999369,11.9989508 C0.414091906,11.5403379 0.237637911,10.9830834 0.129541314,10.3462329 C0.00223215537,9.59619172 -0.0205789265,8.81729945 0.01538527,8.11581743 C0.0208938004,8.00837349 0.0265666713,7.92918142 0.0409021398,7.81045192 C0.113660362,7.43320971 0.309743705,6.91767714 0.701177838,6.39943799 C1.35468463,5.53422781 2.34109715,5.0062737 3.65885101,5.00006448 C5.20801687,4.99276485 6.33652501,5.60566382 7.05359971,6.62623237 C7.76074283,5.6072893 8.89241053,4.99276632 10.4412647,5.00006448 C11.7590185,5.0062737 12.7454311,5.53422781 13.3989378,6.39943799 C13.790372,6.91767714 13.9864553,7.43320971 14.0592135,7.81045192 L14.0722811,7.94720814 L14.0722089,9.19369805 C14.0705841,9.3085752 14.0615012,9.4968667 14.0391478,9.73543777 C14.0018811,10.1331736 13.9391267,10.5320197 13.8432813,10.9111495 C13.8175722,11.0128455 13.7896929,11.1120445 13.7595031,11.2085478 C13.6404276,11.5891791 13.2353352,11.8012118 12.854704,11.6821363 C12.4740728,11.5630608 12.26204,11.1579685 12.3811155,10.7773373 C12.4031013,10.7070586 12.4237588,10.6335558 12.4430693,10.5571708 C12.518731,10.2578802 12.5703436,9.92984756 12.6011834,9.60070452 C12.6196938,9.40314828 12.6269739,9.25222966 12.6280184,9.18348525 L12.6280184,8.02590604 C12.5809976,7.84088535 12.4612806,7.55430335 12.2464749,7.26991132 C11.8562528,6.75327691 11.2864921,6.4483259 10.4344594,6.44431114 C9.32140541,6.43906646 8.6134211,6.85035304 8.17441348,7.54918693 C8.01627327,7.80092228 7.90495111,8.07600994 7.8409861,8.33648811 C7.82153473,8.41569797 7.80835229,8.48677458 7.80173603,8.53989926 C7.84546167,8.97162576 7.51151476,9.34109749 7.08392533,9.34109749 Z M16.9628127,16.7418531 C18.1865921,15.8916885 21.0965723,12.684024 22.115967,11.2234396 C22.2770311,10.9926676 22.4088899,10.5201809 22.4831355,9.89957533 C22.5526378,9.31861772 22.5666136,8.6934253 22.5483309,8.14135887 C22.546752,8.09368403 22.5452019,8.05529813 22.5469377,8.05145527 C22.5048401,7.8679872 22.3841713,7.56774829 22.1592103,7.26991132 C21.7689883,6.75327691 21.1992276,6.4483259 20.3471949,6.44431114 C19.2341409,6.43906646 18.5261566,6.85035304 18.0871489,7.54918693 C17.9290087,7.80092228 17.8176866,8.07600994 17.7537216,8.33648811 C17.7342702,8.41569797 17.7210878,8.48677458 17.7144715,8.53989926 C17.7581971,8.97162576 17.4242502,9.34109749 16.9966608,9.34109749 C16.2934442,8.97804725 16.2934442,8.97804725 16.2895821,8.78048977 C16.2703783,8.67596259 16.2697467,8.67252459 16.2674292,8.61892891 C16.2563191,8.55669355 16.2369593,8.46834086 16.2069082,8.3609736 C16.1299149,8.08589022 16.0136671,7.81093734 15.8528803,7.55858167 C15.40205,6.85100101 14.6935862,6.43905638 13.5783917,6.44431114 C13.0653732,6.44672848 12.6536761,6.560752 12.320144,6.76420798 C11.9796687,6.97189931 11.5352919,6.86425667 11.3276006,6.52378141 C11.1199092,6.18330615 11.2275519,5.73892932 11.5680271,5.53123799 C12.1287508,5.18919422 12.7984758,5.00370736 13.5715865,5.00006448 C15.1207523,4.99276485 16.2492605,5.60566382 16.9663352,6.62623237 C17.6734783,5.6072893 18.805146,4.99276632 20.3540001,5.00006448 C21.671754,5.0062737 22.6581665,5.53422781 23.3116733,6.39943799 C23.7031074,6.91767714 23.8991908,7.43320971 23.9838018,7.90533952 C23.9859341,7.94205369 23.9889038,8.00603525 23.9918022,8.09355544 C24.0123036,8.71261388 23.9968167,9.40540326 23.9171724,10.0711351 C23.8170176,10.9083114 23.6303773,11.5770958 23.3003003,12.0500287 C22.0581825,13.8297297 18.6273991,17.5809972 17.3229218,18.2031311 C17.2065798,18.2586171 17.0828198,18.2802264 16.9627933,18.2719083 C16.8427668,18.2802264 16.7190068,18.2586171 16.6026648,18.2031311 C15.661342,17.7541936 13.4934355,15.5752099 11.9982897,13.833199 C10.3210171,15.8085367 8.37747408,17.7418103 7.41018633,18.2031311 C7.05020784,18.3748127 6.61921216,18.2221679 6.44753053,17.8621894 C6.2758489,17.502211 6.42849366,17.0712153 6.78847214,16.8995336 C7.53437076,16.5437982 9.48858258,14.5753507 11.0704612,12.6925773 C10.8660905,12.4223351 10.7029769,12.1870398 10.5944609,12.0019115 C10.4118719,11.6904149 10.2738708,11.3237266 10.1695698,10.9111495 C10.0737245,10.5320197 10.0109701,10.1331736 9.97370336,9.73543777 C9.95134992,9.4968667 9.94226707,9.3085752 9.94057003,9.18348525 L9.94057003,7.94720814 C9.94057003,7.54838601 10.2638792,7.22507679 10.6627014,7.22507679 C11.0615235,7.22507679 11.3848327,7.54838601 11.3848327,7.94720814 L11.3847605,9.17327244 C11.3858773,9.25222966 11.3931573,9.40314828 11.4116678,9.60070452 C11.4425076,9.92984756 11.4941202,10.2578802 11.5697819,10.5571708 C11.6432552,10.8478048 11.7350882,11.091818 11.8404451,11.2715568 C11.9599492,11.4754307 12.1725491,11.7671468 12.4473796,12.1120814 C12.4539791,12.1170855 12.4605182,12.12222 12.4669935,12.1274853 C12.5542511,12.1984357 12.6206309,12.2855447 12.6653273,12.3809959 C13.8850357,13.862818 15.9814177,16.0611685 16.9628127,16.7418531 Z"/>
</svg>
