<svg xmlns="http://www.w3.org/2000/svg" width="24" height="24" viewBox="0 0 24 24">
  <path d="M21.2671458,10.7052833 C21.0589981,10.3061744 20.6913979,9.99872693 20.3247524,9.72660726 C19.8091572,9.34373011 16.8425754,7.5324634 15.3779033,6.64353915 C15.9307359,5.94366645 16.274466,5.0709739 16.274466,4.11139402 C16.274466,1.84468491 14.429781,0 12.1630719,0 C9.89636284,0 8.05167793,1.84468491 8.05167793,4.11139402 C8.05167793,5.08052196 8.40304648,5.95989815 8.96542713,6.66359007 C7.54849524,7.49331636 4.78051306,9.11266709 4.1675277,9.45257798 C3.41895991,9.86696372 3.14874986,10.3892425 3.05326927,10.7549332 C2.93296373,11.218014 3.01794145,11.7164227 3.29292554,12.1594526 C3.55454234,12.580522 3.96988289,12.8669637 4.46160791,12.9653087 C5.02876259,13.0798854 5.63697392,12.9328453 6.16880078,12.5528326 C6.52876259,12.2959898 7.47402038,11.7507957 8.27892172,11.2982177 C8.27892172,11.8386378 8.27892172,12.4945894 8.27892172,13.1276257 L8.28656017,13.5124125 C7.63633738,14.0394653 6.26332656,15.1709102 5.66848251,15.7495226 C4.63824699,16.7511139 4.66211714,18.6950987 5.37058308,19.6985996 C5.72481606,20.2008275 6.40463783,21.0515595 7.12360663,21.9509866 C7.45492427,22.3653724 7.79101593,22.7864418 8.09941822,23.1779122 C8.55104139,23.7517505 9.16402675,24 9.74454871,24 C10.1503412,24 10.539902,23.8787397 10.8483043,23.6619987 C11.5519962,23.1654997 11.9281897,22.1333546 11.1815315,20.9446213 C10.7060382,20.188415 9.85339658,19.1104392 9.33207258,18.4697645 L9.54308467,18.2826225 C10.220042,18.8812858 11.1118307,19.1973265 12.2203603,19.1973265 C13.3603985,19.1973265 14.193944,18.8478676 14.7973813,18.3208148 L14.9644723,18.4688097 C14.4431483,19.1094844 13.5914615,20.1874602 13.1150134,20.9436665 C12.3683552,22.1323997 12.7445487,23.1654997 13.4482406,23.6610439 C13.7556881,23.8777849 14.1452489,23.9990452 14.5519962,23.9990452 C15.1315634,23.9990452 15.7455035,23.7498409 16.1971267,23.1769574 C16.505529,22.7845321 16.8425754,22.3634628 17.1729383,21.9500318 C17.8919071,21.0496499 18.5717289,20.1998727 18.9259618,19.6976448 C19.6344278,18.6941439 19.6582979,16.7501591 18.6280624,15.7485678 C18.0408568,15.1775939 16.7279987,14.1005729 16.0710923,13.5677912 L16.0730019,13.1266709 L16.0730019,11.1368555 C16.874084,11.6314449 17.8899975,12.2616168 18.2871967,12.5194144 C19.480704,13.2928071 20.4211878,13.2336092 21.0838231,12.3418205 C21.4791127,11.8166773 21.5430847,11.2352005 21.2671458,10.7052833 Z M12.1640267,1.43316359 C13.6411114,1.43316359 14.843212,2.63526416 14.843212,4.11234882 C14.843212,4.96690006 14.4336003,5.72024188 13.8082024,6.21101209 C13.6764392,6.2940802 12.9307359,6.73901973 12.1315634,6.73901973 C11.3027919,6.73901973 10.6411114,6.24538511 10.6143768,6.22533418 L10.2334093,5.92266073 L10.2124036,5.9350732 C9.76459963,5.45576066 9.48579632,4.81795035 9.48579632,4.11234882 C9.48484152,2.63526416 10.6869421,1.43316359 12.1640267,1.43316359 Z M9.9708377,21.7084659 C10.0787308,21.880331 10.3002457,22.3004456 10.0252616,22.4933164 C9.86676386,22.6059835 9.50871166,22.6518141 9.22799874,22.2947167 C8.91673203,21.8994271 8.57873076,21.4764481 8.24550352,21.059198 C7.53990199,20.1760025 6.8734475,19.342457 6.54403948,18.875557 C6.22608913,18.422979 6.15352389,17.2800764 6.67007385,16.7778485 C7.0367193,16.4207511 7.69744495,15.8602801 8.28656017,15.3733291 C8.30565628,15.8478676 8.40018206,16.4942712 8.68948824,17.1292171 L7.34798601,18.3217696 L7.79578996,18.8545512 C7.81106685,18.8736474 9.32061491,20.6734564 9.9708377,21.7084659 Z M12.2232247,17.7670274 C11.4259618,17.7670274 10.8120217,17.5579249 10.4005003,17.144494 C9.77701211,16.5190961 9.71208531,15.5385105 9.71304012,15.1451305 C9.71304012,14.9866327 9.71399492,14.7870783 9.71399492,14.5607893 L14.6446124,14.5607893 L14.6446124,15.2520687 C14.6436576,16.0092298 14.4078205,17.7670274 12.2232247,17.7670274 Z M17.7582343,18.875557 C17.4288262,19.342457 16.7623718,20.1760025 16.0567702,21.059198 C15.723543,21.4764481 15.3845869,21.8994271 15.074275,22.2947167 C14.7935621,22.6518141 14.4355099,22.6059835 14.2770121,22.4933164 C14.002028,22.2994908 14.223543,21.8793762 14.331436,21.7084659 C14.980704,20.6744112 16.4912069,18.8736474 16.5064838,18.855506 L16.9542877,18.3227244 L15.659571,17.1712285 C15.9192782,16.6136219 16.0453126,16.0044558 16.0644087,15.4143857 C16.6401566,15.8917887 17.2751025,16.431254 17.6321999,16.7788033 C18.1487499,17.2800764 18.0761846,18.422979 17.7582343,18.875557 Z M19.938056,11.4882241 C19.8330274,11.6304901 19.7404112,11.7546149 19.0691827,11.3192234 C18.3654908,10.8628262 15.7340458,9.24633991 15.7340458,9.24633991 L14.6427028,8.5760662 L14.6427028,13.1295353 L9.71304012,13.1295353 C9.71304012,11.6677276 9.71208531,10.0837046 9.71208531,10.0837046 L9.71113051,8.87778485 L8.65320562,9.45544239 C8.54817697,9.51273074 6.07332019,10.8647358 5.33907449,11.3879694 C5.13665565,11.5340547 4.92086952,11.5980267 4.74423044,11.5626989 C4.64206621,11.542648 4.56377213,11.4891789 4.51125781,11.405156 C4.4434666,11.2953533 4.41959645,11.1989179 4.44060218,11.1177594 C4.47497519,10.9859962 4.62869893,10.8370465 4.86358117,10.7062381 C5.5691827,10.3157225 8.91768684,8.35359644 10.1131038,7.65276894 C10.7194055,8.0050923 11.4145042,8.22278803 12.1640267,8.22278803 C12.9288262,8.22278803 13.6363374,7.99936346 14.2502775,7.63462763 C15.8409841,8.59898154 19.0080751,10.5324634 19.4702012,10.8761935 C19.9199147,11.2103756 19.9943896,11.3440484 20.0048924,11.3698281 C20.0048924,11.3698281 19.997254,11.4080204 19.938056,11.4882241 Z"/>
</svg>
