<svg xmlns="http://www.w3.org/2000/svg" width="24" height="24" viewBox="0 0 24 24">
  <path d="M17.074,5.305 L19.551,2.954 L17.598,1 L13.052,1 L11.131,2.922 L13.489,5.268 C11.946,5.642 10.591,6.5 9.601,7.679 C9.185,7.605 8.76,7.56 8.323,7.56 C4.285,7.56 1,10.845 1,14.883 C1,18.921 4.285,22.206 8.323,22.206 C10.573,22.206 12.587,21.185 13.931,19.583 C14.347,19.657 14.773,19.702 15.209,19.702 C19.247,19.702 22.532,16.417 22.532,12.379 C22.533,8.986 20.21,6.133 17.074,5.305 Z M13.673,2.5 L16.977,2.5 L17.403,2.926 L15.284,4.938 L13.255,2.919 L13.673,2.5 Z M13.308,17.877 C11.029,17.086 9.386,14.923 9.386,12.379 C9.386,11.283 9.696,10.261 10.224,9.385 C12.503,10.176 14.146,12.339 14.146,14.883 C14.146,15.979 13.836,17.001 13.308,17.877 Z M8.323,20.706 C5.112,20.706 2.5,18.094 2.5,14.883 C2.5,11.672 5.112,9.06 8.323,9.06 C8.444,9.06 8.562,9.071 8.682,9.078 C8.178,10.071 7.887,11.191 7.887,12.379 C7.887,15.391 9.716,17.983 12.321,19.106 C11.276,20.095 9.871,20.706 8.323,20.706 Z M15.209,18.202 C15.088,18.202 14.97,18.191 14.85,18.184 C15.354,17.191 15.645,16.071 15.645,14.883 C15.645,11.871 13.816,9.279 11.21,8.156 C12.162,7.255 13.415,6.673 14.802,6.576 L15.728,6.582 C18.696,6.846 21.031,9.343 21.031,12.379 C21.033,15.59 18.42,18.202 15.209,18.202 Z"/>
</svg>
