<svg xmlns="http://www.w3.org/2000/svg" width="24" height="24" viewBox="0 0 24 24">
  <path d="M23.1238788,9.89522511 L23.7989348,10.5702811 C23.9276747,10.699021 24,10.8736298 24,11.0556956 L24,13.5246699 C24,13.9038022 23.6926526,14.2111496 23.3135203,14.2111496 L21.5652892,14.2111496 C21.1861569,14.2111496 20.8788095,13.9038022 20.8788095,13.5246699 L20.8788095,11.1804366 C20.8788095,10.9784481 20.9677664,10.7867105 21.1219944,10.6562762 L21.7509194,10.1243797 L21.7509194,8.77246092 L18.5981184,9.66895388 L18.5160009,17.0729361 C18.5118292,17.4490754 18.2057259,17.7518025 17.8295635,17.7518025 C17.7808003,17.7518025 17.6794486,17.7542994 17.53321,17.7620195 C17.2841003,17.7751702 17.0051843,17.7989554 16.7042419,17.8360251 C15.8462891,17.9417065 14.9896952,18.1316317 14.1979251,18.424219 C13.2393904,18.7784318 12.4462445,19.2589828 11.8676684,19.8748455 C11.6003796,20.1593599 11.1499499,20.1640138 10.8768394,19.8850829 C10.2812355,19.2767857 9.48042124,18.7956121 8.52132912,18.4336539 C7.70062826,18.123924 6.81324184,17.9186577 5.92455899,17.7996381 C5.61290166,17.7578985 5.32403699,17.7300313 5.06598808,17.7134218 C4.914352,17.7036617 4.80910964,17.6998161 4.75820825,17.6991954 C4.38236864,17.6946125 4.08009869,17.3886343 4.08009869,17.0127667 L4.08009869,9.51462327 L0.492650042,8.45873206 C-0.165709244,8.26495763 -0.163676452,7.3317041 0.495520732,7.14079955 L11.2472063,4.02709436 C11.369393,3.99170888 11.4990088,3.99096969 11.6215912,4.02495924 L22.3184347,6.99097219 L22.4373991,6.99097219 C22.6012664,6.99097219 22.7517235,7.04838819 22.8697504,7.14420017 C23.4096294,7.31138493 23.4952741,7.98662196 23.1238788,8.31351927 L23.1238788,9.89522511 Z M18.1677908,8.36393156 L11.545084,8.36393156 C11.1659517,8.36393156 10.8586043,8.05658413 10.8586043,7.67745187 C10.8586043,7.29831961 11.1659517,6.99097219 11.545084,6.99097219 L17.1800726,6.99097219 L11.4422344,5.39998862 L3.13588667,7.80552011 L4.71157622,8.2692917 C4.7297208,8.26785326 4.748064,8.26712032 4.76657838,8.26712032 C4.9233968,8.26712032 5.0679339,8.31970295 5.18352006,8.40819859 L11.4871803,10.2635504 L18.1677908,8.36393156 Z M17.2207307,10.0606114 L11.6716457,11.6384832 C11.5468403,11.6739713 11.4145328,11.6733621 11.2900596,11.636726 L5.45305806,9.91872542 L5.45305806,16.3660904 C5.65879505,16.3841523 5.87746126,16.4081126 6.10680957,16.4388288 C7.09178558,16.5707447 8.07805801,16.7988849 9.00610542,17.1491269 C9.90220582,17.4873123 10.695812,17.9222771 11.3592986,18.4680566 C12.0190715,17.9095753 12.816712,17.4709227 13.722022,17.1363783 C14.6231974,16.8033618 15.5804738,16.5911131 16.5363913,16.4733646 C16.7611202,16.4456828 16.966937,16.4251904 17.1503042,16.4105002 L17.2207307,10.0606114 Z M22.2517689,11.4989298 L22.2517689,12.8381902 L22.6270406,12.8381902 L22.6270406,11.3400448 L22.5411713,11.2541754 L22.2517689,11.4989298 Z"/>
</svg>
