<svg xmlns="http://www.w3.org/2000/svg" width="24" height="24" viewBox="0 0 24 24">
  <path fill-rule="evenodd" d="M11.4141672,6.99818592 C11.3169554,6.67822023 11.1658049,6.40424961 10.9692149,6.15772049 C10.5069311,5.57822707 9.95126847,5.13788541 9.19423854,5.01545409 C8.59819134,4.91907554 8.06997021,5.31431093 8.00486608,5.90097024 C7.94403927,6.44996693 8.36810491,6.97863246 8.92610063,6.9927976 C9.74884573,7.0136287 10.5724796,6.99818592 11.4141672,6.99818592 L11.4141672,6.99818592 Z M12.5859859,6.99918581 C13.4239516,6.99918581 14.2429749,7.01207332 15.0613316,6.99363085 C15.4639551,6.98457626 15.7600345,6.76115578 15.9177953,6.38741808 C16.0755562,6.01362483 16.0181179,5.65882954 15.7537574,5.35097367 C15.4283478,4.97218095 15.0080595,4.93824015 14.5609964,5.06511543 C13.9223426,5.24642932 13.4325618,5.6441089 13.0303272,6.15833153 C12.8360147,6.40674934 12.6820312,6.67855353 12.5859859,6.99918581 L12.5859859,6.99918581 Z M12.5064945,9.99080945 L19.9885255,9.99080945 L19.9885255,8.00802207 L12.5064945,8.00802207 L12.5064945,9.99080945 Z M4.0089057,9.99153159 L11.4897146,9.99153159 L11.4897146,8.00724438 L4.0089057,8.00724438 L4.0089057,9.99153159 Z M12.5063834,18.9901222 L18.9888549,18.9901222 L18.9888549,11.0079226 L12.5063834,11.0079226 L12.5063834,18.9901222 Z M5.00779858,18.9936774 L11.4906589,18.9936774 L11.4906589,11.0114222 L5.00779858,11.0114222 L5.00779858,18.9936774 Z M4.00073991,11.0004234 C3.82759181,11.0004234 3.67516371,11.0025343 3.52273561,11.0000346 C3.20954697,10.9948684 3.00229142,10.7888905 3.00162483,10.4735355 C2.99945839,9.4921407 2.99945839,8.51074594 3.00162483,7.52929563 C3.00234697,7.20249734 3.21254665,7.00146334 3.54878837,7.00113004 C4.72927289,7.0000746 5.90970187,7.00068565 7.09018639,7.00068565 L7.25922382,7.00068565 C7.2337821,6.94274742 7.21450639,6.89819664 7.19473073,6.85381251 C6.88070885,6.1489992 6.93103679,5.46740562 7.3788221,4.84280594 C7.84049482,4.19887499 8.49153612,3.92062705 9.27706299,4.02333826 C10.4218291,4.17304443 11.2481294,4.82891854 11.9022815,5.73904316 C11.9315561,5.77981657 11.9596087,5.82153432 11.9978823,5.87675062 C12.0841509,5.75793003 12.1604205,5.64449775 12.2450225,5.53773142 C12.8403475,4.786312 13.5740466,4.24659209 14.5301663,4.04650244 C15.8064184,3.77941997 16.9784038,4.69437741 16.9966241,5.98118386 C16.9991238,6.15488746 16.9722933,6.33281282 16.9315755,6.50218355 C16.8921353,6.66622151 16.81731,6.82176039 16.7530946,6.9941308 C16.800534,6.99629723 16.8486399,7.0004079 16.8966348,7.00046345 C18.0678425,7.00079675 19.2390503,7.00057455 20.410258,7.00079675 C20.8074376,7.0008523 20.9995837,7.19122077 20.9996948,7.58517853 C20.9999726,8.5295217 21.0000281,9.47392043 20.9996948,10.4182636 C20.9995837,10.8054443 20.80616,10.9997013 20.4214235,11.0004234 C20.2876045,11.0007012 20.1537855,11.000479 19.999802,11.000479 L19.999802,11.1811262 C19.999802,13.9170551 19.9998576,16.6529284 19.999802,19.3888017 C19.999802,19.8155337 19.817266,19.9999583 19.3948669,19.9999583 C14.4647289,20.0000139 9.53453538,20.0000139 4.60434185,19.9999583 C4.18794206,19.9999583 4.00079546,19.8145893 4.00073991,19.4019114 C4.00068436,16.6614275 4.00073991,13.920888 4.00073991,11.180293 L4.00073991,11.0004234 Z"/>
</svg>
