<svg xmlns="http://www.w3.org/2000/svg" width="72" height="72" viewBox="0 0 72 72">
  <path d="M47.540797,9.10815939 L53.8273245,9.10815939 C56.3916016,9.10815939 58.4705882,11.187146 58.4705882,13.7514231 L58.4705882,53.8273245 C58.4705882,56.3916016 56.3916016,58.4705882 53.8273245,58.4705882 L4.64326376,58.4705882 C2.0789866,58.4705882 0,56.3916016 0,53.8273245 L0,13.7514231 C0,11.187146 2.0789866,9.10815939 4.64326376,9.10815939 L10.9297913,9.10815939 L10.9297913,3.73244782 C10.9297913,1.67094106 12.6007323,3.55271368e-15 14.6622391,3.55271368e-15 C16.7237459,3.55271368e-15 18.3946869,1.67094106 18.3946869,3.73244782 L18.3946869,8 L40.0759013,8 L40.0759013,3.73244782 C40.0759013,1.67094106 41.7468424,3.55271368e-15 43.8083491,3.55271368e-15 C45.8698559,3.55271368e-15 47.540797,1.67094106 47.540797,3.73244782 L47.540797,9.10815939 Z M47.540797,11.1081594 L47.540797,12.8406072 C47.540797,14.901851 45.8692081,16.573055 43.8083491,16.573055 C41.7468424,16.573055 40.0759013,14.902114 40.0759013,12.8406072 L40.0759013,10 L18.3946869,10 L18.3946869,12.8406072 C18.3946869,14.902114 16.7237459,16.573055 14.6622391,16.573055 C12.6007323,16.573055 10.9297913,14.902114 10.9297913,12.8406072 L10.9297913,11.1081594 L4.64326376,11.1081594 C3.1835561,11.1081594 2,12.2917155 2,13.7514231 L2,20.0379507 L56.4705882,20.0379507 L56.4705882,13.7514231 C56.4705882,12.2917155 55.2870321,11.1081594 53.8273245,11.1081594 L47.540797,11.1081594 Z M2,22.0379507 L2,53.8273245 C2,55.2870321 3.1835561,56.4705882 4.64326376,56.4705882 L53.8273245,56.4705882 C55.2870321,56.4705882 56.4705882,55.2870321 56.4705882,53.8273245 L56.4705882,22.0379507 L2,22.0379507 Z M12.9297913,25.5028463 L12.9297913,32.9677419 L5.46489564,32.9677419 L5.46489564,25.5028463 L12.9297913,25.5028463 Z M7.46489564,30.9677419 L10.9297913,30.9677419 L10.9297913,27.5028463 L7.46489564,27.5028463 L7.46489564,30.9677419 Z M32.9677419,25.5028463 L32.9677419,32.9677419 L25.5028463,32.9677419 L25.5028463,25.5028463 L32.9677419,25.5028463 Z M27.5028463,30.9677419 L30.9677419,30.9677419 L30.9677419,27.5028463 L27.5028463,27.5028463 L27.5028463,30.9677419 Z M42.9867173,25.5028463 L42.9867173,32.9677419 L35.5218216,32.9677419 L35.5218216,25.5028463 L42.9867173,25.5028463 Z M37.5218216,30.9677419 L40.9867173,30.9677419 L40.9867173,27.5028463 L37.5218216,27.5028463 L37.5218216,30.9677419 Z M53.0056926,25.5028463 L53.0056926,32.9677419 L45.540797,32.9677419 L45.540797,25.5028463 L53.0056926,25.5028463 Z M47.540797,30.9677419 L51.0056926,30.9677419 L51.0056926,27.5028463 L47.540797,27.5028463 L47.540797,30.9677419 Z M12.9297913,35.5218216 L12.9297913,42.9867173 L5.46489564,42.9867173 L5.46489564,35.5218216 L12.9297913,35.5218216 Z M7.46489564,40.9867173 L10.9297913,40.9867173 L10.9297913,37.5218216 L7.46489564,37.5218216 L7.46489564,40.9867173 Z M12.9297913,45.540797 L12.9297913,53.0056926 L5.46489564,53.0056926 L5.46489564,45.540797 L12.9297913,45.540797 Z M7.46489564,51.0056926 L10.9297913,51.0056926 L10.9297913,47.540797 L7.46489564,47.540797 L7.46489564,51.0056926 Z M22.9487666,35.5218216 L22.9487666,42.9867173 L15.483871,42.9867173 L15.483871,35.5218216 L22.9487666,35.5218216 Z M17.483871,40.9867173 L20.9487666,40.9867173 L20.9487666,37.5218216 L17.483871,37.5218216 L17.483871,40.9867173 Z M22.9487666,25.5028463 L22.9487666,32.9677419 L15.483871,32.9677419 L15.483871,25.5028463 L22.9487666,25.5028463 Z M17.483871,30.9677419 L20.9487666,30.9677419 L20.9487666,27.5028463 L17.483871,27.5028463 L17.483871,30.9677419 Z M32.9677419,35.5218216 L32.9677419,42.9867173 L25.5028463,42.9867173 L25.5028463,35.5218216 L32.9677419,35.5218216 Z M27.5028463,40.9867173 L30.9677419,40.9867173 L30.9677419,37.5218216 L27.5028463,37.5218216 L27.5028463,40.9867173 Z M53.0056926,35.5218216 L53.0056926,42.9867173 L45.540797,42.9867173 L45.540797,35.5218216 L53.0056926,35.5218216 Z M47.540797,40.9867173 L51.0056926,40.9867173 L51.0056926,37.5218216 L47.540797,37.5218216 L47.540797,40.9867173 Z M22.9487666,45.540797 L22.9487666,53.0056926 L15.483871,53.0056926 L15.483871,45.540797 L22.9487666,45.540797 Z M17.483871,51.0056926 L20.9487666,51.0056926 L20.9487666,47.540797 L17.483871,47.540797 L17.483871,51.0056926 Z M32.9677419,45.540797 L32.9677419,53.0056926 L25.5028463,53.0056926 L25.5028463,45.540797 L32.9677419,45.540797 Z M27.5028463,51.0056926 L30.9677419,51.0056926 L30.9677419,47.540797 L27.5028463,47.540797 L27.5028463,51.0056926 Z M42.9867173,45.540797 L42.9867173,53.0056926 L35.5218216,53.0056926 L35.5218216,45.540797 L42.9867173,45.540797 Z M37.5218216,51.0056926 L40.9867173,51.0056926 L40.9867173,47.540797 L37.5218216,47.540797 L37.5218216,51.0056926 Z M53.0056926,45.540797 L53.0056926,53.0056926 L45.540797,53.0056926 L45.540797,45.540797 L53.0056926,45.540797 Z M47.540797,51.0056926 L51.0056926,51.0056926 L51.0056926,47.540797 L47.540797,47.540797 L47.540797,51.0056926 Z M28.3244782,18 L28.3244782,16 L30.1461101,16 L30.1461101,18 L28.3244782,18 Z M31.9677419,18 L31.9677419,16 L33.7893738,16 L33.7893738,18 L31.9677419,18 Z M26.5028463,16 L26.5028463,18 L24.6812144,18 L24.6812144,16 L26.5028463,16 Z M14.6622391,14.573055 C15.6191764,14.573055 16.3946869,13.7975445 16.3946869,12.8406072 L16.3946869,3.73244782 C16.3946869,2.77551056 15.6191764,2 14.6622391,2 C13.7053018,2 12.9297913,2.77551056 12.9297913,3.73244782 L12.9297913,12.8406072 C12.9297913,13.7975445 13.7053018,14.573055 14.6622391,14.573055 Z M43.8083491,14.573055 C44.7647417,14.573055 45.540797,13.7971784 45.540797,12.8406072 L45.540797,3.73244782 C45.540797,2.77551056 44.7652864,2 43.8083491,2 C42.8514119,2 42.0759013,2.77551056 42.0759013,3.73244782 L42.0759013,12.8406072 C42.0759013,13.7975445 42.8514119,14.573055 43.8083491,14.573055 Z M39.2542694,41.9867173 L36.0254269,38.9382163 C35.4725617,38.385351 35.4725617,37.4891082 36.0254269,36.9362429 C36.5026945,36.4589753 37.2504744,36.3851992 37.811537,36.7595446 L39.2542694,37.9372296 L40.6970019,36.7595446 C41.2580645,36.3851992 42.0058444,36.4589753 42.483112,36.9362429 C43.0359772,37.4891082 43.0359772,38.385351 42.483112,38.9382163 L39.2542694,41.9867173 Z M40.1419901,35.9277021 C41.0997926,35.2886488 42.3758716,35.4147889 43.1902187,36.2291361 C44.1336083,37.1725257 44.1336083,38.7019335 43.169621,39.6653375 L39.2542694,43.3620038 L38.5677604,42.7138385 L35.3183202,39.6453231 C34.3749306,38.7019335 34.3749306,37.1725257 35.3183202,36.2291361 C36.1326673,35.4147889 37.4087463,35.2886488 38.4438955,35.9848687 L39.2557945,36.647612 L40.1419901,35.9277021 Z" transform="translate(7 7)"/>
</svg>
