<svg xmlns="http://www.w3.org/2000/svg" width="72" height="72" viewBox="0 0 72 72">
  <path fill="#BDC3CF" fill-rule="evenodd" d="M21.4363364,52.7393774 L21.3646875,52.7641155 L21.3646875,57.5162166 C21.7036914,56.6379218 21.9712296,55.7524803 22.2347363,54.8659394 C22.2552598,54.7966727 22.2739508,54.707249 22.2484797,54.646045 C21.9831405,54.0083513 21.7084558,53.3745057 21.4363364,52.7393774 L21.4363364,52.7393774 Z M14.0918636,36.6608824 C13.5435936,37.2168487 13.0074178,37.7605376 12.4569488,38.3187029 C12.949329,38.9318418 13.4829394,39.5964726 14.0918636,40.3552915 L14.0918636,36.6608824 Z M37.8496206,31.4926311 C37.7739403,31.5765575 37.6797522,31.674044 37.5930772,31.7779441 C36.253737,33.3839062 34.9165959,34.9915175 33.575973,36.5963801 C32.9883053,37.3000421 32.3366849,37.3055395 31.7334413,36.6035266 C30.1914318,34.8099213 28.644658,33.0201642 27.1220725,31.2102501 C26.3839603,30.3326882 25.4822101,29.900046 24.3310629,29.9055433 C20.9873854,29.9214857 17.6435246,29.9203862 14.2998471,29.9062763 C13.1118676,29.9013287 12.1824473,30.3482641 11.4610104,31.2927105 C10.2660676,32.8572591 9.04602023,34.402567 7.84081569,35.9594193 C6.77469437,37.3366912 6.81225966,38.8513971 7.95406131,40.1676483 C9.19371596,41.5962289 10.4445486,43.0152807 11.6906168,44.4383639 C11.8168729,44.5822115 11.9451446,44.7244099 12.0396992,44.8306922 C12.6075765,44.2607992 13.1426528,43.7237072 13.6929385,43.1712225 C13.6650853,43.1345734 13.6128603,43.0616418 13.5569705,42.9920086 C12.4706922,41.6332444 11.3827647,40.2755798 10.2977691,38.9157162 C9.89261365,38.4084931 9.85229968,37.8796471 10.2567221,37.4671619 C11.6360097,36.0613037 13.0312397,34.6708381 14.4328832,33.2873359 C14.7383531,32.9857141 15.1295819,32.9155311 15.5362033,33.0940121 C15.9391598,33.2710271 16.1403632,33.5909734 16.1537401,34.0289297 C16.158138,34.1661805 16.155206,34.3037977 16.155206,34.4412317 C16.1553893,44.4114269 16.1553893,54.381622 16.1553893,64.3518172 L16.1553893,64.9306892 L19.2553505,64.9306892 L19.2553505,64.3628119 C19.2553505,58.7897717 19.254984,53.2167315 19.255717,47.6438745 C19.255717,46.9546888 19.5293023,46.553015 20.0696928,46.4377537 C20.6131984,46.3219427 21.0317308,46.5728055 21.3029338,47.202803 C22.2858618,49.4851236 23.2766693,51.7641457 24.2266131,54.0600265 C24.3596492,54.381622 24.3792564,54.8179292 24.2845186,55.1541843 C23.7228717,57.1488097 23.1122982,59.129875 22.5174839,61.1153382 C22.2171448,62.1180566 21.9149732,63.1202253 21.6001578,64.1676556 C22.6613315,64.379304 23.6682646,64.5803241 24.6849096,64.7833599 C24.719543,64.6781771 24.7406162,64.6226538 24.7561921,64.5654812 C25.6324712,61.3616199 26.5120488,58.1584915 27.3762338,54.9511485 C27.4319404,54.7444478 27.4119666,54.4945011 27.3551606,54.2841355 C26.5292739,51.2241217 25.6821307,48.1701551 24.8624744,45.1088586 C24.6665851,44.377893 24.435696,43.6271369 24.4221358,42.8818781 C24.3708272,40.0276489 24.405827,37.1717704 24.397581,34.3166249 C24.396115,33.7714701 24.5132088,33.312074 25.0647772,33.0835671 C25.5390161,32.8871281 25.9207161,33.0223631 26.378463,33.5440626 C27.6862849,35.0347634 28.9805467,36.5375583 30.3000963,38.0179973 C31.6198291,39.4986196 33.6703444,39.5319702 35.009318,38.0694893 C36.482977,36.4602288 37.9121073,34.8102878 39.3593789,33.1770222 C39.3973107,33.1341428 39.422232,33.0795357 39.4202163,33.0826509 C38.8871557,32.5433599 38.3760845,32.0256918 37.8496206,31.4926311 L37.8496206,31.4926311 Z M26.4788814,36.9293368 L26.4788814,37.3707748 C26.4788814,38.2107714 26.5228603,39.0533334 26.4702689,39.8898484 C26.3304527,42.1111483 26.6762366,44.2481553 27.3218099,46.3747173 C28.0967544,48.9264086 28.7524062,51.5149321 29.4307804,54.0952096 C29.5224031,54.4437422 29.5262513,54.8582431 29.4338956,55.205493 C28.4718576,58.8145098 27.4819664,62.41638 26.4992217,66.0198994 C26.2707147,66.857697 25.8565803,67.1248687 25.0182329,66.9604977 C23.9114311,66.7437185 22.8053623,66.5225413 21.7018589,66.2896365 C21.4568599,66.2379613 21.2899234,66.2084588 21.158903,66.5025676 C20.9864692,66.8895817 20.6164968,67.0178535 20.208776,67.0184032 C18.559568,67.0207854 16.9101768,67.0277487 15.2609688,67.0162043 C14.4627522,67.0107069 14.1096384,66.6110488 14.1094552,65.7578586 C14.1083557,59.3133036 14.1087222,52.8689318 14.1087222,46.4245601 L14.1087222,45.789615 C13.6676507,46.2299535 13.3092228,46.5885646 12.9498787,46.9462595 C12.2693056,47.624084 11.7248837,47.6072254 11.0980014,46.8907362 C9.52080888,45.0877854 7.94141738,43.2868503 6.36605728,41.4822503 C4.69137821,39.5642214 4.52792338,36.9916402 6.03438323,34.9532192 C7.35833074,33.1618128 8.7431157,31.4136524 10.1425603,29.6797851 C11.1289699,28.4575387 12.4659278,27.8630909 14.029377,27.8550281 C17.5568496,27.8367036 21.0846887,27.8361538 24.6121612,27.8552113 C26.2322332,27.8638239 27.5545315,28.5482452 28.6006791,29.7789208 C29.1520643,30.4277925 29.7102296,31.0711669 30.3186041,31.7790436 C30.155699,30.7200688 29.9649406,29.753633 29.8667211,28.7780348 C29.7292871,27.4130404 29.5832406,26.0414491 29.576094,24.6720567 C29.5451255,18.6401702 29.5629003,12.6079172 29.5629003,6.57584743 C29.5629003,6.48422476 29.5603349,6.39241885 29.5645495,6.30097943 C29.6048635,5.42818193 30.1874004,5.01441397 31.0283132,5.25483185 C32.4198783,5.65302395 33.801548,6.09171327 35.20649,6.435848 C40.7172268,7.78618283 46.3113402,8.24319668 51.96849,7.8519679 C56.3682104,7.54778066 60.6739259,6.72171071 64.8739089,5.36404606 C65.0479919,5.30778975 65.2217085,5.24676905 65.4000062,5.21011999 C66.0422811,5.0780001 66.5601324,5.4430248 66.6477237,6.08896459 C66.6702628,6.25443512 66.671912,6.42357056 66.6720953,6.59105679 C66.6731948,12.5774985 66.6997653,18.5639401 66.665132,24.5498321 C66.6328808,30.1133435 65.3477813,35.3981388 62.9144666,40.3972547 C59.6997937,47.0015996 54.9590538,52.2772327 48.9005967,56.3943887 C48.2612538,56.8288634 47.9708099,56.825565 47.319556,56.383394 C41.6070661,52.5048234 37.0664301,47.5687439 33.8541395,41.4386379 C33.7209201,41.1842934 33.5811039,41.0965189 33.2906601,41.1331679 C31.4079975,41.3719366 29.888344,40.680552 28.6582181,39.2796414 C27.9644513,38.4893043 27.2743494,37.695852 26.582415,36.9036825 C26.5479649,36.9121118 26.5133315,36.9207243 26.4788814,36.9293368 Z M31.62496,7.62162852 L31.62496,8.19536965 C31.62496,13.341265 31.6363212,18.4873436 31.6201956,23.6332389 C31.6121328,26.2217625 31.8294618,28.7846317 32.3682031,31.3163491 C32.5552966,32.1957435 32.7920495,33.0645096 33.0260538,34.0192177 C33.2021526,33.8165484 33.3027543,33.7044023 33.3991413,33.5887745 C34.5730109,32.182733 35.7421161,30.7726602 36.9209333,29.3706502 C37.4604075,28.7292916 38.0502743,28.7062027 38.6432561,29.2942369 C39.6082261,30.2513273 40.5687981,31.212449 41.5260717,32.1772357 C42.0510695,32.7058985 42.0725092,33.2374932 41.5806788,33.7897946 C39.6140899,35.9977176 37.6414539,38.2003264 35.6444463,40.4346367 C38.3447495,45.8968135 43.2386825,51.1841743 48.132982,54.4098418 C48.2279031,54.3480881 48.330887,54.2856015 48.4291065,54.2163347 C52.3208708,51.4687543 55.6535536,48.1642912 58.3274695,44.2151711 C62.4504894,38.1257456 64.6074702,31.4180503 64.6104021,24.0431587 C64.6124178,18.7596462 64.6107686,13.4763168 64.6107686,8.19298746 L64.6107686,7.62162852 C53.5944258,10.859207 42.631774,10.8427149 31.62496,7.62162852 Z M20.2775513,13.4187369 C23.6621385,13.4075594 26.4497366,16.1793991 26.4774055,19.5834095 C26.5048912,22.9668972 23.6575575,25.8112991 20.2691223,25.785829 C16.8508194,25.7601757 14.1049995,23.0017124 14.1088475,19.597702 C14.1126955,16.1905766 16.8687767,13.4299144 20.2775513,13.4187369 Z M24.4002207,19.6163923 C24.4080999,17.3491898 22.5839667,15.4994032 20.3207954,15.4790638 C18.0508444,15.4589077 16.1713732,17.3121757 16.1552483,19.5870742 C16.1393066,21.8462143 18.0206101,23.7278842 20.2920271,23.7247692 C22.553366,23.7218374 24.3923415,21.8826786 24.4002207,19.6163923 Z M61.5281583,57.6933555 L61.5281583,55.7253805 L63.5511046,55.7253805 L63.5511046,57.6933555 L61.5281583,57.6933555 Z M57.4042061,57.698303 L57.4042061,55.7204331 L59.4320999,55.7204331 L59.4320999,57.698303 L57.4042061,57.698303 Z M53.2808037,57.6979365 L53.2808037,55.7209828 L55.3085143,55.7209828 L55.3085143,57.6979365 L53.2808037,57.6979365 Z M40.9269047,57.7114961 L40.9269047,55.7250141 L42.9361083,55.7250141 L42.9361083,57.7114961 L40.9269047,57.7114961 Z M36.7963561,57.7030672 L36.7963561,55.7112712 L38.8204019,55.7112712 L38.8204019,57.7030672 L36.7963561,57.7030672 Z M32.6735034,57.7027007 L32.6735034,55.7160354 L34.6971827,55.7160354 L34.6971827,57.7027007 L32.6735034,57.7027007 Z M42.9930953,61.8215221 L42.9930953,59.8355898 L44.9861739,59.8355898 L44.9861739,61.8215221 L42.9930953,61.8215221 Z M47.1197959,61.8328829 L47.1197959,59.8401707 L49.1042624,59.8401707 L49.1042624,61.8328829 L47.1197959,61.8328829 Z M51.2448475,61.835265 L51.2448475,59.8423696 L53.2214347,59.8423696 L53.2214347,61.835265 L51.2448475,61.835265 Z M48.1039117,45.3433229 C46.1837618,45.3348939 44.6465791,44.4689116 43.3554849,43.1283432 C42.1171631,41.8429293 41.206654,40.3640162 40.9281324,38.5600391 C40.8306499,37.9282349 41.0069247,37.4899298 41.4433974,37.2579507 C41.9130361,37.0081974 42.2844593,37.0926701 42.7929445,37.5645077 C45.3842948,39.9691386 49.7781564,40.3284681 52.5138982,38.3480329 C52.8704791,38.0898507 53.190046,37.7792625 53.5184083,37.4836997 C53.9424208,37.1016487 54.3248383,37.0239559 54.7675411,37.2467731 C55.1774442,37.453099 55.3910996,37.8804098 55.3245843,38.4008054 C55.097186,40.1807783 54.230654,41.647048 53.0469372,42.9447388 C51.9290028,44.1706003 50.5948477,45.0374988 48.9235348,45.306492 C48.8484073,45.3185857 48.773463,45.3398413 48.697969,45.3416737 C48.500072,45.3466211 48.3019919,45.3433229 48.1039117,45.3433229 Z M51.941463,41.0150605 C49.6737108,43.9780173 46.6744729,44.0947398 44.269842,41.0004015 C45.566983,41.4749876 46.8117181,41.6628065 48.081007,41.6651885 C49.3664208,41.6675706 50.6291132,41.499908 51.941463,41.0150605 Z M40.8433116,17.5400321 C42.0090711,17.5634865 42.9681383,17.8859852 43.8201945,18.4915865 C45.5265058,19.7046213 46.6832866,21.2931107 47.0591075,23.3882528 C47.1635531,23.9696666 46.9572273,24.415118 46.5246026,24.6340872 C46.0930774,24.8528733 45.6282028,24.7958863 45.2454188,24.3601466 C43.323803,22.1728358 38.5546703,22.0700394 36.5427182,24.3693085 C36.1707452,24.7944204 35.7313408,24.8492085 35.3036635,24.6456312 C34.8813002,24.4449857 34.6821206,24.0779602 34.7323277,23.5049753 C34.8307265,22.3769628 35.3229035,21.3977395 35.9651523,20.4962091 C36.9656312,19.0920571 38.2162299,18.0170003 39.9588223,17.6422788 C40.0775604,17.6168087 40.1979477,17.5959196 40.3187015,17.5832762 C40.5307078,17.5614709 40.7436302,17.5479113 40.8433116,17.5400321 Z M43.5193179,20.9717114 C41.7923007,20.5310243 40.1233699,20.534689 38.4340997,20.9172897 C39.2733293,19.1864246 42.0178665,19.1979686 43.5193179,20.9717114 Z M55.1379382,17.5428723 C56.5025108,17.5276635 57.6228273,17.9635865 58.6062651,18.7441799 C60.0327721,19.8769566 61.0308689,21.3018145 61.4437039,23.0990118 C61.4909793,23.3046047 61.5038059,23.5221081 61.5036227,23.7339311 C61.503073,24.1533626 61.3046263,24.4652335 60.9256904,24.6442569 C60.5298965,24.8309764 60.1511438,24.7756385 59.8152687,24.4982163 C59.5099944,24.246081 59.2318393,23.9591305 58.9139215,23.7251357 C57.5068377,22.6894751 55.8958101,22.599322 54.2404389,22.7607546 C52.975731,22.8842569 51.9186315,23.4411169 51.0222318,24.3327525 C50.5784296,24.7743559 50.1516685,24.8577291 49.7056675,24.6334459 C49.2605826,24.4097124 49.0824754,23.974156 49.1777591,23.3423517 C49.5693385,20.744588 51.8942609,18.1908015 54.3694384,17.6493335 C54.6505254,17.5877655 54.9413239,17.5692585 55.1379382,17.5428723 Z M52.7325743,20.9565943 C54.2153353,19.1978769 56.5349439,19.2092377 57.914542,20.9562278 C56.1849595,20.532765 54.4947731,20.5265349 52.7325743,20.9565943 Z M20.3024167,42.2741064 C19.7446405,42.2830851 19.2706041,41.8314036 19.2557618,41.2765593 C19.240553,40.7019252 19.7140398,40.2168945 20.2894068,40.2181772 C20.8427852,40.2194599 21.3076598,40.6845176 21.3111413,41.2406447 C21.314806,41.8037347 20.8644073,42.2649445 20.3024167,42.2741064 M20.2797868,38.150704 C19.7229268,38.1472225 19.257869,37.6841803 19.2556702,37.1308019 C19.2532881,36.5559846 19.7381356,36.0808487 20.3120366,36.0953245 C20.8666978,36.1092506 21.320578,36.5838368 21.3115994,37.1403302 C21.3024375,37.7025041 20.8412277,38.1541855 20.2797868,38.150704 M21.3074582,33.0117239 C21.3083744,33.5704162 20.8486305,34.027778 20.2859069,34.027778 C19.729047,34.027778 19.2581256,33.5643694 19.2562932,33.0146557 C19.2540943,32.4365401 19.7323452,31.961221 20.3056966,31.9720321 C20.8618236,31.9824766 21.306542,32.4438697 21.3074582,33.0117239"/>
</svg>
