<svg xmlns="http://www.w3.org/2000/svg" width="72" height="72" viewBox="0 0 72 72">
  <path d="M59.761,35.88 C59.761,22.6919332 49.0693637,12 35.881,12 C22.6917847,12 12,22.6917847 12,35.88 C12,49.0690668 22.6916363,59.761 35.881,59.761 C49.0695121,59.761 59.761,49.0689184 59.761,35.88 Z M61.761,35.88 C61.761,50.1734631 50.1741064,61.761 35.881,61.761 C21.5870544,61.761 10,50.1736239 10,35.88 C10,21.5872153 21.5872153,10 35.881,10 C50.1739456,10 61.761,21.5873761 61.761,35.88 Z M37.328019,59.4225643 L36.859181,61.3668357 C27.8239819,59.1881048 21.2446,48.4456695 21.2446,35.8797 C21.2446,22.9542451 28.2016648,11.9996248 37.5774266,10.2428062 L37.9457734,12.2085938 C29.6363154,13.7656096 23.2446,23.8300286 23.2446,35.8797 C23.2446,47.6013212 29.2989033,57.4864385 37.328019,59.4225643 Z M34.373281,12.1978357 L34.842119,10.2535643 C43.8772925,12.432289 50.4577,23.1756978 50.4577,35.7407 C50.4577,48.6658553 43.4998451,59.6207359 34.1238734,61.3775938 L33.7555266,59.4118062 C42.0652376,57.854743 48.4577,47.7900515 48.4577,35.7407 C48.4577,24.0200607 42.4024007,14.1339625 34.373281,12.1978357 Z M34.6414,10.7609 L36.6414,10.7609 L36.6414,60.5219 L34.6414,60.5219 L34.6414,10.7609 Z M11.4436121,31.3570684 L11.0355879,29.3991316 C11.1300077,29.379455 11.3091887,29.3434402 11.5681218,29.2934248 C11.9969098,29.2106002 12.4954059,29.1184564 13.0586047,29.0193315 C14.6648684,28.7366238 16.4696694,28.4541034 18.4330294,28.1904934 C24.0437996,27.437165 29.806164,26.9851 35.4026,26.9851 C41.0883012,26.9851 46.9493209,27.3007608 52.6594631,27.8268168 C54.6577932,28.0109162 56.4949742,28.2082067 58.1300273,28.4055891 C58.7030136,28.4747596 59.2100493,28.5390378 59.6460064,28.5967871 C59.9087566,28.6315925 60.0901501,28.656594 60.1850568,28.6701556 L59.9021432,30.6500444 C59.8138937,30.6374341 59.639253,30.6133634 59.3833693,30.5794676 C58.9549368,30.522715 58.4555399,30.4594052 57.890329,30.3911734 C56.2733899,30.1959777 54.4548599,30.00069 52.4759869,29.8183832 C46.8226916,29.2975642 41.0210238,28.9851 35.4026,28.9851 C29.904036,28.9851 24.2277754,29.43041 18.6991706,30.1727066 C16.7637493,30.4325653 14.9856597,30.7109044 13.4052828,30.989056 C12.8531573,31.0862319 12.3655265,31.1763673 11.9474298,31.2571268 C11.698232,31.3052617 11.5286142,31.3393544 11.4436121,31.3570684 Z M11.0055383,41.6374217 L11.4736617,39.6929783 C11.5702459,39.7162308 11.7606637,39.7607544 12.0378882,39.823511 C12.5023783,39.9286598 13.0396582,40.0459758 13.6426939,40.1724214 C15.3678251,40.53415 17.271898,40.8960392 19.298499,41.2338061 C23.7422735,41.9744352 28.1269992,42.4925654 32.2187026,42.6894156 C33.3971381,42.7461097 34.5393495,42.7752 35.6416,42.7752 C37.6607821,42.7752 39.8978458,42.6814643 42.3153746,42.5041972 C45.4155326,42.2768759 48.7199066,41.9198346 52.1058376,41.4684686 C54.2543944,41.1820524 56.3055098,40.8751462 58.1887761,40.5683081 C58.8474864,40.4609853 59.4379559,40.3613755 59.9514015,40.2720492 C60.2585098,40.2186203 60.4710715,40.1806093 60.5803097,40.1605866 L60.9408903,42.1278134 C60.8258473,42.1489001 60.6073689,42.1879692 60.2942009,42.2424524 C59.7738525,42.3329796 59.1763367,42.433778 58.5103927,42.5422794 C56.6089324,42.8520819 54.538915,43.1618163 52.3701124,43.4509314 C48.9475228,43.9071842 45.6048573,44.268363 42.4616333,44.4988422 C39.9983541,44.6794639 37.7135499,44.7752 35.6416,44.7752 C34.5062949,44.7752 33.3321526,44.7452965 32.1225945,44.6871051 C27.9444015,44.4860939 23.4849109,43.9591289 18.969701,43.2065939 C16.914427,42.8640483 14.9833749,42.4970313 13.2322561,42.1298536 C12.6186043,42.001182 12.0709623,41.8816035 11.5963118,41.7741546 C11.3100519,41.7093526 11.1107978,41.6627629 11.0055383,41.6374217 Z"/>
</svg>
