<svg xmlns="http://www.w3.org/2000/svg" width="72" height="72" viewBox="0 0 72 72">
  <path d="M57.5858543,38.8014291 C53.1075875,43.8250329 48.5339175,48.579467 44.108294,52.9162401 C42.5522734,54.4410215 41.1231671,55.8070365 39.8540906,56.9931469 C39.0742495,57.7220058 38.3719264,58.3650167 38.2215437,58.4971269 C37.6053067,59.0520191 36.8148575,59.349 36.0003933,59.349 C35.1847339,59.349 34.393942,59.0518903 33.7881375,58.5050409 C33.628501,58.364701 32.9264439,57.7219976 32.1465733,56.9931784 C30.8773674,55.8070565 29.4481463,54.4410443 27.8920177,52.9162648 C23.4660661,48.5794767 18.8922046,43.8250392 14.4140117,38.8015183 C9.9013125,33.7405076 8.76268749,27.1822949 11.3967797,21.3051767 C13.9258613,15.6595244 19.2877145,12 25.0753933,12 C29.6946206,12 33.3795225,13.6456996 36.0002436,16.4096989 C38.6199018,13.6459269 42.3048517,12 46.9233933,12 C52.7125192,12 58.0736073,15.6589662 60.6029377,21.3050224 C63.2378529,27.181757 62.0988937,33.7400369 57.5858543,38.8014291 Z M58.7777797,22.1228233 C56.5633271,17.1795155 51.9047723,14 46.9233933,14 C42.4492136,14 39.0561556,15.7177179 36.7805491,18.5555852 L36.0005829,19.5282668 L35.2203859,18.5557703 C32.9433107,15.7174521 29.5503072,14 25.0753933,14 C20.0955142,14 15.4362392,17.180007 13.2219303,22.1229941 C10.9162128,27.2674511 11.9092779,32.9872725 15.9068543,37.4705709 C20.3530953,42.458249 24.8962403,47.1807573 29.2917688,51.4877352 C31.9460595,54.0885536 34.36599,56.3500722 35.1183804,57.0116273 C35.3622628,57.2317298 35.674391,57.349 36.0003933,57.349 C36.3255906,57.349 36.6381493,57.2315681 36.8921375,57.0029591 C37.6333351,56.3513569 40.0543656,54.0886016 42.7084925,51.4877599 C47.1037096,47.1807827 51.6466797,42.4582619 56.0930117,37.4704817 C60.0909534,32.9867737 61.0842752,27.2669337 58.777918,22.123132 L59.6903933,21.714 L58.7777797,22.1228233 Z M48.9980958,32.919018 C49.3465775,32.4905569 49.9764141,32.4257208 50.4048752,32.7742025 C50.8333363,33.1226842 50.8981725,33.7525208 50.5496907,34.180982 C50.3427348,34.435436 50.1244491,34.6751002 49.8910681,34.9039714 C49.4967526,35.2906673 48.8636177,35.2844904 48.4769218,34.8901749 C48.0902259,34.4958593 48.0964029,33.8627245 48.4907184,33.4760286 C48.6705022,33.2997189 48.8383073,33.1154793 48.9980958,32.919018 Z M45.563204,21.526194 C45.035941,21.36184 44.7417452,20.8011736 44.9060993,20.2739107 C45.0704533,19.7466478 45.6311196,19.452452 46.1583825,19.616806 C49.9648973,20.8033412 52.6067933,24.3379533 52.6067933,28.3855 C52.6067933,28.9377847 52.159078,29.3855 51.6067933,29.3855 C51.0545085,29.3855 50.6067933,28.9377847 50.6067933,28.3855 C50.6067933,25.2194309 48.5398472,22.4540486 45.563204,21.526194 Z"/>
</svg>
