<svg xmlns="http://www.w3.org/2000/svg" width="72" height="72" viewBox="0 0 72 72">
  <path fill="#F5BD3E" d="M47.4297412,44.4633513 L47.4297412,46.3889569 C47.4297412,46.9412416 46.9820259,47.3889569 46.4297412,47.3889569 L44.5174746,47.3889569 L37.192339,62.4193057 C36.8272103,63.1685085 35.7596132,63.1685085 35.3944845,62.4193057 L28.069349,47.3889569 L26.5830745,47.3889569 C26.0307898,47.3889569 25.5830745,46.9412416 25.5830745,46.3889569 L25.5830745,44.4811467 L10.5619486,37.1614676 C9.81270591,36.7963674 9.81267758,35.7287309 10.5619009,35.363591 L25.5830745,28.0429021 L25.5830745,26.5422902 C25.5830745,25.9900054 26.0307898,25.5422902 26.5830745,25.5422902 L28.0937996,25.5422902 L35.3945865,10.5619021 C35.7597152,9.8126993 36.8273123,9.8126993 37.192441,10.5619021 L44.4932278,25.5422902 L46.4297412,25.5422902 C46.9820259,25.5422902 47.4297412,25.9900054 47.4297412,26.5422902 L47.4297412,28.0549195 L62.4202788,35.3596932 C63.1695215,35.7247934 63.1695499,36.7924299 62.4203265,37.1575698 L47.4297412,44.4633513 Z M45.4297412,45.3889569 L45.4297412,27.5422902 L27.5830745,27.5422902 L27.5830745,45.3889569 L45.4297412,45.3889569 Z M42.2592106,25.5235294 L36.2935137,13.2825949 L30.3278169,25.5235294 L42.2592106,25.5235294 Z M30.3277149,47.4576784 L36.2934118,59.698613 L42.2591086,47.4576784 L30.3277149,47.4576784 Z M25.5255686,42.2283065 L25.5255686,30.2958036 L13.2827129,36.2624571 L25.5255686,42.2283065 Z M47.4566588,42.2253572 L59.6995146,36.2587037 L47.4566588,30.2928543 L47.4566588,42.2253572 Z M41.0283373,36.3591765 C41.0283373,38.9151917 38.9561856,40.9869412 36.3995529,40.9869412 C33.8445573,40.9869412 31.7728078,38.9147895 31.7728078,36.3591765 C31.7728078,33.802745 33.8443562,31.7303922 36.3995529,31.7303922 C38.9563867,31.7303922 41.0283373,33.8023427 41.0283373,36.3591765 Z M39.0283373,36.3591765 C39.0283373,34.9069122 37.8518172,33.7303922 36.3995529,33.7303922 C34.9490996,33.7303922 33.7728078,34.9071407 33.7728078,36.3591765 C33.7728078,37.8103069 34.9492137,38.9869412 36.3995529,38.9869412 C37.851703,38.9869412 39.0283373,37.8105353 39.0283373,36.3591765 Z"/>
</svg>
