<svg xmlns="http://www.w3.org/2000/svg" width="72" height="72" viewBox="0 0 72 72">
  <path fill="#F5BD3E" fill-rule="evenodd" d="M40.8227077,29.236096 C40.6193846,25.4789268 38.5725415,23.2940652 34.6899323,23.0848837 C34.3921846,26.3284037 37.3169354,29.2777945 40.8227077,29.236096 L40.8227077,29.236096 Z M49.0479877,23.0428406 C47.1596677,23.2563298 45.4097108,23.7045022 44.2032123,25.2764652 C43.3139323,26.4347175 42.9949908,27.8000837 42.8786831,29.240576 C46.5820923,29.0346683 48.8973908,27.0412406 49.0479877,23.0428406 L49.0479877,23.0428406 Z M40.8649231,39.8614498 C40.6759015,38.1380283 40.2814892,36.4947298 38.9287015,35.2787545 C37.7290954,34.2006252 36.2434585,33.8417083 34.6742523,33.7036898 C34.5944738,37.197056 37.7508062,40.3284037 40.8649231,39.8614498 L40.8649231,39.8614498 Z M42.9033231,39.8733391 C46.0491446,40.243456 49.5504369,36.728896 49.0274831,33.7264345 C45.3371692,33.9931668 43.1281846,35.8833822 42.9033231,39.8733391 L42.9033231,39.8733391 Z M22.5067446,57.3878991 L24.3919631,57.3878991 L24.3919631,43.8819052 L22.5067446,43.8819052 L22.5067446,57.3878991 Z M41.8665477,19.2250191 C42.9930954,18.1260406 44.1124062,17.0363668 45.2287877,15.9437637 C45.7724185,15.4120222 46.3132923,14.877696 46.8508923,14.3399237 C47.9174769,13.2729945 47.9626215,11.7572037 46.9620308,10.7231852 C45.9803938,9.70863754 44.31728,9.65642831 43.2615508,10.6117022 C43.0277292,10.823296 42.8118277,11.0547052 42.5797292,11.2685391 C42.1263877,11.685696 41.6094646,11.6869022 41.1569846,11.271296 C40.9247138,11.0579791 40.70864,10.8269145 40.4749908,10.6148037 C39.4108185,9.647296 37.7235815,9.71018831 36.7447015,10.7498929 C35.7704738,11.7844283 35.8244062,13.2814375 36.8775508,14.3350991 C37.4253169,14.8832098 37.9763569,15.4277022 38.5301538,15.9696098 C39.6368862,17.0525637 40.74672,18.1327606 41.8665477,19.2250191 L41.8665477,19.2250191 Z M26.3722954,56.4502006 C27.2023015,56.4502006 27.9895754,56.4676037 28.7758154,56.4439975 C29.2648246,56.4291791 29.6985231,56.5404898 30.1354954,56.7605268 C33.4265723,58.4186437 36.7295385,60.0531545 40.0178585,61.7167852 C40.6047385,62.014016 41.10512,62.0021268 41.6732185,61.6694006 C48.1957538,57.8503729 54.7267323,54.0456468 61.2552985,50.2369575 C61.7136369,49.969536 62.1783508,49.7121083 62.6249723,49.4262498 C63.0826215,49.1331545 63.27888,48.6102006 63.1527508,48.1194683 C63.0178338,47.5954806 62.5946462,47.2174375 62.0489477,47.1838375 C61.8104738,47.1690191 61.5651077,47.221056 61.3262892,47.2624098 C56.4243077,48.1127483 51.5228431,48.9656714 46.6213785,49.8191114 C45.7383015,49.9729822 44.8560862,50.1315052 43.9733538,50.2879606 C43.9419938,50.3374129 43.9102892,50.3868652 43.8785846,50.4361452 C44.1398031,50.6542868 44.4222154,50.8514068 44.65776,51.0941883 C45.5849477,52.0498068 45.9326646,53.1999606 45.6462892,54.4957145 C45.3323446,55.9169083 44.4397908,56.868736 43.0440985,57.2660775 C41.6664985,57.6580775 40.4257108,57.325696 39.3994462,56.3140775 C38.0802585,55.014016 36.77968,53.6951729 35.4668677,52.388736 C35.1136369,52.0372283 34.7448985,51.7012283 34.4306092,51.403136 C34.9258215,50.9105083 35.3686523,50.4702622 35.8726523,49.9688468 C35.9410585,50.0601698 36.0220431,50.2006006 36.1326646,50.3115668 C37.6625846,51.8475175 39.1919877,53.3841575 40.7317292,54.9106314 C41.5246892,55.6966991 42.6583015,55.6711975 43.3640738,54.8739298 C44.0279754,54.1238745 43.9404431,53.1084652 43.13008,52.2965514 C40.7258708,49.8883791 38.3213169,47.4805514 35.90384,45.0858191 C35.7539323,44.9374622 35.4892677,44.8314929 35.2773292,44.8301145 C32.4632,44.8134006 29.6490708,44.8190868 26.8349415,44.8190868 L26.3722954,44.8190868 L26.3722954,56.4502006 Z M57.3627298,19.5343631 C57.6568591,19.2498831 57.9787298,18.9383508 58.2278868,18.6974646 C57.9406498,18.3780062 57.6422129,18.0457969 57.4195914,17.7980185 C57.0959975,18.0850831 56.7615483,18.3819692 56.4910252,18.6218215 C56.7987668,18.9440369 57.101856,19.2614277 57.3627298,19.5343631 Z M21.4263926,23.5381563 C21.132608,23.2204209 20.8345157,22.8982055 20.570368,22.6123471 C20.2576295,22.9111286 19.9355865,23.2185255 19.6831557,23.459584 C19.9715988,23.7768025 20.2660726,24.1005686 20.5195372,24.3791902 C20.8412357,24.0809255 21.1627618,23.7826609 21.4263926,23.5381563 Z M7.00008615,59.3654745 L7.00008615,57.4151237 L20.5169354,57.4151237 L20.5169354,43.8748406 L7.01163077,43.8748406 L7.01163077,41.9298314 C7.14430769,41.9213883 7.28094769,41.9051914 7.41758769,41.9051914 C13.3191262,41.9039852 19.2206646,41.905536 25.1222031,41.9015729 C25.7089108,41.9012283 26.15536,42.0611298 26.3474831,42.6883298 C26.3779815,42.7884406 26.6379938,42.8720098 26.7922092,42.8725268 C29.7069662,42.8833822 32.6220677,42.8942375 35.5366523,42.8697698 C36.1724677,42.8644283 36.6499323,43.038976 37.0951754,43.5061022 C38.1944985,44.6595298 39.3417231,45.7671237 40.4648246,46.8981514 C40.5744123,47.0086006 40.6498831,47.1524775 40.7412062,47.2806745 C40.7785969,47.2555175 40.81616,47.2303606 40.8537231,47.2050314 L40.8537231,41.9119114 C40.31216,41.8261022 39.7481969,41.7575237 39.1928492,41.6448345 C35.2725046,40.8496345 33.3230154,38.3928714 32.78352,34.594176 C32.6990892,34.0000591 32.6901292,33.3930191 32.6816862,32.7914929 C32.6723815,32.1287975 33.0450831,31.7243914 33.7122585,31.7311114 C36.3725169,31.7586806 38.8396185,32.3283298 40.7587815,34.3565637 C40.7754954,34.3739668 40.8063385,34.3779298 40.8606154,34.4008468 L40.8606154,31.2669145 C40.1870646,31.1518129 39.5045538,31.0747914 38.8416862,30.9154068 C35.2783631,30.0580037 33.3436923,27.8043914 32.7878277,23.9679606 C32.6977108,23.3462745 32.6904738,22.7097698 32.6828923,22.0796406 C32.6758277,21.4832837 33.0423262,21.0952468 33.6405785,21.0907668 C36.35856,21.0695729 38.8473723,21.6885022 40.89008,23.8209822 L40.89008,23.0493883 L40.89008,22.4032345 C40.89008,20.9350006 40.8775015,20.9477514 39.8072985,19.9147668 C38.2999508,18.4596283 36.7770954,17.0175852 35.3283323,15.5052406 C34.0484308,14.1693391 33.7649846,12.5393083 34.4462892,10.8360468 C35.1339692,9.11710523 36.4846892,8.18061292 38.3382031,8.01864369 C39.6834092,7.90095754 40.8492431,8.343616 41.8643077,9.24581908 C42.6934523,8.52023138 43.6308062,8.07447138 44.7377108,8.01278523 C46.7299323,7.90164677 48.48144,8.95100062 49.2600985,10.7385206 C50.0148062,12.4717637 49.56336,14.4291791 48.1285538,15.8157391 C46.4258092,17.4617945 44.7430523,19.1285268 43.0584,20.7930191 C42.9569108,20.8931298 42.8561108,21.051136 42.8531815,21.1843298 C42.8347446,22.0294991 42.8437046,22.8751852 42.8437046,23.7439606 C42.9091815,23.7243175 42.9570831,23.7248345 42.9787938,23.701056 C44.5287015,22.016576 46.5410831,21.3635298 48.7362831,21.1319483 C49.1913477,21.0838745 49.6541662,21.0771545 50.1119877,21.0924898 C50.6509662,21.1105822 51.0319385,21.4657083 51.0481354,21.9726375 C51.1129231,24.0074191 50.7441846,25.9479483 49.6657108,27.7025575 C48.4519754,29.6775483 46.5569354,30.6007729 44.3651815,31.0291298 C43.8878892,31.1223483 43.4023262,31.1718006 42.8812677,31.2470991 L42.8812677,34.4130806 C43.2139938,34.1146437 43.5132923,33.8113822 43.8472246,33.5529206 C45.2163815,32.4923668 46.8071262,32.004736 48.5010831,31.8136468 C49.0267938,31.7543729 49.5606031,31.7273206 50.0892431,31.7409329 C50.64304,31.7550622 51.0269415,32.1045022 51.0445169,32.6033329 C51.1184369,34.6687852 50.7402215,36.634816 49.6321108,38.4094129 C48.4869538,40.2436283 46.7282092,41.1656468 44.6829169,41.6193329 C44.0962092,41.7494252 43.4953723,41.8149022 42.8711015,41.9146683 L42.8711015,48.5030252 C44.2416369,48.2666191 45.5933908,48.0353822 46.9448,47.8003545 C51.5066462,47.0075668 56.0667692,46.2042683 60.6317169,45.4302622 C61.2861415,45.3194683 61.9826092,45.2343483 62.6275569,45.3377329 C63.9014277,45.5420898 64.8825477,46.591616 65.0691569,47.8093145 C65.2805785,49.1886375 64.8294769,50.330176 63.6386585,51.0692037 C62.0189662,52.0746191 60.3541292,53.0073206 58.7068677,53.9684529 C53.3815262,57.0758498 48.0494646,60.1718745 42.7341169,63.2961575 C41.5079754,64.0169206 40.3321477,64.0629268 39.0649969,63.4179791 C35.87024,61.7926006 32.6589415,60.1997883 29.4466092,58.6095606 C29.1767754,58.4758498 28.8509415,58.4146806 28.5471631,58.3990006 C27.9315077,58.3671237 27.3122338,58.376256 26.6958892,58.4005514 C26.5673477,58.4055483 26.3802215,58.5204775 26.3299077,58.6333391 C26.0966031,59.1588775 25.8348677,59.3592714 25.2405785,59.364096 C24.4796677,59.3701268 23.7185846,59.3654745 22.9575015,59.3654745 L7.49150769,59.3654745 L7.00008615,59.3654745 Z M16.6834511,24.4370855 L16.6834511,22.556864 C18.4322018,22.3609502 19.3972972,21.3817255 19.6054449,19.6393502 L21.4518942,19.6393502 C22.0394634,21.7154855 22.6527065,22.3263163 24.3838818,22.5392886 L24.3838818,24.4319163 C22.6794142,24.6252455 21.690368,25.5803471 21.4832542,27.3421932 L19.6088911,27.3421932 C19.4036726,25.6420332 18.4658018,24.6362732 16.6834511,24.4370855 Z M56.4350252,14.7879754 L58.3207606,14.7879754 C58.3922683,15.5568123 58.6298806,16.2601723 59.1945329,16.8208615 C59.7498806,17.3727631 60.4292898,17.6332923 61.2501637,17.6973908 C61.2501637,18.2730708 61.2596406,18.8411692 61.239136,19.4080615 C61.2362068,19.4876677 61.0968098,19.6101785 61.0023852,19.6312 C59.2739668,20.01648 58.6364283,20.6826215 58.3135237,22.4880615 L56.5204898,22.4880615 C56.3185452,21.9544246 56.1922437,21.4163077 55.9249945,20.9607262 C55.4742375,20.1925785 54.7562314,19.7538831 53.8600591,19.6551508 C53.6017698,19.62672 53.4785698,19.5541785 53.4913206,19.2652185 C53.5138929,18.7513969 53.4975237,18.2360246 53.4975237,17.7149662 C55.2571298,17.5056123 56.2379052,16.54448 56.4350252,14.7879754 Z M27.2961575,18.6217354 L25.4319606,18.6217354 C25.364416,18.3146831 25.3315052,18.0138338 25.2317391,17.7371077 C24.8271606,16.6159015 24.0347175,15.9437292 22.8451052,15.7790031 C22.5907791,15.74368 22.461376,15.6818215 22.4742991,15.3904492 C22.497216,14.8766277 22.4806745,14.3612554 22.4806745,13.8381292 C24.2378683,13.6287754 25.2207114,12.6700554 25.4171422,10.9116554 L27.2923668,10.9116554 C27.4874191,12.63232 28.4425206,13.6191262 30.2333145,13.8360615 C30.2333145,14.3943385 30.2427914,14.9620923 30.2224591,15.5284677 C30.2195298,15.6087631 30.0816837,15.73248 29.9876037,15.7536738 C28.2512591,16.1458462 27.6094129,16.8161231 27.2961575,18.6217354 Z M16.6850708,39.9520492 L16.6850708,38.0616615 L18.5739077,38.0616615 L18.5739077,39.9520492 L16.6850708,39.9520492 Z M20.5764677,39.9539446 L20.5764677,38.0595938 L22.4523815,38.0595938 L22.4523815,39.9539446 L20.5764677,39.9539446 Z M24.4427077,39.9480862 L24.4427077,38.0501169 L26.3251692,38.0501169 L26.3251692,39.9480862 L24.4427077,39.9480862 Z M27.2734129,14.7744492 C26.9692898,14.47136 26.6508652,14.1537969 26.3829268,13.88672 C26.0676037,14.1808492 25.7376345,14.4885908 25.4857206,14.7239631 C25.7865698,15.0506585 26.0891422,15.3789046 26.3443298,15.6558031 C26.6522437,15.3637415 26.9692898,15.0628923 27.2734129,14.7744492 Z"/>
</svg>
