<svg xmlns="http://www.w3.org/2000/svg" width="72" height="72" viewBox="0 0 72 72">
  <path d="M21.714629,36.109563 C21.158274,38.9374927 18.6571341,40.9738614 15.8169578,40.6853687 C10.6513787,40.0214471 6.98280778,34.3696955 8.25279769,29.2249885 C8.8347994,26.8764547 10.9225947,25.2055148 13.3624195,25.0612705 L13.4288032,26.1841204 L13.3633487,25.059216 C14.2461009,25.0078515 15.1275754,25.1672556 15.9392432,25.5244155 C16.0157845,25.55395 16.0157845,25.55395 16.0465612,25.5689758 C16.0469871,25.5691971 16.0265752,25.5633913 15.9853258,25.5515586 L16.0264227,25.6001834 C16.0500782,25.5723546 16.0601906,25.576641 16.0702932,25.5809459 C20.0733836,27.2993039 22.5357449,31.8757029 21.714629,36.109563 Z M10.1942942,29.705187 C9.20548202,33.7108491 12.1149276,38.1931023 16.0453684,38.698634 C17.7903997,38.8756662 19.3879997,37.5749382 19.751729,35.7261356 C20.3695586,32.5404516 18.5602883,29.0256604 15.6288673,27.5783216 L15.1891233,27.3798531 L14.9761694,27.2900626 C14.4987807,27.106212 13.9898072,27.0262636 13.4803371,27.0557918 C11.8999694,27.1512239 10.5617979,28.222212 10.1942942,29.705187 Z M52.8945658,58.4727546 C51.113468,62.5485794 46.5193601,63.1871013 42.3215487,60.6843122 C41.9275787,60.4695148 41.5185324,60.2290754 41.0183297,59.9182381 C40.771022,59.7616691 39.7802183,59.1352028 39.7390971,59.1093544 C37.6810186,57.8124168 36.5764787,57.3195021 35.6547708,57.2529809 C35.5695177,57.2471302 35.5024495,57.2449395 35.4459712,57.2460912 L35.2555407,57.2453819 C34.5350351,57.1857547 33.9847273,57.3077987 32.8537935,57.7694961 C32.7350698,57.8182979 32.6711585,57.8443919 32.6093092,57.8688351 C32.528058,57.9035711 32.528058,57.9035711 32.4735389,57.9265986 C32.4155755,57.9507659 32.4155755,57.9507659 32.3335901,57.9845137 C29.5223785,59.154914 27.8547007,59.4307946 25.5224917,59.0147964 C20.9306626,58.343076 18.2043787,53.1983968 20.0813504,49.0459302 C21.3633738,45.3459393 23.7406554,41.8466916 27.0958013,38.6232544 L27.1641115,38.559596 C30.3188711,35.7496011 34.740231,34.3346477 38.788883,34.8738983 C40.9995205,35.1652056 43.0206865,36.0247595 44.6743013,37.3875559 C47.735205,39.8450987 49.4637896,42.4734319 52.3575618,48.7976072 L52.3955618,48.8786072 L52.4354905,48.97699 L52.465772,49.0647257 C52.5064128,49.1839686 52.594099,49.4396566 52.6086226,49.482392 C52.6242182,49.5283834 52.6242182,49.5283834 52.6368786,49.5660388 C53.177022,51.1525732 53.4477891,52.1665219 53.6058841,53.2578042 C53.8912837,55.2236868 53.6651277,56.9645203 52.8945658,58.4727546 Z M43.4122823,38.9390537 C42.0422644,37.8100657 40.3722111,37.0998318 38.5262107,36.8565736 C35.0624548,36.3952277 31.2206558,37.6247061 28.5136731,40.0354005 C25.3424398,43.0812472 23.1429329,46.3188189 21.9378369,49.7844064 C20.5683014,52.8214588 22.5486328,56.5584761 25.8426362,57.04083 C27.7848534,57.3868572 29.0803068,57.172553 31.5684874,56.1366493 C31.6528989,56.101889 31.6528989,56.101889 31.6977908,56.0831728 C31.743131,56.0640302 31.743131,56.0640302 31.8448465,56.0208508 C31.9206016,55.9905487 31.9774046,55.967357 32.0962747,55.9185065 C33.494856,55.3475417 34.3323078,55.1618165 35.3179337,55.244273 C35.5275852,55.2440101 35.6516484,55.2480624 35.795215,55.2579212 C37.139059,55.3548996 38.4875686,55.9566889 40.8044087,57.4166909 C40.8472013,57.4435891 41.8385548,58.0704031 42.0809981,58.2239345 C42.5437237,58.5114439 42.9207239,58.7330464 43.3122101,58.9473258 C46.6207583,60.9192512 49.838265,60.4720592 51.0872557,57.6182878 C51.6834237,56.4484016 51.8556561,55.1225534 51.6266134,53.5450104 C51.4890049,52.5950681 51.2475346,51.6908089 50.7422332,50.2065859 C50.7293688,50.168344 50.7293688,50.168344 50.7169842,50.1318115 C50.7015762,50.0864713 50.6142745,49.8319044 50.5739839,49.7136649 C47.7635707,43.564425 46.1865771,41.1665878 43.4122823,38.9390537 Z M28.2955341,9.22086897 C32.2526779,10.2920738 34.87475,14.3407531 34.9911636,18.9708021 C35.180436,23.0521386 32.9377272,26.595632 29.3049695,27.201395 C28.63248,27.3053252 27.9498725,27.2861491 27.2990223,27.1448444 L27.1448535,27.1078855 L27.0908746,27.0910442 C22.369201,25.6583205 19.6084556,20.2665925 20.5427736,14.9841468 C21.0807159,11.748031 23.6769608,9.10451751 26.7182075,9.0314162 C27.2421159,9.01801414 27.7655472,9.08073944 28.2955341,9.22086897 Z M26.7282988,9.45124817 L26.7662669,11.0308387 C24.7575437,11.0791216 22.9059595,12.9644167 22.5139547,15.3222865 C21.7437918,19.6768849 23.9877929,24.0594128 27.6786208,25.1793694 L27.7163657,25.1888857 C28.1328783,25.2792975 28.5681415,25.2915251 28.987739,25.22675 C31.4994592,24.8078705 33.1395355,22.2165399 32.9925543,19.0423109 C32.8960628,15.2119771 30.7963243,11.9698205 27.7786501,11.1529135 C27.4358006,11.0622751 27.1014531,11.0222312 26.7689898,11.0307958 L26.7282988,9.45124817 Z M47.1930851,26.8212537 L47.0777078,26.8555033 C46.2786393,27.0724111 45.4690359,27.1120399 44.6587107,26.9592179 C40.7790954,26.1671857 38.4802226,22.0685329 39.0497361,17.797086 C39.4484096,13.3525718 42.1938026,9.71733968 46.0448455,9.0528572 L46.1188455,9.0388572 L46.2526986,9.02278237 L46.7077372,9.00042744 C50.1875168,8.95844186 53.0344858,12.0150831 53.3355779,15.7019931 C54.0130242,20.5602468 51.4960288,25.3779842 47.1930851,26.8212537 Z M41.0369936,18.0183769 C40.5907433,21.3707866 42.3115372,24.4387845 45.0439274,24.9967247 C45.5358285,25.0894234 46.0403097,25.0647299 46.5283893,24.9326012 L46.587626,24.915374 C49.891023,23.8069476 51.9146457,19.9223872 51.3515274,15.9553481 C51.3457997,15.9155968 51.3451093,15.9108853 51.3444152,15.9061737 C51.1431781,13.1951055 49.1120967,10.9901008 46.7384049,11.0001861 L46.4235281,11.0165941 C43.5157889,11.5187564 41.3655398,14.3659461 41.0369936,18.0183769 Z M58.7614607,24.2213918 L58.8149201,24.2196449 L59.0395733,24.219865 C62.7387601,24.404076 65.2964866,28.0091475 64.9180697,31.8477996 C64.7204944,36.8877022 60.9374218,41.3062752 56.3134603,41.3635054 L56.1714589,41.36268 L56.0996091,41.3581584 C52.2220532,41.0851712 49.716281,37.0478589 50.4440641,33.0251279 C50.9812885,28.3442211 54.4623973,24.4771063 58.7614607,24.2213918 Z M52.4267137,33.2914143 C52.4229244,33.3263171 52.422149,33.3336249 52.4213823,33.3409352 C51.8643382,36.2906578 53.6453866,39.1804264 56.2322155,39.3625749 L56.2854601,39.363704 C59.7606561,39.320688 62.7609563,35.8163816 62.9236175,31.7109657 C63.2019931,28.8741864 61.404103,26.3400915 58.9957542,26.2186099 L58.854623,26.219445 C55.598419,26.4283378 52.8444932,29.5086637 52.4267137,33.2914143 Z"/>
</svg>
