<svg xmlns="http://www.w3.org/2000/svg" width="72" height="72" viewBox="0 0 72 72">
  <path fill="#BDC3CF" fill-rule="evenodd" d="M55.9017444,45.4623935 L36.5926978,48.8204462 L31.1082353,43.3359838 C30.9261663,43.1529412 30.6788641,43.0507099 30.4198783,43.0507099 L20.68357,43.0507099 C20.68357,42.5122921 20.248357,42.0770791 19.7099391,42.0770791 L15.8154158,42.0770791 L9,42.0770791 L9,44.0243408 L14.841785,44.0243408 L14.841785,57.6551724 L9,57.6551724 L9,59.6024341 L15.8154158,59.6024341 L19.7099391,59.6024341 C20.248357,59.6024341 20.68357,59.1672211 20.68357,58.6288032 L23.3746856,58.6288032 L33.7837728,63.8338337 C34.2335903,64.0587424 34.7213793,64.1716836 35.2072211,64.1716836 C35.761217,64.1716836 36.3142394,64.0266126 36.8098174,63.7374442 L58.0505477,51.3460446 C59.0241785,50.7784178 59.6288032,49.7259229 59.6288032,48.5984584 C59.6288032,47.6569574 59.2150101,46.7690061 58.4945233,46.1624341 C57.7759838,45.5558621 56.8266937,45.3017444 55.9017444,45.4623935 L55.9017444,45.4623935 Z M18.7363083,57.6551724 L16.7890467,57.6551724 L16.7890467,44.0243408 L18.7363083,44.0243408 L18.7363083,57.6551724 L18.7363083,57.6551724 Z M57.0691278,49.6636105 L35.8293712,62.0550101 C35.4691278,62.2653144 35.0300203,62.2789452 34.6551724,62.0920081 L24.0406491,56.7847465 C23.9053144,56.7165923 23.7553753,56.6815416 23.6044625,56.6815416 L20.68357,56.6815416 L20.68357,44.9979716 L30.0167951,44.9979716 L37.6880325,52.6692089 C38.0190669,53.0002434 38.2089249,53.4588235 38.2089249,53.9281136 C38.2089249,54.9095335 37.4105477,55.7079108 36.4291278,55.7079108 C35.9608114,55.7079108 35.5012576,55.5180527 35.1702231,55.1870183 L30.1346045,50.1513996 L28.7578905,51.5281136 L33.7935091,56.5637323 C34.4974442,57.2676673 35.4331034,57.6551724 36.4291278,57.6551724 C38.4834888,57.6551724 40.1561866,55.9824746 40.1561866,53.9281136 C40.1561866,52.9330629 39.7686815,51.99643 39.0647465,51.2924949 L38.2761055,50.503854 L56.2337525,47.3804462 C56.5949696,47.315213 56.9610548,47.4164706 57.2404868,47.6520892 C57.5208925,47.8877079 57.6815416,48.2323732 57.6815416,48.5974848 C57.6815416,49.034645 57.4468966,49.44357 57.0691278,49.6636105 Z M63.5233266,14.8154158 L57.6815416,14.8154158 L57.6815416,28.4462475 L63.5233266,28.4462475 L63.5233266,30.3935091 L56.7079108,30.3935091 L56.0078702,30.3935091 L52.8133874,30.3935091 C52.2749696,30.3935091 51.8397566,29.4198783 51.8397566,29.4198783 L42.1034483,29.4198783 C41.8444625,29.4198783 41.5971602,29.1667343 41.4141176,28.9846653 L35.9296552,23.3502637 L16.6215822,26.7092901 C16.4395132,26.7404462 16.2574442,26.7589452 16.0744016,26.7589452 C15.3305477,26.7589452 14.60714,26.5028803 14.0278296,26.0160649 C13.3083164,25.4094929 12.8945233,24.5322515 12.8945233,23.5907505 C12.8945233,22.463286 13.4991481,21.4292901 14.4727789,20.8616633 L35.7135091,8.50823529 C36.6423529,7.96592292 37.773712,8.00389452 38.7385801,8.48681542 L49.148641,13.841785 L51.8397566,13.841785 C51.8397566,12.8681542 52.2749696,12.8681542 52.8133874,12.8681542 L56.7079108,12.8681542 C56.9844219,12.8681542 57.2307505,12.6841379 57.4079513,12.8681542 L63.5233266,12.8681542 L63.5233266,14.8154158 Z M42.5065314,27.4726166 L51.8397566,27.4726166 L51.8397566,15.7890467 L48.9188641,15.7890467 C48.7679513,15.7890467 48.6180122,15.6030832 48.4826775,15.5359026 L37.8681542,10.0777282 C37.4933063,9.89079108 37.0541988,9.90539554 36.6939554,10.1147262 L15.4541988,22.5051521 C15.07643,22.7251927 14.841785,23.1341176 14.841785,23.5722515 C14.841785,23.9373631 15.0024341,24.2820284 15.2808925,24.5176471 C15.5612982,24.7522921 15.9244625,24.8525761 16.2886004,24.7892901 L34.2462475,21.6658824 L33.4585801,20.878215 C32.7536714,20.1723327 32.36714,19.2366734 32.36714,18.2425963 C32.36714,16.1872617 34.0398377,14.5155375 36.0941988,14.5155375 C37.0902231,14.5155375 38.026856,14.9040162 38.7307911,15.6098986 L43.7654361,20.6455172 L42.3887221,22.0270994 L37.3531034,17.0021907 C37.0162272,16.6653144 36.5693306,16.4988235 36.0941988,16.4988235 C35.1127789,16.4988235 34.3144016,17.3351724 34.3144016,18.3175659 C34.3144016,18.7926978 34.4993915,19.3155375 34.8362677,19.6524138 L42.5065314,27.4726166 Z M53.7870183,14.8154158 L53.7870183,28.4462475 L55.7342799,28.4462475 L55.7342799,14.8154158 L53.7870183,14.8154158 Z M36.2616633,31.4138742 C37.8467343,30.0264503 40.3255984,30.0605274 41.866856,31.5258418 L41.866856,31.5268154 C42.6477079,32.2706694 43.0770791,33.2618256 43.0770791,34.3201623 C43.0770791,35.3775254 42.6477079,36.3686815 41.8658824,37.1125355 L36.9324949,41.8093306 C36.7445842,41.9875051 36.5031237,42.0770791 36.2616633,42.0770791 C36.0202028,42.0770791 35.7787424,41.9875051 35.589858,41.808357 L30.6564706,37.1115619 C29.8756187,36.3686815 29.4462475,35.3775254 29.4462475,34.3201623 C29.4462475,33.2618256 29.8756187,32.2706694 30.6564706,31.5268154 C32.1967546,30.061501 34.6756187,30.0254767 36.2616633,31.4138742 Z M40.5242191,35.7007708 C40.9136714,35.3288438 41.1298174,34.8381339 41.1298174,34.3191886 C41.1298174,33.8002434 40.914645,33.3085598 40.5222718,32.9356592 C39.6820284,32.1392292 38.3179716,32.1382556 37.4796755,32.9366329 L36.9315213,33.458499 C36.5547262,33.8158215 35.9656795,33.8158215 35.5888844,33.458499 L35.0407302,32.9366329 C34.622069,32.5374442 34.0709939,32.3378499 33.5199189,32.3378499 C32.9698174,32.3378499 32.4187424,32.5374442 31.9991075,32.9366329 C31.6086815,33.3085598 31.3935091,33.8002434 31.3935091,34.3191886 C31.3935091,34.8381339 31.6096552,35.3288438 31.9991075,35.7007708 L36.2616633,39.7588641 L40.5242191,35.7007708 Z M24.9636511,28.6068966 C24.6228803,29.1112373 24.3142394,29.6389452 24.0484381,30.1773631 L22.3046653,29.309858 C22.6094118,28.695497 22.9618661,28.0918458 23.3493712,27.5174037 L24.9636511,28.6068966 Z M21.0097363,39.4239351 L22.9151318,39.0247465 C23.0397566,39.6206085 23.2043002,40.2096552 23.4038945,40.7743611 L21.5686004,41.4227992 C21.3397972,40.7772819 21.1518864,40.1035294 21.0097363,39.4239351 Z M20.9727383,33.2345639 C21.1061258,32.5549696 21.2843002,31.8792698 21.5053144,31.2269371 L23.3503448,31.8529817 C23.1565923,32.4235294 22.9998377,33.0135497 22.8839757,33.6074645 L20.9727383,33.2345639 Z M20.68357,36.238215 C20.68357,35.9188641 20.6933063,35.6043813 20.7118053,35.2908722 L22.6551724,35.4106288 C22.6386207,35.6842191 22.6308316,35.958783 22.6308316,36.2352941 C22.6318053,36.5673022 22.6434888,36.900284 22.6658824,37.2283976 L20.7244625,37.3656795 C20.6981744,36.9927789 20.6845436,36.6169574 20.68357,36.238215 Z M49.1174848,31.6923327 L50.9547262,31.0458418 C51.184503,31.7010953 51.3724138,32.3738742 51.5126166,33.0456795 L49.6052738,33.4409736 C49.48357,32.8538742 49.32,32.2658012 49.1174848,31.6923327 Z M47.5606491,43.8597972 C47.9004462,43.3583773 48.2090872,42.8306694 48.4758621,42.2903043 L50.2196349,43.1578093 C49.9139148,43.7750913 49.5604868,44.3777688 49.1729817,44.9512373 L47.5606491,43.8597972 Z M49.1739554,40.6156592 C49.3677079,40.0451116 49.5244625,39.4560649 49.6412982,38.8611765 L51.5525355,39.2340771 C51.4191481,39.914645 51.2409736,40.5893712 51.0189858,41.2417039 L49.1739554,40.6156592 Z M51.8397566,36.238215 C51.8397566,36.5507505 51.8300203,36.8642596 51.8115213,37.1767951 L49.8681542,37.0570385 C49.8847059,36.7844219 49.8924949,36.5108316 49.8924949,36.2352941 C49.8934686,35.8993915 49.8808114,35.568357 49.8574442,35.241217 L51.7988641,35.0990669 C51.8261258,35.4758621 51.8407302,35.8555781 51.8397566,36.238215 Z"/>
</svg>
