<svg xmlns="http://www.w3.org/2000/svg" width="72" height="72" viewBox="0 0 72 72">
  <path fill="#F5BD3E" d="M39.7029174,33.8053894 L30.8651734,42.6158894 L41.6694,42.6158894 C42.2216848,42.6158894 42.6694,43.0636047 42.6694,43.6158894 C42.6694,44.1681742 42.2216848,44.6158894 41.6694,44.6158894 L28.858989,44.6158894 L19.6548033,53.7917016 C22.1638263,56.0044214 27.0927072,57.6506372 32.2778176,57.7750773 C38.9093434,57.9342307 45.0179871,55.7164169 49.273387,51.0508789 C52.870362,47.1074893 55.5464578,41.3217566 57.3999868,34.1796847 C58.6731439,29.273919 59.4887123,24.0090742 59.9350758,18.7200975 C60.0948558,16.8268586 60.1962624,15.0511695 60.2506538,13.4345747 C60.2686402,12.8999927 60.2801095,12.4304496 60.2866561,12.0317324 C53.8518257,11.8561204 46.0461749,12.3899893 38.5713208,14.2172517 C31.1431819,16.0330944 25.2251111,18.9204639 21.3652414,23.032259 C16.6269526,28.0790998 14.5321091,34.1781754 14.7708703,40.5346289 C14.9433868,45.1274741 16.3985909,49.5712591 18.3301413,52.2882091 L27.2734,43.3725197 L27.2734,31.0438894 C27.2734,30.4916047 27.7211153,30.0438894 28.2734,30.0438894 C28.8256848,30.0438894 29.2734,30.4916047 29.2734,31.0438894 L29.2734,41.378685 L38.3193,32.3606706 L38.3193,26.1083894 C38.3193,25.5561047 38.7670153,25.1083894 39.3193,25.1083894 C39.8715848,25.1083894 40.3193,25.5561047 40.3193,26.1083894 L40.3193,30.366836 L48.2479856,22.4625919 C48.6391123,22.072671 49.2722766,22.0736484 49.6621975,22.4647751 C50.0521185,22.8559018 50.0511411,23.489066 49.6600144,23.878987 L41.7091018,31.8053894 L46.3693,31.8053894 C46.9215848,31.8053894 47.3693,32.2531047 47.3693,32.8053894 C47.3693,33.3576742 46.9215848,33.8053894 46.3693,33.8053894 L39.7029174,33.8053894 Z M16.8973425,53.7165911 C14.6230224,50.6732092 12.9641725,45.7183937 12.7722797,40.6097 C12.5141385,33.7372997 14.7886425,27.1151479 19.9071108,21.6633708 C24.0747479,17.2237209 30.3252943,14.1741397 38.096396,12.2744582 C45.8527194,10.3783893 53.905762,9.84140424 60.5418658,10.0381894 C60.9302569,10.0497067 61.2024385,10.0613266 61.3478405,10.0692834 L62.2846178,10.1205459 L62.2931586,11.0586859 C62.2958725,11.630831 62.2850799,12.4450163 62.2495227,13.5018279 C62.1940363,15.1509682 62.0907179,16.9601334 61.9279911,18.8882897 C61.4727806,24.282095 60.6404334,29.6552541 59.3358567,34.6820867 C57.4077904,42.1113676 54.6026248,48.1761502 50.7510354,52.3986753 C46.0751785,57.5251942 39.4054589,59.9467131 32.2298324,59.7745016 C26.5601749,59.6384326 21.135746,57.8196936 18.236787,55.2053466 L11.7060144,61.715987 C11.3148877,62.1059079 10.6817235,62.1049305 10.2918025,61.7138038 C9.90188153,61.3226771 9.90285896,60.6895129 10.2939856,60.2995919 L16.8973425,53.7165911 Z"/>
</svg>
