<svg xmlns="http://www.w3.org/2000/svg" width="72" height="72" viewBox="0 0 72 72">
  <path fill="#BDC3CF" d="M37.1357,40.5342 L45.5353,40.5342 C46.0875847,40.5342 46.5353,40.9819153 46.5353,41.5342 C46.5353,42.0864847 46.0875847,42.5342 45.5353,42.5342 L37.1357,42.5342 L37.1357,50.9327 C37.1357,51.4849847 36.6879847,51.9327 36.1357,51.9327 C35.5834153,51.9327 35.1357,51.4849847 35.1357,50.9327 L35.1357,42.5342 L26.7383,42.5342 C26.1860153,42.5342 25.7383,42.0864847 25.7383,41.5342 C25.7383,40.9819153 26.1860153,40.5342 26.7383,40.5342 L35.1357,40.5342 L35.1357,32.1367 C35.1357,31.5844153 35.5834153,31.1367 36.1357,31.1367 C36.6879847,31.1367 37.1357,31.5844153 37.1357,32.1367 L37.1357,40.5342 Z M23.67,20.526 L23.67,11 C23.67,10.4477153 24.1177153,10 24.67,10 L47.978,10 C48.5302847,10 48.978,10.4477153 48.978,11 L48.978,20.526 L65.271,20.526 C65.8232847,20.526 66.271,20.9737153 66.271,21.526 L66.271,61 C66.271,61.5522847 65.8232847,62 65.271,62 L7,62 C6.44771525,62 6,61.5522847 6,61 L6,21.526 C6,20.9737153 6.44771525,20.526 7,20.526 L23.67,20.526 Z M24.67,22.526 L8,22.526 L8,60 L64.271,60 L64.271,22.526 L47.978,22.526 L24.67,22.526 Z M25.67,20.526 L46.978,20.526 L46.978,12 L25.67,12 L25.67,20.526 Z"/>
</svg>
