<svg xmlns="http://www.w3.org/2000/svg" width="72" height="72" viewBox="0 0 72 72">
  <path d="M27.2983331,55.0458808 C28.5384174,54.2590641 29.506931,53.4091178 30.2305061,52.5084984 C31.9432615,50.3766661 32.200704,48.1482891 31.625673,46.11713 C31.5308173,45.7820751 31.4403658,45.5521423 31.3905687,45.45021 C31.2072638,45.0749934 31.2764181,44.6253782 31.5640058,44.3225886 C31.7686129,44.1071659 31.7686129,44.1071659 32.6894001,43.1376255 C33.5846135,42.1949906 34.5821383,41.1445559 35.6563963,40.0132317 C38.7257006,36.7808811 41.795003,33.547891 44.6596726,30.5295484 C51.8206474,22.9844207 56.4989541,18.0492179 57.5365,16.9423638 C58.3238619,16.1024061 58.2884013,15.0858975 57.6182282,14.4514659 C56.8992356,13.7708183 55.7442412,13.8070271 54.5431885,14.8738956 C53.3510396,15.932855 48.4678973,20.482016 41.0985797,27.3855295 C38.0300185,30.260201 34.8239195,33.2679124 31.620794,36.2756325 C30.4996928,37.3283413 29.4590454,38.3058546 28.5254237,39.1831046 C28.0052969,39.6718514 28.0052969,39.6718514 27.6586203,39.9976708 C27.4053117,40.2357599 27.4053117,40.2357599 27.3520246,40.2858545 C27.0687087,40.5521969 26.6566852,40.6301519 26.2956508,40.4857208 C26.1961415,40.4459123 25.9756786,40.3747048 25.6561712,40.3002065 C23.8578509,39.8808995 21.8887835,40.031059 20.0430306,41.1517021 C19.7847656,41.3085069 19.5314672,41.4835988 19.2834677,41.6777022 C17.0303761,43.4413581 16.1561308,45.9655698 17.8944755,49.4429827 C19.5524463,52.7583393 18.5443634,55.5162591 15.9553246,57.5151401 C15.8113187,57.6263207 15.667488,57.7316402 15.5247498,57.8311976 C18.8342899,58.5202968 22.8284913,57.882402 27.2983331,55.0458808 Z M27.1558974,37.7255732 C28.0896747,36.848177 29.1304826,35.870513 30.2517518,34.8176464 C33.455399,31.8094364 36.6620388,28.8012178 39.6591417,25.9934886 C47.1276006,18.9970995 52.0021056,14.4559849 53.2149713,13.3786233 C55.1629111,11.6483115 57.489304,11.5753797 58.9931816,12.999053 C60.4594699,14.3871418 60.5388918,16.6638351 58.9956598,18.3101551 C57.9536437,19.4217778 53.2777725,24.3544114 46.1249705,31.890928 C43.2455361,34.9248273 40.1761247,38.1579323 37.1067152,41.3903936 C36.0324234,42.5217535 35.0348663,43.5722222 34.1396215,44.5148901 C33.8072215,44.8648898 33.5948112,45.0885466 33.4494509,45.2416026 C33.4828316,45.343798 33.5165843,45.4541515 33.5500417,45.5723319 C34.2875365,48.1773554 33.9536206,51.0676729 31.7896397,53.7611366 C30.9243678,54.8381231 29.790255,55.8333956 28.3698897,56.7345982 C22.9656959,60.1640508 18.043792,60.6974354 14.0310265,59.5169173 C13.3231551,59.3086681 12.8150985,59.0939881 12.5246196,58.9369966 C11.7663836,58.5272024 11.8470987,57.4142295 12.6565279,57.1181258 C12.7691957,57.0769099 12.9910791,56.9828642 13.2845273,56.835779 C13.7798353,56.5875156 14.2752956,56.2855026 14.7330958,55.9320556 C16.6331348,54.4651204 17.2820419,52.6898363 16.1056155,50.3373986 C13.8946381,45.9145237 15.1103318,42.404447 18.0507384,40.1027804 C18.3610006,39.8599455 18.6793221,39.6399065 19.0050693,39.4421301 C21.3569721,38.0141797 23.8456091,37.8243982 26.1103213,38.352452 C26.2169023,38.3773031 26.3166662,38.4023628 26.4093079,38.4271582 C26.6446022,38.2060212 26.703839,38.1503583 27.1558974,37.7255732 Z M23.3848799,40.1998594 L23.3848799,38.1998594 C29.2294939,38.1998594 33.9678799,42.9379039 33.9678799,48.7828594 L31.9678799,48.7828594 C31.9678799,44.0425057 28.1249567,40.1998594 23.3848799,40.1998594 Z"/>
</svg>
