<svg xmlns="http://www.w3.org/2000/svg" width="72" height="72" viewBox="0 0 72 72">
  <g fill-rule="evenodd">
    <path fill-rule="nonzero" d="M54.0997977,24.4048729 C54.1281586,24.7640829 54.1582181,25.08489 54.2180494,25.68726 C54.6908258,30.4470807 54.4137354,32.237862 51.8959882,33.4122877 C49.0232851,34.7517592 44.4816977,32.12862 38.1625986,26.5289281 C36.9103442,25.4192385 35.6048316,24.202957 34.2383956,22.8795893 C31.3997815,20.1304448 24.2061247,12.6569132 24.757206,13.2079946 C22.9257577,11.3761266 21.281079,11.7163458 19.5703209,13.528046 C19.2653306,13.851032 18.9866746,14.1974567 18.7398324,14.5461939 L34.9015005,30.707862 L33.4761458,32.110756 C33.3456475,31.976045 33.1001638,31.7230872 32.7556296,31.3687823 C32.18121,30.7780726 31.5395974,30.1198034 30.8467311,29.4108791 C28.8672496,27.385521 26.8738642,25.3602272 24.9942556,23.4703935 C24.8174962,23.2927148 24.8174962,23.2927148 24.6406621,23.1151345 C21.6174805,20.0799581 19.2210798,17.7317581 17.6944389,16.3269933 C16.0532823,14.8175478 14.6355329,14.8455815 13.642661,15.9351431 C12.7413248,16.9242549 12.5915409,18.4006089 13.258656,19.0680175 C14.1720484,19.9818117 17.176943,22.8989121 21.6071673,27.1794872 C23.550795,29.0574222 25.5881973,31.0234352 27.6256082,32.9877719 C28.3387086,33.6752962 29.0008713,34.3134991 29.5951145,34.8860782 C30.206319,35.47494 30.206319,35.47494 30.3420868,35.605698 L28.9665687,37.057484 C28.8422385,36.9415993 28.6093445,36.724297 28.2833913,36.4198004 C27.7402566,35.9124189 27.1350792,35.3462965 26.4833607,34.735654 C24.621219,32.9908776 22.7590369,31.2387626 21.0207274,29.5929758 C20.9251989,29.5025245 20.9251989,29.5025245 20.8296849,29.4120563 C17.9450003,26.6795296 15.7182387,24.5390273 14.3901944,23.210983 C13.0529153,21.8733537 11.9730923,21.8770913 11.3828314,22.7625254 C10.6848118,23.8096053 10.9032041,25.6033603 12.217364,27.1255194 C12.8479429,27.8559959 15.2454424,30.3704583 18.8150429,34.0618144 C20.4222535,35.7235645 22.0404128,37.3904666 23.6585953,39.053286 C24.2249772,39.6352914 24.7508975,40.1752057 25.2228623,40.6593339 C25.5060003,40.949769 25.7082637,41.1570984 25.8159756,41.2674398 L24.3683519,42.6472284 C24.3022204,42.5761671 24.1772775,42.4421214 24.0021194,42.2545387 C23.7100203,41.94172 23.3838241,41.5931058 23.0316749,41.2176582 C22.0256548,40.1450792 21.0134127,39.0725589 20.0602469,38.0719401 C19.9813303,37.9891101 19.9813303,37.9891101 19.9023907,37.9063188 C18.7005778,36.6461116 17.6906782,35.6037627 16.9370094,34.8497979 C16.7456444,34.6582825 16.5521667,34.4569522 16.347713,34.2375769 C16.0618336,33.9308333 15.0449873,32.7946389 14.816632,32.5507292 C14.3117301,32.0114357 13.9328668,31.6657776 13.5987651,31.4486744 C12.9723294,31.0416092 12.5728932,31.1035215 11.8334077,31.9098463 C10.5764125,33.2805428 11.3791072,35.5358228 13.8313612,38.1948663 C15.1641274,39.6393969 20.2604224,45.5327792 21.2014508,46.5846345 C26.7931906,52.8349257 31.1886456,56.6480519 35.753293,58.6375021 C41.4135179,61.1044473 46.7946853,60.3175205 52.2740855,55.5767408 C56.7948715,51.665238 59.4070047,46.54662 60.4010479,40.4802192 C61.3678824,34.5798662 60.7601276,28.2233828 59.1529187,22.0301336 C58.7798024,20.5923603 58.3802931,19.2797046 57.9814178,18.120106 C57.9055094,17.8994272 57.8326635,17.6932405 57.7634318,17.5021122 C54.5453587,18.4249147 53.7821103,20.381147 54.0997977,24.4048729 Z M18.1161776,12.1549228 C20.5114397,9.61832997 23.399233,9.02095933 26.1715005,11.793862 C25.6436836,11.266045 32.8218253,18.7234578 35.6297868,21.4429159 C36.9761589,22.746852 38.2604169,23.9433317 39.4890375,25.0320781 C45.0996296,30.003924 49.2866098,32.4222485 51.0506629,31.5997135 C52.4277229,30.9573715 52.6128387,29.7610046 52.2278427,25.8849403 C52.1667355,25.2697249 52.1357352,24.9388763 52.1060024,24.5622901 C51.692896,19.3300191 53.07794,16.4154296 58.1783405,15.341428 L58.9929997,15.1698836 L59.3093732,15.9399517 C59.3399133,16.0142877 59.3941329,16.1513912 59.4686387,16.3478491 C59.5909685,16.67041 59.7267739,17.0454496 59.872659,17.4695625 C60.2877507,18.6763049 60.7022084,20.0380762 61.0887946,21.5277548 C62.7600887,27.967951 63.3931093,34.588688 62.3747265,40.8036271 C61.3088332,47.3085114 58.479853,52.852053 53.5826909,57.0892064 C47.5175474,62.3367713 41.3160369,63.2436629 34.9542126,60.4709334 C30.0542385,58.3353348 25.481693,54.3685799 19.710894,47.9181413 C18.7499276,46.8439999 13.6677324,40.9669227 12.3612807,39.5509133 C9.27903374,36.2087518 8.13224196,32.9866843 10.359401,30.5580681 C10.7943793,30.0837738 11.2386085,29.7358569 11.6887953,29.5112502 C11.2270768,29.0175652 10.8947572,28.6540632 10.7034645,28.4324656 C8.83089452,26.2635137 8.49336828,23.4912575 9.71870612,21.6531621 C10.2162447,20.9068183 10.8809397,20.4351665 11.6308855,20.2468145 C10.3646253,18.7064651 10.6834016,16.2132424 12.1643765,14.5880444 C13.4383747,13.1899793 15.2049493,12.7791395 17.0117808,13.5188679 C17.2977939,13.1024197 17.6678561,12.6296972 18.1161776,12.1549228 Z"/>
    <path d="M17.3773172,35.4521182 C17.4259188,35.5023761 17.4259188,35.5023761 17.4745229,35.5526307 C18.9862394,37.1156381 20.6057685,38.7839512 22.2252744,40.4481306 C22.7920834,41.0305748 23.3184118,41.5709081 23.7907729,42.0554428 C24.0742303,42.3462055 24.276678,42.5537239 24.384812,42.6644977 L25.8324357,41.2847092 C25.7652615,41.212528 25.6398635,41.0779941 25.4639154,40.8895654 C25.1708377,40.5756985 24.8436323,40.2260058 24.4904254,39.8494305 C23.4811426,38.773373 22.4655067,37.6972567 21.5083813,36.6924813 C21.4290783,36.6092457 21.4290783,36.6092457 21.3497396,36.5260359 C20.1380152,35.2554354 19.1185194,34.203182 18.3516394,33.4360008 C18.1779049,33.2621299 18.0002677,33.077283 17.8108098,32.8739979 C17.5438234,32.5875261 16.5249571,31.4490747 16.2766323,31.1838352 C15.6703614,30.5362681 15.1881074,30.0962807 14.6885197,29.7716428 C13.683063,29.1182854 12.6717285,29.0208462 11.6887953,29.5112502 C12.840281,30.7424575 14.7965763,32.7833508 17.3773172,35.4521182 Z"/>
  </g>
</svg>
