<svg xmlns="http://www.w3.org/2000/svg" width="16" height="16" viewBox="0 0 16 16">
  <path fill="#96164A" d="M8,16 C3.581722,16 0,12.418278 0,8 C0,3.581722 3.581722,0 8,0 C12.418278,0 16,3.581722 16,8 C16,12.418278 12.418278,16 8,16 Z M8,13.1764706 C10.8588858,13.1764706 13.1764706,10.8588858 13.1764706,8 C13.1764706,5.14111424 10.8588858,2.82352941 8,2.82352941 C5.14111424,2.82352941 2.82352941,5.14111424 2.82352941,8 C2.82352941,10.8588858 5.14111424,13.1764706 8,13.1764706 Z M8,10.8235294 C6.44060777,10.8235294 5.17647059,9.55939223 5.17647059,8 C5.17647059,6.44060777 6.44060777,5.17647059 8,5.17647059 C9.55939223,5.17647059 10.8235294,6.44060777 10.8235294,8 C10.8235294,9.55939223 9.55939223,10.8235294 8,10.8235294 Z"/>
</svg>
