<svg xmlns="http://www.w3.org/2000/svg" width="72" height="72" viewBox="0 0 72 72">
  <path d="M26.7148709,54.4502018 L26.7148709,25.6930018 C26.7148709,25.140717 27.1625861,24.6930018 27.7148709,24.6930018 L33.1035222,24.6930018 C32.8905493,24.4524155 32.6809852,24.2011338 32.4771152,23.9397151 C31.0262587,22.0793097 30.1436709,20.087872 30.1436709,18.0200018 C30.1436709,15.8103164 31.0775359,13.8561487 32.6100083,12.1818322 C33.5117885,11.1965842 34.4130562,10.5123186 35.0418899,10.1396976 C35.383862,9.9370589 35.8133828,9.95620379 36.1359704,10.1884637 C36.7222878,10.6106065 37.5653805,11.3632025 38.4080983,12.4064893 C39.807231,14.1386193 40.6709968,16.0709788 40.7075162,18.1654134 C40.7556567,20.9020541 39.8316563,23.0666994 38.2658664,24.6790644 C38.2613459,24.6837194 38.2568252,24.6883652 38.2523044,24.6930018 L43.8778709,24.6930018 C44.4301556,24.6930018 44.8778709,25.140717 44.8778709,25.6930018 L44.8778709,54.4502018 L58.0808709,54.4502018 C58.9718192,54.4502018 59.4179663,55.5274334 58.7879139,56.1573723 L53.2369139,61.7073723 C53.0493828,61.8948697 52.7950561,62.0002018 52.5298709,62.0002018 L18.4098709,62.0002018 C18.1048507,62.0002018 17.8165082,61.860991 17.6268045,61.6221399 L13.2188045,56.0721399 C12.6983249,55.4168174 13.1650037,54.4502018 14.0018709,54.4502018 L26.7148709,54.4502018 Z M28.7148709,54.2420018 L42.8778709,54.2420018 L42.8778709,26.6930018 L28.7148709,26.6930018 L28.7148709,54.2420018 Z M35.4676131,12.273461 C34.9964411,12.6311869 34.5241691,13.0527175 34.0853334,13.5321713 C32.8628058,14.8678548 32.1436709,16.3726872 32.1436709,18.0200018 C32.1436709,19.5693816 32.852583,21.1689439 34.0542266,22.7097884 C34.486725,23.2643729 34.9518491,23.770179 35.4161703,24.2148069 C35.4564064,24.2533366 35.4952328,24.2901008 35.5325442,24.3250649 C35.979538,24.0519198 36.4201539,23.7088767 36.8310819,23.2857255 C38.0384583,22.0424351 38.7462398,20.3843233 38.7078228,18.2004355 C38.6801033,16.6106843 37.9949165,15.0778299 36.8522619,13.6632204 C36.433865,13.145244 35.9840196,12.6815443 35.5352706,12.2809637 C35.523251,12.2702342 35.5113642,12.2596641 35.4996136,12.2492541 C35.4890506,12.2572151 35.4783831,12.2652841 35.4676131,12.273461 Z M18.8926676,60.0002018 L52.1157101,60.0002018 L55.6663497,56.4502018 L16.073136,56.4502018 L18.8926676,60.0002018 Z"/>
</svg>
