<svg xmlns="http://www.w3.org/2000/svg" width="72" height="72" viewBox="0 0 72 72">
  <path fill-rule="evenodd" d="M27.1776307,57.060404 C27.0997902,57.2148997 27.0217522,57.3571463 26.9549753,57.5041345 C26.2222076,59.1174481 25.4914157,60.731552 24.7592407,62.3450633 C24.2509067,63.4656505 23.7394116,64.5846572 23.2320653,65.7058371 C23.0214613,66.171102 23.0838918,66.6094982 23.4156029,66.991786 C23.7226186,67.3456244 24.1602245,67.5161228 24.5678005,67.3262631 C24.9082046,67.1676186 25.2571039,66.8609981 25.4272071,66.5300772 C26.7996894,63.8582116 28.1310782,61.1650091 29.4731354,58.4777335 C29.5292438,58.3653192 29.5665836,58.2440144 29.6175553,58.1148071 C28.79292,57.7582027 27.9971293,57.4144401 27.1776307,57.060404 M50.1243802,58.0855675 C50.1372219,58.1513565 50.1366292,58.1865231 50.1504587,58.2145773 C51.5713443,61.0632632 52.9904519,63.9131346 54.4178571,66.758462 C54.6166072,67.1547769 54.9629382,67.3677517 55.4096321,67.3859276 C56.3437182,67.4234649 56.8743771,66.502023 56.4486251,65.5596392 C55.2061404,62.8083526 53.9543702,60.0612149 52.703983,57.313682 C52.6595309,57.2164802 52.5897906,57.1309347 52.5271625,57.0323499 C51.7015395,57.3942885 50.9095025,57.7414097 50.1243802,58.0855675 M14.1810319,23.5925419 C14.0782982,23.5793051 14.0131018,23.5795027 13.9530422,23.5619194 C13.3392085,23.3835184 12.7263627,23.202154 12.1145047,23.021975 C14.1733268,14.7775984 22.1729207,4.69962339 35.1999446,2.57738295 C48.5851533,0.396465786 61.4191564,7.78677002 66.5295635,20.1705231 C71.7110939,32.7271453 67.4286806,48.1818446 54.5360008,55.9473243 C54.7009674,56.3240803 54.8657364,56.7105169 55.0390007,57.0931998 C56.2186597,59.6976958 57.420446,62.2923135 58.5732363,64.9086634 C59.2526614,66.4504586 58.6627331,68.2188606 57.2537014,69.0970358 C55.8361744,69.9801502 53.9859806,69.7185745 52.9088576,68.4513943 C52.6356256,68.130154 52.421663,67.7486565 52.2308154,67.3695298 C50.8695944,64.6690173 49.5158808,61.9647512 48.1769845,59.2531751 C48.0092521,58.9137589 47.8624615,58.821101 47.4702955,58.9293665 C42.4092795,60.3257541 37.3387804,60.3490667 32.2740108,58.9471473 C31.8697933,58.8351281 31.7139147,58.9317373 31.5355138,59.2938734 C30.1549314,62.0947488 28.7622975,64.8900923 27.3473388,67.673977 C26.4579024,69.4238079 24.5324364,70.0935524 22.8369358,69.2872907 C21.1732431,68.4960439 20.4274363,66.5844075 21.1813433,64.8671748 C22.2649859,62.3997887 23.4017734,59.9557153 24.5150507,57.5015661 C24.7379038,57.0102226 24.9581884,56.5176937 25.1996126,55.9811079 C22.0286985,54.0904133 19.2934146,51.7267488 17.0228031,48.8401303 C14.7604892,45.9635877 13.104304,42.7723245 12.0506913,39.1926489 C12.7459216,38.9857987 13.4308785,38.7819119 14.1397408,38.5713078 C16.7039336,46.5185471 21.7210902,52.2724226 29.3719823,55.6051422 C35.0132459,58.06265 40.8554328,58.4239959 46.7956119,56.8233264 C58.5382673,53.6587344 66.7441188,42.6769007 66.4529084,30.5590698 C66.1530051,18.066261 57.4471173,7.58762476 45.1364632,4.96949683 C40.7404501,4.03462048 36.3715035,4.26656148 32.0679507,5.58530612 C27.768942,6.90266781 24.0329928,9.15925227 20.8606957,12.34123 C17.6885963,15.5234052 15.4744882,19.2844452 14.1810319,23.5925419 Z M20.035211,27.9315575 C19.2901943,27.8128211 18.611757,27.7045557 17.93411,27.5964877 C18.7925288,19.8116467 25.6602743,10.1772046 37.5347054,8.98569165 C50.0771029,7.72720425 60.6875149,16.9524898 61.8851523,28.8231672 C63.1527277,41.3853212 53.8873365,52.0617198 41.9818877,53.2044342 C29.4217093,54.4097767 19.4599025,45.4176176 17.8908433,34.6035164 C18.5931859,34.4897191 19.296714,34.3755267 20.026123,34.257383 C21.1880012,40.4860065 24.3733375,45.3050057 29.8672178,48.4745368 C34.1405432,50.9401447 38.7558531,51.6304359 43.5896696,50.7313188 C52.9496943,48.9903783 59.9310395,40.395917 59.7943247,30.9542981 C59.648917,20.9180093 52.3206481,12.8245721 42.97307,11.3572588 C37.5435958,10.5053596 32.5272295,11.6500497 28.0567346,14.8784552 C23.6000691,18.0967848 21.0107857,22.5068249 20.035211,27.9315575 Z M22.4001004,34.6402634 C23.1216069,34.4962387 23.8091322,34.3591288 24.4962623,34.2222164 C26.1366424,42.3640569 34.0653105,47.7277421 42.103232,46.4789353 C49.8106276,45.2814955 55.3005566,38.7276803 55.3331548,31.1927587 C55.3669384,23.4130544 49.8076641,17.1399787 42.6372495,15.802663 C34.0821035,14.2069326 26.0740143,19.9519177 24.4970526,27.9657362 C23.8097248,27.829219 23.122002,27.6925042 22.4356621,27.5561845 C23.2393554,21.8078409 28.941469,13.9080171 38.8208914,13.346143 C48.5302105,12.7939496 56.9573345,20.1747707 57.5288893,30.0822473 C58.0919488,39.8381917 50.7917341,47.8367978 41.630262,48.7744401 C31.6307202,49.7976279 23.7798926,42.5053157 22.4001004,34.6402634 Z M5.98320151,31.0956754 C4.83139907,29.9444656 3.72701218,28.840869 2.62282284,27.7368772 C2.50665478,27.6205116 2.38199143,27.5104681 2.27866507,27.3832364 C1.98389847,27.0203099 1.91534351,26.6147095 2.10974721,26.1846111 C2.29684102,25.7697251 2.63645481,25.5516137 3.08551946,25.551021 C6.42673435,25.545094 9.76794924,25.5362036 13.1089666,25.566431 C13.411043,25.5691969 13.7721914,25.7760472 14.0009714,25.996727 C15.2446414,27.1965377 16.4610475,28.4246001 17.6719218,29.6576016 C17.9097897,29.9000136 18.1490406,29.998796 18.4900374,29.9984008 C25.3534365,29.9889177 32.2170331,29.9912885 39.0806297,29.9912885 L39.7480034,29.9912885 L39.7480034,32.1972964 C39.5478703,32.1972964 39.3422055,32.1974939 39.1365406,32.1974939 C32.2729439,32.1974939 25.4093473,32.1998647 18.5459482,32.1903816 C18.1727484,32.1897889 17.9052458,32.2887689 17.6403114,32.5604204 C16.4679623,33.7618116 15.2649906,34.9333705 14.0900731,36.1323909 C13.7437421,36.4860318 13.3679739,36.6513934 12.8687278,36.6494178 C9.69208438,36.6363785 6.51544092,36.6381566 3.33879746,36.6474422 C2.78206002,36.6488251 2.3165975,36.5164567 2.09216395,35.9650535 C1.87148414,35.4227383 2.07616121,34.9865154 2.47583468,34.593164 C3.6355397,33.4510422 4.78200789,32.2952885 5.98320151,31.0956754 Z M15.9862994,31.0873777 C14.9648897,30.0675485 13.9778563,29.0599683 12.95941,28.0853814 C12.7717235,27.9057951 12.4577932,27.7698706 12.1997736,27.7663144 C10.2436851,27.7402358 8.28680638,27.7520897 6.33032276,27.7520897 L5.80796158,27.7520897 C5.99485783,27.9545936 6.09818419,28.0743178 6.2096107,28.1859419 C6.88291134,28.8612182 7.56154622,29.5313578 8.23168582,30.2099927 C8.81351398,30.7993283 8.81529206,31.3878736 8.23622981,31.9738507 C7.53131881,32.6874545 6.81712228,33.3917728 6.11003807,34.1030059 C6.02706088,34.1865758 5.9636426,34.2893094 5.84964774,34.4364951 C8.08489522,34.4364951 10.2375606,34.4382732 12.390226,34.4317536 C12.5115308,34.431556 12.6685948,34.3997481 12.7482133,34.3209198 C13.8223728,33.2609849 14.8858638,32.1899865 15.9862994,31.0873777 Z M32.5325242,28.1627873 C31.8519137,27.8844186 31.202716,27.6188916 30.5552963,27.3541548 C31.8736458,23.7464251 35.8800612,20.5656328 40.8764735,21.1654393 C45.9720632,21.7769022 49.6815388,25.8917806 49.7743942,30.8389993 C49.8678424,35.8172356 46.4209303,40.0796949 41.5284371,40.9387064 C36.4816458,41.8245867 32.0840523,38.8585472 30.5426522,34.8394877 C31.2021233,34.5704045 31.8627798,34.3007287 32.5597882,34.0162354 C33.5152113,36.1621836 35.0332987,37.6699977 37.2393066,38.438327 C38.8459031,38.9978304 40.4667242,39.0258845 42.083594,38.513204 C45.4103867,37.458801 47.6353608,34.3765935 47.5681888,30.9514136 C47.5012143,27.536112 45.1567136,24.5262131 41.8662728,23.59351 C38.7718163,22.7163226 34.4508779,23.8546906 32.5325242,28.1627873 Z M36.1627763,35.2419271 C36.644044,34.6905239 37.1051601,34.1620382 37.5870205,33.6098448 C38.4600591,34.274255 39.3990843,34.5858146 40.4694901,34.3532809 C41.2376218,34.1865362 41.8700265,33.7951605 42.3665067,33.1890319 C43.357689,31.979343 43.3555158,30.2113361 42.3669019,28.9955227 C41.215297,27.5795762 39.6778482,27.4296246 37.5565956,28.5482361 C37.1010113,28.0260725 36.6393025,27.4967966 36.180162,26.9704841 C37.6383874,25.4186131 40.9965928,24.7607225 43.464374,26.9426275 C45.772918,28.9838664 45.9657412,32.5692713 43.8922992,34.8248679 C41.8455285,37.0514225 38.3144539,37.2665705 36.1627763,35.2419271 Z M34.2569878,64.4079355 L34.2569878,62.2475651 L36.4122216,62.2475651 L36.4122216,64.4079355 L34.2569878,64.4079355 Z M38.7017993,64.3948962 L38.7017993,62.2469724 L40.8582185,62.2469724 L40.8582185,64.3948962 L38.7017993,64.3948962 Z M43.1432523,64.4026013 L43.1432523,62.2416381 L45.2911761,62.2416381 L45.2911761,64.4026013 L43.1432523,64.4026013 Z"/>
</svg>
