<svg xmlns="http://www.w3.org/2000/svg" width="24" height="24" viewBox="0 0 24 24">
  <path fill="#065F2E" fill-rule="evenodd" d="M14.6665435,18.9382174 C15.3638478,18.0020217 16.1535,16.6631739 16.6191522,14.9778261 C17.5987826,14.8907609 18.3739565,14.7898043 18.9223696,14.7066522 C18.1616739,16.6451739 16.6105435,18.1884783 14.6665435,18.9382174 M5.07567391,14.7019565 C5.62682609,14.7841304 6.4068913,14.8846957 7.37908696,14.9721522 C7.84473913,16.6600435 8.63536957,18.0008478 9.33326087,18.9382174 C7.3878913,18.1878913 5.83578261,16.6426304 5.07567391,14.7019565 M9.37845652,5.04378261 C8.67919565,5.98878261 7.87467391,7.34152174 7.39630435,9.021 C6.40904348,9.10845652 5.62858696,9.21019565 5.07743478,9.29354348 C5.84380435,7.33995652 7.41313043,5.78706522 9.37845652,5.04378261 M18.9243261,9.29823913 C18.3702391,9.21567391 17.5846957,9.11432609 16.6052609,9.02667391 C16.127087,7.34465217 15.3213913,5.98995652 14.6215435,5.04378261 C16.5882391,5.78745652 18.1585435,7.34230435 18.9243261,9.29823913 M16.8772174,10.2338478 C18.0245217,10.3467391 18.8570217,10.4731304 19.2911739,10.5463043 C19.3846957,11.0166522 19.4347826,11.5024565 19.4347826,12 C19.4347826,12.4983261 19.3846957,12.9851087 19.290587,13.4564348 C18.8628913,13.5307826 18.039587,13.6583478 16.8823043,13.7716304 C16.9723043,13.2112826 17.0245435,12.6208043 17.0245435,12 C17.0245435,11.3836957 16.9705435,10.794587 16.8772174,10.2338478 M12.5869565,13.9970217 L12.5869565,10.0033696 C13.7254565,10.0162826 14.7585,10.0653913 15.6614348,10.1305435 C15.7798043,10.7192609 15.8506304,11.3431957 15.8506304,12 C15.8506304,12.6613043 15.7823478,13.2860217 15.668087,13.8735652 C14.7708261,13.9371522 13.7381739,13.9846957 12.5869565,13.9970217 M11.4130435,4.59045652 L11.4130435,8.82926087 C10.4011304,8.83963043 9.48078261,8.87602174 8.66080435,8.9265 C9.40936957,6.69097826 10.7699348,5.13769565 11.2913478,4.59965217 C11.3316522,4.59593478 11.3725435,4.59358696 11.4130435,4.59045652 M12.7098261,4.59984783 C13.232413,5.13671739 14.5955217,6.68765217 15.342913,8.93041304 C14.5164783,8.87817391 13.5933913,8.84021739 12.5869565,8.82945652 L12.5869565,4.59045652 C12.6278478,4.59378261 12.6691304,4.59593478 12.7098261,4.59984783 M8.14936957,12 C8.14936957,11.3420217 8.22078261,10.7165217 8.34052174,10.1260435 C9.23563043,10.0628478 10.2655435,10.0156957 11.4130435,10.0033696 L11.4130435,13.9968261 C10.271413,13.983913 9.23582609,13.9346087 8.33113043,13.8692609 C8.21726087,13.2828913 8.14936957,12.6597391 8.14936957,12 M4.56521739,12 C4.56521739,11.5016739 4.61530435,11.0148913 4.70921739,10.5439565 C5.13769565,10.469413 5.96315217,10.3414565 7.12356522,10.2279783 C7.02965217,10.7904783 6.97545652,11.3815435 6.97545652,12 C6.97545652,12.6186522 7.0275,13.2071739 7.11671739,13.7657609 C5.97234783,13.6530652 5.14219565,13.5270652 4.70882609,13.4538913 C4.61530435,12.9835435 4.56521739,12.4975435 4.56521739,12 M11.2813696,19.3993696 C10.7566304,18.8763913 9.38256522,17.3493261 8.64084783,15.0686087 C9.4713913,15.1216304 10.3997609,15.1599783 11.4130435,15.1709348 L11.4130435,19.4093478 C11.3692174,19.4060217 11.325,19.4034783 11.2813696,19.3993696 M12.7184348,19.3993696 C12.6748043,19.4034783 12.6307826,19.4060217 12.5869565,19.4093478 L12.5869565,15.1709348 C13.6066957,15.1605652 14.5333043,15.1237826 15.3577826,15.0725217 C14.6154783,17.3516739 13.2421957,18.8775652 12.7184348,19.3993696 M12,3 C7.03747826,3 3,7.03728261 3,12 C3,16.9625217 7.03747826,21 12,21 C16.9625217,21 21,16.9625217 21,12 C21,7.03728261 16.9625217,3 12,3"/>
</svg>
