<svg xmlns="http://www.w3.org/2000/svg" width="24" height="24" viewBox="0 0 24 24">
  <path fill="#DE2520" fill-rule="evenodd" d="M4.49274088,10.7470784 C4.53009561,10.7023992 4.58356415,10.6789609 4.64801937,10.6789609 C4.66852785,10.6789609 4.69123367,10.6818907 4.71393949,10.6870178 C4.81867923,10.7104561 4.93953277,10.772714 5.04427251,10.8576777 C5.15853404,10.9514307 5.26254133,11.0591002 5.36581618,11.1660373 C5.42148205,11.2224356 5.47641548,11.2795664 5.5328138,11.3344998 C6.35608279,12.1343305 7.18008422,12.9326964 8.00555054,13.7303298 C8.12567164,13.8467886 8.24872252,13.9603177 8.37323829,14.0745793 L8.66108946,14.3426544 L9.3810836,13.5699242 L9.46458241,13.4190403 L9.35984267,13.295257 C9.33860175,13.2696214 9.31882571,13.247648 9.29904968,13.2286044 L7.92351662,11.8904261 C7.24527189,11.2282952 6.56702715,10.5668967 5.88731753,9.90696312 C5.6866274,9.71066766 5.48447238,9.5158371 5.28231736,9.32173899 C4.99959332,9.05000163 4.71833416,8.77826427 4.43927234,8.50359712 C4.30230499,8.36955956 4.241512,8.20182949 4.2671476,8.03336697 C4.29424809,7.86124223 4.41143941,7.71035841 4.58795882,7.61953514 C4.64142736,7.59243465 4.68610655,7.57925063 4.7205315,7.57925063 C4.74982933,7.57925063 4.79377607,7.58877242 4.87141532,7.66128455 L7.27896439,9.94798008 C8.05682174,10.6848205 8.83541154,11.4194635 9.61473378,12.154839 L10.0629906,12.5723331 L10.9331361,11.6399297 L10.4812171,11.218041 C10.3098248,11.0583678 10.1398974,10.9001595 9.9707024,10.7404863 L5.73936349,6.72302158 C5.45151233,6.44981933 5.16366116,6.17588463 4.87727488,5.8982877 C4.70002302,5.72689541 4.68317677,5.53865686 4.82453879,5.33943162 C4.92122163,5.20392916 5.08235968,5.04279111 5.30062851,5.04279111 C5.45370966,5.04279111 5.61631261,5.12262769 5.7715911,5.27351151 L9.5861684,8.98481396 C9.94872903,9.33858524 10.3112897,9.69235652 10.6760476,10.0439305 C10.8657511,10.2263095 11.0583843,10.4050262 11.2539473,10.5852079 L11.6223675,10.92726 L12.4778641,10.0087731 L12.175364,9.72604903 C12.0698918,9.62936619 11.9658845,9.53414825 11.8655395,9.43600052 L7.33756005,5.01569061 C7.23135542,4.91095088 7.20279004,4.80840848 7.24527189,4.68023048 C7.35880097,4.33305121 7.84514493,4.15360201 8.15423702,4.35868681 C8.2355385,4.41288779 8.31317774,4.47514568 8.38349253,4.54106579 L9.41404366,5.51302126 C9.83373505,5.91073928 10.2534265,6.30845731 10.6753152,6.70471044 L11.1894921,7.18812461 C12.0772163,8.02238029 12.9656729,8.8573684 13.8607216,9.68576451 C14.3917448,10.1787005 14.975504,10.5888701 15.5951531,10.9060191 C16.2441,11.2370845 16.7875747,11.372587 17.3537552,11.3432892 C18.2744395,11.2905531 18.8838343,10.744881 19.0251964,9.84690257 C19.0654809,9.59127901 19.0808622,9.34517725 19.0691431,9.11445685 C19.057424,8.85663596 19.0376479,8.59808262 19.0186044,8.34026173 C18.9922363,7.99088512 18.9666007,7.64224096 18.9585438,7.29286435 C18.9526842,7.02039454 18.9907714,6.72448647 19.070608,6.41173215 C19.1160196,6.23594518 19.2302812,6.10923207 19.4192522,6.02646571 L20.5757839,11.0371269 L20.6072791,11.1616426 C20.6358445,11.270777 20.6622125,11.3733194 20.662945,11.4678049 C20.6724668,12.6258016 20.5713893,13.6336469 20.3538529,14.5499365 C20.2037015,15.1842345 20.0015465,15.8449006 19.5415706,16.3788535 C19.0515644,16.9501611 18.5608258,17.4936359 18.0840036,17.9953612 C17.6254926,18.4773105 17.1157104,18.888945 16.5700383,19.2200104 C15.9738275,19.582571 15.4757644,19.7429767 14.9579253,19.7429767 L14.8758914,19.7415118 C13.7486574,19.7034246 12.7100494,19.3108337 11.7900976,18.5769231 C11.3044861,18.1901917 10.7969012,17.7338781 10.2387775,17.1808815 C9.36936447,16.3231876 8.50434608,15.4222794 7.76018123,14.644422 C7.05044133,13.903187 6.34729344,13.1553599 5.64487799,12.4075328 L4.78718406,11.4956379 C4.62531356,11.3235131 4.48468398,11.1755591 4.44732925,10.9712067 C4.43121544,10.8833133 4.44732925,10.8012793 4.49274088,10.7470784 M21.7953061,10.7009343 C21.7762625,10.6262248 21.7564864,10.5515153 21.7396402,10.4782708 C21.3324004,8.70721703 20.9236957,6.93689573 20.5142585,5.16657443 L20.4358868,4.82598717 C20.4300273,4.80328136 20.4227028,4.78057554 20.4073214,4.73369901 L20.3641071,4.59746411 L20.2227451,4.60552101 C19.5708684,4.6421433 18.8296334,4.73150168 18.2693124,5.33723428 C17.9177384,5.71810606 17.7316972,6.19712556 17.7170483,6.76184121 C17.7067941,7.1478401 17.7251052,7.53676878 17.7426839,7.91397832 C17.7500084,8.06486214 17.7566004,8.2164784 17.7617275,8.36809466 C17.7668546,8.49187799 17.7749115,8.61492887 17.782236,8.7387122 C17.7968849,8.97455972 17.8122663,9.21846414 17.8049418,9.45357922 C17.7851658,10.0607767 17.5163582,10.1215697 17.0754259,10.0783554 C16.6235069,10.0351411 16.2272537,9.82859143 15.8998505,9.63156353 C15.2823987,9.26241089 14.6979071,8.79437807 14.1624892,8.24284645 C14.0365086,8.11320355 13.9046684,7.99015267 13.7713632,7.86710179 L10.3171492,4.63848107 C10.1882388,4.51835997 10.0607932,4.39604154 9.93334767,4.27445555 C9.64915873,4.00271819 9.355448,3.72072659 9.0478208,3.4614408 C8.68965484,3.15967317 8.26483633,3 7.81950933,3 C7.15371617,3 6.53699688,3.36915264 6.17736603,3.99246395 C5.78331024,3.77785735 5.36068906,3.72292392 4.92781364,3.82912855 C4.52423605,3.92800872 4.17485944,4.14847489 3.89140295,4.48539992 C3.600622,4.83038185 3.45999242,5.22077542 3.4709791,5.64779127 C3.4805009,5.98398385 3.59695977,6.3004004 3.82768017,6.61022494 C3.28127566,7.0101403 3.00294629,7.5323741 3.00001651,8.16447476 C2.99708673,8.84052215 3.38455051,9.26680556 3.82328549,9.66891826 C3.55887259,9.84690257 3.36111225,10.1076532 3.2578374,10.4196751 C3.1216025,10.8313096 3.16554924,11.2890882 3.38015584,11.7073147 C3.54129389,12.020069 3.77640897,12.2588463 4.00419959,12.4902992 C4.05986546,12.5474299 4.11626378,12.6038282 4.17119721,12.6616915 L5.15047714,13.7010319 C5.5503925,14.1258505 5.95030786,14.550669 6.35168811,14.9740226 L6.92812289,15.5848823 C7.55216664,16.2477457 8.17621039,16.9098766 8.81490306,17.5588235 C9.40378942,18.1550343 10.00293,18.7212149 10.5954786,19.239054 C11.6209026,20.1348351 12.7195712,20.6827045 13.9559396,20.9148898 C14.2562423,20.9712881 14.556545,20.9998535 14.8465935,20.9998535 C15.7702076,20.9998535 16.6264366,20.7222566 17.4643545,20.1531463 C18.2458741,19.6191933 18.9797847,18.9504704 19.7715586,18.0473648 C20.1575574,17.6086298 20.500342,17.2094469 20.8072368,16.7655848 C21.2540287,16.1188352 21.458381,15.3849246 21.6129271,14.6898337 C21.8458448,13.6431687 21.9498521,12.5342459 21.9198218,11.3938279 C21.9132298,11.1550506 21.8531693,10.9235978 21.7953061,10.7009343"/>
</svg>
