<svg xmlns="http://www.w3.org/2000/svg" width="24" height="24" viewBox="0 0 24 24">
  <path fill="#F47522" d="M12.4984827,11.570316 C11.0870996,11.3828345 9.54845171,11.8838441 8.46006174,12.8538753 L8.44136218,12.8711791 C7.2618022,14.0043461 6.38949813,15.2591283 5.92177405,16.6104097 L5.95583438,16.5293459 C5.27759761,17.8903552 6.15205823,19.6226498 7.66276166,19.8365768 L7.63661379,19.8323544 C8.48964294,19.9871677 9.05839516,19.8653671 9.99658689,19.4753079 C10.0469514,19.4543495 10.0469514,19.4543495 10.0961041,19.4339187 C10.1329967,19.4186069 10.1633035,19.4061076 10.1920997,19.3943502 C10.6534952,19.2059629 10.9164852,19.1435781 11.2239728,19.1691497 L11.2579848,19.1719783 L11.2921093,19.1713952 C11.3284988,19.1707734 11.3656838,19.1718308 11.4037355,19.1745764 C11.8378151,19.2058963 12.3067803,19.4237391 13.1002697,19.9233898 C13.1135253,19.9317368 13.4739935,20.1603316 13.5781018,20.2250776 C13.7648865,20.3412407 13.917638,20.4316024 14.0641152,20.5108886 L14.0391018,20.4966584 C15.335854,21.271067 16.8803747,21.227153 17.4749473,19.8332529 L17.4509518,19.8836771 C17.7318096,19.350895 17.7982135,18.762561 17.7035988,18.1102052 C17.6457083,17.7110581 17.5424945,17.3410863 17.3582625,16.7998455 C17.3405607,16.7478405 17.3284623,16.7126102 17.2944519,16.6138285 L17.2836147,16.5823522 L17.2697619,16.5520817 C16.2678485,14.3627558 15.6472561,13.3436658 14.508398,12.4288506 C13.9381061,11.9589329 13.2479763,11.6698856 12.4984919,11.5703172 L12.3189615,12.9217028 C12.8220831,12.9885421 13.2732289,13.1774956 13.6481021,13.4863447 C14.572539,14.228988 15.1152281,15.120151 16.0301439,17.1193749 L16.0054538,17.057628 C16.0389182,17.154824 16.0507188,17.1891871 16.0677191,17.239131 C16.2268895,17.7067455 16.3116,18.0103918 16.3544561,18.3058787 C16.4108108,18.694437 16.3764908,18.9985101 16.2449959,19.2479535 L16.2319645,19.2726738 L16.2210004,19.2983778 C16.0413941,19.719442 15.425824,19.736944 14.7380736,19.3262257 L14.7130602,19.3119955 C14.5944967,19.2478187 14.4635569,19.1703599 14.2980528,19.0674313 C14.19999,19.0064452 13.8444086,18.7809493 13.8266802,18.7697859 C12.8487937,18.1540226 12.2320621,17.8675396 11.5018431,17.8148525 C11.4238198,17.8092229 11.3461485,17.8070142 11.2688191,17.8083355 L11.3369556,17.810581 C10.7683224,17.7632917 10.3198542,17.8696745 9.6767817,18.1322403 C9.6452387,18.1451192 9.61263943,18.1585639 9.57352102,18.1747995 C9.52290843,18.1958371 9.52290843,18.1958371 9.47323314,18.2165089 C8.7565969,18.514455 8.41377711,18.5878712 7.88005033,18.491007 L7.85390245,18.4867845 C7.27587668,18.4049317 6.90774175,17.6756614 7.17598218,17.1373866 L7.19563206,17.0979555 L7.21004251,17.0563229 C7.60061694,15.9279312 8.35128423,14.8481197 9.3858045,13.8542879 L9.36710495,13.8715918 C10.1651787,13.1603059 11.3096853,12.7876353 12.3189707,12.921704 L12.4984827,11.570316 L12.4984827,11.570316 Z M4.04954968,8.08477552 C3.13186366,8.13955856 2.32646005,8.76245854 2.10302208,9.66427755 C1.58466834,11.7638379 3.08388424,14.13217 5.21924194,14.40624 C6.30706551,14.5170703 7.23290653,13.7065586 7.43938123,12.6552028 C7.78319853,10.8835025 6.72303355,8.95334116 5.04959064,8.26870579 L4.79148883,8.89957979 L5.08385141,8.28383417 C4.76022179,8.13017137 4.40471349,8.06358992 4.04958135,8.08477363 L4.13075574,9.44561341 C4.25962803,9.43792615 4.38593703,9.46158196 4.49912624,9.51532541 L4.53338701,9.53045379 C5.60863766,9.97035802 6.32028145,11.2659935 6.10138221,12.3939932 C6.02258538,12.7952126 5.69237193,13.0842923 5.37495821,13.0520227 C4.08905954,12.8867412 3.09811037,11.3213251 3.42640585,9.99158361 C3.50132558,9.68920073 3.7899778,9.46595681 4.13078742,9.44561152 L4.04954968,8.08477552 L4.04954968,8.08477552 Z M19.028727,7.89397701 C17.3012653,7.99735395 15.9713196,9.60640673 15.7816452,11.4146092 L15.7907741,11.3539986 C15.5017985,12.8212012 16.3675408,14.4382126 17.8646868,14.5429545 L17.8926417,14.5449103 L17.9206628,14.5445648 C19.7763516,14.5216817 21.2104631,12.6823632 21.269917,10.7542851 L21.2665851,10.8037775 C21.4137029,9.38901848 20.5193742,7.96392674 19.1032548,7.89359877 L19.0356354,9.2551794 C19.5651787,9.28147782 19.9847519,9.95005794 19.910638,10.6627755 L19.908071,10.687461 L19.907306,10.7122679 C19.8683176,11.9766535 18.9389244,13.168646 17.9038533,13.1814097 L17.9598293,13.1830199 C17.3997103,13.1438334 16.9815366,12.3627794 17.1283362,11.6174406 L17.1342646,11.5873408 L17.137465,11.5568301 C17.2634388,10.3558978 18.1247999,9.3137685 19.1101632,9.25480116 L19.028727,7.89397701 L19.028727,7.89397701 Z M8.45287674,3.00057533 C7.32219692,3.02834107 6.39626567,4.05312892 6.20426782,5.20816189 C5.84891006,7.21726958 6.85776886,9.37812163 8.72841883,9.94589311 L8.75469492,9.95386832 L8.78152739,9.95970402 C9.01412826,10.0102916 9.25515004,10.0165665 9.49189888,9.97997231 C10.883678,9.7480961 11.6476232,8.3457493 11.5797496,6.8767977 C11.5358509,5.13006862 10.5776541,3.49233206 9.00994498,3.067906 C8.82257248,3.0181803 8.63732324,2.99605402 8.45290656,3.0005746 L8.48631393,4.36342387 C8.5408845,4.36208619 8.59720156,4.36881273 8.65700768,4.38468148 C9.55409637,4.62755935 10.1867554,5.70889131 10.217434,6.9254428 C10.2575398,7.79667355 9.85388838,8.53764192 9.27573545,8.63398448 C9.21046597,8.64402542 9.13817909,8.64214346 9.07124517,8.62758623 L8.92638628,9.29364512 L9.12435373,8.64139714 C7.98572263,8.29580482 7.30169205,6.83069503 7.54788386,5.43864096 C7.64314691,4.8657729 8.08820343,4.37320014 8.48634375,4.36342314 L8.45287674,3.00057533 L8.45287674,3.00057533 Z M15.0382599,3.07167459 C14.9926516,3.07224275 14.9461636,3.07442997 14.8993783,3.07807287 L14.8676788,3.08054113 L14.8363467,3.08594958 C13.3419034,3.34391574 12.3601266,4.79447361 12.2210392,6.42296056 L12.2249299,6.38804541 C12.0129502,7.9285192 12.786677,9.52266574 14.2568051,9.82269008 C14.5348184,9.87565935 14.8130161,9.85859349 15.0834862,9.78523011 L15.1217425,9.77363887 C16.7799095,9.21764792 17.682245,7.31810534 17.4150852,5.50494225 L17.420872,5.5591972 C17.3337338,4.24529326 16.3354341,3.05512981 15.0380576,3.07167714 L15.0554438,4.43482493 C15.5420465,4.42861858 16.0172077,4.99510125 16.0606016,5.64941048 L16.0624083,5.67665386 L16.0663883,5.70366544 C16.2449043,6.91521967 15.6550387,8.15696935 14.6883498,8.48110453 L14.9050461,9.1273717 L14.7266061,8.4695133 C14.6464781,8.49124751 14.5752064,8.49561963 14.5205357,8.48521533 C13.8762183,8.35366166 13.4510857,7.47774035 13.575462,6.57388782 L13.5793527,6.53897266 C13.6710173,5.46572811 14.2804313,4.56532978 15.0682387,4.42934091 L14.9522927,3.75764525 L15.0052071,4.43721762 C15.0232488,4.43581282 15.0402121,4.43501471 15.0552414,4.43482748 L15.0382599,3.07167459 L15.0382599,3.07167459 Z"/>
</svg>
