<svg xmlns="http://www.w3.org/2000/svg" width="24" height="24" viewBox="0 0 24 24">
  <path fill="#832481" fill-rule="evenodd" d="M19.4093484,4.76054114 C19.4025006,4.76738896 19.3958484,4.77443244 19.3890006,4.78147591 L10.9536559,13.8423204 C10.8384168,13.6930378 10.7153516,13.5468857 10.576243,13.4081684 C10.437917,13.2702336 10.2896127,13.1489293 10.1373953,13.0354511 L19.2127181,4.61067163 C19.2197615,4.60421511 19.2266094,4.59756294 19.2334572,4.59071511 C19.2684789,4.55549774 19.3256093,4.55549774 19.3608267,4.59051946 L19.4093484,4.63884553 C19.4261745,4.65567161 19.4347832,4.67621508 19.4347832,4.69988899 C19.4347832,4.72336724 19.4261745,4.74391071 19.4093484,4.76054114 M9.22839566,18.1838405 C8.07130913,19.3381879 6.49865754,19.7079704 4.8289625,19.243101 C5.00446244,18.7571012 5.18289716,18.1159492 5.19678845,17.4882973 L5.19678845,17.4881016 C5.19952758,17.366406 5.19717976,17.231993 5.19444063,17.0872105 C5.17917977,16.2887543 5.16176673,15.3838633 6.03144032,14.5159506 C6.97976606,13.5701683 8.52248288,13.5701683 9.47080861,14.5161462 C9.94546061,14.9896243 10.1962866,15.5529067 10.1962866,16.1445587 C10.1962866,16.8369715 9.85252586,17.5612755 9.22839566,18.1838405 M21,4.70028029 C21,4.25849785 20.8278262,3.84332409 20.5149784,3.53106333 L20.4666524,3.48273726 C19.8253048,2.84256359 18.7846313,2.8392375 18.1387837,3.4719764 L8.59213502,12.334234 C7.31041811,12.0605167 5.91972297,12.4166035 4.92600595,13.4079727 C3.58402818,14.7470157 3.61239774,16.2308412 3.62941947,17.1171453 C3.63176729,17.2386452 3.63431077,17.3513408 3.63196295,17.4536669 C3.61591947,18.1726884 3.23381092,19.0623185 3.08863706,19.3430792 C2.98748492,19.5371661 2.97222406,19.7645138 3.04637621,19.9703399 C3.12052835,20.1761659 3.27744134,20.3414919 3.47915866,20.4262093 C4.39383223,20.8110569 5.31417972,21.0000569 6.20067939,21.0000569 C7.75493968,21.0000569 9.2045261,20.4187745 10.3340257,19.2918184 C11.2545688,18.3734274 11.7615034,17.255667 11.7615034,16.1445587 C11.7615034,15.8784718 11.73196,15.6176676 11.6765904,15.3631242 L20.5261306,5.85717117 C20.8317392,5.54667128 20.9998043,5.13638882 21,4.70028029"/>
</svg>
