<svg xmlns="http://www.w3.org/2000/svg" width="24" height="24" viewBox="0 0 24 24">
  <path fill="#1466A9" fill-rule="evenodd" d="M8.686325,13.6875 C8.686325,13.252575 9.0389,12.9 9.473825,12.9 L11.45,12.9 L11.45,10.899975 C11.45,10.46505 11.802575,10.112475 12.2375,10.112475 C12.672425,10.112475 13.025,10.46505 13.025,10.899975 L13.025,12.9 L15.22595,12.9 C15.6611,12.9 16.01345,13.252575 16.01345,13.6875 C16.01345,14.122425 15.6611,14.475 15.22595,14.475 L13.025,14.475 L13.025,16.5963 C13.025,17.031225 12.672425,17.3838 12.2375,17.3838 C11.802575,17.3838 11.45,17.031225 11.45,16.5963 L11.45,14.475 L9.473825,14.475 C9.0389,14.475 8.686325,14.122425 8.686325,13.6875 L8.686325,13.6875 Z M20.894375,19.2 L3.8,19.2 L3.8,8.4 L20.89955,8.4 L20.894375,19.2 Z M9.425,6.6 L15.275,6.6 L15.275,4.8 L9.425,4.8 L9.425,6.6 Z M22.436525,6.81195 C22.267775,6.642975 22.038725,6.6 21.8,6.6 L17.075,6.6 L17.075,3.9 C17.075,3.402975 16.627925,3 16.1309,3 L8.568875,3 C8.07185,3 7.625,3.402975 7.625,3.9 L7.625,6.6 L2.9,6.6 C2.402975,6.6 2,6.89925 2,7.396275 L2,20.1 C2,20.597025 2.402975,21 2.9,21 L21.793925,21 C22.29095,21 22.6937,20.59725 22.693925,20.10045 L22.7,7.4226 C22.7,7.183875 22.605275,6.9807 22.436525,6.81195 L22.436525,6.81195 Z"/>
</svg>
