<svg xmlns="http://www.w3.org/2000/svg" width="24" height="24" viewBox="0 0 24 24">
  <path fill="#4C2979" fill-rule="evenodd" d="M17.3726215,18.9472612 C17.2565525,19.075744 17.1442077,19.2029854 17.0349663,19.335813 C16.9865525,19.3953992 16.9530353,19.4196061 16.8189663,19.4196061 C15.1474491,19.4171233 13.4455181,19.4158819 11.617587,19.4158819 C9.92993185,19.4158819 8.24103529,19.4171233 6.55213874,19.4189854 C6.48758702,19.4189854 6.48075943,19.4109164 6.45593185,19.381744 C6.33427667,19.2383647 6.20703529,19.0962268 6.07172495,18.9472612 L17.3726215,18.9472612 Z M9.82069047,17.6574681 L13.6286215,17.6574681 L13.6286215,9.42029572 L9.82069047,9.42029572 L9.82069047,17.6574681 Z M12.3965525,6.95615779 C12.2395181,7.10201986 12.0520698,7.23360607 11.8559318,7.37139917 C11.8131043,7.40057159 11.7708974,7.43036469 11.7280698,7.46077848 C11.409656,7.24477848 11.0465525,6.94188193 10.8528974,6.49188193 C10.7064146,6.15112331 10.7324836,5.81160607 10.9348284,5.42367503 C11.1464836,5.01960607 11.4617939,4.69870952 11.7361387,4.45477848 C12.0868284,4.76264055 12.4548974,5.14312331 12.6677939,5.63967503 C12.8868974,6.15236469 12.7981387,6.58250262 12.3965525,6.95615779 L12.3965525,6.95615779 Z M19.3960698,18.0621578 C19.3302767,17.8995371 19.1769663,17.697813 18.8182077,17.6698819 C18.7964836,17.6686406 18.7710353,17.6680199 18.7213801,17.6680199 L14.9060008,17.6680199 L14.9060008,8.887744 L14.9053801,8.79526124 C14.8954491,8.40981297 14.631656,8.14850262 14.2499318,8.14477848 L12.9843456,8.14415779 C13.1600008,8.00077848 13.3114491,7.85305434 13.4467594,7.6935371 C14.029587,7.00829572 14.1984146,6.25601986 13.9482767,5.45905434 C13.5907594,4.31264055 12.7491043,3.59822676 12.0551732,3.1035371 C11.8478629,2.95519228 11.5580008,2.96760607 11.3451043,3.13208883 C10.8541387,3.5119509 10.2377939,4.04388193 9.83434564,4.79119228 C9.34710426,5.69305434 9.37317323,6.57691641 9.91131116,7.42105434 C10.0788974,7.68236469 10.2843456,7.92133021 10.5357249,8.14539917 L10.0931732,8.14664055 C9.77538012,8.14664055 9.51593185,8.14477848 9.25958702,8.14043365 C9.03986288,8.14043365 8.86358702,8.20560607 8.73386288,8.33533021 C8.60227667,8.46691641 8.53710426,8.64815779 8.53834564,8.87408883 C8.54269047,11.1594681 8.54206978,13.4833302 8.54144909,15.7308474 L8.54144909,17.6680199 L6.79979391,17.6686406 L4.70931116,17.6680199 C4.3828284,17.6680199 4.16248357,17.7989854 4.05324219,18.057813 C3.94710426,18.309813 3.99986288,18.5543647 4.20965598,18.7852612 C4.66213874,19.2830543 5.13696633,19.8087785 5.7024146,20.4387785 C5.85075943,20.6038819 6.03944909,20.687675 6.26538012,20.687675 L11.7231043,20.6864337 L17.1802077,20.687675 C17.4080008,20.687675 17.5973112,20.6032612 17.745656,20.4369164 C17.8580008,20.3090543 17.9753112,20.1799509 18.0888974,20.0545716 L19.2694491,18.7492612 C19.4500698,18.5487785 19.4947594,18.3048474 19.3960698,18.0621578 L19.3960698,18.0621578 Z"/>
</svg>
