<svg xmlns="http://www.w3.org/2000/svg" width="24" height="24" viewBox="0 0 24 24">
  <path fill="#00A1C2" fill-rule="evenodd" d="M21.6916429,17.4379286 L18.3642143,17.4405 C17.6339286,17.4405 16.9042857,17.4392143 16.1746429,17.4353571 L16.0132857,17.4347143 C15.1467143,17.4347143 14.1586429,17.4707143 13.1853571,17.8532143 L13.1847143,17.1518571 C13.1827857,13.7537143 13.1815,10.3536429 13.186,6.95614286 C13.1872857,5.81378571 14.1438571,4.84178571 15.2752857,4.83535714 C16.1598571,4.82957143 17.0444286,4.82764286 17.9283571,4.82764286 L21.6916429,4.83214286 L21.6916429,17.4379286 Z M11.3242857,17.8538571 C10.3265714,17.4861429 9.3385,17.4334286 8.56128571,17.4334286 L8.44814286,17.4340714 C7.696,17.4398571 6.94385714,17.4411429 6.19107143,17.4411429 L2.79807143,17.4379286 L2.79807143,4.83342857 C2.8045,4.83278571 2.81092857,4.83278571 2.81735714,4.83278571 L6.67835714,4.82957143 C7.48707143,4.82957143 8.29642857,4.83021429 9.10642857,4.83278571 C10.324,4.83664286 11.3172143,5.82085714 11.3210714,7.02557143 C11.3300714,9.76864286 11.3275,12.5110714 11.3262143,15.2541429 L11.3242857,17.8538571 Z M22.3171429,3.0135 L18.9710714,3.01157143 C17.8550714,3.01157143 16.7397143,3.01285714 15.6237143,3.01735714 C15.2482857,3.01928571 14.8657857,3.06171429 14.4871429,3.14335714 C13.6154286,3.33042857 12.8812857,3.79714286 12.2519286,4.56407143 C11.4110714,3.49885714 10.2185714,3 8.54135714,3 L8.34785714,3.00192857 C6.93678571,3.0315 5.52507143,3.02507143 4.11271429,3.01864286 C3.51357143,3.01542857 2.91378571,3.0135 2.31464286,3.0135 L2.14364286,3.0135 C1.29892857,3.01414286 1,3.315 1,4.16292857 L1,18.1065 C1,18.9550714 1.29892857,19.2559286 2.14042857,19.2559286 L5.97057143,19.2617143 C6.92521429,19.2617143 7.88114286,19.2591429 8.89042857,19.2495 C9.88878571,19.2495 10.7476429,19.5072857 11.5171429,20.0363571 C11.7479286,20.1957857 11.9703571,20.2735714 12.196,20.2735714 C12.4274286,20.2735714 12.6575714,20.1919286 12.9005714,20.0235 C13.6392143,19.5117857 14.4916429,19.2520714 15.4655714,19.2520714 L15.4662143,19.2520714 C16.4317857,19.2578571 17.3967143,19.2591429 18.3616429,19.2591429 L22.3203571,19.2559286 C23.2197143,19.2559286 23.5083571,18.9672857 23.5083571,18.0672857 L23.5083571,4.20342857 C23.5083571,3.31371429 23.2075,3.0135 22.3171429,3.0135 L22.3171429,3.0135 Z M19.9928286,13.8865286 L18.9520429,13.8839571 L17.4683286,13.8852429 L16.0225429,13.8839571 C15.6368286,13.8839571 15.2498286,13.8846 14.8634714,13.8871714 C14.2887571,13.8910286 13.9178286,14.2381714 13.9178286,14.7730286 C13.9197571,15.3033857 14.3009714,15.6608143 14.8660429,15.6614571 L17.5274714,15.6646714 L19.9921857,15.6614571 C20.2930429,15.6608143 20.5444,15.5650286 20.7192571,15.3850286 C20.8819,15.2178857 20.9635429,14.9941714 20.9564714,14.7370286 C20.9494,14.4831 20.8420429,13.8916714 19.9928286,13.8865286 M9.57590714,13.8858857 L8.58140714,13.8846 L7.09319286,13.8852429 L6.32497857,13.8846 L4.52947857,13.8858857 C3.64555,13.8897429 3.54655,14.5011 3.54526429,14.7640286 C3.54397857,15.0308143 3.62240714,15.2455286 3.77862143,15.4030286 C3.94897857,15.5746714 4.19776429,15.6614571 4.51790714,15.6621 L7.04240714,15.6646714 L9.56305,15.6627429 C9.90505,15.6621 10.1686214,15.5695286 10.3466929,15.3876 C10.4546929,15.2770286 10.5826214,15.0771 10.5761929,14.7518143 C10.5704071,14.4927429 10.4624071,13.8897429 9.57590714,13.8858857 M17.3674643,12.0458357 C18.25525,12.0458357 19.1430357,12.0426214 20.0308214,12.0361929 C20.3130357,12.0336214 20.5624643,11.9307643 20.7308929,11.7469071 C20.8973929,11.5656214 20.9771071,11.3181214 20.95525,11.0487643 C20.9359643,10.8057643 20.7996786,10.2381214 19.9594643,10.2291214 C19.6103929,10.2246214 19.2613214,10.2233357 18.91225,10.2233357 L17.4323929,10.22655 L15.9428929,10.2233357 C15.5835357,10.2233357 15.2228929,10.2252643 14.8628929,10.2316929 C14.2926786,10.2419786 13.92175,10.5949071 13.9178929,11.1297643 C13.9159643,11.3804786 14.0040357,11.60805 14.16475,11.7713357 C14.33575,11.9449071 14.5761786,12.0374786 14.8590357,12.0387643 C15.6953929,12.0432643 16.5311071,12.0458357 17.3674643,12.0458357 M9.55083571,10.2277071 C9.26476429,10.22385 8.97740714,10.2232071 8.69069286,10.2232071 L7.46926429,10.2251357 L5.80169286,10.2232071 C5.38383571,10.2232071 4.96597857,10.2244929 4.54876429,10.22835 C4.19069286,10.2322071 3.92069286,10.3344214 3.74647857,10.5324214 C3.58447857,10.7162786 3.52019286,10.9612071 3.55555,11.2601357 C3.61726429,11.77635 3.95605,12.0386357 4.56612143,12.0424929 L5.52012143,12.0437786 L7.04497857,12.0431357 L8.53705,12.0450643 C8.87969286,12.0450643 9.22233571,12.0437786 9.56433571,12.0412071 C9.89797857,12.0386357 10.1583357,11.9447786 10.3396214,11.7615643 C10.4971214,11.60085 10.5794071,11.3809929 10.5768357,11.1257786 C10.5716929,10.5722786 10.18855,10.2360643 9.55083571,10.2277071 M15.9963143,6.67129286 L14.8957429,6.67386429 C14.4952429,6.67579286 14.2683143,6.82236429 14.1481,6.94515 C13.9931714,7.10457857 13.9134571,7.32186429 13.9186,7.57386429 C13.9276,8.11322143 14.3101,8.44943571 14.9150286,8.45007857 L17.4395286,8.45200714 L19.9614571,8.44943571 C20.5567429,8.44815 20.9469571,8.10293571 20.9566,7.56872143 C20.9611,7.30386429 20.8852429,7.09043571 20.7322429,6.93486429 C20.5638143,6.76322143 20.3124571,6.67515 19.9839571,6.67386429 L18.9425286,6.67129286 L17.4594571,6.67257857 L15.9963143,6.67129286 Z M4.49836429,8.44917857 L6.90007857,8.45175 L9.58336429,8.44917857 C10.1985786,8.44789286 10.5688643,8.11875 10.5752929,7.56910714 C10.57915,7.24767857 10.4525071,7.05032143 10.3445071,6.94103571 C10.1709357,6.76553571 9.92022143,6.67489286 9.59622143,6.67360714 L8.51236429,6.67103571 L7.07236429,6.67232143 L5.60986429,6.67103571 L4.50929286,6.67360714 C4.18850714,6.67489286 3.93972143,6.76360714 3.77129286,6.93589286 C3.61572143,7.09596429 3.54050714,7.31260714 3.54629286,7.58003571 C3.55786429,8.13096429 3.90500714,8.44725 4.49836429,8.44917857"/>
</svg>
