<svg xmlns="http://www.w3.org/2000/svg" width="24" height="24" viewBox="0 0 24 24">
  <path fill="#83BC4D" fill-rule="evenodd" d="M19.3579356,4.90372082 C19.3417971,5.4021518 19.3237965,5.91734198 19.2753811,6.4126694 C19.1493767,7.68264423 19.0246138,8.65653988 18.8712982,9.57084727 C18.5640462,11.4025656 18.0761673,12.9686196 17.3797295,14.3590124 C16.8912299,15.337253 16.3307278,16.1162454 15.6659463,16.7431636 C14.5952197,17.7524397 13.3488319,18.3681851 11.9627841,18.5730198 C10.3433489,18.8107521 8.76550141,18.589779 7.23048296,17.9175489 L7.78788149,17.3595296 C8.41479966,16.7332322 9.05661489,16.0907962 9.68911946,15.4551881 L13.3128306,15.4570502 C13.8218137,15.4570502 14.1942403,15.1187627 14.1979646,14.6538501 C14.199206,14.4353598 14.1191343,14.233008 13.9714051,14.0846581 C13.8087788,13.9189282 13.5722878,13.8276837 13.3066235,13.8276837 L11.3203481,13.827063 C11.9460249,13.2013863 12.5853573,12.5620539 13.219724,11.9326529 C13.5083546,11.9295493 13.788916,11.9289286 14.0278898,11.9289286 L14.8360556,11.9295493 C15.331383,11.9283079 15.6976025,11.5943653 15.7069132,11.1337977 C15.7106374,10.9146867 15.6318071,10.7098521 15.4840779,10.5577779 C15.3257966,10.3957723 15.1004785,10.3045277 14.8472284,10.3001828 L14.9024716,10.2449395 C15.4040062,9.74402566 15.9185757,9.22945619 16.422593,8.72171454 C16.5045269,8.63978068 16.6156342,8.50446567 16.6758431,8.33066657 C16.7937782,7.99051691 16.654739,7.61064175 16.3375556,7.40891065 C16.063822,7.23387013 15.662222,7.25249147 15.4021441,7.45732611 C15.3531079,7.49643091 15.3115202,7.53677713 15.2513113,7.59946895 L13.6976715,9.15248802 L13.6976715,9.12828029 C13.6908437,8.74281872 13.4742155,8.43618745 13.1309623,8.32942515 C12.7833641,8.22142143 12.4022475,8.35177075 12.2191377,8.64350495 C12.1278932,8.7924756 12.0745121,8.97806821 12.0726499,9.15497086 C12.0689257,9.45229146 12.0689257,9.75333632 12.0689257,10.0456912 C12.0689257,10.2852857 12.068305,10.5323287 12.0658221,10.7793717 C11.4364211,11.4131177 10.7970887,12.0536915 10.171412,12.6787475 L10.171412,10.694955 C10.1701705,10.1152109 9.82381376,9.91285906 9.61463414,9.84396014 C9.09820254,9.67636815 8.56004605,10.0618297 8.54328685,10.5906755 C8.53832116,10.7384048 8.53956258,10.8886168 8.540804,11.030139 L8.54142472,11.8016828 C8.54204543,12.6228835 8.54204543,13.4701541 8.53832116,14.3062519 C7.82698629,15.0237939 7.10323719,15.7469223 6.39438516,16.4551536 L6.07409826,16.7760612 C5.98906084,16.5898479 5.90774769,16.3800476 5.82581383,16.1392117 C5.40931671,14.9008931 5.25475966,13.6731267 5.36586694,12.48881 C5.5042855,11.0202076 6.06230475,9.70616228 7.02564831,8.58515811 C7.8164342,7.6640229 8.83440034,6.9514466 10.2285174,6.34004621 C11.3954542,5.82920101 12.7113616,5.44063588 14.2532079,5.15200524 C15.8589874,4.8522018 17.4697326,4.68212697 19.0388901,4.64736715 L19.3666256,4.63991862 C19.3641427,4.70819683 19.3622806,4.77461292 19.3597978,4.841029 L19.6701533,4.85158109 L19.3579356,4.90372082 Z M20.0742362,3 L20.0717533,3 L19.4038682,3.02110418 C18.7136376,3.04220835 18.001682,3.06455395 17.3015199,3.1123487 C15.6597391,3.22531811 14.0390626,3.48105107 12.4841814,3.87147833 C10.7132927,4.31714887 9.2422075,4.90620366 7.98526761,5.67278182 C6.67246372,6.47287838 5.62966914,7.51939722 4.88419516,8.78192351 C3.89478173,10.456602 3.5229758,12.3652885 3.77870876,14.4558433 C3.9438179,15.8021656 4.30072676,16.9585503 4.86929809,17.9827235 L3.27779494,19.5711231 C3.06489104,19.7821649 2.97364652,20.0205179 3.0065442,20.2793545 C3.04689042,20.6027449 3.24365583,20.8479258 3.54966638,20.9540674 C3.6409109,20.9844822 3.73153472,21 3.81967569,21 C4.03506243,21 4.23617281,20.9124797 4.39941982,20.7473706 L6.01513071,19.1316597 C6.11692732,19.1906273 6.2168618,19.2452498 6.32300339,19.2949067 C8.24969052,20.1887306 10.2496215,20.4848098 12.2470697,20.1763164 C14.1377556,19.8845822 15.7925713,18.9994483 17.1655842,17.5469844 C17.9613357,16.7059209 18.6217723,15.6569192 19.1872401,14.3422532 C19.8396074,12.8190282 20.2921058,11.152419 20.6111513,9.09910687 C20.878057,7.37725439 21.0096478,5.63305631 21.0009578,3.91430739 C20.9978542,3.33332184 20.6781881,3 20.0742362,3 L20.0742362,3 Z"/>
</svg>
