<svg xmlns="http://www.w3.org/2000/svg" width="24" height="24" viewBox="0 0 24 24">
  <path fill="#971B4D" fill-rule="evenodd" d="M17.4771648,10.4169231 C17.6502418,10.59 17.7471648,10.8276923 17.7471648,11.07 C17.7471648,11.3123077 17.6502418,11.5523077 17.4771648,11.7230769 C17.3063956,11.8961538 17.0687033,11.9930769 16.8240879,11.9930769 C16.5817802,11.9930769 16.3440879,11.8961538 16.1735495,11.7230769 C16.0004725,11.5523077 15.901011,11.3146154 15.901011,11.07 C15.901011,10.8276923 16.0004725,10.59 16.1735495,10.4169231 C16.3440879,10.2461538 16.5817802,10.1469231 16.8240879,10.1469231 C17.0687033,10.1469231 17.3063956,10.2461538 17.4771648,10.4169231 M18.5915495,9.07592308 C18.6210879,9.52107692 18.2841648,9.90576923 17.839011,9.93507692 C17.821011,9.93623077 17.803011,9.93692308 17.785011,9.93692308 C17.3631648,9.93692308 17.008011,9.60946154 16.9798571,9.18230769 C16.8933187,7.87338462 16.0378571,7.65853846 15.8670879,7.62876923 C15.4251648,7.56830769 15.1228571,7.16192308 15.1833187,6.72 C15.244011,6.27784615 15.658011,5.97115385 16.0999341,6.03046154 C16.8993187,6.14007692 18.4491648,6.91753846 18.5915495,9.07592308 M18.817011,11.7486923 C15.8262418,15.1036154 13.102011,17.7200769 11.923011,18.8217692 C10.7447033,17.721 8.02278022,15.1070769 5.02901099,11.7486923 C3.8207033,10.3933846 3.52001099,8.74038462 4.20424176,7.21361538 C4.83862638,5.79761538 6.19808792,4.84615385 7.58685715,4.84615385 C10.3408571,4.84615385 10.9641648,6.906 11.0278571,7.14738462 C11.1298571,7.55446154 11.4953956,7.84615385 11.9158571,7.84615385 L11.9239341,7.84615385 C12.3432418,7.84615385 12.7113187,7.55469231 12.8179341,7.14853846 C12.8795495,6.91338462 13.5003187,4.84869231 16.2593956,4.84869231 C17.6479341,4.84869231 19.0073956,5.79876923 19.642011,7.21476923 C20.326011,8.74153846 20.0255495,10.3933846 18.817011,11.7486923 M21.3263956,6.45853846 C20.3850879,4.35761538 18.3960879,3 16.2593956,3 C14.1240879,3 12.739011,3.93923077 11.923011,4.95669231 C11.107011,3.93923077 9.72193407,3 7.58685715,3 C5.45016484,3 3.46116484,4.35761538 2.51962638,6.45853846 C1.53931869,8.64623077 1.96231869,11.0829231 3.65108792,12.9773077 C7.69624176,17.5151538 11.2710879,20.7323077 11.3066264,20.7641538 C11.482011,20.9215385 11.7026264,21 11.923011,21 C12.1436264,21 12.364011,20.9215385 12.5393956,20.7641538 C12.5749341,20.7323077 16.1497802,17.5151538 20.1949341,12.9773077 C21.8837033,11.0829231 22.3069341,8.64623077 21.3263956,6.45853846"/>
</svg>
