<svg xmlns="http://www.w3.org/2000/svg" width="24" height="24" viewBox="0 0 24 24">
  <path fill="#252D6D" fill-rule="evenodd" d="M16.8203822,13.9561783 L16.8203822,10.0438217 L20.7327389,12 L16.8203822,13.9561783 Z M12,20.7327389 L10.0438217,16.8203822 L13.9554777,16.8203822 L12,20.7327389 Z M3.26726115,12 L7.17961783,10.0438217 L7.17961783,13.9561783 L3.26726115,12 Z M12,3.26726115 L13.9554777,7.17961783 L10.0438217,7.17961783 L12,3.26726115 Z M8.58089172,15.4191083 L8.58089172,15.0898089 L8.58089172,8.91019108 L8.58089172,8.58089172 L8.91019108,8.58089172 L15.0891083,8.58089172 L15.4191083,8.58089172 L15.4191083,8.91019108 L15.4191083,15.0898089 L15.4191083,15.4191083 L15.0891083,15.4191083 L8.91019108,15.4191083 L8.58089172,15.4191083 Z M22.6132484,11.3729299 L16.8203822,8.47719745 L16.8203822,7.88025478 C16.8203822,7.49350318 16.5071975,7.17961783 16.1197452,7.17961783 L15.5221019,7.17961783 L12.6270701,1.38745223 C12.5079618,1.14993631 12.2655414,1 12,1 C11.7344586,1 11.4920382,1.14993631 11.3736306,1.38745223 L8.47719745,7.17961783 L7.88025478,7.17961783 C7.49280255,7.17961783 7.17961783,7.49350318 7.17961783,7.88025478 L7.17961783,8.47719745 L1.38745223,11.3729299 C1.14993631,11.4920382 1,11.7344586 1,12 C1,12.2655414 1.14993631,12.5079618 1.38745223,12.6270701 L7.17961783,15.5228025 L7.17961783,16.1197452 C7.17961783,16.5071975 7.49280255,16.8203822 7.88025478,16.8203822 L8.47719745,16.8203822 L11.3736306,22.6125478 C11.4920382,22.8500637 11.7344586,23 12,23 C12.2655414,23 12.5079618,22.8500637 12.6270701,22.6125478 L15.5221019,16.8203822 L16.1197452,16.8203822 C16.5071975,16.8203822 16.8203822,16.5071975 16.8203822,16.1197452 L16.8203822,15.5228025 L22.6132484,12.6270701 C22.8500637,12.5079618 23,12.2655414 23,12 C23,11.7344586 22.8500637,11.4920382 22.6132484,11.3729299 L22.6132484,11.3729299 Z M12.0000701,13.5449745 C12.8534459,13.5449745 13.5442739,12.8534459 13.5442739,12.0000701 C13.5442739,11.1466943 12.8534459,10.4551656 12.0000701,10.4551656 C11.1466943,10.4551656 10.4551656,11.1466943 10.4551656,12.0000701 C10.4551656,12.8534459 11.1466943,13.5449745 12.0000701,13.5449745"/>
</svg>
