<svg xmlns="http://www.w3.org/2000/svg" width="72" height="72" viewBox="0 0 72 72">
  <path fill="#979797" fill-rule="evenodd" d="M50.0812369,39.1414537 C48.8371641,39.1414537 47.7988216,38.1016979 47.7988216,36.8582308 L47.7988216,34.3965334 L47.7988216,15.3758676 L47.7988216,4.56281163 L42.8142527,4.56281163 L22.2418272,4.56281163 L12.562004,4.56281163 L12.562004,8.63663521 L12.562004,27.7166579 L12.562004,47.9652449 L12.562004,55.0999883 L13.1763685,55.0999883 L29.4595491,55.0999883 C30.7036219,55.0999883 31.7435796,56.1391383 31.7435796,57.3824036 C31.7435796,58.6288991 30.7046314,59.6656264 29.4613662,59.6656264 L26.5647884,59.6656264 L10.2814058,59.6656264 C9.03733301,59.6656264 8,58.6280915 8,57.3824036 L8,51.0306064 L8,31.9505837 L8,11.7003815 L8,2.28403044 C8,1.03753491 9.03652544,0 10.2805982,0 L17.5451596,0 L38.1208155,0 L50.0804293,0 C51.3253097,0 52.3626427,1.03753491 52.3626427,2.28241528 L52.3626427,4.74350704 L52.3626427,23.7631633 L52.3626427,36.8574232 C52.3634502,38.1016979 51.3261172,39.1414537 50.0812369,39.1414537 L50.0812369,39.1414537 Z M41.8659551,27.0199206 L30.3426349,27.0199206 C29.0985621,27.0199206 28.061431,25.9827895 28.061431,24.7377072 C28.061431,23.4946439 29.0985621,22.4573109 30.3426349,22.4573109 L41.8659551,22.4573109 C43.1063938,22.4573109 44.1455439,23.4954515 44.1455439,24.7377072 C44.1455439,25.9827895 43.1082108,27.0199206 41.8659551,27.0199206 L41.8659551,27.0199206 Z M30.3426349,15.0697958 C29.0977545,15.0697958 28.0604215,14.0316552 28.0604215,12.7867748 C28.0604215,11.5435096 29.0977545,10.505369 30.3426349,10.505369 L41.8659551,10.505369 C43.1063938,10.505369 44.1455439,11.5435096 44.1455439,12.7867748 C44.1455439,14.0316552 43.1072014,15.0697958 41.8659551,15.0697958 L30.3426349,15.0697958 Z M41.8659551,38.9710549 L30.3426349,38.9710549 C29.0985621,38.9710549 28.061431,37.9337218 28.061431,36.6904566 C28.061431,35.4463838 29.0985621,34.4082432 30.3426349,34.4082432 L41.8659551,34.4082432 C43.1063938,34.4082432 44.1455439,35.4463838 44.1455439,36.6904566 C44.1455439,37.9345294 43.1082108,38.9710549 41.8659551,38.9710549 L41.8659551,38.9710549 Z M21.5782006,28.5403867 L20.3789483,28.5403867 C18.3069069,28.5403867 16.5772783,26.8123732 16.5772783,24.7395243 C16.5772783,22.6664734 18.3069069,20.9360372 20.3789483,20.9360372 L21.5782006,20.9360372 C23.6494344,20.9360372 25.379063,22.6664734 25.379063,24.7395243 C25.379063,26.8115657 23.6494344,28.5403867 21.5782006,28.5403867 L21.5782006,28.5403867 Z M21.5782006,16.5910695 L20.3789483,16.5910695 C18.3069069,16.5910695 16.5772783,14.8614409 16.5772783,12.7875824 C16.5772783,10.715541 18.3069069,8.98490291 20.3789483,8.98490291 L21.5782006,8.98490291 C23.6494344,8.98490291 25.379063,10.715541 25.379063,12.7875824 C25.379063,14.8604314 23.6494344,16.5910695 21.5782006,16.5910695 L21.5782006,16.5910695 Z M21.5782006,40.4939437 L20.3789483,40.4939437 C18.3069069,40.4939437 16.5772783,38.7643151 16.5772783,36.6904566 C16.5772783,34.6168001 18.3069069,32.8869695 20.3789483,32.8869695 L21.5782006,32.8869695 C23.6494344,32.8869695 25.379063,34.6168001 25.379063,36.6904566 C25.379063,38.7643151 23.6494344,40.4939437 21.5782006,40.4939437 L21.5782006,40.4939437 Z M61.6568477,60.4231339 L54.3321218,60.4231339 L53.1253994,60.4231339 L53.1253994,68.9539765 C53.1253994,70.6139516 51.7422214,71.9969277 50.0820444,71.9969277 C48.4234826,71.9969277 47.0386895,70.6123364 47.0386895,68.9539765 L47.0386895,61.6298563 L47.0386895,60.4223263 L38.5064336,60.4223263 C36.8478718,60.4223263 35.4648957,59.0391484 35.4648957,57.3789714 C35.4648957,55.7204095 36.8478718,54.3374334 38.5064336,54.3374334 L45.8319671,54.3374334 L47.0396989,54.3374334 L47.0396989,45.8033605 C47.0396989,44.1466157 48.422675,42.7618226 50.082852,42.7618226 C51.7397987,42.7618226 53.126207,44.1447987 53.126207,45.8033605 L53.126207,53.1307111 L53.126207,54.338241 L61.6568477,54.338241 C63.3135925,54.338241 64.7000008,55.721419 64.7000008,57.3797789 C64.7000008,59.0401578 63.3135925,60.4231339 61.6568477,60.4231339 L61.6568477,60.4231339 Z"/>
</svg>
