<svg xmlns="http://www.w3.org/2000/svg" width="24" height="24" viewBox="0 0 24 24">
  <path fill="#687281" fill-rule="evenodd" d="M7.45454545,18.5454545 L7.45454545,5.45454545 L11.8181818,5.45454545 L11.8181818,9.80363636 C11.8181818,10.2052727 12.1267273,10.5454545 12.5283636,10.5454545 L16.9090909,10.5454545 L16.9090909,18.5454545 L7.45454545,18.5454545 Z M16.9074545,9.09090909 L13.2727273,9.09090909 L13.2727273,5.45454545 L13.3050909,5.45454545 L16.9074545,9.09090909 Z M12.8181818,14.9090909 L13.8218182,14.9090909 C14.1732727,14.9090909 14.4581818,14.6241818 14.4581818,14.2727273 C14.4581818,13.9212727 14.1732727,13.6363636 13.8218182,13.6363636 L12.8181818,13.6363636 L12.8181818,12.6327273 C12.8181818,12.2812727 12.5332727,11.9963636 12.1818182,11.9963636 C11.8303636,11.9963636 11.5454545,12.2812727 11.5454545,12.6327273 L11.5454545,13.6363636 L10.5418182,13.6363636 C10.1903636,13.6363636 9.90545455,13.9212727 9.90545455,14.2727273 C9.90545455,14.6241818 10.1903636,14.9090909 10.5418182,14.9090909 L11.5454545,14.9090909 L11.5454545,15.9127273 C11.5454545,16.2641818 11.8303636,16.5490909 12.1818182,16.5490909 C12.5332727,16.5490909 12.8181818,16.2641818 12.8181818,15.9127273 L12.8181818,14.9090909 Z M18.152,8.26509091 C18.2876364,8.40127273 18.3636364,8.58563636 18.3636364,8.77781818 L18.3636364,19.2727273 C18.3636364,19.6743636 18.038,20 17.6363636,20 L6.72727273,20 C6.32563636,20 6,19.6743636 6,19.2727273 L6,4.72727273 C6,4.32563636 6.32563636,4 6.72727273,4 L13.6074545,4 C13.8010909,4 13.9867273,4.07709091 14.1230909,4.21436364 L18.152,8.26509091 Z"/>
</svg>
