<svg xmlns="http://www.w3.org/2000/svg" width="24" height="24" viewBox="0 0 24 24">
  <path fill="#979797" fill-rule="evenodd" d="M10.69025,13.746 C10.48225,13.746 10.27425,13.668 10.11525,13.507 C8.62825,12.022 8.62825,9.603 10.11525,8.117 L13.11525,5.117 C13.83425,4.396 14.79225,4 15.81125,4 C16.82925,4 17.78725,4.396 18.50625,5.117 C19.99325,6.603 19.99325,9.021 18.50625,10.507 L17.13525,11.878 C16.81925,12.196 16.30325,12.196 15.98725,11.878 C15.66925,11.562 15.66925,11.046 15.98725,10.73 L17.35825,9.359 C18.21025,8.505 18.21025,7.119 17.35825,6.265 C16.94525,5.852 16.39525,5.625 15.81125,5.625 C15.22725,5.625 14.67625,5.852 14.26325,6.265 L11.26325,9.265 C10.41125,10.119 10.41125,11.505 11.26325,12.359 C11.58125,12.676 11.58125,13.191 11.26325,13.507 C11.10525,13.668 10.89725,13.746 10.68925,13.746 L10.69025,13.746 Z M7.81125,19.625 C6.79225,19.625 5.83425,19.228 5.11525,18.507 C3.62825,17.022 3.62825,14.603 5.11525,13.117 L6.48625,11.746 C6.80225,11.428 7.31825,11.428 7.63425,11.746 C7.95225,12.062 7.95225,12.578 7.63425,12.894 L6.26325,14.265 C5.41125,15.119 5.41125,16.505 6.26325,17.359 C6.67625,17.772 7.22525,18 7.81125,18 C8.39625,18 8.94525,17.772 9.35825,17.359 L12.35825,14.359 C13.21025,13.505 13.21025,12.119 12.35825,11.265 C12.04025,10.948 12.04025,10.433 12.35825,10.117 C12.67425,9.798 13.19025,9.798 13.50625,10.117 C14.99325,11.602 14.99325,14.021 13.50625,15.507 L10.50625,18.507 C9.78725,19.228 8.82925,19.625 7.81125,19.625 Z"/>
</svg>
