<svg xmlns="http://www.w3.org/2000/svg" viewBox="0 0 24 24">
  <path fill-rule="evenodd" d="M20.7,13.4142857 C21.0714286,13.0428571 21.2857143,12.5257143 21.2857143,12 C21.2857143,11.4742857 21.0714286,10.9571429 20.7,10.5857143 C20.3285714,10.2142857 19.8114286,10 19.2857143,10 C18.76,10 18.2428571,10.2142857 17.8714286,10.5857143 C17.5,10.9571429 17.2857143,11.4742857 17.2857143,12 C17.2857143,12.5257143 17.5,13.0428571 17.8714286,13.4142857 C18.2428571,13.7857143 18.76,14 19.2857143,14 C19.8114286,14 20.3285714,13.7857143 20.7,13.4142857 M13.5571429,13.4142857 C13.9285714,13.04 14.1428571,12.5257143 14.1428571,12 C14.1428571,11.4742857 13.9285714,10.9571429 13.5571429,10.5857143 C13.1857143,10.2142857 12.6685714,10 12.1428571,10 C11.6171429,10 11.1,10.2142857 10.7285714,10.5857143 C10.3571429,10.9571429 10.1428571,11.4742857 10.1428571,12 C10.1428571,12.5257143 10.3571429,13.0428571 10.7285714,13.4142857 C11.1,13.7857143 11.6171429,14 12.1428571,14 C12.6685714,14 13.1857143,13.7857143 13.5571429,13.4142857 M5,14 C4.47428571,14 3.95714286,13.7857143 3.58571429,13.4142857 C3.21428571,13.0428571 3,12.5257143 3,12 C3,11.4742857 3.21428571,10.9571429 3.58571429,10.5857143 C3.95714286,10.2142857 4.47428571,10 5,10 C5.52571429,10 6.04285714,10.2142857 6.41428571,10.5857143 C6.78571429,10.9571429 7,11.4742857 7,12 C7,12.5257143 6.78571429,13.0428571 6.41428571,13.4142857 C6.04285714,13.7857143 5.52571429,14 5,14"/>
</svg>
