<svg xmlns="http://www.w3.org/2000/svg" width="24" height="24" viewBox="0 0 24 24">
  <path fill-rule="evenodd" d="M16,8 C16,6.89583333 15.609375,5.953125 14.828125,5.171875 C14.046875,4.390625 13.1041667,4 12,4 C10.8958333,4 9.953125,4.390625 9.171875,5.171875 C8.390625,5.953125 8,6.89583333 8,8 C8,9.10416667 8.390625,10.046875 9.171875,10.828125 C9.953125,11.609375 10.8958333,12 12,12 C13.1041667,12 14.046875,11.609375 14.828125,10.828125 C15.609375,10.046875 16,9.10416667 16,8 L16,8 Z M20,8 C20,9.13541667 19.828125,10.0677083 19.484375,10.796875 L13.796875,22.890625 C13.6302083,23.234375 13.3828125,23.5052083 13.0546875,23.703125 C12.7265625,23.9010417 12.375,24 12,24 C11.625,24 11.2734375,23.9010417 10.9453125,23.703125 C10.6171875,23.5052083 10.375,23.234375 10.21875,22.890625 L4.515625,10.796875 C4.171875,10.0677083 4,9.13541667 4,8 C4,5.79166667 4.78125,3.90625 6.34375,2.34375 C7.90625,0.78125 9.79166667,0 12,0 C14.2083333,0 16.09375,0.78125 17.65625,2.34375 C19.21875,3.90625 20,5.79166667 20,8 L20,8 Z"/>
</svg>
