<svg xmlns="http://www.w3.org/2000/svg" width="24" height="24" viewBox="0 0 24 24">
  <path fill-rule="evenodd" d="M3.73913043,17.0740741 L3.73913043,8.87733333 L11.4815217,15.243963 C11.6354348,15.3705926 11.8176087,15.4339074 12,15.4339074 C12.1821739,15.4339074 12.3643478,15.3705926 12.5182609,15.243963 L20.2608696,8.87733333 L20.2608696,17.0740741 L3.73913043,17.0740741 Z M18.5008696,7.92592593 L12,13.2715741 L5.49913043,7.92592593 L18.5008696,7.92592593 Z M21.9980435,6.94225926 C21.9973913,6.90638889 21.9926087,6.87075926 21.9884783,6.83512963 C21.985,6.80744444 21.9832609,6.77951852 21.9778261,6.75255556 C21.9715217,6.72198148 21.9615217,6.69237037 21.9523913,6.66227778 C21.9434783,6.63194444 21.9356522,6.60137037 21.923913,6.57224074 C21.913913,6.54744444 21.9004348,6.52385185 21.8882609,6.49953704 C21.8723913,6.468 21.8571739,6.43622222 21.8382609,6.40685185 C21.8345652,6.40107407 21.8323913,6.39457407 21.8284783,6.3887963 C21.8167391,6.37122222 21.8021739,6.35774074 21.7893478,6.34112963 C21.7691304,6.31512963 21.7493478,6.28888889 21.7267391,6.26505556 C21.7058696,6.24314815 21.6836957,6.22461111 21.6613043,6.20535185 C21.6393478,6.18633333 21.6178261,6.16755556 21.5941304,6.15094444 C21.5697826,6.13385185 21.5441304,6.11964815 21.5184783,6.10544444 C21.493913,6.09172222 21.4695652,6.078 21.4436957,6.06692593 C21.4165217,6.05537037 21.3886957,6.04694444 21.3604348,6.03827778 C21.3343478,6.03033333 21.308913,6.02214815 21.2819565,6.01685185 C21.25,6.01059259 21.2180435,6.00842593 21.1856522,6.00625926 C21.1669565,6.00481481 21.1493478,6 21.1304348,6 L2.86956522,6 C2.85043478,6 2.8323913,6.00481481 2.81347826,6.00625926 C2.78152174,6.00866667 2.74978261,6.01083333 2.71826087,6.01685185 C2.69108696,6.02214815 2.66521739,6.03057407 2.63913043,6.03851852 C2.61108696,6.04718519 2.58347826,6.05537037 2.55652174,6.06692593 C2.53043478,6.078 2.50608696,6.09172222 2.48152174,6.10544444 C2.45565217,6.11988889 2.43021739,6.13385185 2.40586957,6.15094444 C2.38217391,6.16755556 2.36065217,6.18633333 2.33869565,6.20535185 C2.31630435,6.22461111 2.29413043,6.24314815 2.27326087,6.26505556 C2.25065217,6.28888889 2.23086957,6.31512963 2.21065217,6.34112963 C2.19804348,6.35774074 2.18326087,6.37122222 2.17152174,6.3887963 C2.1676087,6.39457407 2.16543478,6.40107407 2.16173913,6.40685185 C2.14282609,6.43622222 2.1276087,6.46775926 2.11173913,6.49953704 C2.09956522,6.52385185 2.08608696,6.54744444 2.07608696,6.57248148 C2.06456522,6.60137037 2.05673913,6.63194444 2.0476087,6.66203704 C2.03869565,6.69212963 2.02847826,6.72198148 2.02217391,6.75255556 C2.01673913,6.77951852 2.015,6.80744444 2.01173913,6.83512963 C2.0073913,6.87075926 2.0026087,6.90638889 2.00195652,6.94225926 C2.00173913,6.94924074 2,6.95574074 2,6.96296296 L2,18.037037 C2,18.5688333 2.38934783,19 2.86956522,19 L21.1304348,19 C21.6106522,19 22,18.5688333 22,18.037037 L22,6.96296296 C22,6.95574074 21.9982609,6.94924074 21.9980435,6.94225926 L21.9980435,6.94225926 Z"/>
</svg>
