<svg xmlns="http://www.w3.org/2000/svg" width="24" height="24" viewBox="0 0 24 24">
  <path fill="#1466A9" fill-rule="evenodd" d="M12.9969231,17.5384615 C13.3301099,17.5384615 13.604044,17.2559121 13.611956,16.9211429 L13.7907692,9.32958242 C13.7986813,8.98971429 13.5298462,8.70364835 13.189978,8.69573626 C12.8448352,8.69063736 12.5682637,8.95454945 12.5603516,9.29424176 L12.3815385,16.8931868 C12.3734505,17.2328791 12.6422857,17.5384615 12.9821538,17.5384615 L12.9969231,17.5384615 Z M10.0970549,17.5384615 L10.1118242,17.5384615 C10.4516923,17.5384615 10.7205275,17.2116044 10.7126154,16.8717363 L10.5338022,9.27015385 C10.5257143,8.93028571 10.247033,8.65265934 9.904,8.66021978 C9.56430769,8.66813187 9.2952967,8.94540659 9.30338462,9.28527473 L9.4821978,16.903033 C9.49010989,17.2378022 9.76386813,17.5384615 10.0970549,17.5384615 L10.0970549,17.5384615 Z M9.8021978,6.10989011 L13.3186813,6.10989011 L13.3186813,5.23076923 L9.8021978,5.23076923 L9.8021978,6.10989011 Z M19.1208791,6.81318681 C19.1208791,7.20158242 18.805978,7.51648352 18.4175824,7.51648352 L4.7032967,7.51648352 C4.3149011,7.51648352 4,7.20158242 4,6.81318681 C4,6.42479121 4.3149011,6.10989011 4.7032967,6.10989011 L8.57142857,6.10989011 L8.57142857,4.52747253 C8.57142857,4.1876044 8.79806593,4 9.13793407,4 L13.9827692,4 C14.3226374,4 14.5494505,4.1876044 14.5494505,4.52747253 L14.5494505,6.10989011 L18.4175824,6.10989011 C18.805978,6.10989011 19.1208791,6.42479121 19.1208791,6.81318681 L19.1208791,6.81318681 Z M17.2566154,9.16712088 L16.7198242,19.3338022 C16.7001319,19.7072527 16.3915604,20 16.0175824,20 L7.1032967,20 C6.72931868,20 6.42074725,19.7072527 6.40105495,19.3338022 L5.86443956,9.16712088 C5.84386813,8.77925275 6.14171429,8.44817582 6.52958242,8.42778022 C6.91938462,8.40896703 7.2487033,8.70523077 7.2690989,9.09292308 L7.77054945,18.5934066 L15.3503297,18.5934066 L15.8517802,9.09292308 C15.8723516,8.70505495 16.2057143,8.4101978 16.5912967,8.42778022 C16.9791648,8.44817582 17.277011,8.77925275 17.2566154,9.16712088 L17.2566154,9.16712088 Z"/>
</svg>
