<svg xmlns="http://www.w3.org/2000/svg" width="24" height="24" viewBox="0 0 24 24">
  <path fill="#4A4A4A" fill-rule="evenodd" d="M14.4547945,0 L14.4547945,9.40273973 C14.4547945,10.400005 14.4054799,11.3780774 14.3068493,12.3369863 C14.2082187,13.2958952 14.0767132,14.3123234 13.9123288,15.3863014 L11.1671233,15.3863014 C11.0027389,14.3123234 10.8712334,13.2958952 10.7726027,12.3369863 C10.6739721,11.3780774 10.6246575,10.400005 10.6246575,9.40273973 L10.6246575,0 L14.4547945,0 Z M10,21.5342466 C10,21.1945188 10.0630131,20.8712344 10.1890411,20.5643836 C10.3150691,20.2575327 10.4904098,19.9945216 10.7150685,19.7753425 C10.9397272,19.5561633 11.2054779,19.3808226 11.5123288,19.2493151 C11.8191796,19.1178076 12.1479435,19.0520548 12.4986301,19.0520548 C12.8383579,19.0520548 13.1616423,19.1178076 13.4684932,19.2493151 C13.775344,19.3808226 14.0383551,19.5561633 14.2575342,19.7753425 C14.4767134,19.9945216 14.6520541,20.2575327 14.7835616,20.5643836 C14.9150692,20.8712344 14.9808219,21.1945188 14.9808219,21.5342466 C14.9808219,21.8849333 14.9150692,22.2109574 14.7835616,22.5123288 C14.6520541,22.8137001 14.4767134,23.0739715 14.2575342,23.2931507 C14.0383551,23.5123299 13.775344,23.6849309 13.4684932,23.8109589 C13.1616423,23.9369869 12.8383579,24 12.4986301,24 C12.1479435,24 11.8191796,23.9369869 11.5123288,23.8109589 C11.2054779,23.6849309 10.9397272,23.5123299 10.7150685,23.2931507 C10.4904098,23.0739715 10.3150691,22.8137001 10.1890411,22.5123288 C10.0630131,22.2109574 10,21.8849333 10,21.5342466 L10,21.5342466 Z"/>
</svg>
