<svg xmlns="http://www.w3.org/2000/svg" viewBox="0 0 24 24">
  <path fill-rule="evenodd" d="M14.6672727,13.3254545 C14.7854545,13.4436364 14.8527273,13.6072727 14.8527273,13.7763636 C14.8527273,13.9436364 14.7854545,14.1072727 14.6672727,14.2254545 C14.5490909,14.3436364 14.3836364,14.4109091 14.2163636,14.4109091 C14.0490909,14.4109091 13.8854545,14.3436364 13.7672727,14.2254545 C13.6472727,14.1072727 13.58,13.9436364 13.58,13.7763636 C13.58,13.6072727 13.6472727,13.4436364 13.7672727,13.3254545 C14.0036364,13.0890909 14.4309091,13.0890909 14.6672727,13.3254545 L14.6672727,13.3254545 Z M9.27709091,8.09090909 C9.27709091,7.73945455 9.56181818,7.45454545 9.91345455,7.45454545 L14.2412727,7.45454545 C14.5927273,7.45454545 14.8776364,7.73945455 14.8776364,8.09090909 C14.8776364,8.44236364 14.5927273,8.72727273 14.2412727,8.72727273 L9.91345455,8.72727273 C9.56181818,8.72727273 9.27709091,8.44236364 9.27709091,8.09090909 L9.27709091,8.09090909 Z M9.27709091,10.8181818 C9.27709091,10.4667273 9.56181818,10.1818182 9.91345455,10.1818182 L14.2412727,10.1818182 C14.5927273,10.1818182 14.8776364,10.4667273 14.8776364,10.8181818 C14.8776364,11.1696364 14.5927273,11.4545455 14.2412727,11.4545455 L9.91345455,11.4545455 C9.56181818,11.4545455 9.27709091,11.1696364 9.27709091,10.8181818 L9.27709091,10.8181818 Z M9.176,13.7272727 C9.176,13.3758182 9.46090909,13.0909091 9.81236364,13.0909091 L11.9616364,13.0909091 C12.3130909,13.0909091 12.598,13.3758182 12.598,13.7272727 C12.598,14.0787273 12.3130909,14.3636364 11.9616364,14.3636364 L9.81236364,14.3636364 C9.46090909,14.3636364 9.176,14.0787273 9.176,13.7272727 L9.176,13.7272727 Z M7.45454545,18.5454545 L16.9090909,18.5454545 L16.9090909,5.45454545 L7.45454545,5.45454545 L7.45454545,18.5454545 Z M17.6363636,4 L6.72727273,4 C6.32563636,4 6,4.32563636 6,4.72727273 L6,19.2727273 C6,19.6743636 6.32563636,20 6.72727273,20 L17.6363636,20 C18.038,20 18.3636364,19.6743636 18.3636364,19.2727273 L18.3636364,4.72727273 C18.3636364,4.32563636 18.038,4 17.6363636,4 L17.6363636,4 Z"/>
</svg>
