<svg xmlns="http://www.w3.org/2000/svg" width="24" height="24" viewBox="0 0 24 24">
  <path fill="#999" d="M8,11.4975446 L8,11.4975446 L8,18.5024554 C8,18.5017333 7.99827004,18.5 7.99539757,18.5 L16.0046024,18.5 C15.9965723,18.5 16,18.4965886 16,18.5024554 L16,11.4975446 C16,11.4982667 16.00173,11.5 16.0046024,11.5 L7.99539757,11.5 C8.00342767,11.5 8,11.5034114 8,11.4975446 L8,11.4975446 Z M7,11.4975446 C7,10.946616 7.4556644,10.5 7.99539757,10.5 L16.0046024,10.5 C16.5543453,10.5 17,10.9463114 17,11.4975446 L17,18.5024554 C17,19.053384 16.5443356,19.5 16.0046024,19.5 L7.99539757,19.5 C7.44565467,19.5 7,19.0536886 7,18.5024554 L7,11.4975446 L7,11.4975446 Z M13.0003479,17.0999756 L11.3993738,17.0999756 L11.5385284,14.7014263 C11.2136024,14.4864324 11,14.1176726 11,13.7002087 C11,13.0371369 11.5371369,12.5 12.199513,12.5 C12.8625848,12.5 13.3997217,13.0371369 13.3997217,13.7002087 C13.3997217,14.1176726 13.1854236,14.4864324 12.8611933,14.7014263 L13.0003479,17.0999756 Z M9.5,10.7807617 L8.5,10.7807617 L8.5,8.46491278 C8.5,6.55129429 10.0512943,5 11.9649128,5 C13.8785313,5 15.4298256,6.55129429 15.4298256,8.46491273 L15.4298258,10.7807617 L14.4298258,10.7807618 L14.4298256,8.46491278 C14.4298256,7.10357904 13.3262465,6 11.9649128,6 C10.603579,6 9.5,7.10357904 9.5,8.46491278 L9.5,10.7807617 Z"/>
</svg>
