<svg xmlns="http://www.w3.org/2000/svg" width="24" height="24" viewBox="0 0 24 24">
  <path fill-rule="evenodd" d="M13.5804213,11.287963 C13.7331991,11.4387037 13.8187546,11.6485185 13.8187546,11.8644444 C13.8187546,12.0783333 13.7331991,12.2881481 13.5804213,12.4409259 C13.4296806,12.5916667 13.2198657,12.6792593 13.0059769,12.6792593 C12.7900509,12.6792593 12.5802361,12.5916667 12.4294954,12.4409259 C12.2767176,12.2881481 12.191162,12.0783333 12.191162,11.8644444 C12.191162,11.6485185 12.2767176,11.4387037 12.4294954,11.287963 C12.5802361,11.1351852 12.7900509,11.0496296 13.0059769,11.0496296 C13.2198657,11.0496296 13.4296806,11.1351852 13.5804213,11.287963 M13.6604769,14.2278148 C13.2027546,14.5735 12.638088,14.7195556 12.0713843,14.6397037 C11.5028472,14.5592407 10.9996991,14.2610185 10.6542176,13.7998333 C9.94084722,12.8467037 10.1319213,11.4886111 11.080162,10.7719815 C11.5382917,10.4262963 12.1033657,10.2798333 12.6702731,10.3602963 C13.2386065,10.440963 13.7417546,10.7389815 14.086625,11.1997593 C14.7999954,12.1532963 14.6089213,13.5115926 13.6604769,14.2278148 M12.8417917,9.1502963 C11.9497731,9.0237963 11.0630509,9.25357407 10.3433657,9.79664815 C10.3433657,9.79664815 10.3433657,9.79685185 10.343162,9.79685185 C8.85979167,10.918037 8.56034722,13.0420556 9.6758287,14.5323519 C10.2174769,15.2557037 11.0074398,15.7236111 11.9002731,15.8499074 C12.0597731,15.8723148 12.2192731,15.8835185 12.3775509,15.8835185 C13.1035509,15.8835185 13.8069398,15.6488519 14.3970694,15.2029444 C15.8808472,14.0825741 16.1806991,11.9583519 15.0650139,10.4674444 C14.5237731,9.7445 13.7342176,9.27659259 12.8417917,9.1502963 M12.3704213,16.3703704 C8.43629167,16.3703704 5.75779167,13.6085556 4.84051389,12.4983704 C5.75351389,11.3875741 8.41877315,8.62962963 12.3704213,8.62962963 C16.3037361,8.62962963 18.981625,11.3900185 19.8991065,12.5 C18.9806065,13.611 16.3027176,16.3703704 12.3704213,16.3703704 M21.6028843,12.0463519 C21.4647731,11.8402037 18.1535694,7 12.3704213,7 C6.58727315,7 3.27606944,11.8402037 3.13795833,12.0463519 C2.95401389,12.3207407 2.95401389,12.6792593 3.13795833,12.9536481 C3.27606944,13.1597963 6.58727315,18 12.3704213,18 C18.1535694,18 21.4647731,13.1597963 21.6028843,12.9536481 C21.7868287,12.6792593 21.7868287,12.3207407 21.6028843,12.0463519"/>
</svg>
