<svg xmlns="http://www.w3.org/2000/svg" viewBox="0 0 16 16">
  <path fill-rule="evenodd" d="M11.9457018,9.97725571 L8.4500127,13.4635764 C8.34080737,13.5725021 8.1979036,13.626895 8.05499983,13.626895 C7.91209606,13.626895 7.76919228,13.5725021 7.65998695,13.4635764 L4.16429781,9.97725571 C3.9456075,9.7591247 3.94518801,9.40508131 4.16331902,9.18625117 C4.38145002,8.96756085 4.73549342,8.96714137 4.95432356,9.18527237 L7.49568957,11.7197868 L7.49568957,3.55931026 C7.49568957,3.25043117 7.74612074,3 8.05499983,3 C8.36387892,3 8.61431009,3.25043117 8.61431009,3.55931026 L8.61431009,11.7197868 L11.1558159,9.18527237 C11.3743664,8.96714137 11.7285496,8.96742103 11.9466806,9.18625117 C12.1648116,9.40508131 12.1643922,9.7591247 11.9457018,9.97725571"/>
</svg>
