<svg xmlns="http://www.w3.org/2000/svg" viewBox="0 0 24 24">
  <path fill-rule="evenodd" d="M16.7826087,18.6086957 L7.39130435,18.6086957 L7.39130435,6.95652174 L7.68208696,6.95652174 L8.664,8.69391304 C8.66973913,8.70382609 8.67547826,8.70017391 8.68156522,8.70973913 C9.02834783,9.25373913 9.61965217,9.56521739 10.2634783,9.56521739 L14.0326957,9.56521739 C14.7003478,9.56521739 15.3229565,9.22643478 15.6575652,8.64695652 C15.6636522,8.63634783 15.6695652,8.62052174 15.6749565,8.60956522 L16.5135652,6.95652174 L16.7826087,6.95652174 L16.7826087,18.6086957 Z M9.93165217,6.95652174 C10.2238261,6.95652174 10.4850435,6.78973913 10.5850435,6.51530435 L11.0010435,5.39130435 L13.3293913,5.39130435 L13.7453913,6.51530435 C13.8453913,6.78973913 14.1066087,6.95652174 14.3987826,6.95652174 L14.9525217,6.95652174 L14.4452174,7.948 C14.3568696,8.09113043 14.2001739,8.17391304 14.0326957,8.17391304 L10.2634783,8.17391304 C10.101913,8.17391304 9.95286957,8.09965217 9.86226087,7.9653913 L9.28382609,6.95652174 L9.93165217,6.95652174 Z M17.4782609,5.56521739 L16.0869565,5.56521739 L15.9128696,5.56521739 L14.8853913,5.56521739 L14.6116522,4.83095652 C14.4267826,4.32434783 13.9410435,4 13.4027826,4 L10.9276522,4 C10.3892174,4 9.90347826,4.32452174 9.71878261,4.83095652 L9.44504348,5.56521739 L8.26034783,5.56521739 L8.08626087,5.56521739 L6.69565217,5.56521739 C6.31147826,5.56521739 6,5.90834783 6,6.29252174 L6,19.3043478 C6,19.6885217 6.31147826,20 6.69565217,20 L17.4782609,20 C17.8624348,20 18.173913,19.6885217 18.173913,19.3043478 L18.173913,6.29252174 C18.173913,5.90834783 17.8624348,5.56521739 17.4782609,5.56521739 L17.4782609,5.56521739 Z M10,12.75 L14,12.75 C14.4142136,12.75 14.75,12.4142136 14.75,12 C14.75,11.5857864 14.4142136,11.25 14,11.25 L10,11.25 C9.58578644,11.25 9.25,11.5857864 9.25,12 C9.25,12.4142136 9.58578644,12.75 10,12.75 Z M10,15.75 L14,15.75 C14.4142136,15.75 14.75,15.4142136 14.75,15 C14.75,14.5857864 14.4142136,14.25 14,14.25 L10,14.25 C9.58578644,14.25 9.25,14.5857864 9.25,15 C9.25,15.4142136 9.58578644,15.75 10,15.75 Z"/>
</svg>
