<svg xmlns="http://www.w3.org/2000/svg" width="24" height="24" viewBox="0 0 24 24">
  <path fill-rule="evenodd" d="M17.9745775,16.5230769 L6.67127902,16.5230769 L5.63771354,11.7230769 L19.1376126,11.7230769 L17.9745775,16.5230769 Z M6.73920947,7.29230769 L10.4333843,7.29230769 L11.2602367,8.65550769 C11.3761933,8.84824615 11.5832716,8.95384615 11.8064195,8.95384615 L17.8783427,8.95384615 L17.8783427,10.2461538 L6.73920947,10.2461538 L6.73920947,7.29230769 Z M20.6445,10.5395077 C20.5060825,10.3609846 20.2940738,10.2461538 20.0696476,10.2461538 L19.1566039,10.2461538 L19.1566039,8.23975385 C19.1566039,7.88289231 18.9000387,7.66153846 18.547056,7.66153846 L12.1657935,7.66153846 L11.3389411,6.29833846 C11.2229845,6.1056 11.0160888,6 10.7927583,6 L6.08327887,6 C5.73029617,6 5.46094828,6.19698462 5.46094828,6.55384615 L5.46094828,10.2461538 L4.73051331,10.2461538 C4.50937412,10.2461538 4.3001045,10.3578462 4.16150447,10.5319385 C4.02290443,10.7062154 3.96958268,10.9395692 4.01687834,11.1579692 L5.3696439,17.4166154 C5.44305262,17.7557538 5.73997443,18 6.08327887,18 L18.547056,18 C18.8832386,18 19.1761431,17.7679385 19.2564909,17.4380308 L20.7789,11.1768 C20.8324044,10.9563692 20.7829174,10.7182154 20.6445,10.5395077 L20.6445,10.5395077 Z"/>
</svg>
