<svg xmlns="http://www.w3.org/2000/svg" width="24" height="24" viewBox="0 0 24 24">
  <path fill="#374252" fill-rule="evenodd" d="M20.9543125,5.80625 L19.40625,11.96875 C19.40625,12.042627 19.391375,12.1121875 19.3648125,12.1754395 C19.310625,12.3029062 19.2091895,12.4049062 19.0821875,12.4585625 C19.0184375,12.4856562 18.9483125,12.5 18.875,12.5 L8.78125,12.5 L9.20625,14.625 L18.34375,14.625 C18.6375313,14.625 18.875,14.8624687 18.875,15.15625 C18.875,15.4500312 18.6375313,15.6875 18.34375,15.6875 L8.78125,15.6875 C8.48746875,15.6875 8.25,15.4500312 8.25,15.15625 L6.23125,5.0625 L4.53125,5.0625 C4.238,5.0625 4,4.8245 4,4.53125 C4,4.238 4.238,4 4.53125,4 L6.65625,4 C6.95003125,4 7.1875,4.238 7.1875,4.53125 L7.29375,5.0625 L20.46875,5.0625 C20.7625313,5.0625 21,5.3005 21,5.59375 C21,5.66971875 20.983,5.74090625 20.9543125,5.80625 L20.9543125,5.80625 Z M8.56875,11.4375 L10.375,11.4375 L10.375,6.125 L7.50625,6.125 L8.56875,11.4375 L8.56875,11.4375 Z M10.90625,11.4375 L13.5625,11.4375 L13.5625,6.125 L10.90625,6.125 L10.90625,11.4375 Z M14.09375,11.4375 L16.75,11.4375 L16.75,6.125 L14.09375,6.125 L14.09375,11.4375 Z M17.28125,6.125 L17.28125,11.4375 L18.4781563,11.4375 L19.8238125,6.125 L17.28125,6.125 L17.28125,6.125 Z M9.84375,16.75 C10.7240312,16.75 11.4375,17.464 11.4375,18.34375 C11.4375,19.2235 10.7240312,19.9375 9.84375,19.9375 C8.96346875,19.9375 8.25,19.2235 8.25,18.34375 C8.25,17.464 8.96346875,16.75 9.84375,16.75 L9.84375,16.75 Z M9.84375,18.875 C10.1375313,18.875 10.375,18.6375313 10.375,18.34375 C10.375,18.0499688 10.1375313,17.8125 9.84375,17.8125 C9.54996875,17.8125 9.3125,18.0499688 9.3125,18.34375 C9.3125,18.6375313 9.54996875,18.875 9.84375,18.875 L9.84375,18.875 Z M17.28125,16.75 C18.1615313,16.75 18.875,17.464 18.875,18.34375 C18.875,19.2235 18.1615313,19.9375 17.28125,19.9375 C16.4009688,19.9375 15.6875,19.2235 15.6875,18.34375 C15.6875,17.464 16.4009688,16.75 17.28125,16.75 L17.28125,16.75 Z M17.28125,18.875 C17.5750312,18.875 17.8125,18.6375313 17.8125,18.34375 C17.8125,18.0499688 17.5750312,17.8125 17.28125,17.8125 C16.9874687,17.8125 16.75,18.0499688 16.75,18.34375 C16.75,18.6375313 16.9874687,18.875 17.28125,18.875 L17.28125,18.875 Z"/>
</svg>
