<svg xmlns="http://www.w3.org/2000/svg" viewBox="0 0 24 24">
  <path fill-rule="evenodd" d="M19.1596938,20.3299343 L14.6854719,13.7555156 C17.2424659,11.7307095 17.9652789,8.06500383 16.2415277,5.19590026 C14.3693779,2.07972619 10.3113282,1.06808486 7.19546665,2.93984398 C4.07964415,4.81222811 3.06804188,8.87016065 4.94003538,11.9860613 C6.62804438,14.7962976 10.0948046,15.89415 13.0446895,14.7093835 L16.7612156,21.7712244 C16.87645,21.9904042 17.1441064,22.0650918 17.3560988,21.9381386 L19.02735,20.9334504 C19.2397329,20.8059893 19.2993814,20.5344657 19.1596938,20.3299343 L19.1596938,20.3299343 Z M12.8981269,12.4309444 C10.7805082,13.7029375 8.02281098,13.0152807 6.75066165,10.897623 C5.47859044,8.78055121 6.16659874,6.02285396 8.28398304,4.75074369 C10.4007423,3.47847717 13.1584786,4.16632922 14.4305108,6.28375258 C15.7027382,8.40086344 15.0151987,11.1591857 12.8981269,12.4309444 L12.8981269,12.4309444 Z" transform="rotate(-25 11.618 12)"/>
</svg>
