<svg xmlns="http://www.w3.org/2000/svg" width="24" height="24" viewBox="0 0 24 24">
  <path fill-rule="evenodd" d="M9.80331859,17.7459333 C10.1200744,17.4165569 10.1097296,16.8926995 9.78035328,16.5757369 L5.02156816,12.0000536 L9.78035328,7.42416336 C10.1097296,7.10740757 10.1200744,6.58355017 9.80331859,6.2541738 C9.48656279,5.92438364 8.9627054,5.9142458 8.63312214,6.23120849 L3.2538598,11.4035761 C3.09165435,11.5593678 3,11.7749521 3,12.0000536 C3,12.225155 3.09165435,12.4405324 3.2538598,12.596531 L8.63312214,17.7688986 C8.79367243,17.9232421 9.00036024,18 9.20663426,18 C9.4238737,18 9.64090624,17.9147594 9.80331859,17.7459333 M14.5861035,18 C14.368864,18 14.1520384,17.9149663 13.9894192,17.7459333 C13.6726634,17.4165569 13.6830081,16.8926995 14.0123845,16.5757369 L18.7713765,12.0000536 L14.0123845,7.42416336 C13.6830081,7.10740757 13.6726634,6.58355017 13.9894192,6.2541738 C14.3061749,5.92459054 14.8300323,5.9144527 15.1596156,6.23120849 L20.5388779,11.4035761 C20.7010834,11.5593678 20.7929446,11.7749521 20.7929446,12.0000536 C20.7929446,12.225155 20.7010834,12.4405324 20.5388779,12.596531 L15.1596156,17.7688986 C14.9990653,17.9232421 14.7925844,18 14.5861035,18"/>
</svg>
