<svg xmlns="http://www.w3.org/2000/svg" width="24" height="24" viewBox="0 0 24 24">
  <path fill="#1466A9" fill-rule="evenodd" stroke="#1466A9" stroke-width=".5" d="M8,5.59349593 C8.24571035,5.37669268 8.51490369,5.17073268 8.80758808,4.97560976 C9.10027247,4.78048683 9.41643913,4.61066016 9.75609756,4.46612466 C10.095756,4.32158916 10.464316,4.20776916 10.8617886,4.12466125 C11.2592612,4.04155333 11.6892479,4 12.1517615,4 C12.7804909,4 13.3532043,4.08672 13.8699187,4.2601626 C14.3866331,4.4336052 14.8292664,4.68111854 15.197832,5.00271003 C15.5663975,5.32430152 15.8518508,5.71273485 16.0542005,6.16802168 C16.2565502,6.62330851 16.3577236,7.13278851 16.3577236,7.69647696 C16.3577236,8.24571187 16.2782302,8.7208652 16.1192412,9.12195122 C15.9602521,9.52303724 15.7597121,9.8717239 15.5176152,10.1680217 C15.2755182,10.4643195 15.0135515,10.7208661 14.7317073,10.9376694 C14.4498631,11.1544726 14.1824764,11.358626 13.9295393,11.5501355 C13.6766022,11.741645 13.4579955,11.9295384 13.2737127,12.1138211 C13.08943,12.2981039 12.9792233,12.5058706 12.9430894,12.7371274 L12.6937669,14.3197832 L10.8617886,14.3197832 L10.6775068,12.5528455 C10.67028,12.5167117 10.6666667,12.4859983 10.6666667,12.4607046 L10.6666667,12.3685637 C10.6666667,12.0505856 10.74616,11.7741656 10.9051491,11.5392954 C11.0641381,11.3044252 11.2628714,11.0840119 11.501355,10.8780488 C11.7398386,10.6720857 11.9963853,10.4715457 12.2710027,10.2764228 C12.5456202,10.0812998 12.8021668,9.86991984 13.0406504,9.64227642 C13.279134,9.41463301 13.4778673,9.15627967 13.6368564,8.86720867 C13.7958454,8.57813767 13.8753388,8.23848434 13.8753388,7.84823848 C13.8753388,7.58807458 13.8265588,7.35501458 13.7289973,7.14905149 C13.6314358,6.9430884 13.4959358,6.76603507 13.3224932,6.61788618 C13.1490506,6.46973729 12.941284,6.35591729 12.699187,6.27642276 C12.45709,6.19692824 12.1951234,6.15718157 11.9132791,6.15718157 C11.501353,6.15718157 11.1526663,6.20234824 10.8672087,6.29268293 C10.5817511,6.38301762 10.3396577,6.48419095 10.1409214,6.59620596 C9.94218509,6.70822098 9.77416509,6.80939431 9.63685637,6.899729 C9.49954764,6.99006369 9.37669431,7.03523035 9.26829268,7.03523035 C9.00812878,7.03523035 8.82023545,6.92683035 8.70460705,6.7100271 L8,5.59349593 Z M10.0487805,18.3739837 C10.0487805,18.1499537 10.0903338,17.936767 10.1734417,17.7344173 C10.2565496,17.5320676 10.3721763,17.3586276 10.5203252,17.2140921 C10.6684741,17.0695566 10.8437208,16.95393 11.0460705,16.8672087 C11.2484202,16.7804874 11.4652202,16.7371274 11.696477,16.7371274 C11.920507,16.7371274 12.1336937,16.7804874 12.3360434,16.8672087 C12.5383931,16.95393 12.7118331,17.0695566 12.8563686,17.2140921 C13.0009041,17.3586276 13.1165307,17.5320676 13.203252,17.7344173 C13.2899733,17.936767 13.3333333,18.1499537 13.3333333,18.3739837 C13.3333333,18.6052405 13.2899733,18.8202339 13.203252,19.0189702 C13.1165307,19.2177065 13.0009041,19.3893398 12.8563686,19.5338753 C12.7118331,19.6784108 12.5383931,19.7922308 12.3360434,19.8753388 C12.1336937,19.9584467 11.920507,20 11.696477,20 C11.4652202,20 11.2484202,19.9584467 11.0460705,19.8753388 C10.8437208,19.7922308 10.6684741,19.6784108 10.5203252,19.5338753 C10.3721763,19.3893398 10.2565496,19.2177065 10.1734417,19.0189702 C10.0903338,18.8202339 10.0487805,18.6052405 10.0487805,18.3739837 L10.0487805,18.3739837 Z"/>
</svg>
