<svg xmlns="http://www.w3.org/2000/svg" width="24" height="24" viewBox="0 0 24 24">
  <path fill="#1767A5" fill-rule="evenodd" d="M16.0625,16.0625 L10.4375,16.0625 L10.4375,9.8125 L16.0625,9.8125 L16.0625,16.0625 Z M9.5,9.5 L9.5,14.1875 L7.9375,14.1875 L7.9375,7.9375 L13.5625,7.9375 L13.5625,8.875 L10.125,8.875 C9.78125,8.875 9.5,9.15625 9.5,9.5 L9.5,9.5 Z M16.375,8.875 L14.5,8.875 L14.5,7.625 C14.5,7.28125 14.21875,7 13.875,7 L7.625,7 C7.28125,7 7,7.28125 7,7.625 L7,14.5 C7,14.84375 7.28125,15.125 7.625,15.125 L9.5,15.125 L9.5,16.375 C9.5,16.71875 9.78125,17 10.125,17 L16.375,17 C16.71875,17 17,16.71875 17,16.375 L17,9.5 C17,9.15625 16.71875,8.875 16.375,8.875 L16.375,8.875 Z M11.375,14.5 L13.875,14.5 L13.875,15.125 L11.375,15.125 L11.375,14.5 Z M11.375,13.25 L15.125,13.25 L15.125,13.875 L11.375,13.875 L11.375,13.25 Z M11.375,12 L15.125,12 L15.125,12.625 L11.375,12.625 L11.375,12 Z M11.375,10.75 L15.125,10.75 L15.125,11.375 L11.375,11.375 L11.375,10.75 Z"/>
</svg>
