<svg xmlns="http://www.w3.org/2000/svg" width="24" height="24" viewBox="0 0 24 24">
  <path fill-rule="evenodd" d="M12.0239378,24.0741704 C5.44198366,24.0744127 0.0724149938,18.6734554 0.0738692747,12.0541742 C0.0753235556,5.45355623 5.46149526,0.0724740952 12.0649001,0.0741707564 C18.7064798,0.0758674176 24.0776239,5.45198076 24.073867,12.0944093 C24.0703525,18.7208407 18.6858775,24.073928 12.0239378,24.0741704 Z M2.87542046,12.075746 C2.87348142,17.1103457 7.00170046,21.2683775 12.0070933,21.2729827 C17.1274956,21.277588 21.2692879,17.1714255 21.2724389,12.0872591 C21.2755898,7.02102879 17.1487039,2.87899407 12.0944714,2.87560075 C7.00933544,2.87232862 2.87748069,6.99570006 2.87542046,12.075746 Z M10.2828008,8.97812746 C10.2828008,7.99842682 10.2808618,7.01872618 10.2834068,6.03914672 C10.2863153,4.94855715 11.0449653,4.14215833 12.0613865,4.14397618 C13.0735661,4.14567284 13.8297922,4.95570737 13.8320948,6.04956907 C13.8352458,7.61498139 13.8367,9.18039372 13.8280955,10.745806 C13.827126,10.9427399 13.8845701,11.0503567 14.0584779,11.1476724 C15.0708999,11.7147208 16.0795649,12.288677 17.0820493,12.8730556 C18.0593262,13.442649 18.3144313,14.6213438 17.665216,15.5036076 C17.1334339,16.2261429 16.1521578,16.4147146 15.3032213,15.9368621 C14.1170127,15.2688624 12.9389239,14.5861986 11.7571994,13.9100791 C11.6521276,13.8499689 11.5499643,13.7830719 11.4395602,13.7344747 C10.6209211,13.3739342 10.2723785,12.7312632 10.2807406,11.856392 C10.2900722,10.8970513 10.2828008,9.93746817 10.2828008,8.97812746 Z"/>
</svg>
