<svg xmlns="http://www.w3.org/2000/svg" width="24" height="24" viewBox="0 0 24 24">
  <path fill="#687281" fill-rule="evenodd" d="M7.45454545,18.5454545 L7.45454545,5.45454545 L11.8181818,5.45454545 L11.8181818,9.80363636 C11.8181818,10.2052727 12.1267273,10.5454545 12.5283636,10.5454545 L16.9090909,10.5454545 L16.9090909,18.5454545 L7.45454545,18.5454545 Z M16.9074545,9.09090909 L13.2727273,9.09090909 L13.2727273,5.45454545 L13.3050909,5.45454545 L16.9074545,9.09090909 Z M18.152,8.26509091 L14.1230909,4.21436364 C13.9867273,4.07709091 13.8010909,4 13.6074545,4 L6.72727273,4 C6.32563636,4 6,4.32563636 6,4.72727273 L6,19.2727273 C6,19.6743636 6.32563636,20 6.72727273,20 L17.6363636,20 C18.038,20 18.3636364,19.6743636 18.3636364,19.2727273 L18.3636364,8.77781818 C18.3636364,8.58563636 18.2876364,8.40127273 18.152,8.26509091 L18.152,8.26509091 Z"/>
</svg>
