<svg xmlns="http://www.w3.org/2000/svg" width="24" height="24" viewBox="0 0 24 24">
  <path fill="#687281" fill-rule="evenodd" d="M15.9872174,7.89130435 C15.9415652,8.36295652 15.5466087,8.71591304 15.0851304,8.71591304 C15.0556522,8.71591304 15.025913,8.71434783 14.995913,8.71147826 C14.4968696,8.66243478 14.1321739,8.21608696 14.1806957,7.71391304 C14.3254783,6.22069565 13.0216522,5.6906087 12.8726957,5.63504348 C12.4057391,5.46104348 12.1610435,4.93956522 12.3295652,4.46817391 C12.4983478,3.99678261 13.0088696,3.74895652 13.4786957,3.91382609 C14.4467826,4.254 16.2167826,5.52313043 15.9872174,7.89130435 M14.1608696,22.676087 C14.2049565,23.2507826 13.7776522,23.7524348 13.2063478,23.7967826 L10.6211304,23.9968696 C10.594,23.9989565 10.5668696,24 10.5402609,24 C10.0036522,24 9.54921739,23.583913 9.50721739,23.0366087 C9.4633913,22.461913 9.89069565,21.9602609 10.4617391,21.9161739 L13.0472174,21.7158261 C13.6193043,21.674087 14.1167826,22.1016522 14.1608696,22.676087 M16.4309565,19.3807826 C16.4724348,19.9557391 16.0430435,20.4555652 15.4717391,20.4973043 L8.3466087,21.018 C8.32104348,21.0198261 8.29573913,21.0208696 8.27043478,21.0208696 C7.73173913,21.0208696 7.27678261,20.601913 7.23713043,20.0530435 C7.19565217,19.478087 7.62504348,18.9782609 8.19634783,18.9365217 L15.3214783,18.4158261 C15.8914783,18.3735652 16.3894783,18.806087 16.4309565,19.3807826 M14.9481739,12.6456522 C14.610087,12.8269565 14.437913,13.1809565 14.437913,13.5665217 L14.437913,15.1583478 L9.22052174,15.567913 L9.22052174,13.5673043 C9.22052174,13.196087 9.06869565,12.8530435 8.74991304,12.666 C6.95382609,11.6118261 6.1026087,10.0565217 6.1026087,7.9106087 C6.1026087,4.69956522 8.67269565,2.08695652 11.8182609,2.08695652 C14.9638261,2.08695652 17.548,4.69956522 17.548,7.9106087 C17.548,9.99469565 16.591913,11.7646957 14.9481739,12.6456522 M11.8292174,0 C7.54,0 4,3.54886957 4,7.9106087 C4,10.5704348 5.0466087,12.7124348 7.13356522,14.142 L7.13356522,16.6990435 C7.13356522,16.9901739 7.30495652,17.2682609 7.51782609,17.466 C7.71008696,17.6444348 7.9866087,17.7425217 8.24643478,17.7425217 C8.27408696,17.7425217 8.31426087,17.7412174 8.34217391,17.7391304 L15.5192174,17.1610435 C16.057913,17.1174783 16.5248696,16.6648696 16.5248696,16.1209565 L16.5248696,14.1594783 C18.3509565,12.8355652 19.654,10.5461739 19.654,7.9106087 C19.654,3.54886957 16.1186957,0 11.8292174,0"/>
</svg>
