<svg xmlns="http://www.w3.org/2000/svg" width="24" height="24" viewBox="0 0 24 24">
  <path fill="#1767A5" fill-rule="evenodd" d="M8.5245,16.926 L9.492,15.5715 L8.4315,14.511 L7.077,15.477 C6.825,15.3375 6.5565,15.225 6.2745,15.1455 L6,13.503 L4.5,13.503 L4.224,15.1455 C3.9435,15.225 3.6735,15.3375 3.423,15.477 L2.0685,14.511 L1.008,15.5715 L1.974,16.926 C1.8345,17.178 1.722,17.4465 1.6425,17.727 L0,18.003 L0,19.503 L1.6425,19.779 C1.722,20.0595 1.8345,20.3295 1.974,20.58 L1.008,21.9345 L2.0685,22.995 L3.423,22.029 C3.675,22.1685 3.9435,22.281 4.224,22.359 L4.5,24.003 L6,24.003 L6.2745,22.359 C6.5565,22.281 6.8265,22.1685 7.077,22.029 L8.4315,22.995 L9.492,21.9345 L8.5245,20.58 C8.664,20.328 8.7765,20.0595 8.856,19.779 L10.5,19.5045 L10.5,18.0045 L8.856,17.73 C8.778,17.448 8.664,17.178 8.5245,16.9275 L8.5245,16.926 L8.5245,16.926 Z M5.25,20.253 C4.4205,20.253 3.75,19.581 3.75,18.753 C3.75,17.925 4.4205,17.253 5.25,17.253 C6.078,17.253 6.75,17.925 6.75,18.753 C6.75,19.581 6.078,20.253 5.25,20.253 L5.25,20.253 Z M24,9.003 L24,7.503 L22.419,7.2165 C22.392,7.029 22.353,6.8415 22.3095,6.6585 L23.658,5.7885 L23.0835,4.404 L21.5145,4.7415 C21.414,4.5795 21.3105,4.4205 21.198,4.269 L22.1115,2.949 L21.051,1.8885 L19.7295,2.802 C19.578,2.691 19.419,2.5845 19.2585,2.4855 L19.5975,0.9165 L18.2115,0.3435 L17.3415,1.6905 C17.1585,1.6455 16.971,1.608 16.782,1.5795 L16.497,0 L14.997,0 L14.7105,1.5795 C14.5215,1.608 14.3355,1.6455 14.1525,1.6905 L13.2825,0.3435 L11.8965,0.9165 L12.2355,2.4855 C12.0735,2.5845 11.9145,2.6895 11.763,2.802 L10.443,1.8885 L9.3825,2.949 L10.2945,4.269 C10.185,4.4205 10.0785,4.5795 9.978,4.7415 L8.409,4.404 L7.836,5.7885 L9.1845,6.6585 C9.1395,6.8415 9.102,7.029 9.0735,7.2165 L7.494,7.503 L7.494,9.003 L9.0735,9.2895 C9.1005,9.477 9.1395,9.6645 9.1845,9.8475 L7.836,10.7175 L8.409,12.102 L9.978,11.7645 C10.0785,11.9265 10.1835,12.0855 10.2945,12.237 L9.3825,13.557 L10.443,14.6175 L11.763,13.704 C11.9145,13.815 12.0735,13.9215 12.2355,14.0205 L11.8965,15.5895 L13.2825,16.1625 L14.1525,14.8155 C14.3355,14.8605 14.5215,14.898 14.7105,14.9265 L14.997,16.506 L16.497,16.506 L16.782,14.9265 C16.971,14.898 17.1585,14.8605 17.3415,14.8155 L18.2115,16.1625 L19.5975,15.5895 L19.2585,14.0205 C19.419,13.9215 19.578,13.8165 19.7295,13.704 L21.051,14.6175 L22.1115,13.557 L21.198,12.237 C21.309,12.0855 21.414,11.9265 21.5145,11.7645 L23.0835,12.102 L23.658,10.7175 L22.3095,9.8475 C22.353,9.6645 22.3905,9.477 22.419,9.2895 L24,9.003 L24,9.003 Z M15.75,11.5155 C13.9485,11.5155 12.4875,10.0545 12.4875,8.253 C12.4875,6.4515 13.9485,4.9905 15.75,4.9905 C17.5515,4.9905 19.0125,6.4515 19.0125,8.253 C19.0125,10.0545 17.5515,11.5155 15.75,11.5155 L15.75,11.5155 Z"/>
</svg>
