<svg xmlns="http://www.w3.org/2000/svg" width="24" height="24" viewBox="0 0 24 24">
  <path fill="#1767A5" fill-rule="evenodd" d="M18.7312687,14.4895105 C15.8331668,14.4895105 13.4865135,12.1428571 13.4865135,9.24475524 C13.4865135,6.34665335 15.8331668,4 18.7312687,4 C21.6278721,4 23.976024,6.34665335 23.976024,9.24475524 L24,9.99400599 C24,15.7872128 19.3036963,20.4835165 13.5104895,20.4835165 L13.5104895,17.4865135 C15.5124875,17.4865135 17.3916084,16.7072927 18.8091908,15.2927073 C19.0804196,15.0184815 19.3291708,14.7307692 19.5539461,14.4265734 C19.2857143,14.4685315 19.00999,14.491009 18.7312687,14.491009 L18.7312687,14.4895105 L18.7312687,14.4895105 Z M5.24475524,14.4895105 C2.34665335,14.4895105 0,12.1428571 0,9.24475524 C0,6.34665335 2.34665335,4 5.24475524,4 C8.14135864,4 10.4895105,6.34665335 10.4895105,9.24475524 L10.5134865,9.99400599 C10.5134865,15.7872128 5.81718282,20.4835165 0.023976024,20.4835165 L0.023976024,17.4865135 C2.02597403,17.4865135 3.90509491,16.7072927 5.32267732,15.2927073 C5.59390609,15.0184815 5.84265734,14.7307692 6.06743257,14.4265734 C5.7992008,14.4685315 5.52347652,14.491009 5.24475524,14.491009 L5.24475524,14.4895105 L5.24475524,14.4895105 Z"/>
</svg>
