<svg xmlns="http://www.w3.org/2000/svg" width="24" height="24" viewBox="0 0 24 24">
  <path fill="#1767A5" fill-rule="evenodd" d="M8.5,9 L11.5,9 L11.5,12 L8.5,12 L8.5,9 Z M13,9 L16,9 L16,12 L13,12 L13,9 Z M17.5,9 L20.5,9 L20.5,12 L17.5,12 L17.5,9 Z M4,18 L7,18 L7,21 L4,21 L4,18 Z M8.5,18 L11.5,18 L11.5,21 L8.5,21 L8.5,18 Z M13,18 L16,18 L16,21 L13,21 L13,18 Z M8.5,13.5 L11.5,13.5 L11.5,16.5 L8.5,16.5 L8.5,13.5 Z M13,13.5 L16,13.5 L16,16.5 L13,16.5 L13,13.5 Z M17.5,13.5 L20.5,13.5 L20.5,16.5 L17.5,16.5 L17.5,13.5 Z M4,13.5 L7,13.5 L7,16.5 L4,16.5 L4,13.5 Z M20.5,0 L20.5,1.5 L17.5,1.5 L17.5,0 L7,0 L7,1.5 L4,1.5 L4,0 L1,0 L1,24 L23.5,24 L23.5,0 L20.5,0 L20.5,0 Z M2.5,6 L22,6 L22,22.5 L2.5,22.5 L2.5,6 Z"/>
</svg>
