<svg xmlns="http://www.w3.org/2000/svg" width="64" height="64" viewBox="0 0 64 64">
  <g fill="none" fill-rule="evenodd">
    <circle cx="32" cy="32" r="32" fill="#EEF7FF"/>
    <path fill="#DFDFDF" fill-rule="nonzero" d="M32,61 C48.0162577,61 61,48.0162577 61,32 C61,15.9837423 48.0162577,3 32,3 C15.9837423,3 3,15.9837423 3,32 C3,48.0162577 15.9837423,61 32,61 Z M32,64 C14.326888,64 0,49.673112 0,32 C0,14.326888 14.326888,0 32,0 C49.673112,0 64,14.326888 64,32 C64,49.673112 49.673112,64 32,64 Z"/>
    <path fill="#1767A5" fill-rule="nonzero" d="M32,0 L32,3 C15.9837423,3 3,15.9837423 3,32 L0,32 C0,14.326888 14.326888,0 32,0 Z M32,64 L32,61 C48.0162577,61 61,48.0162577 61,32 L64,32 C64,49.673112 49.673112,64 32,64 Z"/>
    <path fill="#1767A5" d="M32.3333333,31.2222222 C38.5902778,31.2222222 43.6666667,36.2957778 43.6666667,42.5555556 C43.6666667,44.6408889 41.9770556,46.3333333 39.8888889,46.3333333 L24.7777778,46.3333333 C22.6896111,46.3333333 21,44.6408889 21,42.5555556 C21,36.2957778 26.0763889,31.2222222 32.3333333,31.2222222 Z M32.3333333,29.3333333 C29.2037198,29.3333333 26.6666667,26.7962802 26.6666667,23.6666667 C26.6666667,20.5370531 29.2037198,18 32.3333333,18 C35.4629469,18 38,20.5370531 38,23.6666667 C38,26.7962802 35.4629469,29.3333333 32.3333333,29.3333333 Z"/>
  </g>
</svg>
