<svg xmlns="http://www.w3.org/2000/svg" viewBox="0 0 24 24">
  <path fill-rule="evenodd" d="M3,21 L24,21 L24,24 L0,24 L0,0 L3,0 L3,21 L3,21 Z M6.75,19.5 C5.508,19.5 4.5,18.492 4.5,17.25 C4.5,16.008 5.508,15 6.75,15 C6.816,15 6.882,15.003 6.9465,15.009 L9.363,10.977 C9.1335,10.626 9,10.203 9,9.75 C9,8.508 10.008,7.5 11.25,7.5 C12.4905,7.5 13.5,8.508 13.5,9.75 C13.5,10.203 13.3635,10.6245 13.1355,10.977 L15.552,15.009 C15.6165,15.003 15.6825,15 15.75,15 C15.798,15 15.8475,15.0015 15.8985,15.006 L19.8915,8.019 C19.644,7.6575 19.5,7.221 19.5,6.7515 C19.5,5.5095 20.508,4.5015 21.75,4.5015 C22.9905,4.5015 24,5.5095 24,6.7515 C24,7.9935 22.9905,9.0015 21.75,9.0015 C21.7005,9.0015 21.651,9 21.6,8.9955 L17.607,15.9825 C17.8545,16.344 18,16.7805 18,17.25 C18,18.492 16.9905,19.5 15.75,19.5 C14.508,19.5 13.5,18.492 13.5,17.25 C13.5,16.797 13.635,16.3755 13.863,16.023 L11.4465,11.991 C11.382,11.997 11.316,12 11.25,12 C11.1825,12 11.1165,11.997 11.052,11.991 L8.6355,16.023 C8.865,16.374 9,16.797 9,17.25 C9,18.492 7.9905,19.5 6.75,19.5 L6.75,19.5 Z"/>
</svg>
