<svg xmlns="http://www.w3.org/2000/svg" viewBox="0 0 72 72">
  <g transform="translate(2)">
    <path d="M27.6040518,57.1 C28.0040518,57.2 28.4040518,57.2 28.8040518,57.2 C30.0040518,57.2 31.2040518,56.9 32.3040518,56.2 C33.7040518,56.8 35.3040518,57.2 36.9040518,57.2 C38.0040518,57.2 39.1040518,57 40.2040518,56.7 C43.1040518,55.9 45.6040518,54 46.8040518,51.5 C50.3040518,44.6 46.6040518,30.9 46.5040518,30.3 L46.5040518,30.3 C46.5040518,30.2 46.4040518,30.1 46.4040518,30 L46.4040518,29.9 L46.1040518,29.6 L46.1040518,29.6 L46.1040518,29.6 L46.0040518,29.6 C45.9040518,29.6 45.8040518,29.5 45.7040518,29.5 L45.6040518,29.5 L45.3040518,29.5 L45.3040518,29.5 C44.7040518,29.7 31.7040518,35.1 28.0040518,41.6 C25.4040518,40.5 23.0040518,40 22.8040518,40 L22.8040518,40 L22.5040518,40 L22.4040518,40 C22.3040518,40 22.1040518,40.1 22.0040518,40.2 L22.0040518,40.2 L22.0040518,40.2 C22.0040518,40.2 22.0040518,40.2 21.9040518,40.3 C21.8040518,40.4 21.7040518,40.4 21.7040518,40.5 L21.7040518,40.6 C21.7040518,40.7 21.6040518,40.8 21.6040518,40.9 L21.6040518,40.9 C21.6040518,41.3 20.6040518,50.2 23.4040518,54.1 C24.2040518,55.7 25.7040518,56.7 27.6040518,57.1 Z M27.9040518,55.1 C26.6040518,54.9 25.5040518,54.2 24.7040518,53.1 C23.3040518,51.1 23.1040518,47.1 23.1040518,44.1 L30.6040518,54.8 C29.8040518,55.1 28.9040518,55.3 27.9040518,55.1 Z M32.8040518,47.4 C33.6040518,48.5 33.8040518,49.8 33.6040518,51.1 C33.4040518,52.1 33.0040518,52.9 32.3040518,53.6 L24.7040518,42.9 C27.6040518,43.8 31.3040518,45.4 32.8040518,47.4 Z M45.0040518,50.6 C44.0040518,52.6 42.1040518,54.1 39.6040518,54.8 C37.8040518,55.3 36.0040518,55.3 34.3040518,54.9 L45.1040518,33.6 C46.0040518,37.8 47.3040518,46.1 45.0040518,50.6 Z M43.3040518,32.7 L35.4040518,48.4 C35.2040518,47.7 34.9040518,47 34.4040518,46.3 C33.4040518,44.8 31.5040518,43.6 29.6040518,42.7 C32.1040518,38.4 39.4040518,34.5 43.3040518,32.7 Z"/>
    <path d="M1.00405184,34.9 L7.70405184,34.9 L7.70405184,70.7 C7.70405184,71.3 8.10405184,71.7 8.70405184,71.7 L58.9040518,71.7 C59.5040518,71.7 59.9040518,71.3 59.9040518,70.7 L59.9040518,34.9 L66.6040518,34.9 C67.0040518,34.9 67.4040518,34.7 67.5040518,34.3 C67.6040518,33.9 67.6040518,33.5 67.3040518,33.2 L34.5040518,0.3 C34.1040518,-0.1 33.5040518,-0.1 33.1040518,0.3 L0.304051835,33.2 C0.00405183549,33.5 -0.0959481645,33.9 0.104051835,34.3 C0.304051835,34.7 0.604051835,34.9 1.00405184,34.9 Z M33.8040518,2.5 L64.3040518,32.9 L59.0040518,32.9 C58.4040518,32.9 58.0040518,33.3 58.0040518,33.9 L58.0040518,69.7 L9.70405184,69.7 L9.70405184,33.9 C9.70405184,33.3 9.30405184,32.9 8.70405184,32.9 L3.40405184,32.9 L33.8040518,2.5 Z"/>
  </g>
</svg>
