<svg xmlns="http://www.w3.org/2000/svg" width="160" height="160" viewBox="0 0 160 160">
  <g fill="none" fill-rule="evenodd" transform="translate(0 5)">
    <g fill="#F3F7FA">
      <circle cx="102" cy="58" r="58"/>
      <circle cx="102" cy="108" r="42"/>
      <circle cx="33" cy="80" r="33"/>
    </g>
    <g transform="translate(27 21)">
      <path fill="#FFF" d="M99.6 4.8C101.6957 4.8 103.4 6.5043 103.4 8.6 103.4 10.6957 101.6957 12.4 99.6 12.4 97.5043 12.4 95.8 10.6957 95.8 8.6 95.8 6.5043 97.5043 4.8 99.6 4.8zM107.2 23.8L92 23.8 92 21.9C92 18.7574 94.5574 16.2 97.7 16.2L101.5 16.2C104.6426 16.2 107.2 18.7574 107.2 21.9L107.2 23.8zM88.6 51.8C90.6957 51.8 92.4 53.5043 92.4 55.6 92.4 57.6957 90.6957 59.4 88.6 59.4 86.5043 59.4 84.8 57.6957 84.8 55.6 84.8 53.5043 86.5043 51.8 88.6 51.8zM96.2 70.8L81 70.8 81 68.9C81 65.7574 83.5574 63.2 86.7 63.2L90.5 63.2C93.6426 63.2 96.2 65.7574 96.2 68.9L96.2 70.8zM72.6 33.8C74.6957 33.8 76.4 35.5043 76.4 37.6 76.4 39.6957 74.6957 41.4 72.6 41.4 70.5043 41.4 68.8 39.6957 68.8 37.6 68.8 35.5043 70.5043 33.8 72.6 33.8zM80.2 52.8L65 52.8 65 50.9C65 47.7574 67.5574 45.2 70.7 45.2L74.5 45.2C77.6426 45.2 80.2 47.7574 80.2 50.9L80.2 52.8zM56.6 16.8C58.6957 16.8 60.4 18.5043 60.4 20.6 60.4 22.6957 58.6957 24.4 56.6 24.4 54.5043 24.4 52.8 22.6957 52.8 20.6 52.8 18.5043 54.5043 16.8 56.6 16.8zM64.2 35.8L49 35.8 49 33.9C49 30.7574 51.5574 28.2 54.7 28.2L58.5 28.2C61.6426 28.2 64.2 30.7574 64.2 33.9L64.2 35.8zM40.6 56.8C42.6957 56.8 44.4 58.5043 44.4 60.6 44.4 62.6957 42.6957 64.4 40.6 64.4 38.5043 64.4 36.8 62.6957 36.8 60.6 36.8 58.5043 38.5043 56.8 40.6 56.8zM48.2 75.8L33 75.8 33 73.9C33 70.7574 35.5574 68.2 38.7 68.2L42.5 68.2C45.6426 68.2 48.2 70.7574 48.2 73.9L48.2 75.8zM54.6 72.8C56.6957 72.8 58.4 74.5043 58.4 76.6 58.4 78.6957 56.6957 80.4 54.6 80.4 52.5043 80.4 50.8 78.6957 50.8 76.6 50.8 74.5043 52.5043 72.8 54.6 72.8zM62.2 91.8L47 91.8 47 89.9C47 86.7574 49.5574 84.2 52.7 84.2L56.5 84.2C59.6426 84.2 62.2 86.7574 62.2 89.9L62.2 91.8zM70.6 91.8C72.6957 91.8 74.4 93.5043 74.4 95.6 74.4 97.6957 72.6957 99.4 70.6 99.4 68.5043 99.4 66.8 97.6957 66.8 95.6 66.8 93.5043 68.5043 91.8 70.6 91.8zM78.2 110.8L63 110.8 63 108.9C63 105.7574 65.5574 103.2 68.7 103.2L72.5 103.2C75.6426 103.2 78.2 105.7574 78.2 108.9L78.2 110.8zM40.6 90.8C42.6957 90.8 44.4 92.5043 44.4 94.6 44.4 96.6957 42.6957 98.4 40.6 98.4 38.5043 98.4 36.8 96.6957 36.8 94.6 36.8 92.5043 38.5043 90.8 40.6 90.8zM48.2 109.8L33 109.8 33 107.9C33 104.7574 35.5574 102.2 38.7 102.2L42.5 102.2C45.6426 102.2 48.2 104.7574 48.2 107.9L48.2 109.8zM9.6 87.8C11.6957 87.8 13.4 89.5043 13.4 91.6 13.4 93.6957 11.6957 95.4 9.6 95.4 7.5043 95.4 5.8 93.6957 5.8 91.6 5.8 89.5043 7.5043 87.8 9.6 87.8zM17.2 106.8L2 106.8 2 104.9C2 101.7574 4.5574 99.2 7.7 99.2L11.5 99.2C14.6426 99.2 17.2 101.7574 17.2 104.9L17.2 106.8zM24.6 71.8C26.6957 71.8 28.4 73.5043 28.4 75.6 28.4 77.6957 26.6957 79.4 24.6 79.4 22.5043 79.4 20.8 77.6957 20.8 75.6 20.8 73.5043 22.5043 71.8 24.6 71.8zM32.2 90.8L17 90.8 17 88.9C17 85.7574 19.5574 83.2 22.7 83.2L26.5 83.2C29.6426 83.2 32.2 85.7574 32.2 88.9L32.2 90.8zM9.6 55.8C11.6957 55.8 13.4 57.5043 13.4 59.6 13.4 61.6957 11.6957 63.4 9.6 63.4 7.5043 63.4 5.8 61.6957 5.8 59.6 5.8 57.5043 7.5043 55.8 9.6 55.8zM17.2 74.8L2 74.8 2 72.9C2 69.7574 4.5574 67.2 7.7 67.2L11.5 67.2C14.6426 67.2 17.2 69.7574 17.2 72.9L17.2 74.8zM9.6 21.8C11.6957 21.8 13.4 23.5043 13.4 25.6 13.4 27.6957 11.6957 29.4 9.6 29.4 7.5043 29.4 5.8 27.6957 5.8 25.6 5.8 23.5043 7.5043 21.8 9.6 21.8zM17.2 40.8L2 40.8 2 38.9C2 35.7574 4.5574 33.2 7.7 33.2L11.5 33.2C14.6426 33.2 17.2 35.7574 17.2 38.9L17.2 40.8zM25.6 39.8C27.6957 39.8 29.4 41.5043 29.4 43.6 29.4 45.6957 27.6957 47.4 25.6 47.4 23.5043 47.4 21.8 45.6957 21.8 43.6 21.8 41.5043 23.5043 39.8 25.6 39.8zM33.2 58.8L18 58.8 18 56.9C18 53.7574 20.5574 51.2 23.7 51.2L27.5 51.2C30.6426 51.2 33.2 53.7574 33.2 56.9L33.2 58.8z"/>
      <path fill="#95B6D0" fill-rule="nonzero" d="M108.5109 12.3196C109.5521 11.0181 110.2 9.3917 110.2 7.6 110.2 3.4086 106.7914 0 102.6 0 98.4086 0 95 3.4086 95 7.6 95 9.3917 95.6479 11.0181 96.6891 12.3196 93.4572 13.8377 91.2 17.1 91.2 20.9L91.2 24.7C91.2 25.7507 92.0493 26.6 93.1 26.6L112.1 26.6C113.1507 26.6 114 25.7507 114 24.7L114 20.9C114 17.1 111.7428 13.8377 108.5109 12.3196zM102.6 3.8C104.6957 3.8 106.4 5.5043 106.4 7.6 106.4 9.6957 104.6957 11.4 102.6 11.4 100.5043 11.4 98.8 9.6957 98.8 7.6 98.8 5.5043 100.5043 3.8 102.6 3.8zM110.2 22.8L95 22.8 95 20.9C95 17.7574 97.5574 15.2 100.7 15.2L104.5 15.2C107.6426 15.2 110.2 17.7574 110.2 20.9L110.2 22.8zM45.6 32.3L45.6 36.1C45.6 37.1507 46.4493 38 47.5 38L64.8698 38C65.1415 39.0488 65.6317 39.9988 66.2891 40.8196 63.0572 42.3377 60.8 45.6 60.8 49.4L60.8 53.2C60.8 54.2507 61.6493 55.1 62.7 55.1L80.0698 55.1C80.3415 56.1488 80.8317 57.0988 81.4891 57.9196 78.2572 59.4377 76 62.7 76 66.5L76 70.3C76 71.3507 76.8493 72.2 77.9 72.2L96.9 72.2C97.9507 72.2 98.8 71.3507 98.8 70.3L98.8 66.5C98.8 62.7 96.5428 59.4377 93.3109 57.9196 94.3521 56.6181 95 54.9917 95 53.2 95 49.0086 91.5914 45.6 87.4 45.6 85.8534 45.6 84.4151 46.0693 83.2143 46.8673 82.4657 44.1845 80.5923 41.9843 78.1109 40.8196 79.1521 39.5181 79.8 37.8917 79.8 36.1 79.8 31.9086 76.3914 28.5 72.2 28.5 70.6534 28.5 69.2151 28.9693 68.0143 29.7673 67.2657 27.0845 65.3923 24.8843 62.9109 23.7196 63.9521 22.4181 64.6 20.7917 64.6 19 64.6 14.8086 61.1914 11.4 57 11.4 52.8086 11.4 49.4 14.8086 49.4 19 49.4 20.7917 50.0479 22.4181 51.0891 23.7196 47.8572 25.2377 45.6 28.5 45.6 32.3zM95 66.5L95 68.4 79.8 68.4 79.8 66.5C79.8 63.3574 82.3574 60.8 85.5 60.8L89.3 60.8C92.4426 60.8 95 63.3574 95 66.5zM87.4 49.4C89.4957 49.4 91.2 51.1043 91.2 53.2 91.2 55.2957 89.4957 57 87.4 57 85.3043 57 83.6 55.2957 83.6 53.2 83.6 51.1043 85.3043 49.4 87.4 49.4zM79.8 49.4L79.8 51.3 64.6 51.3 64.6 49.4C64.6 46.2574 67.1574 43.7 70.3 43.7L74.1 43.7C77.2426 43.7 79.8 46.2574 79.8 49.4zM72.2 32.3C74.2957 32.3 76 34.0043 76 36.1 76 38.1957 74.2957 39.9 72.2 39.9 70.1043 39.9 68.4 38.1957 68.4 36.1 68.4 34.0043 70.1043 32.3 72.2 32.3zM57 15.2C59.0957 15.2 60.8 16.9043 60.8 19 60.8 21.0957 59.0957 22.8 57 22.8 54.9043 22.8 53.2 21.0957 53.2 19 53.2 16.9043 54.9043 15.2 57 15.2zM49.4 32.3C49.4 29.1574 51.9574 26.6 55.1 26.6L58.9 26.6C62.0426 26.6 64.6 29.1574 64.6 32.3L64.6 34.2 49.4 34.2 49.4 32.3z"/>
      <rect width="5.373" height="3.8" x="82.813" y="26.6" fill="#95B6D0" fill-rule="nonzero" transform="rotate(-45 85.5 28.5)"/>
      <rect width="3.8" height="5.7" x="98.8" y="38" fill="#95B6D0" fill-rule="nonzero"/>
      <rect width="5.7" height="3.8" x="70.3" y="11.4" fill="#95B6D0" fill-rule="nonzero"/>
      <rect width="5.373" height="3.8" x="52.413" y="57" fill="#95B6D0" fill-rule="nonzero" transform="rotate(-45 55.1 58.9)"/>
      <rect width="3.8" height="5.7" x="68.4" y="68.4" fill="#95B6D0" fill-rule="nonzero"/>
      <rect width="5.7" height="3.8" x="39.9" y="41.8" fill="#95B6D0" fill-rule="nonzero"/>
      <path fill="#95B6D0" fill-rule="nonzero" d="M1.9,110.2 L20.9,110.2 C21.9507,110.2 22.8,109.3507 22.8,108.3 L22.8,104.5 C22.8,100.7 20.5428,97.4377 17.3109,95.9196 C17.5446,95.6289 17.7555,95.3249 17.9436,95 L34.4698,95 C34.7415,96.0488 35.2317,96.9988 35.8891,97.8196 C32.6572,99.3377 30.4,102.6 30.4,106.4 L30.4,110.2 C30.4,111.2507 31.2493,112.1 32.3,112.1 L51.3,112.1 C52.3507,112.1 53.2,111.2507 53.2,110.2 L53.2,106.4 C53.2,102.6 50.9428,99.3377 47.7109,97.8196 C48.3683,96.9988 48.8585,96.0488 49.1302,95 L64.6,95 C64.6,96.7917 65.2479,98.4181 66.2891,99.7196 C63.0572,101.2377 60.8,104.5 60.8,108.3 L60.8,112.1 C60.8,113.1507 61.6493,114 62.7,114 L81.7,114 C82.7507,114 83.6,113.1507 83.6,112.1 L83.6,108.3 C83.6,104.5 81.3428,101.2377 78.1109,99.7196 C79.1521,98.4181 79.8,96.7917 79.8,95 C79.8,90.8086 76.3914,87.4 72.2,87.4 C70.7769,87.4 69.4583,87.818 68.3183,88.5001 C68.0238,85.0478 65.9091,82.1275 62.909,80.7196 C63.9521,79.4181 64.6,77.7917 64.6,76 C64.6,71.8086 61.1914,68.4 57,68.4 C55.4534,68.4 54.0151,68.8693 52.8143,69.6673 C52.0657,66.9845 50.1923,64.7843 47.7109,63.6196 C48.7521,62.3181 49.4,60.6917 49.4,58.9 C49.4,54.7086 45.9914,51.3 41.8,51.3 C40.2534,51.3 38.8151,51.7693 37.6143,52.5673 C36.8657,49.8845 34.9923,47.6843 32.5109,46.5196 C33.5521,45.2181 34.2,43.5917 34.2,41.8 C34.2,37.6086 30.7914,34.2 26.6,34.2 C25.0534,34.2 23.6151,34.6693 22.4143,35.4673 C21.6657,32.7845 19.7923,30.5843 17.3109,29.4196 C18.3521,28.1181 19,26.4917 19,24.7 C19,20.5086 15.5914,17.1 11.4,17.1 C7.2086,17.1 3.8,20.5086 3.8,24.7 C3.8,26.4917 4.4479,28.1181 5.4891,29.4196 C2.2572,30.9377 0,34.2 0,38 L0,41.8 C0,42.8507 0.8493,43.7 1.9,43.7 L19.2698,43.7 C19.5415,44.7488 20.0317,45.6988 20.6891,46.5196 C18.2077,47.6843 16.3343,49.8845 15.5857,52.5673 C14.3849,51.7693 12.9466,51.3 11.4,51.3 C7.2086,51.3 3.8,54.7086 3.8,58.9 C3.8,60.6917 4.4479,62.3181 5.4891,63.6196 C2.2572,65.1377 0,68.4 0,72.2 L0,76 C0,77.0507 0.8493,77.9 1.9,77.9 L19.2698,77.9 C19.5415,78.9488 20.0317,79.8988 20.6891,80.7196 C18.6808,81.6639 17.062,83.2808 16.1196,85.2891 C14.8181,84.2479 13.1917,83.6 11.4,83.6 C7.2086,83.6 3.8,87.0086 3.8,91.2 C3.8,92.9917 4.4479,94.6181 5.4891,95.9196 C2.2572,97.4377 0,100.7 0,104.5 L0,108.3 C0,109.3507 0.8493,110.2 1.9,110.2 Z M18.7302,60.8 L34.4698,60.8 C34.7415,61.8488 35.2317,62.7988 35.8891,63.6196 C33.4077,64.7843 31.5343,66.9845 30.7857,69.6673 C29.5849,68.8693 28.1466,68.4 26.6,68.4 C25.0534,68.4 23.6151,68.8693 22.4143,69.6673 C21.6657,66.9845 19.7923,64.7843 17.3109,63.6196 C17.9683,62.7988 18.4585,61.8488 18.7302,60.8 Z M26.6,72.2 C28.6957,72.2 30.4,73.9043 30.4,76 C30.4,78.0957 28.6957,79.8 26.6,79.8 C24.5043,79.8 22.8,78.0957 22.8,76 C22.8,73.9043 24.5043,72.2 26.6,72.2 Z M33.9302,77.9 L49.6698,77.9 C49.9415,78.9488 50.4317,79.8988 51.0891,80.7196 C48.6077,81.8843 46.7343,84.0845 45.9857,86.7673 C44.7849,85.9693 43.3466,85.5 41.8,85.5 C40.2534,85.5 38.8151,85.9693 37.6143,86.7673 C36.8657,84.0845 34.9923,81.8843 32.5109,80.7196 C33.1683,79.8988 33.6585,78.9488 33.9302,77.9 Z M41.8,89.3 C43.8957,89.3 45.6,91.0043 45.6,93.1 C45.6,95.1957 43.8957,96.9 41.8,96.9 C39.7043,96.9 38,95.1957 38,93.1 C38,91.0043 39.7043,89.3 41.8,89.3 Z M49.4,106.4 L49.4,108.3 L34.2,108.3 L34.2,106.4 C34.2,103.2574 36.7574,100.7 39.9,100.7 L43.7,100.7 C46.8426,100.7 49.4,103.2574 49.4,106.4 Z M79.8,108.3 L79.8,110.2 L64.6,110.2 L64.6,108.3 C64.6,105.1574 67.1574,102.6 70.3,102.6 L74.1,102.6 C77.2426,102.6 79.8,105.1574 79.8,108.3 Z M72.2,91.2 C74.2957,91.2 76,92.9043 76,95 C76,97.0957 74.2957,98.8 72.2,98.8 C70.1043,98.8 68.4,97.0957 68.4,95 C68.4,92.9043 70.1043,91.2 72.2,91.2 Z M64.6,89.3 L64.6,91.2 L49.4,91.2 L49.4,89.3 C49.4,86.1574 51.9574,83.6 55.1,83.6 L58.9,83.6 C62.0426,83.6 64.6,86.1574 64.6,89.3 Z M57,72.2 C59.0957,72.2 60.8,73.9043 60.8,76 C60.8,78.0957 59.0957,79.8 57,79.8 C54.9043,79.8 53.2,78.0957 53.2,76 C53.2,73.9043 54.9043,72.2 57,72.2 Z M49.4,72.2 L49.4,74.1 L34.2,74.1 L34.2,72.2 C34.2,69.0574 36.7574,66.5 39.9,66.5 L43.7,66.5 C46.8426,66.5 49.4,69.0574 49.4,72.2 Z M41.8,55.1 C43.8957,55.1 45.6,56.8043 45.6,58.9 C45.6,60.9957 43.8957,62.7 41.8,62.7 C39.7043,62.7 38,60.9957 38,58.9 C38,56.8043 39.7043,55.1 41.8,55.1 Z M26.6,38 C28.6957,38 30.4,39.7043 30.4,41.8 C30.4,43.8957 28.6957,45.6 26.6,45.6 C24.5043,45.6 22.8,43.8957 22.8,41.8 C22.8,39.7043 24.5043,38 26.6,38 Z M11.4,20.9 C13.4957,20.9 15.2,22.6043 15.2,24.7 C15.2,26.7957 13.4957,28.5 11.4,28.5 C9.3043,28.5 7.6,26.7957 7.6,24.7 C7.6,22.6043 9.3043,20.9 11.4,20.9 Z M3.8,38 C3.8,34.8574 6.3574,32.3 9.5,32.3 L13.3,32.3 C16.4426,32.3 19,34.8574 19,38 L19,39.9 L3.8,39.9 L3.8,38 Z M19,55.1 C19,51.9574 21.5574,49.4 24.7,49.4 L28.5,49.4 C31.6426,49.4 34.2,51.9574 34.2,55.1 L34.2,57 L19,57 L19,55.1 Z M11.4,55.1 C13.4957,55.1 15.2,56.8043 15.2,58.9 C15.2,60.9957 13.4957,62.7 11.4,62.7 C9.3043,62.7 7.6,60.9957 7.6,58.9 C7.6,56.8043 9.3043,55.1 11.4,55.1 Z M3.8,72.2 C3.8,69.0574 6.3574,66.5 9.5,66.5 L13.3,66.5 C16.4426,66.5 19,69.0574 19,72.2 L19,74.1 L3.8,74.1 L3.8,72.2 Z M19,89.3 C19,86.1574 21.5574,83.6 24.7,83.6 L28.5,83.6 C31.6426,83.6 34.2,86.1574 34.2,89.3 L34.2,91.2 L19,91.2 L19,89.3 Z M11.4,87.4 C13.4957,87.4 15.2,89.1043 15.2,91.2 C15.2,93.2957 13.4957,95 11.4,95 C9.3043,95 7.6,93.2957 7.6,91.2 C7.6,89.1043 9.3043,87.4 11.4,87.4 Z M3.8,104.5 C3.8,101.3574 6.3574,98.8 9.5,98.8 L13.3,98.8 C16.4426,98.8 19,101.3574 19,104.5 L19,106.4 L3.8,106.4 L3.8,104.5 Z"/>
    </g>
  </g>
</svg>
