<svg xmlns="http://www.w3.org/2000/svg" width="160" height="160" viewBox="0 0 160 160">
  <g fill="none" fill-rule="evenodd" transform="translate(0 5)">
    <g fill="#F3F7FA">
      <circle cx="102" cy="58" r="58"/>
      <circle cx="102" cy="108" r="42"/>
      <circle cx="33" cy="80" r="33"/>
    </g>
    <g transform="translate(9 19)">
      <rect width="31" height="7" x="79" y="95" fill="#FFF" rx="3.5"/>
      <polygon fill="#FFF" points="4 98.546 25.53 98 26 102.788 4 103" transform="rotate(46 15 100.5)"/>
      <circle cx="39" cy="61" r="17" fill="#FFF"/>
      <circle cx="90" cy="82" r="17" fill="#FFF"/>
      <rect width="68" height="45" x="37" y="5" fill="#FFF" rx="5"/>
      <path fill="#FFF" d="M63.4223648,80.7439108 L45.9566416,100.477123 L26.1205836,100.477123 C25.8294569,100.477123 25.5402085,100.547141 25.2810118,100.681341 L22.7360011,102 L18.0591916,97.1571359 L12,90.8828067 L21.1657952,82.9727953 L32.8559405,82.9727953 L36.0620906,86.2927828 C36.4133208,86.6584288 36.890393,86.862646 37.3900039,86.862646 L44.9029508,86.862646 C45.6354631,86.862646 46.253403,87.3099788 46.563312,87.9420795 C46.6065115,88.0296012 46.6328068,88.1151779 46.6628586,88.2026995 C46.7248404,88.3952471 46.7811875,88.5936295 46.7811875,88.8075713 C46.7811875,89.8811701 45.9397374,90.7524967 44.9029508,90.7524967 L31.7552938,90.7524967 L31.7552938,94.6423474 L44.9029508,94.6423474 C48.0095543,94.6423474 50.5376609,92.0244779 50.5376609,88.8075713 C50.5376609,88.4555398 50.5057309,88.1093431 50.4437491,87.7650913 L60.0565646,77.8109634 C60.9355794,76.9007383 62.3311093,76.7315298 63.1706811,77.4317029 C63.6552661,77.8362474 63.9463928,78.4061105 63.9933488,79.0382113 C64.0403047,79.670312 63.8374551,80.2751838 63.4223648,80.7439108 Z"/>
      <polygon fill="#95B6D0" fill-rule="nonzero" points="3.667 69 7.333 69 7.333 65.333 11 65.333 11 61.667 7.333 61.667 7.333 58 3.667 58 3.667 61.667 0 61.667 0 65.333 3.667 65.333"/>
      <polygon fill="#95B6D0" fill-rule="nonzero" points="9.667 31 13.333 31 13.333 27.333 17 27.333 17 23.667 13.333 23.667 13.333 20 9.667 20 9.667 23.667 6 23.667 6 27.333 9.667 27.333"/>
      <polygon fill="#95B6D0" fill-rule="nonzero" points="20.667 16 24.333 16 24.333 12.333 28 12.333 28 8.667 24.333 8.667 24.333 5 20.667 5 20.667 8.667 17 8.667 17 12.333 20.667 12.333"/>
      <rect width="33" height="4" x="79" y="99" fill="#FFF" rx="2"/>
      <rect width="33" height="4" x="79" y="105" fill="#FFF" rx="2"/>
      <path fill="#95B6D0" fill-rule="nonzero" d="M43 52.75C44.104 52.75 45 53.6086667 45 54.6666667L49 54.6666667C49 52.1711667 47.322 50.0628333 45 49.2693333L45 47 41 47 41 49.2693333C38.678 50.0628333 37 52.1711667 37 54.6666667 37 55.1765 37.21 55.6633333 37.586 56.02175L44.874 63.0060833C44.588 63.7305833 43.856 64.25 43 64.25 41.896 64.25 41 63.3913333 41 62.3333333L37 62.3333333C37 64.8288333 38.678 66.9371667 41 67.7306667L41 70 45 70 45 67.7306667C47.322 66.9371667 49 64.8288333 49 62.3333333 49 61.8235 48.79 61.3366667 48.414 60.97825L41.126 53.9939167C41.412 53.2694167 42.144 52.75 43 52.75zM66.7688004 75.2538109C64.4412171 73.3608354 60.8633567 73.6399401 58.6335394 75.8974605L49.6823081 84.9370355C48.7084082 84.1263027 47.4806926 83.6212561 46.123249 83.6212561L39.3811537 83.6212561 36.1717961 80.3802239C35.8202144 80.0232736 35.342665 79.8239131 34.8425542 79.8239131L21.6817437 79.8239131C21.2417966 79.8239131 20.8150103 79.9796042 20.4765895 80.2625063L10.515736 88.6451409 9.85017505 87.9730112C9.11504977 87.2306306 7.92681659 87.2306306 7.19169132 87.9730112L1.55134395 93.6690257C.816218682 94.4114062.816218682 95.6113666 1.55134395 96.3537472L18.4723861 113.441791C18.8390086 113.81393 19.3203183 114 19.8016279 114 20.2829376 114 20.7642472 113.81393 21.1308698 113.443689L26.7712171 107.747675C27.5063424 107.005294 27.5063424 105.805334 26.7712171 105.062953L26.7354949 105.026879 27.7657984 104.506643 48.0033647 104.506643C48.5297972 104.506643 49.0336682 104.284498 49.3890101 103.891473L67.4324813 84.0104838C68.5417496 82.7915367 69.1057844 81.1453885 68.9835768 79.495443 68.8594892 77.818916 68.0736008 76.3132695 66.7688004 75.2538109zM19.8016279 109.416607L5.53906954 95.0132851 8.52093318 92.0019921 9.07180711 92.5583028 16.5922703 100.152989 22.7834916 106.405314 19.8016279 109.416607zM64.6611906 81.4453786L47.1779939 100.7093 27.3220911 100.7093C27.0306731 100.7093 26.7411353 100.777652 26.4816793 100.90866L23.9341224 102.195959 19.2526341 97.4682673 13.1873806 91.3431531 22.3623456 83.6212561 34.0641863 83.6212561 37.2735439 86.8622884C37.6251256 87.2192386 38.102675 87.4185991 38.6027858 87.4185991L46.123249 87.4185991C46.8564941 87.4185991 47.4750522 87.8552936 47.7852713 88.4723618 47.828514 88.557802 47.8548356 88.6413435 47.8849174 88.7267838 47.9469613 88.9147522 48.0033647 89.1084167 48.0033647 89.3172706 48.0033647 90.3653373 47.1610729 91.2159421 46.123249 91.2159421L32.9624384 91.2159421 32.9624384 95.0132851 46.123249 95.0132851C49.2329605 95.0132851 51.7635963 92.4576732 51.7635963 89.3172706 51.7635963 88.9736111 51.7316344 88.6356475 51.6695905 88.2995827L61.2920231 78.582182C62.1719173 77.6936037 63.5688434 77.5284193 64.4092551 78.211941 64.894325 78.6068647 65.1857429 79.1631755 65.2327458 79.7802437 65.2797487 80.3973119 65.0766962 80.9877988 64.6611906 81.4453786z"/>
      <path fill="#95B6D0" fill-rule="nonzero" d="M103.531915,0 L50.5106383,0 C45.2899362,0 41.0425532,4.26717073 41.0425532,9.51219512 L41.0425532,13.3170732 L41.0425532,20.9268293 L41.0425532,39.9512195 C41.0425532,39.983561 41.048234,40.0159024 41.0501277,40.0482439 C31.4911489,41.0013659 24,49.1266829 24,58.9756098 C24,69.4656585 32.494766,78 42.9361702,78 C53.3775745,78 61.8723404,69.4656585 61.8723404,58.9756098 C61.8723404,55.5093659 60.9293191,52.2657073 59.3102766,49.4634146 L103.531915,49.4634146 C108.752617,49.4634146 113,45.1962439 113,39.9512195 L113,20.9268293 L113,13.3170732 L113,9.51219512 C113,4.26717073 108.752617,0 103.531915,0 Z M50.5106383,3.80487805 L103.531915,3.80487805 C106.663957,3.80487805 109.212766,6.36556098 109.212766,9.51219512 L109.212766,11.4146341 L44.8297872,11.4146341 L44.8297872,9.51219512 C44.8297872,6.36556098 47.3785957,3.80487805 50.5106383,3.80487805 Z M109.212766,19.0243902 L44.8297872,19.0243902 L44.8297872,15.2195122 L109.212766,15.2195122 L109.212766,19.0243902 Z M42.9361702,74.195122 C34.5834255,74.195122 27.787234,67.3672683 27.787234,58.9756098 C27.787234,50.5839512 34.5834255,43.7560976 42.9361702,43.7560976 C43.0157021,43.7560976 43.0914468,43.7675122 43.1709787,43.7675122 C43.1728723,43.7675122 43.174766,43.7694146 43.1766596,43.7694146 C43.7030851,43.7770244 44.2238298,43.8131707 44.7388936,43.8740488 C44.7729787,43.8778537 44.8070638,43.8854634 44.8411489,43.8892683 C45.3069787,43.9482439 45.7690213,44.0262439 46.2234894,44.1270732 C46.3465745,44.1537073 46.4639787,44.1898537 46.5851702,44.2202927 C46.9449574,44.3097073 47.3028511,44.4048293 47.6531702,44.520878 C47.8349574,44.5798537 48.0091702,44.6521463 48.1871702,44.7168293 C48.475,44.8233659 48.7609362,44.9318049 49.0411915,45.0554634 C49.236234,45.1410732 49.4237021,45.2380976 49.6149574,45.3332195 C49.8781702,45.4625854 50.1394894,45.5957561 50.393234,45.7403415 C50.5655532,45.8392683 50.7321915,45.9439024 50.8988298,46.0485366 C51.1734043,46.2197561 51.4441915,46.3966829 51.7074043,46.5869268 C51.8342766,46.6763415 51.9554681,46.7714634 52.0785532,46.8665854 C52.3834255,47.1005854 52.6807234,47.3421951 52.9685532,47.6009268 C53.0424043,47.6675122 53.1162553,47.7340976 53.1882128,47.8006829 C53.5139149,48.1031707 53.8282553,48.420878 54.131234,48.7557073 C56.5796809,51.462878 58.0851064,55.0413659 58.0851064,58.9756098 C58.0851064,67.3672683 51.2889149,74.195122 42.9361702,74.195122 Z M103.531915,45.6585366 L56.435766,45.6585366 C56.0721915,45.287561 55.6896809,44.9375122 55.2977021,44.5969756 C55.2674043,44.5703415 55.239,44.5418049 55.2087021,44.5151707 C54.8356596,44.195561 54.4474681,43.896878 54.0498085,43.6058049 C53.9948936,43.5658537 53.9418723,43.5220976 53.8850638,43.4821463 C53.4855106,43.1967805 53.0708085,42.930439 52.6485319,42.6755122 C52.5974043,42.6450732 52.5481702,42.6127317 52.4970426,42.5822927 C52.0652979,42.3273659 51.6221915,42.0914634 51.169617,41.8707805 C51.1298511,41.8517561 51.0919787,41.8327317 51.0522128,41.8137073 C50.5882766,41.591122 50.116766,41.387561 49.6338936,41.2030244 C49.6092766,41.1935122 49.5846596,41.1859024 49.5600426,41.1763902 C48.0602979,40.6113659 46.4791277,40.2118537 44.8297872,40.0463415 C44.8297872,40.014 44.8297872,39.983561 44.8297872,39.9512195 L44.8297872,22.8292683 L109.212766,22.8292683 L109.212766,39.9512195 C109.212766,43.0978537 106.663957,45.6585366 103.531915,45.6585366 Z"/>
      <rect width="10" height="4" x="53" y="34" fill="#95B6D0" fill-rule="nonzero"/>
      <rect width="10" height="4" x="66" y="34" fill="#95B6D0" fill-rule="nonzero"/>
      <path fill="#95B6D0" fill-rule="nonzero" d="M99.375 30C98.739375 30 98.105625 30.122 97.5 30.356 96.894375 30.122 96.260625 30 95.625 30 92.52375 30 90 32.692 90 36 90 39.308 92.52375 42 95.625 42 96.260625 42 96.894375 41.878 97.5 41.644 98.105625 41.878 98.739375 42 99.375 42 102.47625 42 105 39.308 105 36 105 32.692 102.47625 30 99.375 30zM98.445 37.716C98.1525 37.534 97.82625 37.444 97.5 37.444 97.17375 37.444 96.8475 37.534 96.555 37.716 95.27625 38.52 93.75 37.444 93.75 36 93.75 34.558 95.2725 33.482 96.555 34.284 97.14 34.648 97.858125 34.648 98.445 34.284 99.729375 33.486 101.251875 34.56 101.25 36 101.25 37.442 99.725625 38.516 98.445 37.716zM94 74.75C95.104 74.75 96 75.6086667 96 76.6666667L100 76.6666667C100 74.1711667 98.322 72.0628333 96 71.2693333L96 69 92 69 92 71.2693333C89.678 72.0628333 88 74.1711667 88 76.6666667 88 77.1765 88.21 77.6633333 88.586 78.02175L95.874 85.0060833C95.588 85.7305833 94.856 86.25 94 86.25 92.896 86.25 92 85.3913333 92 84.3333333L88 84.3333333C88 86.8288333 89.678 88.9371667 92 89.7306667L92 92 96 92 96 89.7306667C98.322 88.9371667 100 86.8288333 100 84.3333333 100 83.8235 99.79 83.3366667 99.414 82.97825L92.126 75.9939167C92.412 75.2694167 93.144 74.75 94 74.75z"/>
      <path fill="#95B6D0" fill-rule="nonzero" d="M113,79.9285714 C113,69.4913571 104.7009,61 94.5,61 C84.2991,61 76,69.4913571 76,79.9285714 C76,86.1238929 78.9378,91.6169643 83.4481,95.0714286 L81.55,95.0714286 C78.4901,95.0714286 76,97.6192143 76,100.75 C76,102.489536 76.7844,104.028429 77.99245,105.071393 C76.82695,105.919393 76,106.994536 76,108.321429 C76,111.452214 78.4901,114 81.55,114 L107.45,114 C110.5099,114 113,111.452214 113,108.321429 C113,106.862036 112.44315,105.542714 111.557,104.535714 C112.445,103.528714 113,102.209393 113,100.75 C113,97.6192143 110.5099,95.0714286 107.45,95.0714286 L105.5519,95.0714286 C110.0622,91.6169643 113,86.1238929 113,79.9285714 Z M107.45,110.214286 L81.55,110.214286 C80.5843,110.214286 79.78695,109.451464 79.7074,108.482321 C80.3364,107.658929 83.6183,106.428571 85.25,106.428571 L107.45,106.428571 C108.4712,106.428571 109.3,107.276571 109.3,108.321429 C109.3,109.366286 108.4712,110.214286 107.45,110.214286 Z M107.45,98.8571429 C108.4712,98.8571429 109.3,99.7051429 109.3,100.75 C109.3,101.794857 108.4712,102.642857 107.45,102.642857 L85.25,102.642857 L81.55,102.642857 C80.5288,102.642857 79.7,101.794857 79.7,100.75 C79.7,99.7051429 80.5288,98.8571429 81.55,98.8571429 L107.45,98.8571429 Z M79.7,79.9285714 C79.7,71.5791786 86.33965,64.7857143 94.5,64.7857143 C102.66035,64.7857143 109.3,71.5791786 109.3,79.9285714 C109.3,88.2779643 102.66035,95.0714286 94.5,95.0714286 C86.33965,95.0714286 79.7,88.2779643 79.7,79.9285714 Z"/>
    </g>
  </g>
</svg>
