<svg xmlns="http://www.w3.org/2000/svg" width="72" height="72" viewBox="0 0 72 72">
  <g fill="none" fill-rule="evenodd" transform="translate(0 2)">
    <rect width="47.739" height="47.739" x="14.343" y="9.887" fill="#C0E2FC" opacity=".2" transform="rotate(45 38.212 33.757)"/>
    <rect width="47.739" height="47.739" x="9.887" y="9.887" fill="#C0E2FC" opacity=".2" transform="rotate(45 33.757 33.757)"/>
    <path fill="#1767A5" d="M34.7983646,22.6344621 L34.7983646,17.6333459 C34.7983646,17.0283457 34.30735,16.537331 33.7023497,16.537331 L12.4988447,16.537331 L7.73994788,11.7784341 C7.31195405,11.3504403 6.6181766,11.3504403 6.19018276,11.7784341 L1.59404412,16.3745728 C1.16605029,16.8025666 1.16605029,17.496344 1.59404412,17.9243379 L6.13867006,22.4689638 L6.13867006,48.820999 C6.13867006,49.4259992 6.62968475,49.9170139 7.234685,49.9170139 L12.2358012,49.9170139 L12.2358012,51.7355082 C12.2358012,52.3405084 12.7268158,52.8315231 13.3318161,52.8315231 L37.2533833,52.8315231 C37.8583836,52.8315231 38.3493982,52.3405084 38.3493982,51.7355082 L38.3493982,23.730477 C38.3493982,23.1254768 37.8589316,22.6344621 37.2533833,22.6344621 L34.7983646,22.6344621 Z M6.96506532,14.1036298 L11.268568,18.4071325 C11.269664,18.4082285 11.27076,18.4093245 11.271856,18.4104205 L18.6469405,25.784409 L17.1234798,27.3073218 L15.600567,28.8302345 L8.01066357,21.2403311 L8.00956756,21.2392351 L3.91923981,17.1489073 L6.96506532,14.1036298 L6.96506532,14.1036298 Z M19.7045949,27.8262848 L20.6904604,30.8748504 L17.6418948,29.8884369 L18.6732449,28.8570869 L19.7045949,27.8262848 L19.7045949,27.8262848 Z M8.33124794,24.6609937 L14.8256845,31.1554302 C14.8815812,31.211327 14.941314,31.2584556 15.0043349,31.2995562 C15.014199,31.3055842 15.0240632,31.3094203 15.0339273,31.3149004 C15.0980442,31.3538089 15.1654491,31.3855933 15.235046,31.4102537 C15.2454582,31.4140897 15.2531303,31.4206658 15.2635424,31.4234059 L22.056643,33.6203678 C22.1673405,33.6559883 22.2807781,33.6735245 22.3936676,33.6735245 C22.3969556,33.6735245 22.4007917,33.6729765 22.4046277,33.6735245 C23.010176,33.6735245 23.5006427,33.1825098 23.5006427,32.5775096 C23.5006427,32.4059832 23.4617341,32.243225 23.3910412,32.0985511 L21.2406599,25.4473844 C21.2368238,25.4358763 21.2291517,25.4260121 21.2253157,25.414504 C21.2022994,25.3498391 21.1721589,25.2879142 21.1376345,25.2281814 C21.1288664,25.2144812 21.1233863,25.198589 21.1146182,25.1854368 C21.0735176,25.122964 21.026937,25.0632312 20.9726842,25.0095264 L14.6925186,18.7293609 L32.6074308,18.7293609 L32.6074308,47.724984 L8.33124794,47.724984 L8.33124794,24.6609937 L8.33124794,24.6609937 Z"/>
  </g>
</svg>
