<svg xmlns="http://www.w3.org/2000/svg" width="72" height="72" viewBox="0 0 72 72">
  <g fill="none" fill-rule="evenodd" transform="translate(0 3)">
    <g fill="#C0E2FC" opacity=".2">
      <rect width="45.879" height="45.879" x="13.784" y="9.502" transform="rotate(45 36.724 32.442)"/>
      <rect width="45.879" height="45.879" x="9.502" y="9.502" transform="rotate(45 32.442 32.442)"/>
    </g>
    <g fill="#1767A5" transform="translate(28.751 14.681)">
      <path d="M32.115548 30.3312082L2.67629567 30.3312082C1.20069329 30.3312082 0 31.5319014 0 33.0075038L0 40.144435C0 41.6200374 1.20069329 42.8207307 2.67629567 42.8207307L32.115548 42.8207307C33.5911504 42.8207307 34.7918437 41.6200374 34.7918437 40.144435L34.7918437 33.0075038C34.7918437 31.5319014 33.5911504 30.3312082 32.115548 30.3312082L32.115548 30.3312082zM33.0075038 40.144435C33.0075038 40.6368734 32.6079864 41.0363908 32.115548 41.0363908L2.67629567 41.0363908C2.18385726 41.0363908 1.78433985 40.6368734 1.78433985 40.144435L1.78433985 33.0075038C1.78433985 32.5154936 2.18385726 32.115548 2.67629567 32.115548L32.115548 32.115548C32.6079864 32.115548 33.0075038 32.5154936 33.0075038 33.0075038L33.0075038 40.144435 33.0075038 40.144435zM2.67629567 12.4895225L32.115548 12.4895225C33.5911504 12.4895225 34.7918437 11.2892574 34.7918437 9.81322685L34.7918437 2.67629567C34.7918437 1.20069329 33.5911504 0 32.115548 0L2.67629567 0C1.20069329 0 0 1.20069329 0 2.67629567L0 9.81322685C0 11.2888292 1.20069329 12.4895225 2.67629567 12.4895225L2.67629567 12.4895225zM1.78433985 2.67629567C1.78433985 2.18428547 2.18385726 1.78433985 2.67629567 1.78433985L32.115548 1.78433985C32.6079864 1.78433985 33.0075038 2.18428547 33.0075038 2.67629567L33.0075038 9.81322685C33.0075038 10.305237 32.6079864 10.7051827 32.115548 10.7051827L2.67629567 10.7051827C2.18385726 10.7051827 1.78433985 10.305237 1.78433985 9.81322685L1.78433985 2.67629567 1.78433985 2.67629567z"/>
      <path d="M18.7340697 5.35259133L30.3312082 5.35259133C30.8240748 5.35259133 31.2235922 4.95350212 31.2235922 4.46063551 31.2235922 3.9677689 30.8240748 3.56867969 30.3312082 3.56867969L18.7340697 3.56867969C18.2412031 3.56867969 17.8421138 3.9677689 17.8421138 4.46063551 17.8421138 4.95350212 18.2412031 5.35259133 18.7340697 5.35259133L18.7340697 5.35259133zM18.7340697 8.92084282L30.3312082 8.92084282C30.8240748 8.92084282 31.2235922 8.52175361 31.2235922 8.028887 31.2235922 7.53602039 30.8240748 7.13693118 30.3312082 7.13693118L18.7340697 7.13693118C18.2412031 7.13693118 17.8421138 7.53602039 17.8421138 8.028887 17.8421138 8.52175361 18.2412031 8.92084282 18.7340697 8.92084282L18.7340697 8.92084282z"/>
      <circle cx="5.799" cy="4.014" r="1.338"/>
      <path d="M7.98349703 8.92084282L8.028887 8.92084282 8.028887 8.47465081C8.028887 7.24312659 7.03030756 6.24454715 5.79878335 6.24454715 4.56725913 6.24454715 3.56867969 7.24312659 3.56867969 8.47465081L3.56867969 8.92084282 3.61364146 8.92084282 7.98349703 8.92084282 7.98349703 8.92084282zM30.3312082 33.8998879L18.7340697 33.8998879C18.2412031 33.8998879 17.8421138 34.2989771 17.8421138 34.7918437 17.8421138 35.2847103 18.2412031 35.6837995 18.7340697 35.6837995L30.3312082 35.6837995C30.8240748 35.6837995 31.2235922 35.2847103 31.2235922 34.7918437 31.2235922 34.2989771 30.8240748 33.8998879 30.3312082 33.8998879L30.3312082 33.8998879zM30.3312082 37.4681393L18.7340697 37.4681393C18.2412031 37.4681393 17.8421138 37.8672285 17.8421138 38.3600952 17.8421138 38.8529618 18.2412031 39.2524792 18.7340697 39.2524792L30.3312082 39.2524792C30.8240748 39.2524792 31.2235922 38.8529618 31.2235922 38.3600952 31.2235922 37.8672285 30.8240748 37.4681393 30.3312082 37.4681393L30.3312082 37.4681393z"/>
      <circle cx="6.096" cy="34.346" r="1.338"/>
      <path d="M6.09595922 36.5761835C4.8640068 36.5761835 3.86585556 37.5743347 3.86585556 38.8062872L3.86585556 39.2524792 3.91124554 39.2524792 8.2811011 39.2524792 8.32606287 39.2524792 8.32606287 38.8062872C8.32606287 37.5743347 7.32791164 36.5761835 6.09595922 36.5761835L6.09595922 36.5761835zM18.7340697 22.3374342C19.1776924 22.3883908 19.8829499 22.52713 20.5184095 22.8461444L20.5184095 19.4436092C20.0062736 19.021825 19.2303619 18.8424061 18.7340697 18.776034L18.7340697 22.3374342 18.7340697 22.3374342z"/>
      <path d="M40.144435,15.1658182 L10.7051827,15.1658182 C9.22658284,15.1658182 8.028887,16.363514 8.028887,17.8421138 L8.028887,24.979045 C8.028887,26.4576449 9.22658284,27.6553407 10.7051827,27.6553407 L40.144435,27.6553407 C41.6230348,27.6553407 42.8207307,26.4576449 42.8207307,24.979045 L42.8207307,17.8421138 C42.8207307,16.363514 41.6230348,15.1658182 40.144435,15.1658182 L40.144435,15.1658182 Z M13.8276703,17.8421138 C14.5667562,17.8421138 15.1658182,18.4416041 15.1658182,19.1802617 C15.1658182,19.9193475 14.5667562,20.5184095 13.8276703,20.5184095 C13.0890127,20.5184095 12.4895225,19.9193475 12.4895225,19.1802617 C12.4895225,18.4411759 13.0885845,17.8421138 13.8276703,17.8421138 L13.8276703,17.8421138 Z M16.057774,24.086661 L16.012384,24.086661 L11.6425285,24.086661 L11.5975667,24.086661 L11.5975667,23.640469 C11.5975667,22.4089448 12.5961461,21.4103653 13.8276703,21.4103653 C15.0596228,21.4103653 16.057774,22.4089448 16.057774,23.640469 L16.057774,24.086661 L16.057774,24.086661 Z M24.086661,22.7485132 C24.086661,22.9904503 23.8935395,23.1887103 23.650746,23.1947052 C22.0873611,23.2328156 21.3101648,23.9706168 21.2767647,24.001876 C21.2690569,24.0104401 21.2587799,24.0117247 21.2510722,24.0190042 C21.2151028,24.0498352 21.1757077,24.0780969 21.1316024,24.0960816 C21.1106202,24.1050739 21.0883534,24.1046457 21.0669431,24.109356 C21.0326865,24.1183483 21.0009992,24.1303381 20.9641733,24.1303381 C20.9303449,24.1303381 20.9003704,24.1183483 20.8686831,24.1110688 C20.8438471,24.1059303 20.8185828,24.1059303 20.7946032,24.0960816 C20.7393645,24.0738148 20.6901206,24.0404146 20.6485845,23.9997349 C19.8953679,23.2469465 18.2925879,23.1947052 18.2758879,23.1947052 C18.0348071,23.1874257 17.8412574,22.9900221 17.8412574,22.7485132 L17.8412574,18.2878777 C17.8412574,18.1675514 17.8900731,18.0527918 17.9752863,17.9688632 C18.0617842,17.8853628 18.181254,17.8468241 18.2977264,17.8416856 C18.3709499,17.8433985 19.9309091,17.8913577 20.9727375,18.6475718 C21.4142192,18.3426882 22.3006083,17.8738012 23.6293356,17.8416856 C23.7586542,17.8442549 23.8652778,17.8853628 23.9517757,17.9688632 C24.036989,18.0523636 24.0858046,18.1675514 24.0858046,18.2878777 L24.0858046,22.7485132 L24.086661,22.7485132 Z M38.3600952,24.086661 L26.7629567,24.086661 C26.2700901,24.086661 25.8710008,23.6875718 25.8710008,23.1947052 C25.8710008,22.7018386 26.2700901,22.3023212 26.7629567,22.3023212 L38.3600952,22.3023212 C38.8529618,22.3023212 39.2524792,22.7018386 39.2524792,23.1947052 C39.2524792,23.6875718 38.8529618,24.086661 38.3600952,24.086661 L38.3600952,24.086661 Z M38.3600952,20.5184095 L26.7629567,20.5184095 C26.2700901,20.5184095 25.8710008,20.1193203 25.8710008,19.6264537 C25.8710008,19.1331589 26.2700901,18.7344979 26.7629567,18.7344979 L38.3600952,18.7344979 C38.8529618,18.7344979 39.2524792,19.1335871 39.2524792,19.6264537 C39.2524792,20.1193203 38.8529618,20.5184095 38.3600952,20.5184095 L38.3600952,20.5184095 Z"/>
      <path d="M21.4103653 22.8512829C21.8321495 22.6316126 22.421791 22.4068037 23.1947052 22.32887L23.1947052 18.7661852C22.2479388 18.8788037 21.6578692 19.2444928 21.4103653 19.430763L21.4103653 22.8512829 21.4103653 22.8512829zM10.2474291 7.98520986C10.2637009 7.98520986 11.8669091 8.03745115 12.6201257 8.79023959 12.6616619 8.83134749 12.7109057 8.86431946 12.7661444 8.88701444 12.7905523 8.896435 12.8153883 8.896435 12.8402243 8.9020017 12.8714834 8.90885302 12.9018862 8.92127103 12.9357145 8.92127103 12.9721121 8.92127103 13.0042277 8.90885302 13.0384843 8.90028887 13.0598946 8.89515038 13.0821614 8.8960068 13.1031436 8.88701444 13.1472489 8.86902974 13.186644 8.84076805 13.2226134 8.80950892 13.2303212 8.8026576 13.2405981 8.80094477 13.2483059 8.79280884 13.2821342 8.7615497 14.0593305 8.02374851 15.6227154 7.98520986 15.8646525 7.97878675 16.0582022 7.78138318 16.0582022 7.53901784L16.0582022 3.07881054C16.0582022 2.95848428 16.0093866 2.84372472 15.9241733 2.75979609 15.8376754 2.67629567 15.7306236 2.63518777 15.6021614 2.63261852 14.2730059 2.66473407 13.387045 3.13362107 12.9455633 3.43850467 11.9037349 2.68229057 10.3437757 2.63433135 10.2705523 2.63261852 10.1545081 2.63775701 10.03461 2.67629567 9.94811215 2.75979609 9.8628989 2.84329652 9.81408326 2.95848428 9.81408326 3.07881054L9.81408326 7.53944605C9.81322685 7.78052676 10.0063483 7.97835854 10.2474291 7.98520986L10.2474291 7.98520986zM13.3814783 4.22169584C13.6289822 4.03499745 14.2190518 3.66930841 15.1658182 3.55668989L15.1658182 7.11980289C14.3933322 7.19730841 13.8032625 7.42211725 13.3814783 7.6417876L13.3814783 4.22169584 13.3814783 4.22169584zM10.7051827 3.56653866C11.2010467 3.63291079 11.9769584 3.81232965 12.4895225 4.23411385L12.4895225 7.63707732C11.8540629 7.31806287 11.1492336 7.17975191 10.7051827 7.12836703L10.7051827 3.56653866 10.7051827 3.56653866zM15.601305 33.0075038C14.2721495 33.0400476 13.3861886 33.5085064 12.9447069 33.8138182 11.9028785 33.0576041 10.3429193 33.0096449 10.2696958 33.0075038 10.1536517 33.0130705 10.0337536 33.0516092 9.94725573 33.1351096 9.86204248 33.21861 9.81322685 33.3333696 9.81322685 33.4536958L9.81322685 37.9143314C9.81322685 38.1554121 10.0067766 38.3532438 10.2478573 38.3600952 10.2641291 38.3600952 11.8673373 38.4123364 12.620554 39.1651249 12.6620901 39.2062328 12.7113339 39.239633 12.7665726 39.2618997 12.7909805 39.2713203 12.8158165 39.2713203 12.8406525 39.276887 12.8719116 39.2841665 12.9023144 39.2961563 12.9361427 39.2961563 12.9725404 39.2961563 13.0046559 39.2841665 13.0389125 39.2751742 13.0603229 39.2696075 13.0825896 39.2708921 13.1035718 39.2618997 13.1476771 39.243915 13.1870722 39.2160816 13.2230416 39.1843942 13.2307494 39.1775429 13.2410263 39.1754019 13.2487341 39.1676941 13.2825624 39.136435 14.0597587 38.3986338 15.6231436 38.3600952 15.8650807 38.3541003 16.0586304 38.1562685 16.0586304 37.9143314L16.0586304 33.4536958C16.0586304 33.3333696 16.0098148 33.21861 15.9246015 33.1351096 15.836819 33.0516092 15.7301954 33.0100731 15.601305 33.0075038L15.601305 33.0075038zM12.4895225 38.0119626C11.8540629 37.6933764 11.1492336 37.5546372 10.7051827 37.5032523L10.7051827 33.9422804C11.2010467 34.0082243 11.9769584 34.1876432 12.4895225 34.6094274L12.4895225 38.0119626 12.4895225 38.0119626zM15.1658182 37.4946882C14.3933322 37.5726219 13.8032625 37.7974308 13.3814783 38.0166729L13.3814783 34.5965811C13.6289822 34.410311 14.2190518 34.0441937 15.1658182 33.9320034L15.1658182 37.4946882 15.1658182 37.4946882z"/>
    </g>
  </g>
</svg>
