<svg xmlns="http://www.w3.org/2000/svg" width="72" height="72" viewBox="0 0 72 72">
  <path fill="#FBBB10" d="M0,9.02155887 L0,51.5555556 C0,58.4278607 5.5721393,64 12.4444444,64 L59.5290216,64 L62.7794362,64 L63.1509121,64 L63.615257,64 C63.800995,64 63.893864,64 63.986733,63.907131 C68.4444444,63.2570481 71.880597,59.4494196 71.880597,54.8059701 L71.880597,18.5870647 C71.880597,18.0298507 71.5091211,17.6583748 70.9519071,17.6583748 L56.371476,17.6583748 L56.371476,8.92868988 C56.371476,8.37147595 56,8 55.4427861,8 L0.928689884,8 C0.464344942,8.09286899 0,8.46434494 0,9.02155887 Z M70.1160862,54.8988391 C70.1160862,58.7993367 67.0514096,61.9568823 63.2437811,62.1426202 C58.9718076,61.9568823 56.371476,58.4278607 56.371476,52.6699834 L56.371476,50.8126036 L56.371476,19.6086235 L70.1160862,19.6086235 L70.1160862,54.8988391 Z M1.85737977,9.95024876 L54.5140962,9.95024876 L54.5140962,18.6799337 L54.5140962,50.8126036 L54.5140962,52.6699834 C54.5140962,57.4063018 56.092869,60.3781095 58.2288557,62.1426202 L12.5373134,62.1426202 C6.68656716,62.1426202 1.95024876,57.4063018 1.95024876,51.5555556 L1.95024876,9.95024876 L1.85737977,9.95024876 Z M9.37976783,41.4328358 L46.6202322,41.4328358 C47.1774461,41.4328358 47.5489221,41.0613599 47.5489221,40.5041459 C47.5489221,39.946932 47.1774461,39.5754561 46.6202322,39.5754561 L9.37976783,39.5754561 C8.8225539,39.5754561 8.45107794,39.946932 8.45107794,40.5041459 C8.45107794,41.0613599 8.8225539,41.4328358 9.37976783,41.4328358 Z M9.37976783,50.8126036 L46.6202322,50.8126036 C47.1774461,50.8126036 47.5489221,50.4411277 47.5489221,49.8839138 C47.5489221,49.3266998 47.1774461,48.9552239 46.6202322,48.9552239 L9.37976783,48.9552239 C8.8225539,48.9552239 8.45107794,49.3266998 8.45107794,49.8839138 C8.45107794,50.4411277 8.8225539,50.8126036 9.37976783,50.8126036 Z M23.0315091,33.5389718 C22.8457711,33.5389718 22.6600332,33.5389718 22.4742952,33.3532338 C22.1956882,33.1674959 22.1028192,32.8888889 22.1028192,32.6102819 C22.1028192,32.4245439 22.1956882,32.238806 22.2885572,32.053068 L26.6533997,26.1094527 C25.7247098,24.9021559 23.86733,22.2089552 23.86733,20.2587065 C23.86733,18.1227197 25.6318408,16.358209 27.7678275,16.358209 C29.9038143,16.358209 31.668325,18.1227197 31.668325,20.2587065 C31.668325,22.1160862 29.8109453,24.9021559 28.8822554,26.1094527 L33.2470978,32.053068 C33.3399668,32.238806 33.4328358,32.4245439 33.4328358,32.6102819 C33.4328358,32.8888889 33.3399668,33.1674959 33.0613599,33.3532338 C32.8756219,33.4461028 32.6898839,33.5389718 32.5041459,33.5389718 C32.225539,33.5389718 31.946932,33.4461028 31.761194,33.1674959 L27.7678275,27.6882255 L23.774461,33.1674959 C23.5887231,33.4461028 23.3101161,33.5389718 23.0315091,33.5389718 Z M27.7678275,18.2155887 C26.6533997,18.2155887 25.7247098,19.1442786 25.7247098,20.2587065 C25.7247098,21.2802653 26.7462687,23.1376451 27.7678275,24.5306799 C28.6965174,23.1376451 29.8109453,21.2802653 29.8109453,20.2587065 C29.8109453,19.1442786 28.8822554,18.2155887 27.7678275,18.2155887 Z"/>
</svg>
