<svg xmlns="http://www.w3.org/2000/svg" width="72" height="72" viewBox="0 0 72 72">
  <g fill="none" fill-rule="evenodd" transform="translate(0 2)">
    <rect width="47.279" height="47.279" x="14.205" y="9.792" fill="#C0E2FC" opacity=".2" transform="rotate(45 37.844 33.432)"/>
    <rect width="47.279" height="47.279" x="9.792" y="9.792" fill="#C0E2FC" opacity=".2" transform="rotate(45 33.432 33.432)"/>
    <path fill="#1767A5" d="M55.9170329 36.9088897C54.4042433 33.5806491 52.2223852 31.2433142 49.536264 30.0062369L49.536264 32.4482596C51.3434229 33.5474807 52.8277083 35.3292451 53.952324 37.8033997 54.1984957 38.3460138 54.8338776 38.5890759 55.3821926 38.3387582 55.9242884 38.0925865 56.164241 37.4525403 55.9170329 36.9088897L55.9170329 36.9088897zM32.9722813 23.301558C30.5991867 17.6458293 26.9848688 13.4163414 22.9289967 11.9393116 19.5463392 10.7043074 16.1496889 11.4609612 13.1111535 14.1206515 12.6618254 14.5134896 12.6172554 15.1960328 13.0095753 15.6432878 13.4029316 16.0941706 14.0849567 16.1366676 14.5327299 15.7459025 16.9783804 13.6055049 19.5535948 13.0069191 22.1894453 13.9672477 25.4508308 15.1550906 28.4722638 18.6279246 30.6012597 23.281346 30.9826962 23.2341847 31.3646509 23.1927242 31.7445327 23.1927242 32.1705392 23.1932424 32.578925 23.2326299 32.9722813 23.301558L32.9722813 23.301558zM18.7186843 31.6864231C15.0618694 33.4728518 12.7224614 37.1343311 11.7636877 42.5677278 11.6595182 43.1543937 12.051838 43.7146285 12.6390222 43.8172432 12.7022494 43.8291631 12.7654767 43.8338274 12.8281857 43.8338274 13.3428139 43.8338274 13.798361 43.4663839 13.8895741 42.942427 14.686652 38.425307 16.5150594 35.3758882 19.3048319 33.8371859L19.3048319 31.4340324C19.1084129 31.5169534 18.9109573 31.5921005 18.7186843 31.6864231L18.7186843 31.6864231zM37.7283174 23.238849C39.9485264 19.1736483 43.5120553 17.0933683 48.3722608 17.0933683 48.9687736 17.0933683 49.4517882 16.6098354 49.4517882 16.0138409 49.4517882 15.4162917 48.9687736 14.9343135 48.3722608 14.9343135 42.2630581 14.9343135 37.7226166 17.8650517 35.2173667 23.4046909 35.7682729 23.2626887 36.3518292 23.1823591 36.9721818 23.1823591 37.2230177 23.1818408 37.4759267 23.2181187 37.7283174 23.238849L37.7283174 23.238849z"/>
    <circle cx="12.827" cy="47.081" r="2.16" fill="#1767A5"/>
    <path fill="#1767A5" d="M16.0657314,53.3417535 C16.0657314,51.55377 14.6166874,50.102653 12.8266309,50.102653 C11.0370926,50.102653 9.58753037,51.55377 9.58753037,53.3417535 L9.58753037,54.6384302 L16.0657314,54.6384302 L16.0657314,53.3417535 L16.0657314,53.3417535 Z"/>
    <circle cx="56.014" cy="41.675" r="2.16" fill="#1767A5"/>
    <path fill="#1767A5" d="M59.2535655,47.9363426 C59.2535655,46.1483591 57.8040032,44.6972421 56.014465,44.6972421 C54.2249267,44.6972421 52.7753645,46.1483591 52.7753645,47.9363426 L52.7753645,49.2319828 L59.2535655,49.2319828 L59.2535655,47.9363426 L59.2535655,47.9363426 Z"/>
    <circle cx="53.855" cy="10.363" r="2.16" fill="#1767A5"/>
    <path fill="#1767A5" d="M57.0939924,16.6248648 C57.0939924,14.8368814 55.6444302,13.3857643 53.8548919,13.3857643 C52.0653536,13.3857643 50.6157914,14.8368814 50.6157914,16.6248648 L50.6157914,17.9205051 L57.0939924,17.9205051 L57.0939924,16.6248648 L57.0939924,16.6248648 Z"/>
    <circle cx="10.667" cy="19.002" r="2.16" fill="#1767A5"/>
    <path fill="#1767A5" d="M13.9061583,25.2631572 C13.9061583,23.4751737 12.456596,22.0240567 10.6670578,22.0240567 C8.87751954,22.0240567 7.42795727,23.4751737 7.42795727,25.2631572 L7.42795727,26.5587974 L13.9061583,26.5587974 L13.9061583,25.2631572 L13.9061583,25.2631572 Z"/>
    <g fill="#1767A5" transform="translate(20.173 23.955)">
      <path d="M27.2041294,4.76345373 L27.2041294,2.60388063 L26.1246019,2.60388063 C24.9155105,2.60388063 23.4690578,1.93895808 21.9365745,1.43935922 C19.3991928,0.61222251 16.5518938,-0.315974133 14.2477273,0.970337463 C11.9430425,-0.308718548 9.10869998,0.639690083 6.57909205,1.48807529 C5.03883497,2.00374009 3.5846084,2.60388063 2.37137091,2.60388063 L1.29184349,2.60388063 L1.29184349,4.76345373 L0.211797818,4.76345373 L0.211797818,18.7993832 L11.0086268,16.4029671 L11.0086268,16.7605638 C11.0086268,17.3565583 11.4916415,17.7198558 12.0881542,17.7198558 L16.4788197,17.7198558 C17.0753325,17.7198558 17.5583472,17.3570765 17.5583472,16.7605638 L17.5583472,16.4205878 L28.2836568,18.7993832 L28.2836568,4.76345373 L27.2041294,4.76345373 L27.2041294,4.76345373 Z M3.45089833,4.5691077 C4.69937724,4.39497366 5.99864523,3.95912029 7.26474484,3.53518681 C9.53522474,2.77594165 11.6792502,2.07577769 13.1681999,2.86819124 L13.1681999,13.8272344 C11.0806644,13.2400502 8.69046733,13.9733826 6.52104736,14.6455607 C5.4373739,14.9819089 4.39516091,15.305819 3.45089833,15.4628506 L3.45089833,6.28868138 L3.45089833,4.5691077 L3.45089833,4.5691077 Z M15.327773,2.86663647 C16.8286426,2.06126652 18.9856244,2.74847408 21.2675059,3.49268982 C22.5216857,3.90159387 23.8090338,4.32086304 25.0450745,4.49085103 L25.0450745,6.28919964 L25.0450745,15.3830391 C24.1002937,15.2260075 23.058599,14.9020975 21.9744072,14.565231 C19.804469,13.8935711 17.416345,13.1690491 15.327773,13.755715 L15.327773,2.86663647 L15.327773,2.86663647 Z"/>
    </g>
  </g>
</svg>
