<svg xmlns="http://www.w3.org/2000/svg" width="72" height="72" viewBox="0 0 72 72">
  <g fill="none" fill-rule="evenodd" transform="translate(0 2)">
    <rect width="47.739" height="47.739" x="14.343" y="9.887" fill="#C0E2FC" opacity=".2" transform="rotate(45 38.212 33.757)"/>
    <rect width="47.739" height="47.739" x="9.887" y="9.887" fill="#C0E2FC" opacity=".2" transform="rotate(45 33.757 33.757)"/>
    <g transform="translate(2.546 6.365)">
      <g fill="#1767A5" transform="translate(36.282 31.19)">
        <path d="M12.7499895 20.5930533C8.48608879 20.5930533 5.01689552 17.12386 5.01689552 12.8599593 5.01689552 8.59605854 8.48608879 5.12686526 12.7499895 5.12686526 17.0138902 5.12686526 20.4830835 8.59605854 20.4830835 12.8599593 20.4830835 17.12386 17.0138902 20.5930533 12.7499895 20.5930533L12.7499895 20.5930533zM12.4059955 25.5655275L12.3669914 25.5649858C12.2586469 25.5617354 12.1503023 25.5574017 12.0424994 25.5514427 11.3230915 25.5113552 10.7721593 24.8954163 10.8122468 24.1754666 10.8523343 23.4560586 11.4655646 22.9072934 12.1882229 22.945214 12.2732734 22.9500895 12.3577822 22.9533398 12.4433744 22.9560484 13.1638658 22.9771756 13.7305079 23.578488 13.7099224 24.2984377 13.6887953 25.0064695 13.1086101 25.5655275 12.4059955 25.5655275L12.4059955 25.5655275zM17.9992842 24.2946456C17.5274435 24.2946456 17.0723963 24.037869 16.8399972 23.5904059 16.5079211 22.9506312 16.7576553 22.1629661 17.39743 21.83089 17.4732712 21.7913443 17.548029 21.7512568 17.6227868 21.7100858 18.2533522 21.3612163 19.0475179 21.5909068 19.3958457 22.2220139 19.7441735 22.8531211 19.5150247 23.6467451 18.8839176 23.9950729 18.7896578 24.0470783 18.6948563 24.0980002 18.5995131 24.147297 18.4072015 24.2475158 18.2013468 24.2946456 17.9992842 24.2946456L17.9992842 24.2946456zM6.65127342 23.8065533C6.41237364 23.8065533 6.17130696 23.7410049 5.95461781 23.603949 5.86306665 23.5459846 5.77259893 23.4869368 5.68267293 23.4273473 5.08406916 23.0259307 4.92426091 22.2155133 5.32513583 21.6169095 5.72655248 21.0183057 6.5369699 20.8579557 7.13557367 21.2593724 7.20653937 21.307044 7.27804679 21.3536322 7.35063765 21.3996786 7.95953416 21.7853853 8.1404696 22.5914689 7.75530464 23.2003654 7.50665384 23.5920311 7.08356828 23.8065533 6.65127342 23.8065533L6.65127342 23.8065533zM22.4192011 20.2160141C22.1824682 20.2160141 21.9424849 20.1515491 21.727421 20.0166601 21.1168993 19.6336621 20.9321718 18.8286619 21.3151699 18.2181402 21.3606746 18.1455493 21.4050958 18.0729585 21.4484337 17.9992842 21.8151801 17.3784697 22.614763 17.172615 23.2355774 17.5393614 23.8558501 17.9061078 24.0617048 18.7062325 23.6955002 19.3265052 23.6402444 19.4196815 23.5839052 19.5123161 23.5264826 19.6038673 23.2783735 19.999325 22.8536628 20.2160141 22.4192011 20.2160141L22.4192011 20.2160141zM2.59539428 19.3638841C2.12138677 19.3638841 1.66417266 19.1043988 1.432857 18.6536854 1.38410194 18.5588839 1.33697205 18.4629989 1.29038388 18.367114.977268061 17.71813 1.24921294 16.938049 1.89819694 16.6243915 2.54718095 16.3112757 3.32726188 16.5832206 3.64091942 17.2322046 3.6782983 17.3096709 3.71676063 17.3865956 3.75576467 17.4635202 4.08459046 18.1049201 3.83106415 18.8915017 3.18966427 19.2197858 2.99951954 19.3178376 2.79583174 19.3638841 2.59539428 19.3638841L2.59539428 19.3638841zM24.1527143 14.4542497L24.1196692 14.453708C23.3991777 14.4358311 22.829827 13.8372273 22.8477039 13.1167359 22.8498707 13.0311437 22.8509542 12.9455515 22.8509542 12.8594175 22.8509542 12.1389261 23.4349315 11.5544071 24.1559646 11.5544071 24.876456 11.5544071 25.460975 12.1383844 25.460975 12.8594175 25.460975 12.9672204 25.4593498 13.0744815 25.4566412 13.1817426 25.4393061 13.8913996 24.8585792 14.4542497 24.1527143 14.4542497L24.1527143 14.4542497zM1.36568336 13.4758982C1.33913894 13.4758982 1.31313624 13.4753564 1.2860501 13.4737313.566642124 13.4303934.0184185777 12.8122877.0617564074 12.0928797.0682570819 11.9850768.0758412021 11.8778157.0850504909 11.7705546.146265175 11.0527718.774663707 10.5191747 1.49623857 10.5814729 2.21402138 10.6426875 2.74653496 11.2748781 2.68532028 11.9926609 2.67827788 12.0777114 2.67177721 12.1627619 2.6669017 12.2488959 2.62518904 12.9417594 2.05042107 13.4758982 1.36568336 13.4758982L1.36568336 13.4758982zM23.3135855 9.85393905C22.7994905 9.85393905 22.3119399 9.54786562 22.1055435 9.04243818 22.0730402 8.96334664 22.0399951 8.88479683 22.0058665 8.80678873 21.7160448 8.14697028 22.0161592 7.37718207 22.6765194 7.08736034 23.3368796 6.79808032 24.1061261 7.09765307 24.3959478 7.75801325 24.4387439 7.85606509 24.4809983 7.95520038 24.5216275 8.05487739 24.7946559 8.72173824 24.4744976 9.48394232 23.8076368 9.75642893 23.6456616 9.82251912 23.4782693 9.85393905 23.3135855 9.85393905L23.3135855 9.85393905zM3.29584195 7.77914044C3.04394082 7.77914044 2.78987279 7.70654958 2.56559952 7.55486718 1.96862092 7.15074191 1.81206301 6.33978277 2.21618827 5.74280417 2.27686123 5.65341989 2.33807592 5.56511907 2.40091577 5.47735996 2.81966755 4.89067409 3.63441875 4.75470165 4.22110462 5.17345343 4.80779049 5.59220521 4.94376293 6.40695641 4.52501115 6.99364228 4.47517265 7.06352453 4.42641759 7.1339485 4.37820425 7.2049142 4.12576139 7.57816126 3.71459373 7.77914044 3.29584195 7.77914044L3.29584195 7.77914044zM19.649372 5.08190226C19.3736351 5.08190226 19.0951895 4.99468488 18.8589984 4.81483289 18.791283 4.76282749 18.7224842 4.71190554 18.6531437 4.66206704 18.0686247 4.24006492 17.936986 3.424772 18.3589881 2.84025302 18.7809903 2.25627576 19.5968249 2.12409538 20.1808022 2.5460975 20.2685613 2.60947908 20.3552369 2.6739441 20.4413709 2.73949256 21.0145137 3.17666292 21.1250251 3.99520618 20.6878548 4.56834898 20.4310781 4.90475888 20.0426628 5.08190226 19.649372 5.08190226L19.649372 5.08190226zM7.86039888 3.85706685C7.37284829 3.85706685 6.90479973 3.58241335 6.68106818 3.1121979 6.37174442 2.46158873 6.64802309 1.68259124 7.29917398 1.37326748 7.3966841 1.32722104 7.49473594 1.28171632 7.59387122 1.23783676 8.25260624.945848135 9.02347788 1.24325399 9.31546651 1.90253073 9.60745514 2.56126574 9.31004928 3.33213739 8.65077255 3.62412602 8.57330618 3.65879628 8.49638153 3.69400827 8.4199986 3.7303037 8.23906316 3.81643763 8.04837671 3.85706685 7.86039888 3.85706685L7.86039888 3.85706685zM14.0717933 2.83429407C14.0224965 2.83429407 13.9731998 2.83158545 13.9228195 2.8256265 13.8372273 2.81587549 13.7516351 2.80720792 13.6655012 2.79908208 12.9477184 2.73461706 12.4179134 2.1008013 12.4823784 1.38301849 12.5468434.665235687 13.1844513.134888995 13.898442.19989574 14.0051614.209646752 14.1118808.220481209 14.2180585.232399112 14.9342161.313657543 15.4488529.960474652 15.3670527 1.67663229 15.2906698 2.3424097 14.7261946 2.83429407 14.0717933 2.83429407L14.0717933 2.83429407z"/>
      </g>
      <path fill="#1767A5" d="M9.53895428,22.4012023 L11.0035969,22.4012023 L11.0035969,23.8658449 C11.0035969,24.3928871 11.4307047,24.8206315 11.9583834,24.8206315 C12.4854256,24.8206315 12.91317,24.3928871 12.91317,23.8658449 L12.91317,22.4012023 L14.3778126,22.4012023 C14.9054913,22.4012023 15.3325991,21.9740945 15.3325991,21.4464158 C15.3325991,20.9187371 14.9054913,20.4916292 14.3778126,20.4916292 L12.91317,20.4916292 L12.91317,19.0269866 C12.91317,18.4993079 12.4854256,18.0722001 11.9583834,18.0722001 C11.4307047,18.0722001 11.0035969,18.4993079 11.0035969,19.0269866 L11.0035969,20.4916292 L9.53895428,20.4916292 C9.01127557,20.4916292 8.58416772,20.9187371 8.58416772,21.4464158 C8.58416772,21.9740945 9.01127557,22.4012023 9.53895428,22.4012023"/>
      <path stroke="#1767A5" stroke-linecap="round" stroke-width="3" d="M25.1427128,36.6001516 L43.9444403,17.7984239"/>
      <path fill="#1767A5" d="M23.1915959 22.0568426C21.9476514 22.0568426 20.7577212 21.7738714 19.654053 21.2159909 19.2469292 21.0104136 18.9905621 20.5936156 18.9905621 20.1373144 18.9905621 19.6818195 19.2469292 19.2642153 19.654053 19.0586379 21.4929626 18.1282996 22.636134 16.2708477 22.636134 14.2110432 22.636134 12.1512387 21.4929626 10.2937868 19.654053 9.36344845 19.2469292 9.15787109 18.9905621 8.74026688 18.9905621 8.28477195 18.9905621 7.82847083 19.2469292 7.41167282 19.654053 7.20609546 20.7577212 6.64821494 21.9476514 6.36524375 23.1915959 6.36524375 27.5183947 6.36524375 31.0382016 9.88505061 31.0382016 14.2118494 31.0382016 18.5386481 27.5183947 22.0568426 23.1915959 22.0568426L23.1915959 22.0568426zM.954786562 11.2703006L2.41942915 11.2703006 2.41942915 12.7349432C2.41942915 13.2619853 2.846537 13.6897297 3.37421571 13.6897297 3.90125789 13.6897297 4.32900227 13.2619853 4.32900227 12.7349432L4.32900227 11.2703006 5.79364486 11.2703006C6.32132357 11.2703006 6.74843142 10.8431927 6.74843142 10.315514 6.74843142 9.78783531 6.32132357 9.36072746 5.79364486 9.36072746L4.32900227 9.36072746 4.32900227 7.89608487C4.32900227 7.36840616 3.90125789 6.94129831 3.37421571 6.94129831 2.846537 6.94129831 2.41942915 7.36840616 2.41942915 7.89608487L2.41942915 9.36072746.954786562 9.36072746C.427107856 9.36072746 0 9.78783531 0 10.315514 0 10.8431927.427107856 11.2703006.954786562 11.2703006M34.5740945 4.32900227L36.0387371 4.32900227 36.0387371 5.79364486C36.0387371 6.32068704 36.4658449 6.74843142 36.9935236 6.74843142 37.5205658 6.74843142 37.9483102 6.32068704 37.9483102 5.79364486L37.9483102 4.32900227 39.4129528 4.32900227C39.9406315 4.32900227 40.3677393 3.90189442 40.3677393 3.37421571 40.3677393 2.846537 39.9406315 2.41942915 39.4129528 2.41942915L37.9483102 2.41942915 37.9483102.954786562C37.9483102.427107856 37.5205658 0 36.9935236 0 36.4658449 0 36.0387371.427107856 36.0387371.954786562L36.0387371 2.41942915 34.5740945 2.41942915C34.0464158 2.41942915 33.6193079 2.846537 33.6193079 3.37421571 33.6193079 3.90189442 34.0464158 4.32900227 34.5740945 4.32900227"/>
    </g>
  </g>
</svg>
