<svg xmlns="http://www.w3.org/2000/svg" width="72" height="72" viewBox="0 0 72 72">
  <path fill="#FBBB10" d="M63.1442333,31.356046 L53.3852716,30.8694357 L50.283287,26.2429051 C50.2272833,26.1595217 50.1638124,26.091695 50.0841626,26.0307132 L50.0822958,26.0294686 C49.7282278,25.7562949 49.2254387,25.7842967 48.9037284,26.0948063 L45.4937233,29.3865813 L48.5011238,17.7452719 C48.5621056,17.5081894 48.5247698,17.2567949 48.3972057,17.0483366 C48.2696417,16.839256 48.0630501,16.6917795 47.8241008,16.6382648 L42.1770577,15.3744472 L36.7160714,8.34535636 L36.6905586,8.31859902 L36.6706462,8.29744205 L36.559261,8.19165722 L36.5536606,8.18667911 L36.5343704,8.1748561 L36.4105399,8.09707314 L36.3632479,8.07653844 L36.252485,8.03484677 L36.1827914,8.01929017 L36.0863405,8.00373358 L36.0010904,8 L35.9164626,8.00248905 L35.8206339,8.01804565 L35.7503181,8.03360224 L35.6401775,8.07529391 L35.5922632,8.09645087 L35.4684327,8.17423384 L35.4491425,8.18667911 L35.4435421,8.19165722 L35.3327792,8.29681979 L35.3116222,8.31859902 L35.2861094,8.34535636 L35.2861094,8.34535636 L29.8251231,15.3732027 L24.17808,16.6370202 C23.9391307,16.6905349 23.7325392,16.8386337 23.6049751,17.047092 C23.4774111,17.2561726 23.4400752,17.5075672 23.5010571,17.7440274 L26.5084576,29.3853368 L23.0984525,26.0935618 C22.7748753,25.7811854 22.2739531,25.7538058 21.9180182,26.0294686 L21.9161514,26.0307132 C21.8371239,26.0923173 21.7748976,26.1588995 21.7188938,26.2416606 L18.6169092,30.8681912 L8.85794754,31.356046 C8.57170624,31.370358 8.30786642,31.5203236 8.14981144,31.7598951 C7.99175646,31.9988444 7.95628743,32.3006423 8.05522736,32.5694602 L11.3880718,41.6445541 L8.28484267,46.2648621 C8.13736617,46.4845212 8.09380771,46.7533391 8.16412351,47.0084672 C8.23443931,47.2635954 8.40991767,47.4720537 8.64886694,47.5853057 L18.7332726,52.3499789 L18.7332726,57.3585795 L18.7419843,57.3585795 C18.7419843,57.6722004 18.8963057,57.9696424 19.1738353,58.1345423 L19.1744575,58.1351646 C19.3486914,58.2390826 19.5478158,58.2714403 19.7425843,58.2484166 L19.7432066,58.2552615 L35.0975635,56.4021601 L35.0975635,63.0964731 C35.0975635,63.5955286 35.5020349,64 36.0010904,64 C36.5001459,64 36.9046173,63.5955286 36.9046173,63.0964731 L36.9046173,56.4021601 L52.2589743,58.2552615 L52.2595965,58.2484166 C52.4537428,58.2714403 52.6528672,58.2390826 52.8277233,58.1351646 L52.8283456,58.1345423 C53.1064974,57.9696424 53.2601966,57.6722004 53.2601966,57.3585795 L53.2689083,57.3585795 L53.2689083,52.3499789 L63.3533139,47.5853057 C63.5928854,47.4720537 63.7677415,47.2635954 63.8380573,47.0084672 C63.9083731,46.7533391 63.8648147,46.4845212 63.7173382,46.2648621 L60.6141091,41.6445541 L63.9469535,32.5694602 C64.0458934,32.30002 64.0104244,31.9988444 63.8523694,31.7598951 C63.6943144,31.5203236 63.4310969,31.370358 63.1442333,31.356046 Z M58.7597632,41.4541414 C58.6595788,41.7260706 58.6962923,42.0284908 58.8580809,42.2693068 L61.6327548,46.4005156 L51.9814447,50.960464 L51.9173515,50.9940663 L51.916107,50.9946885 C51.6360883,51.1552326 51.4624767,51.4551637 51.4624767,51.7781185 L51.4624767,56.3393115 L36.9039951,54.5826611 L36.9039951,49.846612 L48.8122556,42.2985532 C49.2335281,42.0316021 49.3586031,41.4734316 49.091652,41.052159 C48.8247009,40.6308865 48.2665303,40.5058115 47.8452578,40.7727626 L36.9046173,47.7072694 L36.9046173,36.8543681 C36.9046173,36.3553126 36.5001459,35.9508412 36.0010904,35.9508412 C35.5020349,35.9508412 35.0975635,36.3553126 35.0975635,36.8543681 L35.0975635,47.7078916 L24.1563008,40.7727626 C23.7350282,40.5058115 23.1768577,40.6308865 22.9099066,41.052159 C22.6429554,41.4734316 22.7680304,42.0316021 23.189303,42.2985532 L35.0975635,49.846612 L35.0975635,54.5826611 L20.5390818,56.3393115 L20.5390818,51.7781185 C20.5390818,51.4551637 20.3654703,51.1552326 20.0854516,50.9946885 L20.0848293,50.9940663 L20.0207362,50.960464 L10.3700483,46.4005156 L13.1447222,42.2693068 C13.3065108,42.0284908 13.3426021,41.7260706 13.2430399,41.4541414 L10.1740353,33.0990066 L19.1595232,32.6509767 C19.4457645,32.6366647 19.7052485,32.4898104 19.864548,32.2521057 L22.6193094,28.1439207 L27.5557274,32.9085939 C27.8463245,33.1892348 28.2893763,33.2421273 28.637844,33.0392693 C28.9869339,32.8357891 29.1586787,32.4238505 29.0572497,32.0330689 L25.482967,18.1970354 L30.5363705,17.0657599 C30.7398508,17.0203347 30.9240408,16.9033491 31.0522272,16.7384492 L36.0010904,10.3695802 L40.9493314,16.737827 C41.0775177,16.9027268 41.2617078,17.0197124 41.465188,17.0651377 L46.5185916,18.1964131 L42.9443089,32.0324466 C42.8435021,32.4232282 43.0152469,32.8351668 43.3637146,33.038647 C43.7121823,33.2421273 44.1558563,33.1886126 44.4458312,32.9079716 L49.3822492,28.1432984 L52.1370106,32.2514834 C52.2969324,32.4898104 52.5557941,32.6360424 52.8420354,32.6503545 L61.8275233,33.0983843 L58.7597632,41.4541414 Z"/>
</svg>
