<svg xmlns="http://www.w3.org/2000/svg" width="72" height="72" viewBox="0 0 72 72">
  <g fill="none" fill-rule="evenodd">
    <circle cx="36" cy="36" r="36" fill="#F1F6F9"/>
    <path fill="#C0E1FB" fill-rule="nonzero" d="M36,70.9714286 C55.3141867,70.9714286 70.9714286,55.3141867 70.9714286,36 C70.9714286,16.6858133 55.3141867,1.02857143 36,1.02857143 C16.6858133,1.02857143 1.02857143,16.6858133 1.02857143,36 C1.02857143,55.3141867 16.6858133,70.9714286 36,70.9714286 Z M36,72 C16.117749,72 0,55.882251 0,36 C0,16.117749 16.117749,0 36,0 C55.882251,0 72,16.117749 72,36 C72,55.882251 55.882251,72 36,72 Z"/>
    <rect width="21.394" height="29.623" x="21.737" y="17.897" fill="#FFF"/>
    <path fill="#1767A5" d="M43.084284,37.6763328 C42.4207502,37.6763328 41.8669439,37.1217727 41.8669439,36.4585619 L41.8669439,35.1456006 L41.8669439,25.0008127 L41.8669439,19.2336034 L39.2083938,19.2336034 L28.2359653,19.2336034 L23.0731727,19.2336034 L23.0731727,21.406402 L23.0731727,31.5828483 L23.0731727,42.3825556 L23.0731727,46.1879144 L23.4008477,46.1879144 L32.0855813,46.1879144 C32.7491151,46.1879144 33.3037828,46.7421514 33.3037828,47.4052545 C33.3037828,48.0700805 32.7496535,48.6230253 32.0865504,48.6230253 L30.541643,48.6230253 L21.8568017,48.6230253 C21.1932679,48.6230253 20.64,48.0696498 20.64,47.4052545 L20.64,44.0174848 L20.64,33.8410385 L20.64,23.0404698 L20.64,18.0182015 C20.64,17.3533756 21.1928372,16.8 21.856371,16.8 L25.730969,16.8 L36.7051204,16.8 L43.0838533,16.8 C43.7478178,16.8 44.3010857,17.3533756 44.3010857,18.0173401 L44.3010857,19.3299784 L44.3010857,29.4742279 L44.3010857,36.4581312 C44.3015165,37.1217727 43.7482486,37.6763328 43.084284,37.6763328 L43.084284,37.6763328 Z M38.7026135,31.2112393 L32.5565804,31.2112393 C31.8930466,31.2112393 31.3398864,30.6580791 31.3398864,29.9940068 C31.3398864,29.3310114 31.8930466,28.7777436 32.5565804,28.7777436 L38.7026135,28.7777436 C39.364209,28.7777436 39.918446,29.3314422 39.918446,29.9940068 C39.918446,30.6580791 39.3651781,31.2112393 38.7026135,31.2112393 L38.7026135,31.2112393 Z M32.5565804,24.8375674 C31.8926159,24.8375674 31.339348,24.2838688 31.339348,23.6199043 C31.339348,22.9568012 31.8926159,22.4031026 32.5565804,22.4031026 L38.7026135,22.4031026 C39.364209,22.4031026 39.918446,22.9568012 39.918446,23.6199043 C39.918446,24.2838688 39.3646397,24.8375674 38.7026135,24.8375674 L32.5565804,24.8375674 Z M38.7026135,37.5854495 L32.5565804,37.5854495 C31.8930466,37.5854495 31.3398864,37.0321816 31.3398864,36.3690786 C31.3398864,35.7055448 31.8930466,35.1518461 32.5565804,35.1518461 L38.7026135,35.1518461 C39.364209,35.1518461 39.918446,35.7055448 39.918446,36.3690786 C39.918446,37.0326124 39.3651781,37.5854495 38.7026135,37.5854495 L38.7026135,37.5854495 Z M27.882016,32.0221891 L27.2423875,32.0221891 C26.1372516,32.0221891 25.2147436,31.1005426 25.2147436,29.994976 C25.2147436,28.8893017 26.1372516,27.966363 27.2423875,27.966363 L27.882016,27.966363 C28.9867212,27.966363 29.9092292,28.8893017 29.9092292,29.994976 C29.9092292,31.1001119 28.9867212,32.0221891 27.882016,32.0221891 L27.882016,32.0221891 Z M27.882016,25.648948 L27.2423875,25.648948 C26.1372516,25.648948 25.2147436,24.72644 25.2147436,23.620335 C25.2147436,22.5151991 26.1372516,21.5921527 27.2423875,21.5921527 L27.882016,21.5921527 C28.9867212,21.5921527 29.9092292,22.5151991 29.9092292,23.620335 C29.9092292,24.7259016 28.9867212,25.648948 27.882016,25.648948 L27.882016,25.648948 Z M27.882016,38.3976916 L27.2423875,38.3976916 C26.1372516,38.3976916 25.2147436,37.4751836 25.2147436,36.3690786 C25.2147436,35.2630812 26.1372516,34.3404656 27.2423875,34.3404656 L27.882016,34.3404656 C28.9867212,34.3404656 29.9092292,35.2630812 29.9092292,36.3690786 C29.9092292,37.4751836 28.9867212,38.3976916 27.882016,38.3976916 L27.882016,38.3976916 Z M49.2582066,49.0270466 L45.3515194,49.0270466 L44.7079067,49.0270466 L44.7079067,53.5770234 C44.7079067,54.4623813 43.9701803,55.2 43.0847148,55.2 C42.2001107,55.2 41.4615229,54.4615198 41.4615229,53.5770234 L41.4615229,49.6706593 L41.4615229,49.0266159 L36.9107922,49.0266159 C36.0261882,49.0266159 35.2885694,48.2888894 35.2885694,47.4034239 C35.2885694,46.5188199 36.0261882,45.7812012 36.9107922,45.7812012 L40.8179101,45.7812012 L41.4620613,45.7812012 L41.4620613,41.2295014 C41.4620613,40.3458665 42.19968,39.6072786 43.0851455,39.6072786 C43.9688881,39.6072786 44.7083374,40.3448973 44.7083374,41.2295014 L44.7083374,45.1375884 L44.7083374,45.7816319 L49.2582066,45.7816319 C50.1418415,45.7816319 50.8812908,46.5193583 50.8812908,47.4038547 C50.8812908,48.2894279 50.1418415,49.0270466 49.2582066,49.0270466 L49.2582066,49.0270466 Z"/>
  </g>
</svg>
