<svg xmlns="http://www.w3.org/2000/svg" width="24" height="24" viewBox="0 0 24 24">
  <g fill="none" fill-rule="evenodd" transform="translate(4)">
    <path fill="#1466A9" d="M6.68533589,17.1767715 C7.82844252,15.6706811 8.13623561,13.8939368 7.82890521,12.6957021 C6.87041274,14.0349238 6.40293945,15.4932125 6.68533589,17.1767715 L6.68533589,17.1767715 Z M0,22.3835635 C0.0567569023,22.3482139 0.0464748548,22.2816825 0.0665762577,22.2305876 C0.14487405,22.031302 0.267127595,21.8900063 0.466804957,21.7892573 C1.883157,21.0747519 3.2826979,20.3299395 4.55309628,19.3685011 C5.01995265,19.015159 5.4585848,18.6294516 5.85999593,18.2018084 C5.92847437,18.1288451 5.95813808,18.0629826 5.93171321,17.962748 C5.39550444,15.9305293 5.87865785,14.089106 6.98644565,12.3678818 C7.13579239,12.1358708 7.30009951,11.9126071 7.47088432,11.6958783 C7.54943916,11.5962612 7.5612121,11.5171233 7.50779687,11.4027386 C7.01996512,10.3582003 6.28562129,9.54104203 5.28579499,8.96433338 C4.61113844,8.57522999 3.88748794,8.29315319 3.17247435,7.992038 C3.1370527,7.97706457 3.10055143,7.96461244 3.06518119,7.9495361 C2.43622834,7.68155799 2.29248531,7.40117921 2.44491667,6.74003276 C2.55370073,6.2678294 2.83491473,6.08619293 3.30953405,6.18328869 C3.53095794,6.22856916 3.73963209,6.31048567 3.94069753,6.41221238 C5.87115195,7.38826398 7.2463244,8.89991161 8.20332597,10.8319473 C8.31154452,10.7747807 8.38506116,10.6670852 8.47703408,10.58203 C9.52261549,9.61549755 10.7260263,8.8760879 11.9524175,8.17202791 C12.7981674,7.68644623 13.6541992,7.21871946 14.5061697,6.74394334 C14.6937142,6.63943806 14.8734444,6.72613988 14.966754,6.96231875 C15.0873624,7.26724161 14.8895358,7.71330578 14.5584025,7.86499539 C13.9224064,8.15633411 13.2925796,8.4600735 12.6737546,8.78624732 C11.4376982,9.43777166 10.2487337,10.160304 9.21888381,11.1173687 C9.01684157,11.3051283 8.83104497,11.5103827 8.63373248,11.7033907 C8.57198879,11.7638505 8.54772315,11.8242073 8.56931545,11.9090053 C9.1400205,14.1490511 8.51944752,16.123949 7.19440006,17.9237451 C6.98048206,18.2142091 6.99333462,18.417045 7.14612585,18.704679 C7.79415189,19.9245763 8.77834948,20.7667417 10.0197011,21.3334681 C10.5739034,21.5865242 11.1395189,21.8116917 11.7036948,22.0406668 C11.8880519,22.1154311 12.0716379,22.1927681 12.2281307,22.3209427 C12.3935688,22.4564754 12.4835367,22.6281296 12.457883,22.8432119 C12.4265228,23.1062503 12.3591753,23.3631655 12.2148154,23.5871496 C11.9864511,23.9414693 11.5797961,24.0573462 11.121114,23.9086924 C10.5994029,23.739611 10.15491,23.4321154 9.73272913,23.0954447 C8.56592238,22.1651881 7.50239879,21.1368067 6.73479254,19.8380803 C6.6010231,19.6117808 6.48108301,19.3768368 6.36510152,19.1407094 C6.3148223,19.0383652 6.29487513,19.0050223 6.1857312,19.0984133 C4.64337266,20.4177218 2.98030288,21.56445 1.21055686,22.5565041 C0.970008363,22.6913679 0.717532686,22.8016876 0.45431227,22.8881836 C0.272320029,22.9480773 0.1190147,22.9338757 0,22.7695282 L0,22.3835635 Z"/>
    <path fill="#F5BD3E" d="M6.51054622,4.52133045 C6.51234558,4.92849457 6.5873017,5.31749505 6.72240781,5.69548414 C7.29198183,7.28951137 9.0363826,7.98425799 10.5294387,7.21238019 C12.1360086,6.38179213 12.8272193,4.27048688 12.0229575,2.65047483 C11.3516427,1.29818362 9.82064578,0.74210846 8.46603743,1.39476482 C7.16762047,2.02040726 6.60046273,3.12864698 6.51054622,4.52133045 M13.3838893,4.40812925 C13.3112467,5.79602739 12.6346365,7.20841815 11.1173662,8.10908804 C9.06069965,9.33006587 6.62071836,8.47122897 5.791317,6.22490556 C5.14169723,4.46539876 5.49838146,2.84410034 6.69762807,1.42224184 C7.40976269,0.577966724 8.3373576,0.073140837 9.4476645,0.00768996267 C10.8447891,-0.074586726 11.9411124,0.504900496 12.7109293,1.67200484 C13.1865254,2.39319938 13.3949425,3.20083848 13.3838893,4.40812925"/>
  </g>
</svg>
