<svg xmlns="http://www.w3.org/2000/svg" width="16" height="16" viewBox="0 0 16 16">
  <path d="M11.060625,7.5726875 C11.6465313,6.87671875 12,5.9788125 12,5 C12,2.794375 10.2055938,1 8,1 L3,1 L3,15 L9,15 C11.2055938,15 13,13.2055938 13,11 C13,9.5475625 12.2219062,8.2735 11.060625,7.5726875 Z M6,3 L7.5859375,3 C8.4604375,3 9.171875,3.8971875 9.171875,5 C9.171875,6.1028125 8.4604375,7 7.5859375,7 L6,7 L6,3 Z M8.484375,13 L6,13 L6,9 L8.484375,9 C9.39765625,9 10.140625,9.8971875 10.140625,11 C10.140625,12.1028125 9.39765625,13 8.484375,13 Z"/>
</svg>
