<svg xmlns="http://www.w3.org/2000/svg" width="16" height="16" viewBox="0 0 16 16">
  <path fill="#95A0B1" fill-rule="evenodd" d="M1.25447191,12.4728989 C0.561617978,12.4728989 0,13.0436854 0,13.7476854 C0,14.4516854 0.561617978,15.0224719 1.25447191,15.0224719 C1.94732584,15.0224719 2.50876404,14.4516854 2.50876404,13.7476854 C2.50876404,13.0436854 1.94732584,12.4728989 1.25447191,12.4728989 M1.25447191,1 C0.561617978,1 0,1.57078652 0,2.27478652 C0,2.97878652 0.561617978,3.54957303 1.25447191,3.54957303 C1.94732584,3.54957303 2.50876404,2.97878652 2.50876404,2.27478652 C2.50876404,1.57078652 1.94732584,1 1.25447191,1 M1.25447191,6.82741573 C0.561617978,6.82741573 0,7.39820225 0,8.10220225 C0,8.80620225 0.561617978,9.37698876 1.25447191,9.37698876 C1.94732584,9.37698876 2.50876404,8.80620225 2.50876404,8.10220225 C2.50876404,7.39820225 1.94732584,6.82741573 1.25447191,6.82741573 M15.1011236,12.8651685 L5.13330337,12.8651685 C4.63676404,12.8651685 4.23442697,13.2676854 4.23442697,13.7640449 C4.23442697,14.2604045 4.63676404,14.6629213 5.13330337,14.6629213 L15.1011236,14.6629213 C15.5976629,14.6629213 16,14.2604045 16,13.7640449 C16,13.2676854 15.5976629,12.8651685 15.1011236,12.8651685 M15.1011236,7.11235955 L5.13330337,7.11235955 C4.63676404,7.11235955 4.23442697,7.5148764 4.23442697,8.01123596 C4.23442697,8.50759551 4.63676404,8.91011236 5.13330337,8.91011236 L15.1011236,8.91011236 C15.5976629,8.91011236 16,8.50759551 16,8.01123596 C16,7.5148764 15.5976629,7.11235955 15.1011236,7.11235955 M4.23442697,2.25842697 C4.23442697,1.76206742 4.63676404,1.35955056 5.13330337,1.35955056 L15.1011236,1.35955056 C15.5976629,1.35955056 16,1.76206742 16,2.25842697 C16,2.75478652 15.5976629,3.15730337 15.1011236,3.15730337 L5.13330337,3.15730337 C4.63676404,3.15730337 4.23442697,2.75478652 4.23442697,2.25842697"/>
</svg>
