<svg xmlns="http://www.w3.org/2000/svg" width="16" height="16" viewBox="0 0 16 16">
  <path fill-rule="evenodd" d="M11.6008065,14.3205309 L8.44551932,11.1648958 L9.31334069,10.2972484 L9.84220738,10.8259412 C9.97803273,10.9617665 10.1559448,11.0297661 10.3340308,11.0297661 C10.5121168,11.0297661 10.6902028,10.9617665 10.8260281,10.8259412 C11.0976788,10.5542905 11.0976788,10.1137711 10.8260281,9.84212042 L10.2971614,9.31325373 L11.1653306,8.44543236 L14.3206178,11.6007196 L11.6008065,14.3205309 Z M4.83493024,7.55448068 L1.67964305,4.39901957 L4.39945435,1.67938218 L7.55474155,4.83466938 L6.68657236,5.70283857 L6.15787958,5.17414579 C5.88622888,4.9024951 5.44570953,4.9024951 5.17405884,5.17414579 C4.90240814,5.4459704 4.90240814,5.88631584 5.17405884,6.15796653 L5.70275162,6.68665931 L4.83493024,7.55448068 Z M15.796262,11.1088961 L11.657154,6.9696143 C11.3856773,6.69813751 10.9451579,6.69813751 10.6733333,6.9696143 L9.31334069,8.3296069 L7.6703931,6.68665931 L9.0303857,5.3266667 C9.3020364,5.05484209 9.3020364,4.61449666 9.0303857,4.34284596 L4.89145168,0.203738023 C4.61997489,-0.0679126744 4.17945555,-0.0679126744 3.90780485,0.203738023 L0.203824979,3.90702224 C0.0733909055,4.03745632 0,4.21449883 0,4.39901957 C0,4.58354031 0.0733909055,4.76040891 0.203824979,4.8910169 L4.34310683,9.03012484 C4.47893218,9.16595019 4.65684426,9.23394982 4.83493024,9.23394982 C5.01301623,9.23394982 5.19110222,9.16595019 5.32692757,9.03012484 L6.68657236,7.67048005 L8.32951995,9.31342764 L6.96987516,10.6730724 C6.69822447,10.9447231 6.69822447,11.3852425 6.96987516,11.6568932 L11.1088092,15.796175 C11.2392433,15.9266091 11.4162858,16 11.6008065,16 C11.7853273,16 11.9621959,15.9266091 12.0928038,15.796175 L15.796262,12.0927169 C16.0679127,11.8208923 16.0679127,11.3805468 15.796262,11.1088961 L15.796262,11.1088961 Z" transform="rotate(90 8 8)"/>
</svg>
