<svg xmlns="http://www.w3.org/2000/svg" viewBox="0 0 16 16">
  <path fill-rule="evenodd" d="M8.47271157,9.59858027 C9.28006776,9.59858027 9.82644942,9.65566169 9.90493638,9.66452661 C10.3429931,9.71317555 10.6742383,10.0833399 10.6742383,10.5239912 L10.6742383,11.565511 L13.9209605,8.27035608 L10.6742383,4.97498494 L10.6742383,6.01650471 C10.6742383,6.4941292 10.2869927,6.88137477 9.80936824,6.88137477 C7.15486582,6.88137477 5.10209673,7.59078443 3.7079262,8.99014418 C3.07289536,9.62755342 2.64175764,10.338909 2.34878291,11.0111293 C4.36414636,9.81350048 6.90816163,9.59858027 8.47271157,9.59858027 M0.864882106,14.540664 C0.792665456,14.540664 0.719583937,14.5315829 0.646934852,14.5125557 C0.267040679,14.4137443 0.00130935395,14.071472 1.2048868e-05,13.678821 C-0.000636603675,13.5397931 0.0155797099,10.2455031 2.48262155,7.76916388 C4.05041474,6.19531659 6.22123859,5.32460866 8.94449818,5.17498614 L8.94449818,2.86491822 C8.94449818,2.5139972 9.15660756,2.19767097 9.48136627,2.0646972 C9.80655741,1.93150721 10.1791002,2.00783199 10.4253719,2.25799566 L15.7512417,7.6632173 C16.0829194,8.00008419 16.0829194,8.54062797 15.7512417,8.87727864 L10.4253719,14.2825003 C10.1791002,14.5324477 9.80655741,14.6092049 9.48136627,14.4757987 C9.15660756,14.342825 8.94449818,14.0264987 8.94449818,13.6755777 L8.94449818,11.338915 C7.22470407,11.2900499 3.10381447,11.4617266 1.61840014,14.1000127 C1.46250732,14.3767711 1.17147854,14.540664 0.864882106,14.540664"/>
</svg>
