<svg xmlns="http://www.w3.org/2000/svg" width="16" height="16" viewBox="0 0 16 16">
  <path fill-rule="evenodd" d="M6.11940113,9.66454797 C5.68198922,9.71341356 5.38944433,10.083365 5.38944433,10.5242364 L5.38944433,11.5655492 L2.14615284,8.27036507 L5.38944433,4.97496469 L5.38944433,6.0164937 C5.38944433,6.49412243 5.73777383,6.88137143 6.21497012,6.88137143 C10.868661,6.88137143 12.8392849,9.10951269 13.6736757,11.0150545 C10.6215222,9.19470314 6.35053971,9.63881786 6.11940113,9.66454797 M13.5346466,7.76916842 C11.9685692,6.19552339 9.71383299,5.32459151 7.11919979,5.17496767 L7.11919979,2.86487925 C7.11919979,2.51395511 6.86795281,2.1978423 6.54362366,2.06465112 C6.21886207,1.93145995 5.82685624,2.00800163 5.58079853,2.2579513 L0.250989506,7.66343712 C-0.0804748846,8.00009078 -0.0852317122,8.54063936 0.246232678,8.87729302 L5.56371719,14.2827788 C5.80977491,14.5329447 6.22015939,14.6092702 6.54470476,14.476079 C6.86925013,14.3428878 7.11919979,14.026775 7.11919979,13.6758509 L7.11919979,11.3391675 C8.84895525,11.2883559 12.9145293,11.4619801 14.3980108,14.1000734 C14.5536888,14.3768343 14.8246117,14.5407286 15.1309947,14.5407286 C15.2032119,14.5407286 15.266348,14.5316474 15.3389978,14.5128363 C15.7182466,14.414024 15.998467,14.0715325 15.9999806,13.678878 C16.0006292,13.5400651 15.9991157,10.2455296 13.5346466,7.76916842"/>
</svg>
