<svg xmlns="http://www.w3.org/2000/svg" width="16" height="16" viewBox="0 0 16 16">
  <path fill-rule="evenodd" d="M13.990625,13.615625 C14.234375,13.371875 14.375,13.0325 14.375,12.6875 C14.375,12.3425 14.234375,12.003125 13.990625,11.759375 C13.746875,11.515625 13.409375,11.375 13.0625,11.375 C12.7175,11.375 12.378125,11.515625 12.134375,11.759375 C11.890625,12.003125 11.75,12.3425 11.75,12.6875 C11.75,13.0325 11.890625,13.371875 12.134375,13.615625 C12.378125,13.859375 12.7175,14 13.0625,14 C13.4075,14 13.746875,13.859375 13.990625,13.615625 M9.115625,13.615625 C9.359375,13.371875 9.5,13.0325 9.5,12.6875 C9.5,12.3425 9.359375,12.003125 9.115625,11.759375 C8.871875,11.515625 8.5325,11.375 8.1875,11.375 C7.8425,11.375 7.503125,11.515625 7.259375,11.759375 C7.015625,12.003125 6.875,12.3425 6.875,12.6875 C6.875,13.0325 7.015625,13.371875 7.259375,13.615625 C7.503125,13.859375 7.8425,14 8.1875,14 C8.5325,14 8.871875,13.859375 9.115625,13.615625 M4.240625,13.615625 C4.484375,13.371875 4.625,13.0325 4.625,12.6875 C4.625,12.3425 4.484375,12.003125 4.240625,11.759375 C3.996875,11.515625 3.6575,11.375 3.3125,11.375 C2.9675,11.375 2.628125,11.515625 2.384375,11.759375 C2.140625,12.003125 2,12.3425 2,12.6875 C2,13.0325 2.140625,13.371875 2.384375,13.615625 C2.628125,13.859375 2.9675,14 3.3125,14 C3.6575,14 3.996875,13.859375 4.240625,13.615625 M13.990625,8.928125 C14.234375,8.684375 14.375,8.345 14.375,8 C14.375,7.655 14.234375,7.315625 13.990625,7.071875 C13.746875,6.828125 13.4075,6.6875 13.0625,6.6875 C12.7175,6.6875 12.378125,6.828125 12.134375,7.071875 C11.890625,7.315625 11.75,7.655 11.75,8 C11.75,8.345 11.890625,8.684375 12.134375,8.928125 C12.378125,9.171875 12.7175,9.3125 13.0625,9.3125 C13.4075,9.3125 13.746875,9.171875 13.990625,8.928125 M9.115625,8.928125 C9.359375,8.684375 9.5,8.345 9.5,8 C9.5,7.655 9.359375,7.315625 9.115625,7.071875 C8.871875,6.828125 8.5325,6.6875 8.1875,6.6875 C7.8425,6.6875 7.503125,6.828125 7.259375,7.071875 C7.015625,7.315625 6.875,7.655 6.875,8 C6.875,8.345 7.015625,8.684375 7.259375,8.928125 C7.503125,9.171875 7.8425,9.3125 8.1875,9.3125 C8.5325,9.3125 8.871875,9.171875 9.115625,8.928125 M13.990625,4.240625 C14.234375,3.996875 14.375,3.6575 14.375,3.3125 C14.375,2.9675 14.234375,2.628125 13.990625,2.384375 C13.746875,2.140625 13.4075,2 13.0625,2 C12.7175,2 12.378125,2.140625 12.134375,2.384375 C11.890625,2.628125 11.75,2.9675 11.75,3.3125 C11.75,3.6575 11.890625,3.996875 12.134375,4.240625 C12.378125,4.484375 12.7175,4.625 13.0625,4.625 C13.4075,4.625 13.746875,4.484375 13.990625,4.240625"/>
</svg>
