<svg xmlns="http://www.w3.org/2000/svg" width="16" height="16" viewBox="0 0 16 16">
  <path fill-rule="evenodd" d="M4.27272727,13.7272727 L4.27272727,2.27272727 L8.09090909,2.27272727 L8.09090909,6.07818182 C8.09090909,6.42961364 8.36088636,6.72727273 8.71231818,6.72727273 L12.5454545,6.72727273 L12.5454545,13.7272727 L4.27272727,13.7272727 Z M12.5440227,5.45454545 L9.36363636,5.45454545 L9.36363636,2.27272727 L9.39195455,2.27272727 L12.5440227,5.45454545 Z M13.633,4.73179545 L10.1077045,1.18756818 C9.98838636,1.06745455 9.82595455,1 9.65652273,1 L3.63636364,1 C3.28493182,1 3,1.28493182 3,1.63636364 L3,14.3636364 C3,14.7150682 3.28493182,15 3.63636364,15 L13.1818182,15 C13.53325,15 13.8181818,14.7150682 13.8181818,14.3636364 L13.8181818,5.18059091 C13.8181818,5.01243182 13.7516818,4.85111364 13.633,4.73179545 L13.633,4.73179545 Z"/>
</svg>
