<svg version="1.1" id="Layer_1" xmlns="http://www.w3.org/2000/svg" xmlns:xlink="http://www.w3.org/1999/xlink" x="0px" y="0px"
	 width="16px" height="16px" viewBox="0 0 16 16" style="enable-background:new 0 0 16 16;" xml:space="preserve">
<path class="st0" d="M10.5,10.3c0,0.4-0.3,0.6-0.6,0.6H6.5c-0.4,0-0.6-0.3-0.6-0.6s0.3-0.6,0.6-0.6h3.3C10.2,9.6,10.5,9.9,10.5,10.3
	L10.5,10.3z M3.5,14.5V1.5h4.4v4.3c0,0.4,0.3,0.7,0.7,0.7h4.4v8H3.5z M12.9,5.1H9.3V1.5h0L12.9,5.1z M14.2,4.3l-4-4.1
	C10,0.1,9.8,0,9.6,0H2.7C2.3,0,2,0.3,2,0.7v14.5C2,15.7,2.3,16,2.7,16h10.9c0.4,0,0.7-0.3,0.7-0.7V4.8C14.4,4.6,14.3,4.4,14.2,4.3
	L14.2,4.3z"/>
</svg>
