<svg xmlns="http://www.w3.org/2000/svg" width="24" height="24" viewBox="0 0 24 24">
  <path fill="#1767A5" d="M22.5124717,3.27272727 L1.48752834,3.27272727 C0.665989125,3.27272727 0,2.54010232 0,1.63636364 C0,0.732624955 0.665989125,0 1.48752834,0 L22.5124717,0 C23.3340109,0 24,0.732624955 24,1.63636364 C24,2.54010232 23.3340109,3.27272727 22.5124717,3.27272727 Z M22.5124717,13.5454545 L1.48752834,13.5454545 C0.665989125,13.5454545 0,12.8128296 0,11.9090909 C0,11.0053522 0.665989125,10.2727273 1.48752834,10.2727273 L22.5124717,10.2727273 C23.3340109,10.2727273 24,11.0053522 24,11.9090909 C24,12.8128296 23.3340109,13.5454545 22.5124717,13.5454545 Z M22.5124717,24 L1.48752834,24 C0.665989125,24 0,23.267375 0,22.3636364 C0,21.4598977 0.665989125,20.7272727 1.48752834,20.7272727 L22.5124717,20.7272727 C23.3340109,20.7272727 24,21.4598977 24,22.3636364 C24,23.267375 23.3340109,24 22.5124717,24 Z"/>
</svg>
