<svg version="1.1" id="Layer_1" xmlns="http://www.w3.org/2000/svg" xmlns:xlink="http://www.w3.org/1999/xlink" x="0px" y="0px"
	 viewBox="0 0 132 56">
<path fill="#0371AF" class="st0" d="M18.1,29.7c-2.3,3.1-3.3,6.5-2.7,10.4C17.6,36.9,18.7,33.6,18.1,29.7L18.1,29.7z M18.9,25.4
	c2.8-2.8,6.2-4.8,9.6-6.7c1.6-0.9,3.1-1.7,4.7-2.6c0.6-0.3,1.1-0.1,1.3,0.6c0.2,0.7-0.3,1.6-1,1.9c-2.9,1.3-5.7,2.8-8.4,4.5
	c-1.9,1.2-3.6,2.6-5.1,4.3c-0.1,0.1-0.2,0.4-0.2,0.6c1.1,4.5,0.1,8.6-2.3,12.5c-0.4,0.6-0.7,1.1-1.2,1.7c-0.3,0.4-0.3,0.6-0.1,1
	c1.1,2.4,2.8,4.3,5.1,5.6c1.7,0.9,3.5,1.7,5.3,2.5c0.5,0.2,1,0.4,1.4,0.7c0.5,0.3,0.7,0.8,0.6,1.4c-0.2,0.8-0.3,1.6-1.1,2.1
	c-0.7,0.5-1.4,0.5-2.1,0.2c-1.2-0.4-2.2-1.1-3.2-1.9c-2.6-2.1-4.9-4.3-6.6-7.2c-0.4-0.7-0.8-1.4-1.2-2.1c-1,0.8-2,1.7-3.1,2.4
	c-2.6,1.9-5.3,3.8-8.1,5.4c-0.8,0.4-1.5,0.8-2.4,1.1c-0.6,0.2-1-0.1-0.9-0.7c0-0.8,0.3-1.5,1.1-1.9c3.1-1.5,6.1-3.1,8.9-5.2
	c1.2-0.9,2.3-2,3.5-3c0.1-0.1,0.2-0.4,0.2-0.6c-1.2-4.8,0-9.1,2.6-13.1c0.3-0.5,0.6-0.9,1-1.3c0.2-0.3,0.2-0.5,0.1-0.8
	c-1.1-2.3-2.7-4.2-4.9-5.4c-1.7-0.9-3.5-1.7-5.3-2.5c-1.7-0.7-1.8-1.9-1.2-3.5c0.3-0.7,1.1-0.8,2-0.6c1.3,0.4,2.5,1.2,3.6,1.9
	c3.1,2.1,5.5,4.9,7.1,8.3C18.7,25.1,18.8,25.3,18.9,25.4L18.9,25.4z"/>
<defs>
	<filter id="Adobe_OpacityMaskFilter" filterUnits="userSpaceOnUse" x="12.6" y="0.4" width="18.3" height="20">
		<feColorMatrix  type="matrix" values="1 0 0 0 0  0 1 0 0 0  0 0 1 0 0  0 0 0 1 0"/>
	</filter>
</defs>
<mask maskUnits="userSpaceOnUse" x="12.6" y="0.4" width="18.3" height="20" id="mobile-logo-b_1_">
	<g class="st1">
		<polygon id="mobile-logo-a_1_" fill="#FFFFFF" class="st2" points="30.8,0.4 12.6,0.4 12.6,20.4 30.8,20.4 		"/>
	</g>
</mask>
<path fill="#F8C034" class="st3" d="M21.7,3c-0.4,0.1-1.2,0.2-2,0.5C16.3,5,14.3,9,15.2,12.7c0.4,1.7,1.3,3.2,2.9,4.1c2.5,1.5,5.7,1.1,7.9-1
	c2.3-2.3,3-5.1,2.1-8.3C27.3,4.9,24.8,3,21.7,3 M21.1,20.4c-3.3,0-6.4-2-7.7-5.3c-1.7-4.4-0.8-8.4,2.4-11.8C17.9,1,20.6,0,23.6,0.5
	c2.8,0.5,4.9,2.1,6.1,4.6c1.9,4.1,1.3,8-1.4,11.6c-1.5,2-3.5,3.1-5.9,3.5C22,20.4,21.5,20.4,21.1,20.4"/>
<path fill="#0371AF" class="st0" d="M80.9,40.1h-1.3v-4.2h-4.5v4.2h-1.3v-9.3h1.3v3.8h4.5v-3.8h1.3V40.1z M99.8,36.7c-0.2-0.6-0.2-1.1-0.4-1.5
	c-0.6-1.3-2.2-1.4-3-0.3c-0.7,1-0.7,2.6,0,3.6c0.7,1,2.2,1,2.8-0.1C99.5,37.9,99.6,37.2,99.8,36.7L99.8,36.7z M94.5,33.3h1.2V34
	c0.5-0.3,1-0.6,1.5-0.8c1.6-0.5,3,0.3,3.5,1.9c0.4,1.2,0.3,2.4-0.2,3.6c-0.9,2-3.5,2-4.7,0.6v3.6h-1.3V33.3z M84.2,36h3.4
	c0-1-0.6-1.8-1.5-1.8C85.1,34.1,84.3,34.8,84.2,36 M89,37h-4.9c0,0.8,0.3,1.4,0.9,1.8c1.2,0.8,2.3,0.3,3.4-0.2c0,0.3,0,0.7,0,1
	c0,0.1-0.1,0.3-0.2,0.3c-1.4,0.5-2.7,0.6-4-0.2c-0.8-0.4-1.2-1.2-1.3-2.1c-0.2-1.4-0.2-2.7,0.9-3.8c1-0.9,2.1-1,3.3-0.6
	c1.1,0.4,1.6,1.3,1.7,2.3C89,36,89,36.5,89,37 M106.2,33.3c0,0.4,0,0.7-0.1,1.1c-0.3-0.1-0.5-0.2-0.7-0.2c-0.4,0-0.9-0.1-1.3,0
	c-0.6,0.2-0.7,0.9-0.2,1.3c0.3,0.2,0.6,0.4,0.9,0.5c0.2,0.1,0.4,0.2,0.6,0.3c0.9,0.5,1.3,1.2,1.2,2.1c-0.2,1-0.9,1.7-1.9,1.8
	c-0.6,0-1.2,0-1.8-0.1c-0.4,0-0.7-0.3-0.6-0.8c0-0.2,0-0.3,0.1-0.5c0.4,0.1,0.7,0.3,1,0.3c0.4,0,0.8,0,1.2,0
	c0.4-0.1,0.6-0.3,0.6-0.7c0.1-0.4-0.1-0.6-0.4-0.8c-0.5-0.3-1-0.5-1.5-0.8c-0.7-0.4-1.1-1-1-1.8c0.1-0.9,0.6-1.4,1.5-1.7
	c0.4-0.1,0.8-0.1,1.2-0.1C105.3,33.1,105.8,33.2,106.2,33.3 M90.9,40.1h1.2V30h-1.2V40.1z"/>
<path fill="#5A7384" class="st4" d="M130.7,36.7c-0.2-0.5-0.2-1-0.4-1.5c-0.3-0.7-0.8-1-1.6-1c-0.8,0-1.2,0.4-1.6,1c-0.5,0.9-0.5,1.9-0.1,2.8
	c0.3,0.6,0.8,1,1.5,1c0.8,0,1.3-0.3,1.7-1C130.5,37.7,130.6,37.2,130.7,36.7 M130.6,39.1c-0.6,0.6-1.3,0.9-2.1,1
	c-1.4,0.1-2.5-0.7-2.9-2c-0.4-1.3-0.3-2.5,0.4-3.6c0.9-1.7,3.5-1.9,4.7-0.4c0-0.3,0-0.6,0.1-0.8h1.2v0.5c0,2,0,4.1,0,6.1
	c0,2.1-1.2,3.3-3.3,3.2c-0.8,0-1.5-0.2-2.3-0.3c-0.3,0-0.4-0.2-0.4-0.5c0.1-0.2,0.1-0.5,0.1-0.6c0.8,0.2,1.6,0.4,2.4,0.5
	c1.3,0.1,2.1-0.7,2.2-2.1C130.7,39.7,130.6,39.5,130.6,39.1 M58.4,36.7c0.1,0.5,0.2,1,0.5,1.5c0.7,1.3,2.3,1.3,3,0.1
	c0.7-1.1,0.6-2.2,0-3.4c-0.4-0.7-1-0.9-1.8-0.8c-0.7,0.1-1.2,0.5-1.4,1.1C58.6,35.7,58.5,36.2,58.4,36.7 M62.4,34.1v-4h1.3v10h-1.1
	c0-0.2,0-0.5-0.1-0.8c-0.1,0.1-0.2,0.2-0.3,0.3c-1.2,1.1-3.7,1.1-4.5-0.9c-0.5-1.2-0.6-2.4-0.1-3.6C58.2,32.9,60.6,32.5,62.4,34.1
	 M32.9,32.2c-2.3-0.7-3.7-0.5-4.8,0.9c-0.9,1.2-1,3.1-0.1,4.4c1.3,1.8,3,1.8,4.9,1.2c0,0.1,0,0.2,0,0.3c0.1,1.1,0.1,1.1-1,1.2
	c-1.6,0.2-3.1,0.1-4.4-1c-1.6-1.3-1.9-3.1-1.5-5c0.4-1.9,1.7-3.1,3.5-3.5c1-0.2,2-0.2,2.9,0.1c0.3,0.1,0.5,0.3,0.4,0.6
	C32.9,31.7,33,31.9,32.9,32.2 M54.2,36.9c-0.8-0.1-1.6-0.1-2.3,0.2c-0.6,0.2-0.8,0.7-0.7,1.2c0.1,0.5,0.6,0.9,1.1,0.9
	C53.4,39.3,54.5,38.7,54.2,36.9 M55.6,40.1h-1.1c0-0.2,0-0.4,0-0.6c-0.5,0.2-0.9,0.6-1.4,0.7c-0.7,0.2-1.5,0.2-2.2-0.2
	c-0.8-0.4-1-1-1.1-1.8c0-0.8,0.4-1.5,1.1-1.8c0.6-0.3,1.3-0.4,2-0.5c0.4-0.1,0.9,0,1.4,0c0.2-0.9-0.3-1.6-1.2-1.7
	c-0.7-0.1-1.1,0-2.3,0.6c-0.3-0.8-0.2-1,0.6-1.3c0.8-0.3,1.6-0.4,2.5-0.2c1,0.2,1.6,0.9,1.7,2c0.1,0.9,0.1,1.9,0.1,2.8
	C55.6,38.7,55.6,39.3,55.6,40.1 M70,36.8c-0.8,0.1-1.5,0.2-2.3,0.3c-0.6,0.2-0.9,0.7-0.8,1.2c0.1,0.5,0.6,0.9,1.2,0.9
	C69.4,39.3,70.1,38.4,70,36.8 M66.4,34.6c-0.2-0.9-0.2-1,0.8-1.2c0.7-0.2,1.4-0.2,2.1-0.2c1.2,0.1,1.9,0.8,2,2
	c0.1,0.9,0.1,1.8,0.1,2.7c0,0.7,0,1.4,0,2.2h-1.1c0-0.2,0-0.4-0.1-0.7c-0.1,0.1-0.2,0.1-0.3,0.2c-0.9,0.7-2.3,0.9-3.3,0.3
	c-0.7-0.4-1-1-1-1.8c0-0.8,0.4-1.4,1-1.8c0.6-0.4,1.3-0.5,2-0.5c0.5,0,0.9,0,1.4,0c0.1-1.1-0.4-1.8-1.5-1.7
	C67.8,34.2,67.1,34.4,66.4,34.6 M38.7,36.8c-0.8,0.1-1.5,0.1-2.3,0.3c-0.7,0.2-0.9,0.7-0.8,1.3c0.1,0.5,0.6,0.9,1.2,0.9
	C38.1,39.3,38.8,38.4,38.7,36.8 M35.1,34.8c-0.2-1.1-0.2-1.2,0.8-1.4c0.6-0.2,1.3-0.2,2-0.2c1.3,0.1,2,0.9,2.1,2.2c0,0.7,0,1.4,0,2
	c0,0.4,0,0.9,0,1.3v1.4h-1.1c0-0.2,0-0.5-0.1-0.8c-0.9,1-2,1.1-3.1,0.8c-0.8-0.2-1.4-0.9-1.5-1.7c-0.1-0.9,0.2-1.7,1-2.1
	c0.6-0.3,1.3-0.4,1.9-0.5c0.5-0.1,1,0,1.5,0c0-1.2-0.5-1.7-1.6-1.7C36.4,34.1,36,34.3,35.1,34.8 M113.4,37c0.1,0.3,0.2,0.8,0.4,1.3
	c0.7,1.3,2.5,1.3,3.3,0.1c0.7-1,0.6-2.5-0.1-3.5c-0.7-0.9-2.1-1-2.9-0.2C113.6,35.3,113.4,35.9,113.4,37 M115.5,40.3
	c-2,0-3.5-1.5-3.5-3.6c0-2.1,1.4-3.6,3.5-3.6c2,0,3.4,1.5,3.5,3.6C119,38.7,117.5,40.3,115.5,40.3 M43.3,40.1h-1.2v-6.8
	c1.2-0.1,1.2-0.1,1.2,0.8c0.4-0.3,0.9-0.6,1.3-0.8c1.5-0.5,3.2,0,3.4,2.1c0.1,1.6,0,3.1,0,4.7h-1.2c0-1.1,0-2.1,0-3.1
	c0-0.5,0-1-0.1-1.6c-0.1-0.6-0.3-1.1-0.9-1.2c-0.7-0.2-1.3,0-1.8,0.6c-0.5,0.6-0.6,1.3-0.6,2.1C43.3,37.9,43.3,39,43.3,40.1
	 M122.1,40.1h-1.2v-6.8h1.1c0,0.3,0,0.5,0,0.8c0.3-0.3,0.7-0.5,1-0.8c0.1-0.1,0.3-0.1,0.4-0.2c1.2-0.1,1.3,0,1.1,1.1
	c-0.1,0-0.2,0-0.3,0c-0.9-0.1-1.6,0.2-1.9,1c-0.2,0.6-0.3,1.2-0.3,1.8C122.1,38.1,122.1,39.1,122.1,40.1 M108.5,40.1h1.5v-1.5h-1.5
	V40.1z"/>
</svg>
