<svg xmlns="http://www.w3.org/2000/svg" xmlns:xlink="http://www.w3.org/1999/xlink" width="132" height="56" viewBox="0 0 132 56">
  <defs>
    <polygon id="mobile-logo-a" points="18.279 .245 .011 .245 .011 20.263 18.279 20.263 18.279 .245"/>
    <polygon id="mobile-logo-c" points="6.628 10.186 6.628 .209 .134 .209 .134 10.186 6.628 10.186"/>
    <polygon id="mobile-logo-e" points="0 55.755 131.922 55.755 131.922 .394 0 .394"/>
  </defs>
  <g fill="none" fill-rule="evenodd">
    <path fill="#0371AF" d="M18.0540133,29.676293 C15.7916549,32.8233352 14.7598466,36.1770254 15.3827807,40.0544338 C17.6203946,36.925138 18.6851956,33.5789408 18.0540133,29.676293 L18.0540133,29.676293 Z M18.8768677,25.4175324 C21.7201338,22.6033352 25.1077799,20.6169127 28.5201706,18.6699268 C30.0743637,17.7833915 31.6470171,16.9319549 33.2078873,16.0580394 C33.8033275,15.7251944 34.341816,15.9677296 34.4875338,16.6495887 C34.639536,17.3629972 34.1697824,18.2459831 33.4474774,18.5823775 C30.5594354,19.9283493 27.7098849,21.3468845 25.0402234,23.1029972 C23.1702427,24.3334197 21.4149511,25.704631 19.918888,27.3842366 C19.7975219,27.5198986 19.704828,27.7817577 19.7464617,27.9481803 C20.8674289,32.4617014 19.8788254,36.5863775 17.4801755,40.4515606 C17.1243254,41.0253634 16.7527644,41.5979831 16.3211096,42.1138141 C16.0257461,42.4671662 16.0434208,42.7578141 16.2221314,43.1257577 C17.3658793,45.4809127 18.9746675,47.4409127 21.2873006,48.6827718 C23.008814,49.6067718 24.8348044,50.3343775 26.6105201,51.156631 C27.0928424,51.3798423 27.5838056,51.5959549 28.0327423,51.8763493 C28.5413802,52.1942085 28.7597607,52.6934761 28.6360379,53.2976451 C28.4753948,54.0859831 28.3053251,54.8581521 27.5720225,55.3747718 C26.88978,55.8551099 26.2028243,55.832631 25.4714855,55.5691944 C24.2872822,55.1432789 23.2613655,54.4424901 22.2971138,53.6600676 C19.7456761,51.5916169 17.3906238,49.3307155 15.6581129,46.4952225 C15.2331351,45.7991662 14.8603958,45.0699831 14.4656614,44.3593352 C13.4534917,45.1693634 12.453105,46.0204056 11.4016582,46.8020394 C8.79012673,48.7419268 6.13421216,50.620293 3.28426893,52.1961803 C2.53368437,52.6110535 1.73478904,52.9482366 0.932358771,53.2534761 C0.338489674,53.4790535 -0.0189315413,53.1852507 0.00109975759,52.5444056 C0.0266298444,51.7260958 0.306282488,51.0742085 1.10831999,50.6743211 C4.18607015,49.140631 7.23200589,47.5375324 9.98257817,45.4525183 C11.2052729,44.5257577 12.3136715,43.4459831 13.4527061,42.4123493 C13.5787855,42.2979831 13.6506625,42.0089127 13.607065,41.836969 C12.3953678,37.0678986 13.5595397,32.7752225 16.1828543,28.7731944 C16.4845021,28.312969 16.7998969,27.8578704 17.1514266,27.436293 C17.3701998,27.1744338 17.3713781,26.9583211 17.2350867,26.6720113 C16.1361146,24.3645746 14.5689601,22.4530817 12.3152426,21.2368563 C10.6090472,20.3164056 8.83018933,19.5170254 7.03562061,18.7791662 C5.32039154,18.0736451 5.20295314,16.9004056 5.85652337,15.3189972 C6.12753506,14.665138 6.94764,14.472293 7.89068213,14.7530817 C9.23277916,15.1521803 10.4004861,15.9034479 11.5348075,16.6870535 C14.6380877,18.8300394 16.9884268,21.6367437 18.6616294,25.0204056 C18.7229016,25.144631 18.7936003,25.2641239 18.8768677,25.4175324 L18.8768677,25.4175324 Z"/>
    <g transform="translate(12.569 .15)">
      <mask id="mobile-logo-b" fill="#fff">
        <use xlink:href="#mobile-logo-a"/>
      </mask>
      <path fill="#F8C034" d="M9.14456289,2.84779718 C8.74786462,2.9491493 7.92618859,3.0599662 7.18463776,3.36520563 C3.68937249,4.80267042 1.73337507,8.80943099 2.65245819,12.5988958 C3.0727227,14.3313465 3.97373838,15.7688113 5.51143515,16.7148958 C8.01456197,18.2548958 11.219177,17.8542197 13.372738,15.6662761 C15.653164,13.3485859 16.3872521,10.5580507 15.4909497,7.41100845 C14.7254399,4.72182535 12.2034601,2.82610704 9.14456289,2.84779718 M8.53930345,20.2626141 C5.23610298,20.3087549 2.13164442,18.2525296 0.851605143,14.9189521 C-0.835737212,10.5241352 0.0456399399,6.52250141 3.22786707,3.12621972 C5.32211973,0.890557746 8.000815,-0.131639437 11.0809218,0.370783099 C13.8935518,0.82903662 15.9689515,2.45303662 17.1625812,5.01681127 C19.0859787,9.14819155 18.4720783,13.0520225 15.7262193,16.6265577 C14.2274068,18.5774873 12.2356672,19.7613746 9.80441744,20.1620507 C9.38847341,20.2306704 8.96113903,20.2310648 8.53930345,20.2626141" mask="url(#mobile-logo-b)"/>
    </g>
    <g transform="translate(125.294 32.881)">
      <mask id="mobile-logo-d" fill="#fff">
        <use xlink:href="#mobile-logo-c"/>
      </mask>
      <path fill="#5A7384" d="M5.44969161,3.8252338 C5.29729663,3.29126197 5.20617386,2.77621972 5.00428979,2.30929014 C4.71246126,1.63531831 4.16808125,1.27644507 3.40964129,1.27092394 C2.65316518,1.26579718 2.17319955,1.68067042 1.85859032,2.30731831 C1.39669214,3.23013521 1.35348737,4.18489577 1.80517352,5.12545915 C2.11153457,5.76354366 2.60760379,6.16027606 3.35190402,6.17486761 C4.1020958,6.18945915 4.67122035,5.84990986 5.00350425,5.20551549 C5.21992083,4.78630423 5.30279542,4.29689577 5.44969161,3.8252338 M5.34796404,6.26202254 C4.70421308,6.87762817 4.02550554,7.1840507 3.22975237,7.22388169 C1.87076621,7.29289577 0.765902605,6.55543099 0.36017061,5.2544169 C-0.0341710393,3.99086761 0.0836601307,2.76754366 0.733695419,1.60652958 C1.66573997,-0.0588788732 4.28237749,-0.297470423 5.42101936,1.22399437 C5.44026512,0.924670423 5.45636871,0.670698592 5.47404339,0.39188169 L6.62800331,0.39188169 L6.62800331,0.897064789 C6.62800331,2.92962817 6.6295744,4.96258592 6.62761054,6.9951493 C6.62603946,9.0600507 5.42259044,10.2573465 3.34994016,10.1832056 C2.59110743,10.1563887 1.83816625,9.98168451 1.08129737,9.88151549 C0.745871306,9.83734648 0.633931695,9.66974085 0.708558102,9.33689577 C0.760796588,9.09909296 0.768259229,8.85143099 0.785933904,8.69644507 C1.61782196,8.86365634 2.38804505,9.11052958 3.16965847,9.15588169 C4.47601338,9.23120563 5.28826291,8.40619155 5.34639295,7.09452958 C5.35739053,6.8504169 5.34796404,6.60512113 5.34796404,6.26202254" mask="url(#mobile-logo-d)"/>
    </g>
    <polygon fill="#0371AF" points="80.919 40.101 79.596 40.101 79.596 35.881 75.135 35.881 75.135 40.085 73.822 40.085 73.822 30.774 75.125 30.774 75.125 34.621 79.588 34.621 79.588 30.776 80.919 30.776"/>
    <path fill="#5A7384" d="M58.4246218,36.7182535 C58.5660192,37.188338 58.653607,37.7613521 58.9030164,38.2507606 C59.5546227,39.5296901 61.1681242,39.5868732 61.9057473,38.3588169 C62.5659947,37.2593239 62.5506766,36.1089577 61.8982847,35.0007887 C61.5090491,34.3386479 60.8904354,34.0870423 60.1347449,34.164338 C59.4293289,34.2361127 58.9843199,34.6580845 58.7549419,35.2878873 C58.600583,35.7090704 58.5471662,36.1677183 58.4246218,36.7182535 M62.3625395,34.0890141 L62.3625395,30.064507 L63.6162632,30.064507 L63.6162632,40.0861408 L62.4666237,40.0861408 C62.443843,39.8510986 62.4210623,39.6054085 62.390819,39.2887324 C62.2604192,39.3979718 62.1590844,39.4752676 62.0659977,39.5616338 C60.891221,40.6437746 58.4049833,40.6457465 57.5558133,38.623831 C57.0534598,37.4277183 56.9819755,36.1988732 57.4183436,34.9830423 C58.16068,32.9153803 60.6096045,32.4500282 62.3625395,34.0890141"/>
    <path fill="#0371AF" d="M99.7633312,36.694 C99.6101507,36.0933803 99.5524134,35.6150141 99.3685968,35.1910704 C98.8159686,33.9180563 97.1521925,33.7662254 96.3368008,34.8905634 C95.6254933,35.8717465 95.6278499,37.5146761 96.341514,38.4946761 C97.0697106,39.4947887 98.522569,39.5010986 99.1466814,38.4386761 C99.4679677,37.8916901 99.583835,37.2224507 99.7633312,36.694 L99.7633312,36.694 Z M94.5453742,33.2764225 L95.7350763,33.2764225 L95.7350763,33.9957465 C96.2429286,33.7299437 96.7150388,33.3789577 97.2444935,33.2247606 C98.8371782,32.7609859 100.26922,33.5292113 100.790426,35.105493 C101.191838,36.318169 101.089717,37.5253239 100.57401,38.6961972 C99.7118782,40.6561972 97.0327902,40.7058873 95.83484,39.3102254 L95.83484,42.9048732 L94.5453742,42.9048732 L94.5453742,33.2764225 Z"/>
    <path fill="#5A7384" d="M32.9309841,32.2384901 C30.6281702,31.5022085 29.1902372,31.7743211 28.1572506,33.1179268 C27.2428807,34.3077296 27.1458664,36.2578704 28.0205664,37.5198423 C29.2923575,39.3532507 31.0539335,39.3185465 32.9486587,38.6844056 C32.9639768,38.7932507 32.9800804,38.885138 32.9887213,38.9774197 C33.0931983,40.0473352 33.0904489,40.0942648 32.0248624,40.2125746 C30.447103,40.3872789 28.9019436,40.2808 27.6203332,39.1864338 C26.0637835,37.8570254 25.7507453,36.0859268 26.1325183,34.200462 C26.5201829,32.2909408 27.7943306,31.1457014 29.6753088,30.7118986 C30.6509509,30.4871099 31.6328774,30.5174761 32.6034134,30.8085183 C32.9463021,30.9110535 33.1081236,31.0668282 33.0075743,31.4513352 C32.9455166,31.6907155 32.9561214,31.9498141 32.9309841,32.2384901"/>
    <path fill="#0371AF" d="M84.1756421,35.9822873 L87.616705,35.9822873 C87.6379146,34.9553577 87.0208721,34.2143437 86.1108227,34.1512451 C85.0542698,34.0782873 84.3280371,34.7526535 84.1756421,35.9822873 M89.0416766,36.9887099 L84.1693578,36.9887099 C84.1673939,37.7924282 84.4674706,38.4044845 85.0856915,38.8256676 C86.2478996,39.6179493 87.3562981,39.1478648 88.4953328,38.5965408 C88.4953328,38.9455549 88.513793,39.2713014 88.4855135,39.5923155 C88.4756943,39.7031324 88.3720028,39.8616676 88.2734174,39.8995268 C86.9085397,40.4208789 85.5420909,40.4800338 84.2361288,39.7433577 C83.4478382,39.298907 83.0558532,38.5354141 82.9014944,37.6658366 C82.6548345,36.2760901 82.7428151,34.9387944 83.8449293,33.9035831 C84.7950413,33.0127099 85.9588205,32.8979493 87.1457731,33.2812732 C88.2357114,33.6334423 88.6983952,34.5416676 88.8829973,35.6096113 C88.9576237,36.0398648 88.9843321,36.4787944 89.0416766,36.9887099"/>
    <path fill="#5A7384" d="M54.2391408 36.8680732C53.430819 36.8175944 52.6547043 36.7915662 51.9119752 37.1070592 51.3408868 37.3507775 51.0741956 37.7912845 51.1696388 38.3181577 51.2568339 38.8028338 51.7277658 39.1790592 52.2913916 39.2204676 53.3542287 39.2977634 54.5074031 38.6793972 54.2391408 36.8680732M55.5674909 40.0991155L54.4370972 40.0991155C54.4198153 39.8684113 54.4033189 39.6538761 54.3891792 39.4657634 53.9296376 39.7039606 53.4916984 40.0174817 53.0034846 40.1637915 52.2858928 40.3791155 51.5470913 40.3183831 50.8514947 39.9859324 50.0930547 39.6235099 49.8090816 38.9724113 49.7894431 38.181707 49.769019 37.361031 50.1484354 36.7087493 50.8750609 36.3936507 51.492889 36.1262704 52.184558 36.0052 52.8554101 35.8943831 53.2968842 35.8214254 53.7599607 35.8805803 54.2104686 35.8805803 54.4076394 34.9676225 53.9151051 34.2680169 53.019981 34.1725803 52.2776446 34.0933127 51.9406475 34.1729746 50.6884949 34.7231155 50.4174832 33.8779887 50.4944662 33.7068338 51.2839351 33.3885803 52.0950063 33.0616507 52.9272871 33.0111718 53.7764571 33.1961296 54.7583835 33.4102704 55.4257007 34.1347211 55.5007199 35.1790028 55.5674909 36.1045803 55.5537439 37.0364676 55.5659198 37.9652 55.574168 38.6573127 55.5674909 39.3494254 55.5674909 40.0991155M69.9707018 36.7517746C69.1859462 36.8645634 68.4220074 36.9107042 67.693418 37.0984225 67.0661634 37.2601127 66.8108626 37.7581972 66.8996287 38.3126761 66.9801467 38.8186479 67.4605051 39.1940845 68.0618368 39.220507 69.4161097 39.2804507 70.141557 38.4144225 69.9707018 36.7517746M66.3693884 34.5981408C66.2016754 33.7037183 66.2154224 33.5929014 67.1710332 33.3535211 67.8395287 33.1855211 68.5641904 33.1129577 69.2487895 33.1713239 70.4326 33.2718873 71.12584 34.0105352 71.2283531 35.1991549 71.3053362 36.0916056 71.288447 36.9919437 71.3010157 37.8891268 71.3112277 38.6123944 71.3033723 39.3360563 71.3033723 40.0920563L70.1729786 40.0920563C70.1501979 39.8712113 70.1282028 39.6562817 70.1018871 39.3940282 69.9895548 39.4764507 69.893326 39.5407324 69.8037743 39.6140845 68.8894044 40.3625915 67.5260978 40.5053521 66.4919329 39.9425915 65.8014422 39.5671549 65.5198257 38.9460282 65.5096137 38.1833239 65.4986161 37.3835493 65.8741048 36.796338 66.5422075 36.3976338 67.1639633 36.0265352 67.8489552 35.8770704 68.5692964 35.8794366 69.0374789 35.8810141 69.5056614 35.879831 69.9714873 35.879831 70.074786 34.7909859 69.5386541 34.1241127 68.4824941 34.1765634 67.7849336 34.2108732 67.0971923 34.4455211 66.3693884 34.5981408M38.6675553 36.7556C37.8824069 36.8648394 37.1176827 36.9034873 36.3914499 37.0923887 35.7347375 37.2635437 35.4786511 37.7730648 35.5890196 38.3425296 35.6864267 38.8441634 36.1711056 39.2026423 36.7759723 39.2207831 38.1121777 39.2610085 38.810131 38.4233746 38.6675553 36.7556M35.0780251 34.7620789C34.857288 33.7083324 34.871035 33.6069803 35.8796698 33.3455155 36.5163509 33.1802761 37.211162 33.1014028 37.863554 33.1617408 39.1667667 33.2816282 39.8411538 34.0403887 39.9354187 35.3662479 39.9833367 36.0406141 39.9589849 36.7197127 39.964091 37.3972338 39.9676259 37.8381352 39.9648765 38.279431 39.9648765 38.7203324L39.9648765 40.0812901 38.8552996 40.0812901C38.8372322 39.8616282 38.8172009 39.6218535 38.791278 39.3130648 37.9067587 40.3112056 36.8305674 40.4389803 35.6699303 40.1404451 34.8290086 39.923938 34.292484 39.2862479 34.20686 38.4852901 34.1063107 37.5526141 34.4440934 36.759938 35.2547719 36.4038254 35.8576747 36.1392056 36.5304907 36.0043324 37.185632 35.899431 37.6726675 35.8213465 38.1813053 35.8840507 38.6785529 35.8840507 38.7103673 34.7017408 38.217833 34.1717127 37.1078634 34.1551493 36.3513873 34.144107 35.9841468 34.251769 35.0780251 34.7620789M113.356492 36.9797577C113.443687 37.2420113 113.53913 37.7992507 113.800323 38.262631 114.523806 39.5439268 116.31916 39.571138 117.132588 38.3513634 117.801084 37.3492789 117.750416 35.8376732 117.015935 34.8947437 116.294416 33.9675887 114.944071 33.8847718 114.120038 34.7208282 113.582335 35.266631 113.388306 35.9484901 113.356492 36.9797577M115.495128 40.2604901C113.481393 40.2608845 112.015966 38.7449408 112.021072 36.666631 112.025785 34.5477014 113.447615 33.0877577 115.501412 33.0924901 117.53125 33.0968282 118.945617 34.5737296 118.957793 36.7009408 118.969183 38.7374479 117.488438 40.2600958 115.495128 40.2604901M43.343214 40.0976958L42.1012734 40.0976958 42.1012734 33.2850197C43.2733008 33.1351606 43.2733008 33.1351606 43.3479272 34.044569 43.7764399 33.7850761 44.2002393 33.4076676 44.6935592 33.251893 46.1731259 32.7825972 47.9221332 33.2952732 48.0501764 35.3609634 48.1475835 36.9250197 48.0694222 38.4997239 48.0694222 40.0941465L46.8435853 40.0941465C46.8435853 39.0435549 46.8534045 38.0221465 46.8396576 37.000738 46.8329805 36.4825408 46.8137347 35.9607944 46.7477492 35.4473296 46.6739084 34.8735268 46.4437448 34.3573014 45.8188469 34.2109915 45.1185369 34.0473296 44.4716438 34.1790479 43.9806806 34.7611324 43.4740066 35.3625408 43.3640308 36.0968507 43.3487128 36.8441746 43.3271104 37.9144845 43.343214 38.9855831 43.343214 40.0976958"/>
    <path fill="#0371AF" d="M106.241375,33.3260732 C106.216237,33.7228056 106.195028,34.0493408 106.170283,34.4330592 C105.915768,34.3636507 105.701315,34.2646648 105.482542,34.2544113 C105.037926,34.2342986 104.56503,34.1723831 104.150657,34.2910873 C103.551682,34.463031 103.441313,35.1464676 103.913424,35.5629183 C104.167546,35.7865239 104.492367,35.930862 104.792444,36.098862 C104.982938,36.2057352 105.188357,36.2857915 105.383171,36.3855662 C106.291257,36.8509183 106.711521,37.6002141 106.562268,38.4796507 C106.400447,39.4355944 105.664002,40.1635944 104.671078,40.2330028 C104.083886,40.2736225 103.484911,40.195538 102.895362,40.130862 C102.463707,40.0831437 102.213905,39.8516507 102.342341,39.3606648 C102.384368,39.2017352 102.379262,39.0309746 102.397722,38.8420732 C102.775174,38.9619606 103.09214,39.1161577 103.422853,39.1540169 C103.800698,39.1981859 104.197397,39.1776789 104.573671,39.1133972 C104.944446,39.0495099 105.157328,38.7762141 105.210352,38.3877634 C105.262198,38.0052282 105.072882,37.7386366 104.778697,37.5631437 C104.28145,37.2661859 103.752388,37.0232563 103.25514,36.7262986 C102.57329,36.3185239 102.139279,35.7522141 102.278712,34.8992 C102.418932,34.0450028 102.883186,33.450693 103.737462,33.239707 C104.112951,33.147031 104.512399,33.0937915 104.896921,33.1107493 C105.340752,33.130862 105.780262,33.2479887 106.241375,33.3260732"/>
    <mask id="mobile-logo-f" fill="#fff">
      <use xlink:href="#mobile-logo-e"/>
    </mask>
    <polygon fill="#0371AF" points="90.935 40.086 92.125 40.086 92.125 30.04 90.935 30.04" mask="url(#mobile-logo-f)"/>
    <path fill="#5A7384" d="M122.094891,40.1042423 L120.875731,40.1042423 L120.875731,33.2765803 L122.017122,33.2765803 C122.030477,33.5463268 122.043438,33.8026648 122.055614,34.0471718 C122.399681,33.785707 122.720967,33.525031 123.059928,33.2919606 C123.183651,33.2063831 123.347829,33.1523549 123.499046,33.1377634 C124.744914,33.0182704 124.751591,33.153538 124.597625,34.2743268 C124.507681,34.2668338 124.414987,34.264862 124.325042,34.2510592 C123.440523,34.113031 122.755531,34.4427211 122.449956,35.2921859 C122.246893,35.857707 122.142809,36.4796225 122.109816,37.0826085 C122.055221,38.0693127 122.094891,39.0611437 122.094891,40.1042423" mask="url(#mobile-logo-f)"/>
    <polygon fill="#5A7384" points="108.495 40.096 109.948 40.096 109.948 38.623 108.495 38.623" mask="url(#mobile-logo-f)"/>
  </g>
</svg>
