<svg xmlns="http://www.w3.org/2000/svg" width="24" height="24" viewBox="0 0 24 24">
  <path fill="#FFF" fill-rule="evenodd" d="M18.2204986,16.1058414 C17.4843697,15.0415675 16.5928532,14.350119 15.3171842,13.9586156 C15.3171842,13.9586156 14.355037,13.4967955 11.8409763,13.4967955 C9.32652314,13.4967955 8.36398357,13.9586156 8.36398357,13.9586156 C7.08870693,14.3541476 6.19679807,15.0412012 5.45988437,16.1058414 C5.16833652,16.5248123 5.01059461,17.3675151 5,17.8176158 C5.00392393,17.9348105 5,18.070683 5,18.2061893 L5,18.9826039 L5,18.4468046 C5,19.3052554 5.6278285,20 6.40241191,20 L17.2771863,20 C18.0521621,20 18.6795982,19.3052554 18.6795982,18.4468046 L18.6795982,18.9826039 L18.6795982,18.2061893 C18.6795982,18.070683 18.6768514,17.9348105 18.6795982,17.8176158 C18.669396,17.3675151 18.5120465,16.5244461 18.2204986,16.1058414 M8.00729851,7.60520051 C8.00729851,9.59531221 9.33633296,12.5182201 11.8409763,12.5182201 C14.3012792,12.5182201 15.6730845,9.59494598 15.6730845,7.60520051 C15.6730845,5.61545504 13.9575431,4 11.8409763,4 C9.72362466,4 8.00729851,5.61545504 8.00729851,7.60520051"/>
</svg>
