<svg xmlns="http://www.w3.org/2000/svg" viewBox="0 0 24 24">
  <path fill-rule="evenodd" d="M16.7138194,15.7250251 C16.1694596,14.9040868 15.5101922,14.3707311 14.566848,14.0687411 C14.566848,14.0687411 13.85535,13.7125115 11.9962278,13.7125115 C10.1368154,13.7125115 9.4250272,14.0687411 9.4250272,14.0687411 C8.48197316,14.3738386 7.82241567,14.9038043 7.27747552,15.7250251 C7.06187885,16.0482025 6.94523032,16.6982297 6.93739572,17.0454194 C6.94029742,17.1358186 6.93739572,17.2406253 6.93739572,17.3451494 L6.93739572,17.9440445 L6.93739572,17.5307504 C6.93739572,18.192925 7.40166848,18.7288231 7.974465,18.7288231 L16.0162495,18.7288231 C16.5893362,18.7288231 17.0533188,18.192925 17.0533188,17.5307504 L17.0533188,17.9440445 L17.0533188,17.3451494 C17.0533188,17.2406253 17.0512876,17.1358186 17.0533188,17.0454194 C17.0457744,16.6982297 16.929416,16.04792 16.7138194,15.7250251 M9.16126224,9.16797104 C9.16126224,7.63316104 10.4304679,6.3870637 11.9962278,6.3870637 C13.5614073,6.3870637 14.8300326,7.63316104 14.8300326,9.16797104 C14.8300326,10.702781 13.8155967,12.9576777 11.9962278,12.9576777 C10.1440696,12.9576777 9.16126224,10.7030635 9.16126224,9.16797104 Z M8.86935074,13.3664518 C7.69677185,13.7557337 6.87094668,14.4227107 6.18904606,15.4512848 C6.01436344,15.7125952 5.89162133,16.1428392 5.82256075,16.5346635 L0.969459557,16.5346635 C0.43380486,16.5346635 0,16.0337951 0,15.4151251 L0,15.241954 C0,15.1442098 0.00261153428,15.0464656 0,14.9617163 C0.00754443235,14.6371265 0.116358361,14.0294739 0.318026841,13.7274839 C0.826985854,12.9602201 1.44359811,12.4647192 2.32484585,12.1799615 C2.32484585,12.1799615 2.98991658,11.8468967 4.72803772,11.8468967 C6.46528836,11.8468967 7.13035909,12.1799615 7.13035909,12.1799615 C7.86420022,12.4144346 8.41233225,12.8017389 8.86935074,13.3664518 Z M4.72774755,11.1412175 C2.99688067,11.1412175 2.07820094,9.03378463 2.07791077,7.59926132 C2.07791077,6.16473801 3.26412768,5 4.72774755,5 C6.19020675,5 7.37613348,6.16473801 7.37613348,7.59926132 C7.37613348,9.03350213 6.42814654,11.1412175 4.72774755,11.1412175 Z M15.1306493,13.3664518 C15.5876678,12.8017389 16.1357998,12.4144346 16.8696409,12.1799615 C16.8696409,12.1799615 17.5344215,11.8468967 19.2719623,11.8468967 C21.0097933,11.8468967 21.6751542,12.1799615 21.6751542,12.1799615 C22.5566921,12.4647192 23.1730141,12.9602201 23.6819732,13.7274839 C23.8836416,14.0294739 23.9924556,14.6371265 24,14.9617163 C23.9973885,15.0464656 24,15.1442098 24,15.241954 L24,15.4151251 C24,16.0337951 23.5661951,16.5346635 23.0305404,16.5346635 L18.1777294,16.5346635 C18.1086688,16.1428392 17.9859267,15.7125952 17.8112441,15.4512848 C17.1290533,14.4227107 16.3032281,13.7557337 15.1306493,13.3664518 Z M19.2722524,11.1412175 C17.5718535,11.1412175 16.6238665,9.03350213 16.6238665,7.59926132 C16.6238665,6.16473801 17.8097933,5 19.2722524,5 C20.7358723,5 21.9220892,6.16473801 21.9220892,7.59926132 C21.9220892,9.03378463 21.0034095,11.1412175 19.2722524,11.1412175 Z"/>
</svg>
