<svg xmlns="http://www.w3.org/2000/svg" width="24" height="24" viewBox="0 0 24 24">
  <path fill="#1767A5" fill-rule="evenodd" d="M12.8147455,5 C8.9493458,5 7,7.77314274 7,10.0837408 C7,11.4834165 7.52912838,12.7279661 8.66601066,13.1919274 C8.85301185,13.2691362 9.01876291,13.1940524 9.07401326,12.9886344 C9.11155517,12.8455502 9.20222242,12.4850062 9.23905599,12.3355469 C9.29430634,12.1315456 9.27163953,12.0592951 9.12218024,11.8815023 C8.79492815,11.4954582 8.58596848,10.99608 8.58596848,10.2856171 C8.58596848,8.22931232 10.1230616,6.38905055 12.5902024,6.38905055 C14.7754247,6.38905055 15.9767657,7.72426742 15.9767657,9.50644549 C15.9767657,11.8531688 14.9376341,13.8336815 13.3962909,13.8336815 C12.5455771,13.8336815 11.9073647,13.1288853 12.1127827,12.2654215 C12.3571593,11.2347899 12.8317456,10.1212828 12.8317456,9.37823634 C12.8317456,8.71310708 12.474035,8.1577702 11.7324053,8.1577702 C10.8625664,8.1577702 10.1634369,9.05735928 10.1634369,10.2629503 C10.1634369,11.0322052 10.4233969,11.5507086 10.4233969,11.5507086 C10.4233969,11.5507086 9.53230786,15.3240244 9.37576519,15.9856119 C9.06551321,17.3017037 9.3290149,18.914589 9.35239005,19.07609 C9.3665568,19.1738407 9.48909925,19.1972158 9.54576628,19.1228403 C9.62439178,19.0187147 10.6621068,17.7401648 11.0134423,16.4601983 C11.1147346,16.0982376 11.5864877,14.2232673 11.5864877,14.2232673 C11.8698228,14.7637291 12.6957448,15.2376071 13.5755004,15.2376071 C16.1892671,15.2376071 17.9657785,12.8533419 17.9657785,9.66157148 C17.9664868,7.24826438 15.9208071,5 12.8147455,5"/>
</svg>
