<svg xmlns="http://www.w3.org/2000/svg" width="24" height="24" viewBox="0 0 24 24">
  <path fill="#1466A9" fill-rule="evenodd" d="M8,19 C4.12765957,19 1,15.8723404 1,12 C1,8.12765957 4.12765957,5 8,5 C9.93617021,5 11.5744681,5.74468085 12.7659574,6.78723404 L10.8297872,8.57446809 C10.2340426,8.12765957 9.34042553,7.53191489 8,7.53191489 C5.61702128,7.53191489 3.68085106,9.46808511 3.68085106,12 C3.68085106,14.5319149 5.61702128,16.4680851 8,16.4680851 C10.8297872,16.4680851 11.8723404,14.5319149 12.0212766,13.4893617 L8,13.4893617 L8,11.106383 L14.7021277,11.106383 C14.7021277,11.4042553 14.8510638,11.8510638 14.8510638,12.2978723 C14.7021277,16.1702128 12.0212766,19 8,19 Z M21.106383,13.0425532 L21.106383,14.9787234 L19.0212766,14.9787234 L19.0212766,12.893617 L16.9361702,12.893617 L16.9361702,10.8085106 L19.0212766,10.8085106 L19.0212766,9.0212766 L21.106383,9.0212766 L21.106383,11.106383 L23.1914894,11.106383 L23.1914894,13.1914894 L21.106383,13.1914894 L21.106383,13.0425532 Z"/>
</svg>
