<svg xmlns="http://www.w3.org/2000/svg" width="24" height="24" viewBox="0 0 24 24">
  <path fill="#1466A9" fill-rule="evenodd" d="M9.31696113,18.7409297 C7.35803086,18.7409297 5.53455853,18.1659438 4,17.1817424 C4.27186315,17.2139492 4.54656807,17.2300526 4.82695654,17.2300526 C6.45245187,17.2300526 7.94817281,16.6759065 9.13508753,15.7456987 C7.61663239,15.717281 6.33783361,14.7150817 5.8945167,13.337768 C6.10670258,13.3775529 6.32362474,13.3983926 6.54717771,13.3983926 C6.863562,13.3983926 7.16952645,13.3557659 7.46033476,13.2771435 C5.87462428,12.9579174 4.67918424,11.5569223 4.67918424,9.87553874 L4.67918424,9.83196486 C5.14618261,10.0924609 5.68043632,10.2487585 6.24973859,10.2667564 C5.32047814,9.6444077 4.70665473,8.58253109 4.70665473,7.37951298 C4.70665473,6.74390263 4.87716123,6.14807712 5.17649487,5.6346631 C6.88819072,7.73473486 9.44294649,9.11489028 12.3273482,9.25982081 C12.2686182,9.00595557 12.2364114,8.74072323 12.2364114,8.46980734 C12.2364114,6.55445096 13.7899151,5 15.7052715,5 C16.7027345,5 17.6035772,5.42152997 18.2363458,6.09597791 C19.0273065,5.94062754 19.7699571,5.65171375 20.4387214,5.25386524 C20.1791727,6.06282387 19.6297628,6.74295537 18.9136355,7.1720634 C19.6146067,7.08870467 20.2843183,6.90209477 20.9066671,6.62644259 C20.4415632,7.32078296 19.854263,7.93271186 19.1750788,8.42149717 C19.1826569,8.57116399 19.1854986,8.72083081 19.1854986,8.87049763 C19.1845514,13.4552281 15.6967461,18.7409297 9.31696113,18.7409297"/>
</svg>
